<?xml version="1.0" encoding="UTF-8" standalone="no"?>
<svg
   xmlns:ns7="http://www.iki.fi/pav/software/textext/"
   xmlns:osb="http://www.openswatchbook.org/uri/2009/osb"
   xmlns:dc="http://purl.org/dc/elements/1.1/"
   xmlns:cc="http://creativecommons.org/ns#"
   xmlns:rdf="http://www.w3.org/1999/02/22-rdf-syntax-ns#"
   xmlns:svg="http://www.w3.org/2000/svg"
   xmlns="http://www.w3.org/2000/svg"
   xmlns:xlink="http://www.w3.org/1999/xlink"
   xmlns:sodipodi="http://sodipodi.sourceforge.net/DTD/sodipodi-0.dtd"
   xmlns:inkscape="http://www.inkscape.org/namespaces/inkscape"
   sodipodi:docname="3Dcube.svg"
   inkscape:version="1.0 (4035a4fb49, 2020-05-01)"
   width="100mm"
   height="100mm"
   viewBox="0 0 100 100"
   version="1.1"
   id="svg8">
  <defs
     id="defs2">
    <marker
       inkscape:stockid="Arrow1Mend"
       orient="auto"
       refY="0"
       refX="0"
       id="marker3316"
       style="overflow:visible"
       inkscape:isstock="true">
      <path
         id="path3314"
         d="M 0,0 5,-5 -12.5,0 5,5 Z"
         style="fill:#000000;fill-opacity:1;fill-rule:evenodd;stroke:#000000;stroke-width:1pt;stroke-opacity:1"
         transform="matrix(-0.4,0,0,-0.4,-4,0)" />
    </marker>
    <marker
       inkscape:collect="always"
       inkscape:isstock="true"
       style="overflow:visible"
       id="Arrow1Mend"
       refX="0"
       refY="0"
       orient="auto"
       inkscape:stockid="Arrow1Mend">
      <path
         transform="matrix(-0.4,0,0,-0.4,-4,0)"
         style="fill:#000000;fill-opacity:1;fill-rule:evenodd;stroke:#000000;stroke-width:1pt;stroke-opacity:1"
         d="M 0,0 5,-5 -12.5,0 5,5 Z"
         id="path3015" />
    </marker>
    <marker
       inkscape:isstock="true"
       style="overflow:visible"
       id="Arrow1Mstart"
       refX="0"
       refY="0"
       orient="auto"
       inkscape:stockid="Arrow1Mstart">
      <path
         transform="matrix(0.4,0,0,0.4,4,0)"
         style="fill:#000000;fill-opacity:1;fill-rule:evenodd;stroke:#000000;stroke-width:1pt;stroke-opacity:1"
         d="M 0,0 5,-5 -12.5,0 5,5 Z"
         id="path3012" />
    </marker>
    <linearGradient
       osb:paint="solid"
       id="linearGradient3002">
      <stop
         id="stop3000"
         offset="0"
         style="stop-color:#000000;stop-opacity:1;" />
    </linearGradient>
    <inkscape:perspective
       id="perspective949"
       inkscape:persp3d-origin="427.07489 : -2323.3804 : 1"
       inkscape:vp_z="1079.149 : -1989.5848 : 1"
       inkscape:vp_y="0 : 6743.3446 : 0"
       inkscape:vp_x="-224.99932 : -1989.5848 : 1"
       sodipodi:type="inkscape:persp3d" />
    <inkscape:perspective
       id="perspective877"
       inkscape:persp3d-origin="89.87307 : 659.35194 : 1"
       inkscape:vp_z="262.40102 : 571.03519 : 1"
       inkscape:vp_y="0 : -1784.1766 : 0"
       inkscape:vp_x="-82.654892 : 571.03519 : 1"
       sodipodi:type="inkscape:persp3d" />
    <inkscape:perspective
       id="perspective833"
       inkscape:persp3d-origin="-15.385915 : 90.241831 : 1"
       inkscape:vp_z="-102.38327 : 54.395242 : 1"
       inkscape:vp_y="397.45185 : -1415.3679 : 0"
       inkscape:vp_x="249.29847 : 123.17234 : 1"
       sodipodi:type="inkscape:persp3d" />
    <linearGradient
       gradientTransform="matrix(0.82425543,0,0,0.88997882,-38.05576,-131.04912)"
       gradientUnits="userSpaceOnUse"
       y2="180.83327"
       x2="167.25446"
       y1="180.83327"
       x1="106.83497"
       id="linearGradient3004"
       xlink:href="#linearGradient3002"
       inkscape:collect="always" />
    <defs
       id="id-d0d2d765-b205-4f50-b990-63e3ec5710e5">
      <g
         id="id-7ed63fa7-072e-42b1-9d3a-da628cb85c40">
        <symbol
           overflow="visible"
           id="id-b218c534-1d7c-4f46-a09a-be5b919e41c3">
          <path
             style="stroke:none"
             d=""
             id="id-9632871a-6fc3-40f4-bdca-4d3e17a40f97" />
        </symbol>
        <symbol
           overflow="visible"
           id="id-6d29bf3c-953d-4018-a196-7c5290b5617e">
          <path
             style="stroke:none"
             d="m 4.5,-4.296875 c 0,-0.046875 -0.03125,-0.09375 -0.09375,-0.09375 -0.109375,0 -0.515625,0.390625 -0.671875,0.6875 C 3.515625,-4.25 3.125,-4.40625 2.796875,-4.40625 c -1.171875,0 -2.390625,1.46875 -2.390625,2.921875 0,0.96875 0.578125,1.59375 1.3125,1.59375 0.421875,0 0.8125,-0.234375 1.171875,-0.59375 -0.09375,0.34375 -0.421875,1.6875 -0.453125,1.78125 -0.078125,0.28125 -0.15625,0.3125 -0.71875,0.328125 -0.125,0 -0.21875,0 -0.21875,0.203125 0,0 0,0.109375 0.125,0.109375 0.3125,0 0.671875,-0.03125 1,-0.03125 0.328125,0 0.6875,0.03125 1.03125,0.03125 0.046875,0 0.171875,0 0.171875,-0.203125 C 3.828125,1.625 3.734375,1.625 3.5625,1.625 3.09375,1.625 3.09375,1.5625 3.09375,1.46875 3.09375,1.390625 3.109375,1.328125 3.125,1.25 Z m -2.75,4.1875 c -0.609375,0 -0.640625,-0.765625 -0.640625,-0.9375 0,-0.484375 0.28125,-1.5625 0.453125,-1.984375 0.3125,-0.734375 0.828125,-1.15625 1.234375,-1.15625 0.65625,0 0.796875,0.8125 0.796875,0.875 0,0.0625 -0.546875,2.25 -0.578125,2.28125 C 2.859375,-0.75 2.296875,-0.109375 1.75,-0.109375 Z m 0,0"
             id="id-744fef00-301b-4fae-8c4d-b25d9f8d010c" />
        </symbol>
        <symbol
           overflow="visible"
           id="id-d44bcaa3-c88c-4320-ab2a-31db1e3fe537">
          <path
             style="stroke:none"
             d=""
             id="id-ae3b6bfa-697b-497b-9e15-3ae162d5d681" />
        </symbol>
        <symbol
           overflow="visible"
           id="id-6b99999f-2d17-4ba8-a819-e23affc3822f">
          <path
             style="stroke:none"
             d="M 1.734375,-0.734375 C 1.671875,-0.5 1.4375,-0.125 1.078125,-0.125 c -0.015625,0 -0.234375,0 -0.375,-0.09375 0.28125,-0.09375 0.3125,-0.34375 0.3125,-0.390625 0,-0.15625 -0.125,-0.25 -0.28125,-0.25 -0.203125,0 -0.40625,0.15625 -0.40625,0.421875 0,0.34375 0.390625,0.5 0.734375,0.5 0.328125,0 0.609375,-0.1875 0.78125,-0.484375 C 2.015625,-0.0625 2.390625,0.0625 2.671875,0.0625 c 0.8125,0 1.234375,-0.859375 1.234375,-1.0625 0,-0.09375 -0.09375,-0.09375 -0.109375,-0.09375 -0.109375,0 -0.109375,0.046875 -0.140625,0.125 -0.140625,0.484375 -0.5625,0.84375 -0.953125,0.84375 -0.28125,0 -0.421875,-0.1875 -0.421875,-0.453125 0,-0.1875 0.171875,-0.8125 0.359375,-1.59375 C 2.78125,-2.703125 3.09375,-2.875 3.328125,-2.875 c 0.015625,0 0.21875,0 0.375,0.09375 -0.21875,0.0625 -0.3125,0.265625 -0.3125,0.390625 0,0.140625 0.125,0.25 0.28125,0.25 0.15625,0 0.390625,-0.125 0.390625,-0.421875 0,-0.390625 -0.453125,-0.515625 -0.71875,-0.515625 -0.359375,0 -0.640625,0.234375 -0.78125,0.5 -0.125,-0.28125 -0.453125,-0.5 -0.84375,-0.5 C 0.9375,-3.078125 0.5,-2.21875 0.5,-2 c 0,0.078125 0.09375,0.078125 0.109375,0.078125 0.09375,0 0.09375,-0.015625 0.140625,-0.109375 C 0.921875,-2.578125 1.359375,-2.875 1.703125,-2.875 1.9375,-2.875 2.125,-2.75 2.125,-2.421875 2.125,-2.28125 2.03125,-1.9375 1.96875,-1.6875 Z m 0,0"
             id="id-918df1a0-fe1d-4a3a-913c-d02bd37b9acc" />
        </symbol>
        <symbol
           overflow="visible"
           id="id-231b12df-cf8a-4e03-b24b-a3f9bd9424a9">
          <path
             style="stroke:none"
             d="M 3.875,-2.625 C 3.90625,-2.71875 3.90625,-2.734375 3.90625,-2.78125 3.90625,-2.921875 3.796875,-3 3.671875,-3 3.59375,-3 3.46875,-2.96875 3.390625,-2.84375 3.359375,-2.796875 3.3125,-2.578125 3.28125,-2.4375 L 3.125,-1.859375 c -0.03125,0.171875 -0.25,1.046875 -0.28125,1.125 0,0 -0.3125,0.609375 -0.84375,0.609375 -0.484375,0 -0.484375,-0.453125 -0.484375,-0.578125 0,-0.375 0.15625,-0.8125 0.375,-1.359375 C 1.96875,-2.28125 2,-2.359375 2,-2.484375 2,-2.8125 1.71875,-3.078125 1.34375,-3.078125 0.640625,-3.078125 0.328125,-2.125 0.328125,-2 c 0,0.078125 0.09375,0.078125 0.125,0.078125 0.09375,0 0.09375,-0.03125 0.125,-0.109375 C 0.75,-2.609375 1.046875,-2.875 1.328125,-2.875 1.4375,-2.875 1.5,-2.796875 1.5,-2.640625 c 0,0.171875 -0.0625,0.3125 -0.09375,0.40625 C 1.0625,-1.375 1,-1.125 1,-0.8125 1,-0.703125 1,-0.375 1.265625,-0.140625 1.484375,0.03125 1.78125,0.0625 1.96875,0.0625 2.25,0.0625 2.5,-0.03125 2.71875,-0.25 2.640625,0.140625 2.5625,0.4375 2.265625,0.78125 2.078125,1 1.796875,1.21875 1.421875,1.21875 c -0.046875,0 -0.375,0 -0.515625,-0.21875 0.375,-0.046875 0.375,-0.375 0.375,-0.390625 0,-0.21875 -0.203125,-0.265625 -0.265625,-0.265625 -0.171875,0 -0.40625,0.140625 -0.40625,0.46875 0,0.34375 0.328125,0.609375 0.828125,0.609375 C 2.140625,1.421875 3,0.875 3.21875,0 Z m 0,0"
             id="id-968f599b-7e36-47eb-8c2d-f5dce37a7b32" />
        </symbol>
        <symbol
           overflow="visible"
           id="id-1e5c9319-f639-4732-b9f6-3f7aacf61045">
          <path
             style="stroke:none"
             d="m 1.171875,-0.609375 c 0.1875,-0.1875 0.3125,-0.3125 0.890625,-0.796875 0.15625,-0.109375 0.671875,-0.53125 0.875,-0.71875 0.421875,-0.421875 0.6875,-0.78125 0.6875,-0.859375 0,-0.09375 -0.078125,-0.09375 -0.109375,-0.09375 -0.0625,0 -0.09375,0.015625 -0.125,0.078125 -0.21875,0.3125 -0.359375,0.421875 -0.53125,0.421875 -0.078125,0 -0.1875,0 -0.390625,-0.203125 -0.234375,-0.25 -0.390625,-0.296875 -0.546875,-0.296875 -0.5625,0 -0.9375,0.609375 -0.9375,0.8125 0,0.078125 0.0625,0.09375 0.109375,0.09375 0.09375,0 0.109375,-0.015625 0.125,-0.09375 0.109375,-0.25 0.5,-0.265625 0.609375,-0.265625 0.171875,0 0.34375,0.046875 0.4375,0.0625 0.390625,0.078125 0.4375,0.078125 0.609375,0.078125 -0.171875,0.203125 -0.296875,0.328125 -0.96875,0.84375 -0.546875,0.4375 -0.734375,0.609375 -0.859375,0.75 -0.421875,0.40625 -0.625,0.71875 -0.625,0.78125 0,0.078125 0.09375,0.078125 0.125,0.078125 0.0625,0 0.078125,0 0.109375,-0.0625 0.1875,-0.265625 0.40625,-0.421875 0.640625,-0.421875 0.09375,0 0.1875,0 0.375,0.171875 0.21875,0.21875 0.359375,0.3125 0.59375,0.3125 C 3,0.0625 3.46875,-0.78125 3.46875,-1.015625 3.46875,-1.09375 3.390625,-1.09375 3.359375,-1.09375 3.265625,-1.09375 3.25,-1.0625 3.21875,-0.984375 3.09375,-0.640625 2.6875,-0.46875 2.34375,-0.46875 2.1875,-0.46875 2,-0.515625 1.828125,-0.546875 1.515625,-0.625 1.453125,-0.625 1.328125,-0.625 c -0.015625,0 -0.109375,0 -0.15625,0.015625 z m 0,0"
             id="id-27f5e696-6100-4a6e-8c91-2172008b9bd2" />
        </symbol>
        <symbol
           overflow="visible"
           id="id-f0c005da-f63c-4c24-b772-e7d425b43c6a">
          <path
             style="stroke:none"
             d=""
             id="id-f5a060cd-115f-4ab4-a052-5d0b53485abb" />
        </symbol>
        <symbol
           overflow="visible"
           id="id-e20e7c3d-1deb-4259-ae79-ff3e141ae0ea">
          <path
             style="stroke:none"
             d="m 1.65625,-3.875 v -1.8125 c 0,-0.296875 -0.0625,-0.40625 -0.40625,-0.40625 H 0.53125 c -0.15625,0 -0.40625,0 -0.40625,0.3125 0,0.296875 0.25,0.296875 0.390625,0.296875 H 0.96875 V -0.40625 C 0.96875,-0.203125 0.96875,0 1.3125,0 1.65625,0 1.65625,-0.203125 1.65625,-0.453125 2.0625,-0.03125 2.5,0.0625 2.8125,0.0625 c 1.078125,0 2.046875,-0.953125 2.046875,-2.21875 0,-1.21875 -0.875,-2.203125 -1.9375,-2.203125 C 2.4375,-4.359375 2,-4.171875 1.65625,-3.875 Z m 0,1.96875 V -2.625 c 0,-0.59375 0.578125,-1.125 1.203125,-1.125 0.734375,0 1.3125,0.734375 1.3125,1.59375 0,0.953125 -0.6875,1.609375 -1.390625,1.609375 -0.78125,0 -1.125,-0.875 -1.125,-1.359375 z m 0,0"
             id="id-fdf9f89b-8030-47bf-876d-9957ba59f163" />
        </symbol>
        <symbol
           overflow="visible"
           id="id-92b1eaff-16e3-48f0-b54a-f744ee840600">
          <path
             style="stroke:none"
             d="m 4.65625,-2.15625 c 0,-1.25 -0.921875,-2.234375 -2.046875,-2.234375 -1.109375,0 -2.046875,0.984375 -2.046875,2.234375 0,1.265625 0.953125,2.21875 2.046875,2.21875 1.09375,0 2.046875,-0.953125 2.046875,-2.21875 z M 2.609375,-0.546875 C 1.875,-0.546875 1.25,-1.296875 1.25,-2.21875 c 0,-0.90625 0.65625,-1.5625 1.359375,-1.5625 0.71875,0 1.359375,0.65625 1.359375,1.5625 0,0.921875 -0.625,1.671875 -1.359375,1.671875 z m 0,0"
             id="id-531616d0-ea1a-4ad4-8b0c-238f38cff8a2" />
        </symbol>
        <symbol
           overflow="visible"
           id="id-8745bc27-2f79-4ed0-a98c-fb7ef6fa68d3">
          <path
             style="stroke:none"
             d="M 3.5625,-0.3125 C 3.578125,0 3.78125,0 3.96875,0 H 4.6875 c 0.171875,0 0.421875,0 0.421875,-0.3125 0,-0.296875 -0.265625,-0.296875 -0.40625,-0.296875 H 4.25 v -3.28125 c 0,-0.3125 -0.046875,-0.40625 -0.390625,-0.40625 H 3.125 c -0.15625,0 -0.40625,0 -0.40625,0.3125 0,0.296875 0.265625,0.296875 0.40625,0.296875 h 0.4375 v 2.125 c 0,0.890625 -0.796875,1.015625 -1.125,1.015625 -0.78125,0 -0.78125,-0.328125 -0.78125,-0.65625 v -2.6875 c 0,-0.3125 -0.0625,-0.40625 -0.40625,-0.40625 H 0.53125 c -0.15625,0 -0.40625,0 -0.40625,0.3125 0,0.296875 0.25,0.296875 0.390625,0.296875 H 0.96875 v 2.546875 c 0,0.96875 0.6875,1.203125 1.40625,1.203125 0.421875,0 0.828125,-0.109375 1.1875,-0.375 z m 0,0"
             id="id-43195a75-a28b-4d8e-90b9-3d2b157e8e68" />
        </symbol>
        <symbol
           overflow="visible"
           id="id-a2948449-06c6-45da-94cb-67adc6726e68">
          <path
             style="stroke:none"
             d="m 1.65625,-3.828125 c 0,-0.3125 0,-0.46875 -0.40625,-0.46875 H 0.53125 c -0.15625,0 -0.40625,0 -0.40625,0.3125 0,0.296875 0.25,0.296875 0.390625,0.296875 H 0.96875 v 3.078125 h -0.4375 c -0.15625,0 -0.40625,0 -0.40625,0.3125 C 0.125,0 0.375,0 0.515625,0 h 1.59375 C 2.25,0 2.5,0 2.5,-0.296875 c 0,-0.3125 -0.25,-0.3125 -0.40625,-0.3125 H 1.65625 V -2.375 c 0,-1 0.734375,-1.375 1.25,-1.375 0.515625,0 0.65625,0.28125 0.65625,0.875 v 2.265625 h -0.375 c -0.171875,0 -0.421875,0 -0.421875,0.3125 C 2.765625,0 3.046875,0 3.1875,0 h 1.515625 c 0.140625,0 0.40625,0 0.40625,-0.296875 0,-0.3125 -0.25,-0.3125 -0.421875,-0.3125 H 4.25 v -2.3125 c 0,-1 -0.5,-1.4375 -1.296875,-1.4375 -0.65625,0 -1.109375,0.34375 -1.296875,0.53125 z m 0,0"
             id="id-3adb182e-5e0e-4d59-ab4a-cb53b7536066" />
        </symbol>
        <symbol
           overflow="visible"
           id="id-2be9f5c2-f713-4ae1-afee-663e262e8309">
          <path
             style="stroke:none"
             d="m 3.5625,-0.5 c 0,0.359375 0,0.5 0.40625,0.5 H 4.6875 c 0.171875,0 0.421875,0 0.421875,-0.3125 0,-0.296875 -0.265625,-0.296875 -0.40625,-0.296875 H 4.25 V -5.6875 c 0,-0.296875 -0.046875,-0.40625 -0.390625,-0.40625 H 3.125 c -0.15625,0 -0.40625,0 -0.40625,0.3125 0,0.296875 0.265625,0.296875 0.40625,0.296875 H 3.5625 V -3.90625 C 3.234375,-4.203125 2.828125,-4.359375 2.40625,-4.359375 c -1.09375,0 -2.046875,0.953125 -2.046875,2.21875 0,1.234375 0.890625,2.203125 1.953125,2.203125 0.5625,0 0.984375,-0.265625 1.25,-0.5625 z m 0,-2.140625 V -1.9375 c 0,0.5625 -0.4375,1.390625 -1.203125,1.390625 -0.71875,0 -1.3125,-0.703125 -1.3125,-1.59375 C 1.046875,-3.09375 1.75,-3.75 2.4375,-3.75 c 0.640625,0 1.125,0.5625 1.125,1.109375 z m 0,0"
             id="id-f85dbe5f-ab66-4755-b941-30e33ac14187" />
        </symbol>
        <symbol
           overflow="visible"
           id="id-d4c748e1-e8c7-411f-81ba-26a60f0983c0">
          <path
             style="stroke:none"
             d="M 3.65625,-0.3125 C 3.875,-0.015625 4.34375,0 4.71875,0 c 0.28125,0 0.5,0 0.5,-0.3125 0,-0.296875 -0.25,-0.296875 -0.390625,-0.296875 -0.421875,0 -0.515625,-0.046875 -0.59375,-0.078125 v -2.15625 c 0,-0.703125 -0.546875,-1.546875 -1.984375,-1.546875 -0.421875,0 -1.4375,0 -1.4375,0.734375 0,0.296875 0.203125,0.453125 0.4375,0.453125 0.15625,0 0.4375,-0.09375 0.4375,-0.453125 0,-0.078125 0.015625,-0.09375 0.21875,-0.109375 0.140625,-0.015625 0.265625,-0.015625 0.359375,-0.015625 0.75,0 1.265625,0.3125 1.265625,1.015625 -1.75,0.03125 -2.984375,0.53125 -2.984375,1.484375 0,0.6875 0.625,1.34375 1.640625,1.34375 0.375,0 1,-0.078125 1.46875,-0.375 z m -0.125,-1.859375 v 0.84375 c 0,0.21875 0,0.4375 -0.375,0.609375 -0.359375,0.171875 -0.8125,0.171875 -0.890625,0.171875 -0.625,0 -1.03125,-0.34375 -1.03125,-0.734375 0,-0.484375 0.859375,-0.859375 2.296875,-0.890625 z m 0,0"
             id="id-c568ff6b-0b67-4865-9caf-2f5d5b42556d" />
        </symbol>
        <symbol
           overflow="visible"
           id="id-d9ea59fd-fc0e-4091-9186-88988f14ceb6">
          <path
             style="stroke:none"
             d="M 2.21875,-1.859375 C 2.21875,-2.796875 2.796875,-3.75 4,-3.75 c 0.015625,0.234375 0.1875,0.4375 0.4375,0.4375 0.21875,0 0.421875,-0.15625 0.421875,-0.421875 0,-0.203125 -0.125,-0.625 -0.953125,-0.625 -0.5,0 -1.140625,0.1875 -1.6875,0.8125 v -0.34375 c 0,-0.3125 -0.0625,-0.40625 -0.40625,-0.40625 H 0.71875 c -0.15625,0 -0.40625,0 -0.40625,0.296875 0,0.3125 0.25,0.3125 0.40625,0.3125 h 0.8125 v 3.078125 h -0.8125 c -0.15625,0 -0.40625,0 -0.40625,0.296875 C 0.3125,0 0.5625,0 0.71875,0 H 3.3125 c 0.15625,0 0.421875,0 0.421875,-0.296875 0,-0.3125 -0.265625,-0.3125 -0.421875,-0.3125 H 2.21875 Z m 0,0"
             id="id-85e10d38-de75-4af0-b98b-c5abd7bb1c9d" />
        </symbol>
        <symbol
           overflow="visible"
           id="id-266d3b13-3c2f-468b-ac06-708e36e40f19">
          <path
             style="stroke:none"
             d="m 4.28125,-3.6875 h 0.296875 c 0.15625,0 0.40625,0 0.40625,-0.296875 0,-0.3125 -0.234375,-0.3125 -0.40625,-0.3125 h -1.15625 c -0.15625,0 -0.40625,0 -0.40625,0.296875 0,0.3125 0.25,0.3125 0.40625,0.3125 h 0.28125 l -0.71875,2.125 C 2.84375,-1.203125 2.796875,-1.015625 2.71875,-0.703125 2.65625,-0.890625 2.578125,-1.109375 2.5,-1.296875 L 1.578125,-3.6875 h 0.25 c 0.140625,0 0.390625,0 0.390625,-0.296875 0,-0.3125 -0.234375,-0.3125 -0.390625,-0.3125 H 0.65625 c -0.15625,0 -0.390625,0 -0.390625,0.3125 0,0.296875 0.25,0.296875 0.390625,0.296875 h 0.3125 L 2.375,-0.125 c 0.046875,0.09375 0.046875,0.109375 0.046875,0.125 0,0.015625 -0.25,0.84375 -0.375,1.09375 C 1.75,1.640625 1.390625,1.65625 1.25,1.671875 c 0,-0.015625 0.046875,-0.09375 0.046875,-0.21875 0,-0.25 -0.1875,-0.4375 -0.421875,-0.4375 -0.28125,0 -0.453125,0.1875 -0.453125,0.4375 0,0.421875 0.34375,0.8125 0.828125,0.8125 1,0 1.453125,-1.3125 1.484375,-1.421875 z m 0,0"
             id="id-1102065a-28a0-4752-bfe1-b5daeac75b65" />
        </symbol>
        <symbol
           overflow="visible"
           id="id-28fac186-96fe-4265-b687-caadc072f578">
          <path
             style="stroke:none"
             d="M 3.234375,-0.625 C 3.234375,-0.984375 2.9375,-1.25 2.625,-1.25 2.25,-1.25 2,-0.9375 2,-0.625 2,-0.265625 2.296875,0 2.609375,0 c 0.375,0 0.625,-0.3125 0.625,-0.625 z m 0,0"
             id="id-fb690fc9-452d-4f56-9f58-89de2ec6faaf" />
        </symbol>
        <symbol
           overflow="visible"
           id="id-2af4f76a-e204-4f16-ace3-fe6d8a6675b5">
          <path
             style="stroke:none"
             d="m 4.234375,-1.90625 c 0.203125,0 0.390625,0 0.390625,-0.359375 0,-1.140625 -0.640625,-2.125 -1.9375,-2.125 -1.1875,0 -2.140625,1 -2.140625,2.234375 0,1.203125 1.015625,2.21875 2.296875,2.21875 1.3125,0 1.78125,-0.90625 1.78125,-1.15625 0,-0.265625 -0.28125,-0.265625 -0.34375,-0.265625 -0.1875,0 -0.265625,0.03125 -0.328125,0.21875 -0.21875,0.5 -0.765625,0.59375 -1.046875,0.59375 -0.75,0 -1.484375,-0.5 -1.65625,-1.359375 z M 1.265625,-2.5 C 1.40625,-3.234375 2,-3.78125 2.6875,-3.78125 c 0.515625,0 1.140625,0.25 1.234375,1.28125 z m 0,0"
             id="id-a6e51c57-c7e1-491d-afad-aab24212dae2" />
        </symbol>
        <symbol
           overflow="visible"
           id="id-0aeff868-0839-4e69-a124-a66a09577af2">
          <path
             style="stroke:none"
             d="m 2.328125,-1.75 c -0.546875,0 -0.96875,-0.46875 -0.96875,-1 0,-0.5625 0.4375,-1.015625 0.96875,-1.015625 0.53125,0 0.953125,0.46875 0.953125,1 0,0.578125 -0.4375,1.015625 -0.953125,1.015625 z m -0.90625,0.34375 c 0.03125,0.015625 0.40625,0.25 0.90625,0.25 0.90625,0 1.640625,-0.71875 1.640625,-1.609375 C 3.96875,-3.0625 3.875,-3.34375 3.703125,-3.625 3.921875,-3.75 4.15625,-3.78125 4.28125,-3.796875 c 0.0625,0.265625 0.296875,0.34375 0.390625,0.34375 0.171875,0 0.40625,-0.125 0.40625,-0.421875 0,-0.21875 -0.1875,-0.53125 -0.734375,-0.53125 -0.109375,0 -0.59375,0.015625 -1.046875,0.34375 C 3.125,-4.171875 2.78125,-4.359375 2.328125,-4.359375 c -0.9375,0 -1.65625,0.75 -1.65625,1.59375 C 0.671875,-2.328125 0.84375,-2 1,-1.8125 c -0.109375,0.15625 -0.203125,0.375 -0.203125,0.671875 0,0.359375 0.140625,0.609375 0.234375,0.71875 -0.734375,0.453125 -0.734375,1.125 -0.734375,1.234375 0,0.859375 1.03125,1.46875 2.3125,1.46875 C 3.890625,2.28125 4.9375,1.671875 4.9375,0.8125 4.9375,0.453125 4.75,-0.046875 4.25,-0.3125 4.109375,-0.390625 3.703125,-0.609375 2.796875,-0.609375 h -0.6875 c -0.078125,0 -0.21875,0 -0.296875,-0.015625 -0.140625,0 -0.203125,0 -0.328125,-0.140625 -0.109375,-0.140625 -0.125,-0.34375 -0.125,-0.359375 0,-0.046875 0.03125,-0.1875 0.0625,-0.28125 z m 1.1875,3.09375 c -1,0 -1.734375,-0.4375 -1.734375,-0.875 0,-0.171875 0.078125,-0.5 0.40625,-0.6875 0.25,-0.171875 0.328125,-0.171875 1.0625,-0.171875 0.890625,0 2.015625,0 2.015625,0.859375 0,0.4375 -0.75,0.875 -1.75,0.875 z m 0,0"
             id="id-58ea221f-0bb3-4583-aecf-4336775c8287" />
        </symbol>
        <symbol
           overflow="visible"
           id="id-a75db290-a85b-4773-90e3-f1008d32ef08">
          <path
             style="stroke:none"
             d="m 3.078125,-3.890625 c 0,-0.3125 -0.0625,-0.40625 -0.390625,-0.40625 H 1.265625 c -0.15625,0 -0.40625,0 -0.40625,0.296875 0,0.3125 0.25,0.3125 0.40625,0.3125 h 1.125 v 3.078125 H 1.1875 c -0.15625,0 -0.40625,0 -0.40625,0.3125 C 0.78125,0 1.03125,0 1.1875,0 H 4.125 c 0.15625,0 0.40625,0 0.40625,-0.296875 0,-0.3125 -0.25,-0.3125 -0.40625,-0.3125 H 3.078125 Z m 0,-1.71875 c 0,-0.265625 -0.21875,-0.484375 -0.5,-0.484375 -0.28125,0 -0.5,0.21875 -0.5,0.484375 0,0.28125 0.21875,0.5 0.5,0.5 0.28125,0 0.5,-0.21875 0.5,-0.5 z m 0,0"
             id="id-ac567f1b-e3e9-4c8c-a701-fe7e3c887f0b" />
        </symbol>
      </g>
    </defs>
  </defs>
  <sodipodi:namedview
     showguides="false"
     inkscape:window-maximized="1"
     inkscape:window-y="-8"
     inkscape:window-x="-8"
     inkscape:window-height="837"
     inkscape:window-width="1600"
     showgrid="false"
     inkscape:document-rotation="0"
     inkscape:current-layer="layer1"
     inkscape:document-units="mm"
     inkscape:cy="221.23768"
     inkscape:cx="188.01968"
     inkscape:zoom="1.4"
     inkscape:pageshadow="2"
     inkscape:pageopacity="0.0"
     borderopacity="1.0"
     bordercolor="#666666"
     pagecolor="#ffffff"
     id="base" />
  <metadata
     id="metadata5">
    <rdf:RDF>
      <cc:Work
         rdf:about="">
        <dc:format>image/svg+xml</dc:format>
        <dc:type
           rdf:resource="http://purl.org/dc/dcmitype/StillImage" />
        <dc:title></dc:title>
      </cc:Work>
    </rdf:RDF>
  </metadata>
  <g
     id="layer1"
     inkscape:groupmode="layer"
     inkscape:label="Layer 1">
    <path
       sodipodi:nodetypes="cccccc"
       id="path2937"
       d="M 14.443337,95.354321 H 68.470619 L 68.079116,35.992343 H 10.528318 l 0.661888,59.304646 z"
       style="fill:none;fill-rule:evenodd;stroke:#000000;stroke-width:0.261918px;stroke-linecap:butt;stroke-linejoin:miter;stroke-opacity:1" />
    <path
       sodipodi:nodetypes="cccc"
       id="path2939"
       d="M 10.528318,35.992343 41.694159,11.200966 91.589377,11.068166 68.079116,35.992343"
       style="fill:none;fill-rule:evenodd;stroke:#000000;stroke-width:0.259779px;stroke-linecap:butt;stroke-linejoin:miter;stroke-opacity:1" />
    <path
       sodipodi:nodetypes="ccc"
       id="path2943"
       d="m 41.694159,11.200966 0.06129,62.577373 -30.56524,21.51865"
       style="fill:none;fill-rule:evenodd;stroke:#000000;stroke-width:0.259779;stroke-linecap:butt;stroke-linejoin:miter;stroke-miterlimit:4;stroke-dasharray:0.259779, 0.779339;stroke-dashoffset:0;stroke-opacity:1" />
    <path
       sodipodi:nodetypes="cc"
       id="path2945"
       d="m 41.755446,73.778339 50.435983,0.07782"
       style="fill:none;fill-rule:evenodd;stroke:#000000;stroke-width:0.259779;stroke-linecap:butt;stroke-linejoin:miter;stroke-miterlimit:4;stroke-dasharray:0.259779, 0.779339;stroke-dashoffset:0;stroke-opacity:1" />
    <path
       sodipodi:nodetypes="ccc"
       id="path2947"
       d="M 68.470619,95.354321 92.191429,73.856133 91.589377,11.068166"
       style="fill:none;fill-rule:evenodd;stroke:#000000;stroke-width:0.232972px;stroke-linecap:butt;stroke-linejoin:miter;stroke-opacity:1" />
    <ellipse
       ry="0.79682499"
       rx="0.82640904"
       cy="73.803574"
       cx="41.735947"
       id="path2964"
       style="fill:#000303;fill-opacity:1;stroke:#00000c;stroke-width:0.259779;stroke-miterlimit:4;stroke-dasharray:none;stroke-dashoffset:0;stroke-opacity:0.453815" />
    <ellipse
       style="fill:#000303;fill-opacity:1;stroke:#00000c;stroke-width:0.259779;stroke-miterlimit:4;stroke-dasharray:none;stroke-dashoffset:0;stroke-opacity:0.453815"
       id="path2964-1"
       cx="68.210052"
       cy="36.042992"
       rx="0.82640904"
       ry="0.79682499" />
    <ellipse
       ry="0.79682499"
       rx="0.82640904"
       cy="56.741745"
       cx="50.156654"
       id="path2964-1-0"
       style="fill:#000303;fill-opacity:1;stroke:#00000c;stroke-width:0.259779;stroke-miterlimit:4;stroke-dasharray:none;stroke-dashoffset:0;stroke-opacity:0.453815" />
    <path
       id="path2996"
       d="M 50.11259,3.0026224 V 56.65695 h 49.692053"
       style="fill:none;fill-rule:evenodd;stroke:url(#linearGradient3004);stroke-width:0.22697;stroke-linecap:butt;stroke-linejoin:miter;stroke-miterlimit:4;stroke-dasharray:0.907875, 0.453937, 0.22697, 0.453937;stroke-dashoffset:0;stroke-opacity:1;marker-start:url(#Arrow1Mstart);marker-end:url(#Arrow1Mend)" />
    <path
       id="path2998"
       d="M 50.127267,56.651823 0.62858315,89.519181"
       style="fill:none;fill-rule:evenodd;stroke:#000000;stroke-width:0.259779;stroke-linecap:butt;stroke-linejoin:miter;stroke-miterlimit:4;stroke-dasharray:1.03912, 0.519559, 0.259779, 0.519559;stroke-dashoffset:0;stroke-opacity:1;marker-end:url(#marker3316)" />
    <g
       transform="matrix(0.27664712,0,0,0.28341508,50.86734,53.083004)"
       ns7:version="1.0.1"
       ns7:texconverter="pdflatex"
       ns7:pdfconverter="inkscape"
       ns7:text="$(0,0,0)$"
       ns7:preamble="C:\\Users\\pc\\AppData\\Roaming\\inkscape\\extensions\\textext\\default_packages.tex"
       ns7:scale="2.0"
       ns7:alignment="middle center"
       ns7:jacobian_sqrt="0.705556"
       id="g3414">
      <defs
         id="id-213f9b8f-a802-43bd-98ef-0a9c74fbfc4e">
        <g
           id="id-61f83c15-8083-45e2-955d-f33f4b3f3629">
          <symbol
             id="id-cda5b821-3e7b-40b0-a784-eea8331efe83"
             overflow="visible">
            <path
               id="id-742bde70-70bb-4df9-b7f7-34ba35cc5ad5"
               d=""
               style="stroke:none" />
          </symbol>
          <symbol
             id="id-193cba7d-b6de-4428-98ff-9a628f120d12"
             overflow="visible">
            <path
               id="id-fc5a6c51-04c4-40df-9b0b-f6a4a53769ff"
               d="m 3.296875,2.390625 c 0,-0.03125 0,-0.046875 -0.171875,-0.21875 C 1.890625,0.921875 1.5625,-0.96875 1.5625,-2.5 c 0,-1.734375 0.375,-3.46875 1.609375,-4.703125 0.125,-0.125 0.125,-0.140625 0.125,-0.171875 0,-0.078125 -0.03125,-0.109375 -0.09375,-0.109375 -0.109375,0 -1,0.6875 -1.59375,1.953125 -0.5,1.09375 -0.625,2.203125 -0.625,3.03125 0,0.78125 0.109375,1.984375 0.65625,3.125 C 2.25,1.84375 3.09375,2.5 3.203125,2.5 c 0.0625,0 0.09375,-0.03125 0.09375,-0.109375 z m 0,0"
               style="stroke:none" />
          </symbol>
          <symbol
             id="id-e7580537-1b7d-41c1-a055-7e3d06535e1a"
             overflow="visible">
            <path
               id="id-e8308553-84e4-405a-bd2c-9740b4d79779"
               d="m 4.578125,-3.1875 c 0,-0.796875 -0.046875,-1.59375 -0.390625,-2.328125 -0.453125,-0.96875 -1.28125,-1.125 -1.6875,-1.125 -0.609375,0 -1.328125,0.265625 -1.75,1.1875 -0.3125,0.6875 -0.359375,1.46875 -0.359375,2.265625 0,0.75 0.03125,1.640625 0.453125,2.40625 0.421875,0.796875 1.15625,1 1.640625,1 0.53125,0 1.296875,-0.203125 1.734375,-1.15625 0.3125,-0.6875 0.359375,-1.46875 0.359375,-2.25 z M 2.484375,0 C 2.09375,0 1.5,-0.25 1.328125,-1.203125 1.21875,-1.796875 1.21875,-2.71875 1.21875,-3.3125 c 0,-0.640625 0,-1.296875 0.078125,-1.828125 0.1875,-1.1875 0.9375,-1.28125 1.1875,-1.28125 0.328125,0 0.984375,0.1875 1.171875,1.171875 0.109375,0.5625 0.109375,1.3125 0.109375,1.9375 0,0.75 0,1.421875 -0.109375,2.0625 C 3.5,-0.296875 2.9375,0 2.484375,0 Z m 0,0"
               style="stroke:none" />
          </symbol>
          <symbol
             id="id-c8dc016a-512e-4bde-a49c-4948f407983e"
             overflow="visible">
            <path
               id="id-aa403be4-bb02-4d38-8e83-502d2aeb9572"
               d="m 2.875,-2.5 c 0,-0.765625 -0.109375,-1.96875 -0.65625,-3.109375 -0.59375,-1.21875 -1.453125,-1.875 -1.546875,-1.875 -0.0625,0 -0.109375,0.046875 -0.109375,0.109375 0,0.03125 0,0.046875 0.1875,0.234375 0.984375,0.984375 1.546875,2.5625 1.546875,4.640625 0,1.71875 -0.359375,3.46875 -1.59375,4.71875 C 0.5625,2.34375 0.5625,2.359375 0.5625,2.390625 0.5625,2.453125 0.609375,2.5 0.671875,2.5 0.765625,2.5 1.671875,1.8125 2.25,0.546875 2.765625,-0.546875 2.875,-1.65625 2.875,-2.5 Z m 0,0"
               style="stroke:none" />
          </symbol>
          <symbol
             id="id-773cb73b-2863-4c06-baee-5a74f98bd6e8"
             overflow="visible">
            <path
               id="id-050d7956-7ea0-472b-b9af-a5bd68e3fe78"
               d=""
               style="stroke:none" />
          </symbol>
          <symbol
             id="id-1edc50d8-1a65-494a-946e-2246e5ab7ce6"
             overflow="visible">
            <path
               id="id-62988e99-8cad-44fa-a1f6-abc63b0eeba9"
               d="m 2.03125,-0.015625 c 0,-0.65625 -0.25,-1.046875 -0.640625,-1.046875 -0.328125,0 -0.53125,0.25 -0.53125,0.53125 C 0.859375,-0.265625 1.0625,0 1.390625,0 1.5,0 1.640625,-0.046875 1.734375,-0.125 1.765625,-0.15625 1.78125,-0.15625 1.78125,-0.15625 c 0.015625,0 0.015625,0 0.015625,0.140625 0,0.75 -0.34375,1.34375 -0.671875,1.671875 -0.109375,0.109375 -0.109375,0.125 -0.109375,0.15625 0,0.078125 0.046875,0.109375 0.09375,0.109375 0.109375,0 0.921875,-0.765625 0.921875,-1.9375 z m 0,0"
               style="stroke:none" />
          </symbol>
        </g>
      </defs>
      <g
         transform="translate(-149.696,-127.281)"
         id="id-3588431c-a9ad-41a8-b8e7-5aed212cf741">
        <g
           id="id-1ec5036c-1292-402a-bf67-e8df193a5792"
           style="fill:#000000;fill-opacity:1">
          <g
             transform="translate(148.712,134.765)"
             id="g3388">
            <path
               id="id-4e5e1ac7-c197-4a94-98dc-636604eea83c"
               d="m 3.296875,2.390625 c 0,-0.03125 0,-0.046875 -0.171875,-0.21875 C 1.890625,0.921875 1.5625,-0.96875 1.5625,-2.5 c 0,-1.734375 0.375,-3.46875 1.609375,-4.703125 0.125,-0.125 0.125,-0.140625 0.125,-0.171875 0,-0.078125 -0.03125,-0.109375 -0.09375,-0.109375 -0.109375,0 -1,0.6875 -1.59375,1.953125 -0.5,1.09375 -0.625,2.203125 -0.625,3.03125 0,0.78125 0.109375,1.984375 0.65625,3.125 C 2.25,1.84375 3.09375,2.5 3.203125,2.5 c 0.0625,0 0.09375,-0.03125 0.09375,-0.109375 z m 0,0"
               style="stroke:none" />
          </g>
          <g
             transform="translate(152.586,134.765)"
             id="g3391">
            <path
               id="id-171d5ce7-fa73-438b-ab4d-caf39fcfa888"
               d="m 4.578125,-3.1875 c 0,-0.796875 -0.046875,-1.59375 -0.390625,-2.328125 -0.453125,-0.96875 -1.28125,-1.125 -1.6875,-1.125 -0.609375,0 -1.328125,0.265625 -1.75,1.1875 -0.3125,0.6875 -0.359375,1.46875 -0.359375,2.265625 0,0.75 0.03125,1.640625 0.453125,2.40625 0.421875,0.796875 1.15625,1 1.640625,1 0.53125,0 1.296875,-0.203125 1.734375,-1.15625 0.3125,-0.6875 0.359375,-1.46875 0.359375,-2.25 z M 2.484375,0 C 2.09375,0 1.5,-0.25 1.328125,-1.203125 1.21875,-1.796875 1.21875,-2.71875 1.21875,-3.3125 c 0,-0.640625 0,-1.296875 0.078125,-1.828125 0.1875,-1.1875 0.9375,-1.28125 1.1875,-1.28125 0.328125,0 0.984375,0.1875 1.171875,1.171875 0.109375,0.5625 0.109375,1.3125 0.109375,1.9375 0,0.75 0,1.421875 -0.109375,2.0625 C 3.5,-0.296875 2.9375,0 2.484375,0 Z m 0,0"
               style="stroke:none" />
          </g>
        </g>
        <g
           id="id-9d4550df-44ea-4cc7-b032-bd940e4fbc7a"
           style="fill:#000000;fill-opacity:1">
          <g
             transform="translate(157.568,134.765)"
             id="g3395">
            <path
               id="id-c9318ddf-b029-4a00-93a8-01b5b5069f54"
               d="m 2.03125,-0.015625 c 0,-0.65625 -0.25,-1.046875 -0.640625,-1.046875 -0.328125,0 -0.53125,0.25 -0.53125,0.53125 C 0.859375,-0.265625 1.0625,0 1.390625,0 1.5,0 1.640625,-0.046875 1.734375,-0.125 1.765625,-0.15625 1.78125,-0.15625 1.78125,-0.15625 c 0.015625,0 0.015625,0 0.015625,0.140625 0,0.75 -0.34375,1.34375 -0.671875,1.671875 -0.109375,0.109375 -0.109375,0.125 -0.109375,0.15625 0,0.078125 0.046875,0.109375 0.09375,0.109375 0.109375,0 0.921875,-0.765625 0.921875,-1.9375 z m 0,0"
               style="stroke:none" />
          </g>
        </g>
        <g
           id="id-39c4509e-e812-4902-8a94-e2a32ea88ec6"
           style="fill:#000000;fill-opacity:1">
          <g
             transform="translate(161.996,134.765)"
             id="g3399">
            <path
               id="id-a6af5306-6e42-4d26-9bc7-d641ddbb85a7"
               d="m 4.578125,-3.1875 c 0,-0.796875 -0.046875,-1.59375 -0.390625,-2.328125 -0.453125,-0.96875 -1.28125,-1.125 -1.6875,-1.125 -0.609375,0 -1.328125,0.265625 -1.75,1.1875 -0.3125,0.6875 -0.359375,1.46875 -0.359375,2.265625 0,0.75 0.03125,1.640625 0.453125,2.40625 0.421875,0.796875 1.15625,1 1.640625,1 0.53125,0 1.296875,-0.203125 1.734375,-1.15625 0.3125,-0.6875 0.359375,-1.46875 0.359375,-2.25 z M 2.484375,0 C 2.09375,0 1.5,-0.25 1.328125,-1.203125 1.21875,-1.796875 1.21875,-2.71875 1.21875,-3.3125 c 0,-0.640625 0,-1.296875 0.078125,-1.828125 0.1875,-1.1875 0.9375,-1.28125 1.1875,-1.28125 0.328125,0 0.984375,0.1875 1.171875,1.171875 0.109375,0.5625 0.109375,1.3125 0.109375,1.9375 0,0.75 0,1.421875 -0.109375,2.0625 C 3.5,-0.296875 2.9375,0 2.484375,0 Z m 0,0"
               style="stroke:none" />
          </g>
        </g>
        <g
           id="id-a6c658b3-217a-4b85-8ae6-6b04310ec104"
           style="fill:#000000;fill-opacity:1">
          <g
             transform="translate(166.977,134.765)"
             id="g3403">
            <path
               id="id-bbb190c1-ae41-409a-9cff-3f256a626a2d"
               d="m 2.03125,-0.015625 c 0,-0.65625 -0.25,-1.046875 -0.640625,-1.046875 -0.328125,0 -0.53125,0.25 -0.53125,0.53125 C 0.859375,-0.265625 1.0625,0 1.390625,0 1.5,0 1.640625,-0.046875 1.734375,-0.125 1.765625,-0.15625 1.78125,-0.15625 1.78125,-0.15625 c 0.015625,0 0.015625,0 0.015625,0.140625 0,0.75 -0.34375,1.34375 -0.671875,1.671875 -0.109375,0.109375 -0.109375,0.125 -0.109375,0.15625 0,0.078125 0.046875,0.109375 0.09375,0.109375 0.109375,0 0.921875,-0.765625 0.921875,-1.9375 z m 0,0"
               style="stroke:none" />
          </g>
        </g>
        <g
           id="id-ec3e4e22-d579-43c2-a9c2-116cab9d8fb9"
           style="fill:#000000;fill-opacity:1">
          <g
             transform="translate(171.405,134.765)"
             id="g3407">
            <path
               id="id-12ac0389-7769-4a92-bea3-1b49893ea1af"
               d="m 4.578125,-3.1875 c 0,-0.796875 -0.046875,-1.59375 -0.390625,-2.328125 -0.453125,-0.96875 -1.28125,-1.125 -1.6875,-1.125 -0.609375,0 -1.328125,0.265625 -1.75,1.1875 -0.3125,0.6875 -0.359375,1.46875 -0.359375,2.265625 0,0.75 0.03125,1.640625 0.453125,2.40625 0.421875,0.796875 1.15625,1 1.640625,1 0.53125,0 1.296875,-0.203125 1.734375,-1.15625 0.3125,-0.6875 0.359375,-1.46875 0.359375,-2.25 z M 2.484375,0 C 2.09375,0 1.5,-0.25 1.328125,-1.203125 1.21875,-1.796875 1.21875,-2.71875 1.21875,-3.3125 c 0,-0.640625 0,-1.296875 0.078125,-1.828125 0.1875,-1.1875 0.9375,-1.28125 1.1875,-1.28125 0.328125,0 0.984375,0.1875 1.171875,1.171875 0.109375,0.5625 0.109375,1.3125 0.109375,1.9375 0,0.75 0,1.421875 -0.109375,2.0625 C 3.5,-0.296875 2.9375,0 2.484375,0 Z m 0,0"
               style="stroke:none" />
          </g>
          <g
             transform="translate(176.386,134.765)"
             id="g3410">
            <path
               id="id-f664c8d9-872d-466f-a1d0-68857098b70f"
               d="m 2.875,-2.5 c 0,-0.765625 -0.109375,-1.96875 -0.65625,-3.109375 -0.59375,-1.21875 -1.453125,-1.875 -1.546875,-1.875 -0.0625,0 -0.109375,0.046875 -0.109375,0.109375 0,0.03125 0,0.046875 0.1875,0.234375 0.984375,0.984375 1.546875,2.5625 1.546875,4.640625 0,1.71875 -0.359375,3.46875 -1.59375,4.71875 C 0.5625,2.34375 0.5625,2.359375 0.5625,2.390625 0.5625,2.453125 0.609375,2.5 0.671875,2.5 0.765625,2.5 1.671875,1.8125 2.25,0.546875 2.765625,-0.546875 2.875,-1.65625 2.875,-2.5 Z m 0,0"
               style="stroke:none" />
          </g>
        </g>
      </g>
    </g>
    <g
       transform="matrix(0.56527492,0,0,0.57910394,-23.167775,7.3712389)"
       id="g4151">
      <g
         style="fill:#000000;fill-opacity:1"
         id="id-d42bcb24-7b9f-4234-9294-7f4f87be4ae1"
         transform="matrix(0.705556,0,0,0.705556,-58.361712,47.908322)">
        <g
           id="g3738"
           transform="translate(148.712,134.765)">
          <path
             style="stroke:none"
             d="m 4.5,-4.296875 c 0,-0.046875 -0.03125,-0.09375 -0.09375,-0.09375 -0.109375,0 -0.515625,0.390625 -0.671875,0.6875 C 3.515625,-4.25 3.125,-4.40625 2.796875,-4.40625 c -1.171875,0 -2.390625,1.46875 -2.390625,2.921875 0,0.96875 0.578125,1.59375 1.3125,1.59375 0.421875,0 0.8125,-0.234375 1.171875,-0.59375 -0.09375,0.34375 -0.421875,1.6875 -0.453125,1.78125 -0.078125,0.28125 -0.15625,0.3125 -0.71875,0.328125 -0.125,0 -0.21875,0 -0.21875,0.203125 0,0 0,0.109375 0.125,0.109375 0.3125,0 0.671875,-0.03125 1,-0.03125 0.328125,0 0.6875,0.03125 1.03125,0.03125 0.046875,0 0.171875,0 0.171875,-0.203125 C 3.828125,1.625 3.734375,1.625 3.5625,1.625 3.09375,1.625 3.09375,1.5625 3.09375,1.46875 3.09375,1.390625 3.109375,1.328125 3.125,1.25 Z m -2.75,4.1875 c -0.609375,0 -0.640625,-0.765625 -0.640625,-0.9375 0,-0.484375 0.28125,-1.5625 0.453125,-1.984375 0.3125,-0.734375 0.828125,-1.15625 1.234375,-1.15625 0.65625,0 0.796875,0.8125 0.796875,0.875 0,0.0625 -0.546875,2.25 -0.578125,2.28125 C 2.859375,-0.75 2.296875,-0.109375 1.75,-0.109375 Z m 0,0"
             id="id-237537a9-05f5-4dfc-a5ec-c8449c962a27" />
        </g>
      </g>
      <g
         style="fill:#000000;fill-opacity:1"
         id="id-f398df5b-1b64-4689-8378-f3a86e487109"
         transform="matrix(0.705556,0,0,0.705556,-58.361712,47.908322)">
        <g
           id="g3742"
           transform="translate(153.16,136.259)">
          <path
             style="stroke:none"
             d="M 1.734375,-0.734375 C 1.671875,-0.5 1.4375,-0.125 1.078125,-0.125 c -0.015625,0 -0.234375,0 -0.375,-0.09375 0.28125,-0.09375 0.3125,-0.34375 0.3125,-0.390625 0,-0.15625 -0.125,-0.25 -0.28125,-0.25 -0.203125,0 -0.40625,0.15625 -0.40625,0.421875 0,0.34375 0.390625,0.5 0.734375,0.5 0.328125,0 0.609375,-0.1875 0.78125,-0.484375 C 2.015625,-0.0625 2.390625,0.0625 2.671875,0.0625 c 0.8125,0 1.234375,-0.859375 1.234375,-1.0625 0,-0.09375 -0.09375,-0.09375 -0.109375,-0.09375 -0.109375,0 -0.109375,0.046875 -0.140625,0.125 -0.140625,0.484375 -0.5625,0.84375 -0.953125,0.84375 -0.28125,0 -0.421875,-0.1875 -0.421875,-0.453125 0,-0.1875 0.171875,-0.8125 0.359375,-1.59375 C 2.78125,-2.703125 3.09375,-2.875 3.328125,-2.875 c 0.015625,0 0.21875,0 0.375,0.09375 -0.21875,0.0625 -0.3125,0.265625 -0.3125,0.390625 0,0.140625 0.125,0.25 0.28125,0.25 0.15625,0 0.390625,-0.125 0.390625,-0.421875 0,-0.390625 -0.453125,-0.515625 -0.71875,-0.515625 -0.359375,0 -0.640625,0.234375 -0.78125,0.5 -0.125,-0.28125 -0.453125,-0.5 -0.84375,-0.5 C 0.9375,-3.078125 0.5,-2.21875 0.5,-2 c 0,0.078125 0.09375,0.078125 0.109375,0.078125 0.09375,0 0.09375,-0.015625 0.140625,-0.109375 C 0.921875,-2.578125 1.359375,-2.875 1.703125,-2.875 1.9375,-2.875 2.125,-2.75 2.125,-2.421875 2.125,-2.28125 2.03125,-1.9375 1.96875,-1.6875 Z m 0,0"
             id="id-acaac1aa-3e69-42c2-a1ad-48875cbe4f9b" />
        </g>
      </g>
    </g>
    <g
       transform="matrix(0.52779526,0,0,0.54070739,65.514547,-17.927308)"
       id="g4165">
      <g
         id="g4156">
        <g
           transform="matrix(0.705556,0,0,0.705556,-58.361712,47.908322)"
           id="id-a031614b-c11c-495e-8322-8fd1fc2dc8f9"
           style="fill:#000000;fill-opacity:1">
          <g
             transform="translate(161.497,134.765)"
             id="g3746">
            <path
               id="id-fcd22fe7-8557-4f83-b22f-de7f1356bb5d"
               d="m 4.5,-4.296875 c 0,-0.046875 -0.03125,-0.09375 -0.09375,-0.09375 -0.109375,0 -0.515625,0.390625 -0.671875,0.6875 C 3.515625,-4.25 3.125,-4.40625 2.796875,-4.40625 c -1.171875,0 -2.390625,1.46875 -2.390625,2.921875 0,0.96875 0.578125,1.59375 1.3125,1.59375 0.421875,0 0.8125,-0.234375 1.171875,-0.59375 -0.09375,0.34375 -0.421875,1.6875 -0.453125,1.78125 -0.078125,0.28125 -0.15625,0.3125 -0.71875,0.328125 -0.125,0 -0.21875,0 -0.21875,0.203125 0,0 0,0.109375 0.125,0.109375 0.3125,0 0.671875,-0.03125 1,-0.03125 0.328125,0 0.6875,0.03125 1.03125,0.03125 0.046875,0 0.171875,0 0.171875,-0.203125 C 3.828125,1.625 3.734375,1.625 3.5625,1.625 3.09375,1.625 3.09375,1.5625 3.09375,1.46875 3.09375,1.390625 3.109375,1.328125 3.125,1.25 Z m -2.75,4.1875 c -0.609375,0 -0.640625,-0.765625 -0.640625,-0.9375 0,-0.484375 0.28125,-1.5625 0.453125,-1.984375 0.3125,-0.734375 0.828125,-1.15625 1.234375,-1.15625 0.65625,0 0.796875,0.8125 0.796875,0.875 0,0.0625 -0.546875,2.25 -0.578125,2.28125 C 2.859375,-0.75 2.296875,-0.109375 1.75,-0.109375 Z m 0,0"
               style="stroke:none" />
          </g>
        </g>
      </g>
      <g
         style="fill:#000000;fill-opacity:1"
         id="id-f3f2a0ee-6067-4bb8-b049-5ac5e64eeef8"
         transform="matrix(0.705556,0,0,0.705556,-58.361712,47.908322)">
        <g
           id="g3750"
           transform="translate(165.944,136.259)">
          <path
             style="stroke:none"
             d="M 3.875,-2.625 C 3.90625,-2.71875 3.90625,-2.734375 3.90625,-2.78125 3.90625,-2.921875 3.796875,-3 3.671875,-3 3.59375,-3 3.46875,-2.96875 3.390625,-2.84375 3.359375,-2.796875 3.3125,-2.578125 3.28125,-2.4375 L 3.125,-1.859375 c -0.03125,0.171875 -0.25,1.046875 -0.28125,1.125 0,0 -0.3125,0.609375 -0.84375,0.609375 -0.484375,0 -0.484375,-0.453125 -0.484375,-0.578125 0,-0.375 0.15625,-0.8125 0.375,-1.359375 C 1.96875,-2.28125 2,-2.359375 2,-2.484375 2,-2.8125 1.71875,-3.078125 1.34375,-3.078125 0.640625,-3.078125 0.328125,-2.125 0.328125,-2 c 0,0.078125 0.09375,0.078125 0.125,0.078125 0.09375,0 0.09375,-0.03125 0.125,-0.109375 C 0.75,-2.609375 1.046875,-2.875 1.328125,-2.875 1.4375,-2.875 1.5,-2.796875 1.5,-2.640625 c 0,0.171875 -0.0625,0.3125 -0.09375,0.40625 C 1.0625,-1.375 1,-1.125 1,-0.8125 1,-0.703125 1,-0.375 1.265625,-0.140625 1.484375,0.03125 1.78125,0.0625 1.96875,0.0625 2.25,0.0625 2.5,-0.03125 2.71875,-0.25 2.640625,0.140625 2.5625,0.4375 2.265625,0.78125 2.078125,1 1.796875,1.21875 1.421875,1.21875 c -0.046875,0 -0.375,0 -0.515625,-0.21875 0.375,-0.046875 0.375,-0.375 0.375,-0.390625 0,-0.21875 -0.203125,-0.265625 -0.265625,-0.265625 -0.171875,0 -0.40625,0.140625 -0.40625,0.46875 0,0.34375 0.328125,0.609375 0.828125,0.609375 C 2.140625,1.421875 3,0.875 3.21875,0 Z m 0,0"
             id="id-de867626-c89b-4877-a980-602b7859b5f4" />
        </g>
      </g>
    </g>
    <g
       transform="matrix(0.61053547,0,0,0.60805984,12.411952,-81.893623)"
       id="g4173">
      <g
         style="fill:#000000;fill-opacity:1"
         id="id-a24c00b3-e5fc-45b7-aa78-ba328a8a1e34"
         transform="matrix(0.705556,0,0,0.705556,-58.361712,47.908322)">
        <g
           id="g3754"
           transform="translate(174.054,134.765)">
          <path
             style="stroke:none"
             d="m 4.5,-4.296875 c 0,-0.046875 -0.03125,-0.09375 -0.09375,-0.09375 -0.109375,0 -0.515625,0.390625 -0.671875,0.6875 C 3.515625,-4.25 3.125,-4.40625 2.796875,-4.40625 c -1.171875,0 -2.390625,1.46875 -2.390625,2.921875 0,0.96875 0.578125,1.59375 1.3125,1.59375 0.421875,0 0.8125,-0.234375 1.171875,-0.59375 -0.09375,0.34375 -0.421875,1.6875 -0.453125,1.78125 -0.078125,0.28125 -0.15625,0.3125 -0.71875,0.328125 -0.125,0 -0.21875,0 -0.21875,0.203125 0,0 0,0.109375 0.125,0.109375 0.3125,0 0.671875,-0.03125 1,-0.03125 0.328125,0 0.6875,0.03125 1.03125,0.03125 0.046875,0 0.171875,0 0.171875,-0.203125 C 3.828125,1.625 3.734375,1.625 3.5625,1.625 3.09375,1.625 3.09375,1.5625 3.09375,1.46875 3.09375,1.390625 3.109375,1.328125 3.125,1.25 Z m -2.75,4.1875 c -0.609375,0 -0.640625,-0.765625 -0.640625,-0.9375 0,-0.484375 0.28125,-1.5625 0.453125,-1.984375 0.3125,-0.734375 0.828125,-1.15625 1.234375,-1.15625 0.65625,0 0.796875,0.8125 0.796875,0.875 0,0.0625 -0.546875,2.25 -0.578125,2.28125 C 2.859375,-0.75 2.296875,-0.109375 1.75,-0.109375 Z m 0,0"
             id="id-33196633-a8b0-4eac-8ae7-32b06e05b0bc" />
        </g>
      </g>
      <g
         style="fill:#000000;fill-opacity:1"
         id="id-5b0c18f0-7184-4658-aea9-7c40890ec72a"
         transform="matrix(0.705556,0,0,0.705556,-58.361712,47.908322)">
        <g
           id="g3758"
           transform="translate(178.501,136.259)">
          <path
             style="stroke:none"
             d="m 1.171875,-0.609375 c 0.1875,-0.1875 0.3125,-0.3125 0.890625,-0.796875 0.15625,-0.109375 0.671875,-0.53125 0.875,-0.71875 0.421875,-0.421875 0.6875,-0.78125 0.6875,-0.859375 0,-0.09375 -0.078125,-0.09375 -0.109375,-0.09375 -0.0625,0 -0.09375,0.015625 -0.125,0.078125 -0.21875,0.3125 -0.359375,0.421875 -0.53125,0.421875 -0.078125,0 -0.1875,0 -0.390625,-0.203125 -0.234375,-0.25 -0.390625,-0.296875 -0.546875,-0.296875 -0.5625,0 -0.9375,0.609375 -0.9375,0.8125 0,0.078125 0.0625,0.09375 0.109375,0.09375 0.09375,0 0.109375,-0.015625 0.125,-0.09375 0.109375,-0.25 0.5,-0.265625 0.609375,-0.265625 0.171875,0 0.34375,0.046875 0.4375,0.0625 0.390625,0.078125 0.4375,0.078125 0.609375,0.078125 -0.171875,0.203125 -0.296875,0.328125 -0.96875,0.84375 -0.546875,0.4375 -0.734375,0.609375 -0.859375,0.75 -0.421875,0.40625 -0.625,0.71875 -0.625,0.78125 0,0.078125 0.09375,0.078125 0.125,0.078125 0.0625,0 0.078125,0 0.109375,-0.0625 0.1875,-0.265625 0.40625,-0.421875 0.640625,-0.421875 0.09375,0 0.1875,0 0.375,0.171875 0.21875,0.21875 0.359375,0.3125 0.59375,0.3125 C 3,0.0625 3.46875,-0.78125 3.46875,-1.015625 3.46875,-1.09375 3.390625,-1.09375 3.359375,-1.09375 3.265625,-1.09375 3.25,-1.0625 3.21875,-0.984375 3.09375,-0.640625 2.6875,-0.46875 2.34375,-0.46875 2.1875,-0.46875 2,-0.515625 1.828125,-0.546875 1.515625,-0.625 1.453125,-0.625 1.328125,-0.625 c -0.015625,0 -0.109375,0 -0.15625,0.015625 z m 0,0"
             id="id-50f9a4d5-a8ec-4b40-b62b-4290eedf5d9c" />
        </g>
      </g>
    </g>
    <g
       transform="matrix(0.33418724,0,0,0.34236289,-20.363499,31.238754)"
       id="id-f38f615b-8fb2-48ee-8d12-433063c32f42"
       style="fill:#000000;fill-opacity:1">
      <g
         transform="translate(186.412,134.765)"
         id="g3762">
        <path
           id="id-967ace7d-3d70-41d6-8e10-9b2f2dd4f6ee"
           d="m 1.65625,-3.875 v -1.8125 c 0,-0.296875 -0.0625,-0.40625 -0.40625,-0.40625 H 0.53125 c -0.15625,0 -0.40625,0 -0.40625,0.3125 0,0.296875 0.25,0.296875 0.390625,0.296875 H 0.96875 V -0.40625 C 0.96875,-0.203125 0.96875,0 1.3125,0 1.65625,0 1.65625,-0.203125 1.65625,-0.453125 2.0625,-0.03125 2.5,0.0625 2.8125,0.0625 c 1.078125,0 2.046875,-0.953125 2.046875,-2.21875 0,-1.21875 -0.875,-2.203125 -1.9375,-2.203125 C 2.4375,-4.359375 2,-4.171875 1.65625,-3.875 Z m 0,1.96875 V -2.625 c 0,-0.59375 0.578125,-1.125 1.203125,-1.125 0.734375,0 1.3125,0.734375 1.3125,1.59375 0,0.953125 -0.6875,1.609375 -1.390625,1.609375 -0.78125,0 -1.125,-0.875 -1.125,-1.359375 z m 0,0"
           style="stroke:none" />
      </g>
      <g
         transform="translate(191.642,134.765)"
         id="g3765">
        <path
           id="id-0c52f16a-a221-4207-a4c4-badf5edb0903"
           d="m 4.65625,-2.15625 c 0,-1.25 -0.921875,-2.234375 -2.046875,-2.234375 -1.109375,0 -2.046875,0.984375 -2.046875,2.234375 0,1.265625 0.953125,2.21875 2.046875,2.21875 1.09375,0 2.046875,-0.953125 2.046875,-2.21875 z M 2.609375,-0.546875 C 1.875,-0.546875 1.25,-1.296875 1.25,-2.21875 c 0,-0.90625 0.65625,-1.5625 1.359375,-1.5625 0.71875,0 1.359375,0.65625 1.359375,1.5625 0,0.921875 -0.625,1.671875 -1.359375,1.671875 z m 0,0"
           style="stroke:none" />
      </g>
      <g
         transform="translate(196.873,134.765)"
         id="g3768">
        <path
           id="id-7254bb4f-719c-4869-a2fa-2fc3922842f2"
           d="M 3.5625,-0.3125 C 3.578125,0 3.78125,0 3.96875,0 H 4.6875 c 0.171875,0 0.421875,0 0.421875,-0.3125 0,-0.296875 -0.265625,-0.296875 -0.40625,-0.296875 H 4.25 v -3.28125 c 0,-0.3125 -0.046875,-0.40625 -0.390625,-0.40625 H 3.125 c -0.15625,0 -0.40625,0 -0.40625,0.3125 0,0.296875 0.265625,0.296875 0.40625,0.296875 h 0.4375 v 2.125 c 0,0.890625 -0.796875,1.015625 -1.125,1.015625 -0.78125,0 -0.78125,-0.328125 -0.78125,-0.65625 v -2.6875 c 0,-0.3125 -0.0625,-0.40625 -0.40625,-0.40625 H 0.53125 c -0.15625,0 -0.40625,0 -0.40625,0.3125 0,0.296875 0.25,0.296875 0.390625,0.296875 H 0.96875 v 2.546875 c 0,0.96875 0.6875,1.203125 1.40625,1.203125 0.421875,0 0.828125,-0.109375 1.1875,-0.375 z m 0,0"
           style="stroke:none" />
      </g>
      <g
         transform="translate(202.103,134.765)"
         id="g3771">
        <path
           id="id-9c12e7bf-9372-4a1e-b310-99536712e1aa"
           d="m 1.65625,-3.828125 c 0,-0.3125 0,-0.46875 -0.40625,-0.46875 H 0.53125 c -0.15625,0 -0.40625,0 -0.40625,0.3125 0,0.296875 0.25,0.296875 0.390625,0.296875 H 0.96875 v 3.078125 h -0.4375 c -0.15625,0 -0.40625,0 -0.40625,0.3125 C 0.125,0 0.375,0 0.515625,0 h 1.59375 C 2.25,0 2.5,0 2.5,-0.296875 c 0,-0.3125 -0.25,-0.3125 -0.40625,-0.3125 H 1.65625 V -2.375 c 0,-1 0.734375,-1.375 1.25,-1.375 0.515625,0 0.65625,0.28125 0.65625,0.875 v 2.265625 h -0.375 c -0.171875,0 -0.421875,0 -0.421875,0.3125 C 2.765625,0 3.046875,0 3.1875,0 h 1.515625 c 0.140625,0 0.40625,0 0.40625,-0.296875 0,-0.3125 -0.25,-0.3125 -0.421875,-0.3125 H 4.25 v -2.3125 c 0,-1 -0.5,-1.4375 -1.296875,-1.4375 -0.65625,0 -1.109375,0.34375 -1.296875,0.53125 z m 0,0"
           style="stroke:none" />
      </g>
      <g
         transform="translate(207.333,134.765)"
         id="g3774">
        <path
           id="id-f5426064-2c81-4546-8fe0-16cff99a1b6f"
           d="m 3.5625,-0.5 c 0,0.359375 0,0.5 0.40625,0.5 H 4.6875 c 0.171875,0 0.421875,0 0.421875,-0.3125 0,-0.296875 -0.265625,-0.296875 -0.40625,-0.296875 H 4.25 V -5.6875 c 0,-0.296875 -0.046875,-0.40625 -0.390625,-0.40625 H 3.125 c -0.15625,0 -0.40625,0 -0.40625,0.3125 0,0.296875 0.265625,0.296875 0.40625,0.296875 H 3.5625 V -3.90625 C 3.234375,-4.203125 2.828125,-4.359375 2.40625,-4.359375 c -1.09375,0 -2.046875,0.953125 -2.046875,2.21875 0,1.234375 0.890625,2.203125 1.953125,2.203125 0.5625,0 0.984375,-0.265625 1.25,-0.5625 z m 0,-2.140625 V -1.9375 c 0,0.5625 -0.4375,1.390625 -1.203125,1.390625 -0.71875,0 -1.3125,-0.703125 -1.3125,-1.59375 C 1.046875,-3.09375 1.75,-3.75 2.4375,-3.75 c 0.640625,0 1.125,0.5625 1.125,1.109375 z m 0,0"
           style="stroke:none" />
      </g>
      <g
         transform="translate(212.564,134.765)"
         id="g3777">
        <path
           id="id-975e949f-fc32-48d1-8868-429557277071"
           d="M 3.65625,-0.3125 C 3.875,-0.015625 4.34375,0 4.71875,0 c 0.28125,0 0.5,0 0.5,-0.3125 0,-0.296875 -0.25,-0.296875 -0.390625,-0.296875 -0.421875,0 -0.515625,-0.046875 -0.59375,-0.078125 v -2.15625 c 0,-0.703125 -0.546875,-1.546875 -1.984375,-1.546875 -0.421875,0 -1.4375,0 -1.4375,0.734375 0,0.296875 0.203125,0.453125 0.4375,0.453125 0.15625,0 0.4375,-0.09375 0.4375,-0.453125 0,-0.078125 0.015625,-0.09375 0.21875,-0.109375 0.140625,-0.015625 0.265625,-0.015625 0.359375,-0.015625 0.75,0 1.265625,0.3125 1.265625,1.015625 -1.75,0.03125 -2.984375,0.53125 -2.984375,1.484375 0,0.6875 0.625,1.34375 1.640625,1.34375 0.375,0 1,-0.078125 1.46875,-0.375 z m -0.125,-1.859375 v 0.84375 c 0,0.21875 0,0.4375 -0.375,0.609375 -0.359375,0.171875 -0.8125,0.171875 -0.890625,0.171875 -0.625,0 -1.03125,-0.34375 -1.03125,-0.734375 0,-0.484375 0.859375,-0.859375 2.296875,-0.890625 z m 0,0"
           style="stroke:none" />
      </g>
      <g
         transform="translate(217.794,134.765)"
         id="g3780">
        <path
           id="id-52715c25-9923-45fa-9ca1-8c09394b5efe"
           d="M 2.21875,-1.859375 C 2.21875,-2.796875 2.796875,-3.75 4,-3.75 c 0.015625,0.234375 0.1875,0.4375 0.4375,0.4375 0.21875,0 0.421875,-0.15625 0.421875,-0.421875 0,-0.203125 -0.125,-0.625 -0.953125,-0.625 -0.5,0 -1.140625,0.1875 -1.6875,0.8125 v -0.34375 c 0,-0.3125 -0.0625,-0.40625 -0.40625,-0.40625 H 0.71875 c -0.15625,0 -0.40625,0 -0.40625,0.296875 0,0.3125 0.25,0.3125 0.40625,0.3125 h 0.8125 v 3.078125 h -0.8125 c -0.15625,0 -0.40625,0 -0.40625,0.296875 C 0.3125,0 0.5625,0 0.71875,0 H 3.3125 c 0.15625,0 0.421875,0 0.421875,-0.296875 0,-0.3125 -0.265625,-0.3125 -0.421875,-0.3125 H 2.21875 Z m 0,0"
           style="stroke:none" />
      </g>
      <g
         transform="translate(223.025,134.765)"
         id="g3783">
        <path
           id="id-b0e8a13a-d6f5-4901-b00d-3e6921f27bd3"
           d="m 4.28125,-3.6875 h 0.296875 c 0.15625,0 0.40625,0 0.40625,-0.296875 0,-0.3125 -0.234375,-0.3125 -0.40625,-0.3125 h -1.15625 c -0.15625,0 -0.40625,0 -0.40625,0.296875 0,0.3125 0.25,0.3125 0.40625,0.3125 h 0.28125 l -0.71875,2.125 C 2.84375,-1.203125 2.796875,-1.015625 2.71875,-0.703125 2.65625,-0.890625 2.578125,-1.109375 2.5,-1.296875 L 1.578125,-3.6875 h 0.25 c 0.140625,0 0.390625,0 0.390625,-0.296875 0,-0.3125 -0.234375,-0.3125 -0.390625,-0.3125 H 0.65625 c -0.15625,0 -0.390625,0 -0.390625,0.3125 0,0.296875 0.25,0.296875 0.390625,0.296875 h 0.3125 L 2.375,-0.125 c 0.046875,0.09375 0.046875,0.109375 0.046875,0.125 0,0.015625 -0.25,0.84375 -0.375,1.09375 C 1.75,1.640625 1.390625,1.65625 1.25,1.671875 c 0,-0.015625 0.046875,-0.09375 0.046875,-0.21875 0,-0.25 -0.1875,-0.4375 -0.421875,-0.4375 -0.28125,0 -0.453125,0.1875 -0.453125,0.4375 0,0.421875 0.34375,0.8125 0.828125,0.8125 1,0 1.453125,-1.3125 1.484375,-1.421875 z m 0,0"
           style="stroke:none" />
      </g>
      <g
         transform="translate(228.255,134.765)"
         id="g3786">
        <path
           id="id-5bc4fa09-7a36-4849-91fc-59d98a16879b"
           d="M 3.234375,-0.625 C 3.234375,-0.984375 2.9375,-1.25 2.625,-1.25 2.25,-1.25 2,-0.9375 2,-0.625 2,-0.265625 2.296875,0 2.609375,0 c 0.375,0 0.625,-0.3125 0.625,-0.625 z m 0,0"
           style="stroke:none" />
      </g>
      <g
         transform="translate(233.485,134.765)"
         id="g3789">
        <path
           id="id-ba618bc9-b09b-4af9-953c-9ce020ebe507"
           d="m 1.65625,-3.875 v -1.8125 c 0,-0.296875 -0.0625,-0.40625 -0.40625,-0.40625 H 0.53125 c -0.15625,0 -0.40625,0 -0.40625,0.3125 0,0.296875 0.25,0.296875 0.390625,0.296875 H 0.96875 V -0.40625 C 0.96875,-0.203125 0.96875,0 1.3125,0 1.65625,0 1.65625,-0.203125 1.65625,-0.453125 2.0625,-0.03125 2.5,0.0625 2.8125,0.0625 c 1.078125,0 2.046875,-0.953125 2.046875,-2.21875 0,-1.21875 -0.875,-2.203125 -1.9375,-2.203125 C 2.4375,-4.359375 2,-4.171875 1.65625,-3.875 Z m 0,1.96875 V -2.625 c 0,-0.59375 0.578125,-1.125 1.203125,-1.125 0.734375,0 1.3125,0.734375 1.3125,1.59375 0,0.953125 -0.6875,1.609375 -1.390625,1.609375 -0.78125,0 -1.125,-0.875 -1.125,-1.359375 z m 0,0"
           style="stroke:none" />
      </g>
      <g
         transform="translate(238.716,134.765)"
         id="g3792">
        <path
           id="id-b68fe284-ed09-46f5-8683-ec8bdf8bfbc3"
           d="m 4.234375,-1.90625 c 0.203125,0 0.390625,0 0.390625,-0.359375 0,-1.140625 -0.640625,-2.125 -1.9375,-2.125 -1.1875,0 -2.140625,1 -2.140625,2.234375 0,1.203125 1.015625,2.21875 2.296875,2.21875 1.3125,0 1.78125,-0.90625 1.78125,-1.15625 0,-0.265625 -0.28125,-0.265625 -0.34375,-0.265625 -0.1875,0 -0.265625,0.03125 -0.328125,0.21875 -0.21875,0.5 -0.765625,0.59375 -1.046875,0.59375 -0.75,0 -1.484375,-0.5 -1.65625,-1.359375 z M 1.265625,-2.5 C 1.40625,-3.234375 2,-3.78125 2.6875,-3.78125 c 0.515625,0 1.140625,0.25 1.234375,1.28125 z m 0,0"
           style="stroke:none" />
      </g>
      <g
         transform="translate(243.946,134.765)"
         id="g3795">
        <path
           id="id-af507cb5-ce52-4b1b-aa4b-93a6cd3c415e"
           d="m 2.328125,-1.75 c -0.546875,0 -0.96875,-0.46875 -0.96875,-1 0,-0.5625 0.4375,-1.015625 0.96875,-1.015625 0.53125,0 0.953125,0.46875 0.953125,1 0,0.578125 -0.4375,1.015625 -0.953125,1.015625 z m -0.90625,0.34375 c 0.03125,0.015625 0.40625,0.25 0.90625,0.25 0.90625,0 1.640625,-0.71875 1.640625,-1.609375 C 3.96875,-3.0625 3.875,-3.34375 3.703125,-3.625 3.921875,-3.75 4.15625,-3.78125 4.28125,-3.796875 c 0.0625,0.265625 0.296875,0.34375 0.390625,0.34375 0.171875,0 0.40625,-0.125 0.40625,-0.421875 0,-0.21875 -0.1875,-0.53125 -0.734375,-0.53125 -0.109375,0 -0.59375,0.015625 -1.046875,0.34375 C 3.125,-4.171875 2.78125,-4.359375 2.328125,-4.359375 c -0.9375,0 -1.65625,0.75 -1.65625,1.59375 C 0.671875,-2.328125 0.84375,-2 1,-1.8125 c -0.109375,0.15625 -0.203125,0.375 -0.203125,0.671875 0,0.359375 0.140625,0.609375 0.234375,0.71875 -0.734375,0.453125 -0.734375,1.125 -0.734375,1.234375 0,0.859375 1.03125,1.46875 2.3125,1.46875 C 3.890625,2.28125 4.9375,1.671875 4.9375,0.8125 4.9375,0.453125 4.75,-0.046875 4.25,-0.3125 4.109375,-0.390625 3.703125,-0.609375 2.796875,-0.609375 h -0.6875 c -0.078125,0 -0.21875,0 -0.296875,-0.015625 -0.140625,0 -0.203125,0 -0.328125,-0.140625 -0.109375,-0.140625 -0.125,-0.34375 -0.125,-0.359375 0,-0.046875 0.03125,-0.1875 0.0625,-0.28125 z m 1.1875,3.09375 c -1,0 -1.734375,-0.4375 -1.734375,-0.875 0,-0.171875 0.078125,-0.5 0.40625,-0.6875 0.25,-0.171875 0.328125,-0.171875 1.0625,-0.171875 0.890625,0 2.015625,0 2.015625,0.859375 0,0.4375 -0.75,0.875 -1.75,0.875 z m 0,0"
           style="stroke:none" />
      </g>
      <g
         transform="translate(249.176,134.765)"
         id="g3798">
        <path
           id="id-1a6fdaf2-5295-4a8e-806f-eeb80aa9008c"
           d="m 3.078125,-3.890625 c 0,-0.3125 -0.0625,-0.40625 -0.390625,-0.40625 H 1.265625 c -0.15625,0 -0.40625,0 -0.40625,0.296875 0,0.3125 0.25,0.3125 0.40625,0.3125 h 1.125 v 3.078125 H 1.1875 c -0.15625,0 -0.40625,0 -0.40625,0.3125 C 0.78125,0 1.03125,0 1.1875,0 H 4.125 c 0.15625,0 0.40625,0 0.40625,-0.296875 0,-0.3125 -0.25,-0.3125 -0.40625,-0.3125 H 3.078125 Z m 0,-1.71875 c 0,-0.265625 -0.21875,-0.484375 -0.5,-0.484375 -0.28125,0 -0.5,0.21875 -0.5,0.484375 0,0.28125 0.21875,0.5 0.5,0.5 0.28125,0 0.5,-0.21875 0.5,-0.5 z m 0,0"
           style="stroke:none" />
      </g>
      <g
         transform="translate(254.407,134.765)"
         id="g3801">
        <path
           id="id-b1d61d50-4595-4dc3-9fba-9f0fbeeb3513"
           d="m 1.65625,-3.828125 c 0,-0.3125 0,-0.46875 -0.40625,-0.46875 H 0.53125 c -0.15625,0 -0.40625,0 -0.40625,0.3125 0,0.296875 0.25,0.296875 0.390625,0.296875 H 0.96875 v 3.078125 h -0.4375 c -0.15625,0 -0.40625,0 -0.40625,0.3125 C 0.125,0 0.375,0 0.515625,0 h 1.59375 C 2.25,0 2.5,0 2.5,-0.296875 c 0,-0.3125 -0.25,-0.3125 -0.40625,-0.3125 H 1.65625 V -2.375 c 0,-1 0.734375,-1.375 1.25,-1.375 0.515625,0 0.65625,0.28125 0.65625,0.875 v 2.265625 h -0.375 c -0.171875,0 -0.421875,0 -0.421875,0.3125 C 2.765625,0 3.046875,0 3.1875,0 h 1.515625 c 0.140625,0 0.40625,0 0.40625,-0.296875 0,-0.3125 -0.25,-0.3125 -0.421875,-0.3125 H 4.25 v -2.3125 c 0,-1 -0.5,-1.4375 -1.296875,-1.4375 -0.65625,0 -1.109375,0.34375 -1.296875,0.53125 z m 0,0"
           style="stroke:none" />
      </g>
    </g>
    <g
       transform="matrix(0.33418724,0,0,0.34236289,-18.569491,-7.8764613)"
       id="id-39236e4c-6036-4423-bcb1-ee6eaa1b8e9e"
       style="fill:#000000;fill-opacity:1">
      <g
         transform="translate(262.955,134.765)"
         id="g3805">
        <path
           id="id-e69d5219-81ec-450f-b590-c7af5b9ac2ce"
           d="m 1.65625,-3.875 v -1.8125 c 0,-0.296875 -0.0625,-0.40625 -0.40625,-0.40625 H 0.53125 c -0.15625,0 -0.40625,0 -0.40625,0.3125 0,0.296875 0.25,0.296875 0.390625,0.296875 H 0.96875 V -0.40625 C 0.96875,-0.203125 0.96875,0 1.3125,0 1.65625,0 1.65625,-0.203125 1.65625,-0.453125 2.0625,-0.03125 2.5,0.0625 2.8125,0.0625 c 1.078125,0 2.046875,-0.953125 2.046875,-2.21875 0,-1.21875 -0.875,-2.203125 -1.9375,-2.203125 C 2.4375,-4.359375 2,-4.171875 1.65625,-3.875 Z m 0,1.96875 V -2.625 c 0,-0.59375 0.578125,-1.125 1.203125,-1.125 0.734375,0 1.3125,0.734375 1.3125,1.59375 0,0.953125 -0.6875,1.609375 -1.390625,1.609375 -0.78125,0 -1.125,-0.875 -1.125,-1.359375 z m 0,0"
           style="stroke:none" />
      </g>
      <g
         transform="translate(268.185,134.765)"
         id="g3808">
        <path
           id="id-6ca8eb8c-3b5f-4bae-9710-b69dba25e18f"
           d="m 4.65625,-2.15625 c 0,-1.25 -0.921875,-2.234375 -2.046875,-2.234375 -1.109375,0 -2.046875,0.984375 -2.046875,2.234375 0,1.265625 0.953125,2.21875 2.046875,2.21875 1.09375,0 2.046875,-0.953125 2.046875,-2.21875 z M 2.609375,-0.546875 C 1.875,-0.546875 1.25,-1.296875 1.25,-2.21875 c 0,-0.90625 0.65625,-1.5625 1.359375,-1.5625 0.71875,0 1.359375,0.65625 1.359375,1.5625 0,0.921875 -0.625,1.671875 -1.359375,1.671875 z m 0,0"
           style="stroke:none" />
      </g>
      <g
         transform="translate(273.415,134.765)"
         id="g3811">
        <path
           id="id-247fa101-feca-4436-b608-24f865ac2a48"
           d="M 3.5625,-0.3125 C 3.578125,0 3.78125,0 3.96875,0 H 4.6875 c 0.171875,0 0.421875,0 0.421875,-0.3125 0,-0.296875 -0.265625,-0.296875 -0.40625,-0.296875 H 4.25 v -3.28125 c 0,-0.3125 -0.046875,-0.40625 -0.390625,-0.40625 H 3.125 c -0.15625,0 -0.40625,0 -0.40625,0.3125 0,0.296875 0.265625,0.296875 0.40625,0.296875 h 0.4375 v 2.125 c 0,0.890625 -0.796875,1.015625 -1.125,1.015625 -0.78125,0 -0.78125,-0.328125 -0.78125,-0.65625 v -2.6875 c 0,-0.3125 -0.0625,-0.40625 -0.40625,-0.40625 H 0.53125 c -0.15625,0 -0.40625,0 -0.40625,0.3125 0,0.296875 0.25,0.296875 0.390625,0.296875 H 0.96875 v 2.546875 c 0,0.96875 0.6875,1.203125 1.40625,1.203125 0.421875,0 0.828125,-0.109375 1.1875,-0.375 z m 0,0"
           style="stroke:none" />
      </g>
      <g
         transform="translate(278.646,134.765)"
         id="g3814">
        <path
           id="id-4739ae77-efd6-45eb-834f-9f110068c79b"
           d="m 1.65625,-3.828125 c 0,-0.3125 0,-0.46875 -0.40625,-0.46875 H 0.53125 c -0.15625,0 -0.40625,0 -0.40625,0.3125 0,0.296875 0.25,0.296875 0.390625,0.296875 H 0.96875 v 3.078125 h -0.4375 c -0.15625,0 -0.40625,0 -0.40625,0.3125 C 0.125,0 0.375,0 0.515625,0 h 1.59375 C 2.25,0 2.5,0 2.5,-0.296875 c 0,-0.3125 -0.25,-0.3125 -0.40625,-0.3125 H 1.65625 V -2.375 c 0,-1 0.734375,-1.375 1.25,-1.375 0.515625,0 0.65625,0.28125 0.65625,0.875 v 2.265625 h -0.375 c -0.171875,0 -0.421875,0 -0.421875,0.3125 C 2.765625,0 3.046875,0 3.1875,0 h 1.515625 c 0.140625,0 0.40625,0 0.40625,-0.296875 0,-0.3125 -0.25,-0.3125 -0.421875,-0.3125 H 4.25 v -2.3125 c 0,-1 -0.5,-1.4375 -1.296875,-1.4375 -0.65625,0 -1.109375,0.34375 -1.296875,0.53125 z m 0,0"
           style="stroke:none" />
      </g>
      <g
         transform="translate(283.876,134.765)"
         id="g3817">
        <path
           id="id-5f8d8ec5-c4d3-45a6-b303-0d08eb6278e1"
           d="m 3.5625,-0.5 c 0,0.359375 0,0.5 0.40625,0.5 H 4.6875 c 0.171875,0 0.421875,0 0.421875,-0.3125 0,-0.296875 -0.265625,-0.296875 -0.40625,-0.296875 H 4.25 V -5.6875 c 0,-0.296875 -0.046875,-0.40625 -0.390625,-0.40625 H 3.125 c -0.15625,0 -0.40625,0 -0.40625,0.3125 0,0.296875 0.265625,0.296875 0.40625,0.296875 H 3.5625 V -3.90625 C 3.234375,-4.203125 2.828125,-4.359375 2.40625,-4.359375 c -1.09375,0 -2.046875,0.953125 -2.046875,2.21875 0,1.234375 0.890625,2.203125 1.953125,2.203125 0.5625,0 0.984375,-0.265625 1.25,-0.5625 z m 0,-2.140625 V -1.9375 c 0,0.5625 -0.4375,1.390625 -1.203125,1.390625 -0.71875,0 -1.3125,-0.703125 -1.3125,-1.59375 C 1.046875,-3.09375 1.75,-3.75 2.4375,-3.75 c 0.640625,0 1.125,0.5625 1.125,1.109375 z m 0,0"
           style="stroke:none" />
      </g>
      <g
         transform="translate(289.106,134.765)"
         id="g3820">
        <path
           id="id-e7545158-5b16-4ee0-bc69-8b17ec6d3bde"
           d="M 3.65625,-0.3125 C 3.875,-0.015625 4.34375,0 4.71875,0 c 0.28125,0 0.5,0 0.5,-0.3125 0,-0.296875 -0.25,-0.296875 -0.390625,-0.296875 -0.421875,0 -0.515625,-0.046875 -0.59375,-0.078125 v -2.15625 c 0,-0.703125 -0.546875,-1.546875 -1.984375,-1.546875 -0.421875,0 -1.4375,0 -1.4375,0.734375 0,0.296875 0.203125,0.453125 0.4375,0.453125 0.15625,0 0.4375,-0.09375 0.4375,-0.453125 0,-0.078125 0.015625,-0.09375 0.21875,-0.109375 0.140625,-0.015625 0.265625,-0.015625 0.359375,-0.015625 0.75,0 1.265625,0.3125 1.265625,1.015625 -1.75,0.03125 -2.984375,0.53125 -2.984375,1.484375 0,0.6875 0.625,1.34375 1.640625,1.34375 0.375,0 1,-0.078125 1.46875,-0.375 z m -0.125,-1.859375 v 0.84375 c 0,0.21875 0,0.4375 -0.375,0.609375 -0.359375,0.171875 -0.8125,0.171875 -0.890625,0.171875 -0.625,0 -1.03125,-0.34375 -1.03125,-0.734375 0,-0.484375 0.859375,-0.859375 2.296875,-0.890625 z m 0,0"
           style="stroke:none" />
      </g>
      <g
         transform="translate(294.337,134.765)"
         id="g3823">
        <path
           id="id-48547ee1-4813-4950-940b-e93c847d2b4e"
           d="M 2.21875,-1.859375 C 2.21875,-2.796875 2.796875,-3.75 4,-3.75 c 0.015625,0.234375 0.1875,0.4375 0.4375,0.4375 0.21875,0 0.421875,-0.15625 0.421875,-0.421875 0,-0.203125 -0.125,-0.625 -0.953125,-0.625 -0.5,0 -1.140625,0.1875 -1.6875,0.8125 v -0.34375 c 0,-0.3125 -0.0625,-0.40625 -0.40625,-0.40625 H 0.71875 c -0.15625,0 -0.40625,0 -0.40625,0.296875 0,0.3125 0.25,0.3125 0.40625,0.3125 h 0.8125 v 3.078125 h -0.8125 c -0.15625,0 -0.40625,0 -0.40625,0.296875 C 0.3125,0 0.5625,0 0.71875,0 H 3.3125 c 0.15625,0 0.421875,0 0.421875,-0.296875 0,-0.3125 -0.265625,-0.3125 -0.421875,-0.3125 H 2.21875 Z m 0,0"
           style="stroke:none" />
      </g>
      <g
         transform="translate(299.567,134.765)"
         id="g3826">
        <path
           id="id-8074884c-0d61-420a-9072-dd389ceba729"
           d="m 4.28125,-3.6875 h 0.296875 c 0.15625,0 0.40625,0 0.40625,-0.296875 0,-0.3125 -0.234375,-0.3125 -0.40625,-0.3125 h -1.15625 c -0.15625,0 -0.40625,0 -0.40625,0.296875 0,0.3125 0.25,0.3125 0.40625,0.3125 h 0.28125 l -0.71875,2.125 C 2.84375,-1.203125 2.796875,-1.015625 2.71875,-0.703125 2.65625,-0.890625 2.578125,-1.109375 2.5,-1.296875 L 1.578125,-3.6875 h 0.25 c 0.140625,0 0.390625,0 0.390625,-0.296875 0,-0.3125 -0.234375,-0.3125 -0.390625,-0.3125 H 0.65625 c -0.15625,0 -0.390625,0 -0.390625,0.3125 0,0.296875 0.25,0.296875 0.390625,0.296875 h 0.3125 L 2.375,-0.125 c 0.046875,0.09375 0.046875,0.109375 0.046875,0.125 0,0.015625 -0.25,0.84375 -0.375,1.09375 C 1.75,1.640625 1.390625,1.65625 1.25,1.671875 c 0,-0.015625 0.046875,-0.09375 0.046875,-0.21875 0,-0.25 -0.1875,-0.4375 -0.421875,-0.4375 -0.28125,0 -0.453125,0.1875 -0.453125,0.4375 0,0.421875 0.34375,0.8125 0.828125,0.8125 1,0 1.453125,-1.3125 1.484375,-1.421875 z m 0,0"
           style="stroke:none" />
      </g>
      <g
         transform="translate(304.798,134.765)"
         id="g3829">
        <path
           id="id-91714dd3-0457-47b5-b13b-2b409df72be1"
           d="M 3.234375,-0.625 C 3.234375,-0.984375 2.9375,-1.25 2.625,-1.25 2.25,-1.25 2,-0.9375 2,-0.625 2,-0.265625 2.296875,0 2.609375,0 c 0.375,0 0.625,-0.3125 0.625,-0.625 z m 0,0"
           style="stroke:none" />
      </g>
      <g
         transform="translate(310.028,134.765)"
         id="g3832">
        <path
           id="id-85e76c9a-a5aa-4158-bbd2-379e46af7b55"
           d="m 4.234375,-1.90625 c 0.203125,0 0.390625,0 0.390625,-0.359375 0,-1.140625 -0.640625,-2.125 -1.9375,-2.125 -1.1875,0 -2.140625,1 -2.140625,2.234375 0,1.203125 1.015625,2.21875 2.296875,2.21875 1.3125,0 1.78125,-0.90625 1.78125,-1.15625 0,-0.265625 -0.28125,-0.265625 -0.34375,-0.265625 -0.1875,0 -0.265625,0.03125 -0.328125,0.21875 -0.21875,0.5 -0.765625,0.59375 -1.046875,0.59375 -0.75,0 -1.484375,-0.5 -1.65625,-1.359375 z M 1.265625,-2.5 C 1.40625,-3.234375 2,-3.78125 2.6875,-3.78125 c 0.515625,0 1.140625,0.25 1.234375,1.28125 z m 0,0"
           style="stroke:none" />
      </g>
      <g
         transform="translate(315.258,134.765)"
         id="g3835">
        <path
           id="id-037254ef-cafd-49f5-91e6-635252fbeb0e"
           d="m 1.65625,-3.828125 c 0,-0.3125 0,-0.46875 -0.40625,-0.46875 H 0.53125 c -0.15625,0 -0.40625,0 -0.40625,0.3125 0,0.296875 0.25,0.296875 0.390625,0.296875 H 0.96875 v 3.078125 h -0.4375 c -0.15625,0 -0.40625,0 -0.40625,0.3125 C 0.125,0 0.375,0 0.515625,0 h 1.59375 C 2.25,0 2.5,0 2.5,-0.296875 c 0,-0.3125 -0.25,-0.3125 -0.40625,-0.3125 H 1.65625 V -2.375 c 0,-1 0.734375,-1.375 1.25,-1.375 0.515625,0 0.65625,0.28125 0.65625,0.875 v 2.265625 h -0.375 c -0.171875,0 -0.421875,0 -0.421875,0.3125 C 2.765625,0 3.046875,0 3.1875,0 h 1.515625 c 0.140625,0 0.40625,0 0.40625,-0.296875 0,-0.3125 -0.25,-0.3125 -0.421875,-0.3125 H 4.25 v -2.3125 c 0,-1 -0.5,-1.4375 -1.296875,-1.4375 -0.65625,0 -1.109375,0.34375 -1.296875,0.53125 z m 0,0"
           style="stroke:none" />
      </g>
      <g
         transform="translate(320.489,134.765)"
         id="g3838">
        <path
           id="id-f86eba80-6cab-4571-86ef-6be121b693a8"
           d="m 3.5625,-0.5 c 0,0.359375 0,0.5 0.40625,0.5 H 4.6875 c 0.171875,0 0.421875,0 0.421875,-0.3125 0,-0.296875 -0.265625,-0.296875 -0.40625,-0.296875 H 4.25 V -5.6875 c 0,-0.296875 -0.046875,-0.40625 -0.390625,-0.40625 H 3.125 c -0.15625,0 -0.40625,0 -0.40625,0.3125 0,0.296875 0.265625,0.296875 0.40625,0.296875 H 3.5625 V -3.90625 C 3.234375,-4.203125 2.828125,-4.359375 2.40625,-4.359375 c -1.09375,0 -2.046875,0.953125 -2.046875,2.21875 0,1.234375 0.890625,2.203125 1.953125,2.203125 0.5625,0 0.984375,-0.265625 1.25,-0.5625 z m 0,-2.140625 V -1.9375 c 0,0.5625 -0.4375,1.390625 -1.203125,1.390625 -0.71875,0 -1.3125,-0.703125 -1.3125,-1.59375 C 1.046875,-3.09375 1.75,-3.75 2.4375,-3.75 c 0.640625,0 1.125,0.5625 1.125,1.109375 z m 0,0"
           style="stroke:none" />
      </g>
    </g>
  </g>
</svg>
