<?xml version="1.0" encoding="UTF-8" standalone="no"?>
<svg
   xmlns:dc="http://purl.org/dc/elements/1.1/"
   xmlns:cc="http://creativecommons.org/ns#"
   xmlns:rdf="http://www.w3.org/1999/02/22-rdf-syntax-ns#"
   xmlns:svg="http://www.w3.org/2000/svg"
   xmlns="http://www.w3.org/2000/svg"
   xmlns:sodipodi="http://sodipodi.sourceforge.net/DTD/sodipodi-0.dtd"
   xmlns:inkscape="http://www.inkscape.org/namespaces/inkscape"
   width="100mm"
   height="100mm"
   viewBox="0 0 100 100"
   version="1.1"
   id="svg8"
   inkscape:version="1.0 (4035a4fb49, 2020-05-01)"
   sodipodi:docname="ex2D_RRTiter25.svg">
  <defs
     id="defs2">
    <clipPath
       id="clipPath1"
       clipPathUnits="userSpaceOnUse">
      <path
         id="path834"
         d="M 0,0 H 838 V 646 H 0 Z" />
    </clipPath>
    <clipPath
       id="clipPath1-2"
       clipPathUnits="userSpaceOnUse">
      <path
         id="path1478"
         d="M0 0 L560 0 L560 420 L0 420 L0 0 Z" />
    </clipPath>
    <defs
       id="defs1">
      <clipPath
         id="clipPath3040"
         clipPathUnits="userSpaceOnUse">
        <path
           id="path3038"
           d="M 0,0 H 560 V 420 H 0 Z" />
      </clipPath>
    </defs>
    <clipPath
       id="clipPath1-7"
       clipPathUnits="userSpaceOnUse">
      <path
         id="path5373"
         d="M0 0 L670 0 L670 544 L0 544 L0 0 Z" />
    </clipPath>
    <defs
       id="defs1-8">
      <clipPath
         id="clipPath5803"
         clipPathUnits="userSpaceOnUse">
        <path
           id="path5801"
           d="M 0,0 H 670 V 544 H 0 Z" />
      </clipPath>
    </defs>
    <clipPath
       clipPathUnits="userSpaceOnUse"
       id="clipPath1-1">
      <path
         d="M0 0 L698 0 L698 602 L0 602 L0 0 Z"
         id="path11183" />
    </clipPath>
    <defs
       id="defs1-3">
      <clipPath
         clipPathUnits="userSpaceOnUse"
         id="clipPath11621">
        <path
           d="M 0,0 H 698 V 602 H 0 Z"
           id="path11619" />
      </clipPath>
    </defs>
  </defs>
  <sodipodi:namedview
     id="base"
     pagecolor="#ffffff"
     bordercolor="#666666"
     borderopacity="1.0"
     inkscape:pageopacity="0.0"
     inkscape:pageshadow="2"
     inkscape:zoom="1.4142136"
     inkscape:cx="178.93483"
     inkscape:cy="183.76276"
     inkscape:document-units="mm"
     inkscape:current-layer="layer1"
     inkscape:document-rotation="0"
     showgrid="false"
     inkscape:window-width="1600"
     inkscape:window-height="837"
     inkscape:window-x="-8"
     inkscape:window-y="-8"
     inkscape:window-maximized="1" />
  <metadata
     id="metadata5">
    <rdf:RDF>
      <cc:Work
         rdf:about="">
        <dc:format>image/svg+xml</dc:format>
        <dc:type
           rdf:resource="http://purl.org/dc/dcmitype/StillImage" />
        <dc:title></dc:title>
      </cc:Work>
    </rdf:RDF>
  </metadata>
  <g
     inkscape:label="Layer 1"
     inkscape:groupmode="layer"
     id="layer1">
    <g
       transform="matrix(0.18200169,0,0,0.18200169,-12.690267,-6.0825871)"
       style="font-style:normal;font-weight:normal;font-size:12px;font-family:Dialog;color-interpolation:linearRGB;fill:#262626;fill-opacity:0.149;stroke:#262626;stroke-width:0.6667;stroke-linecap:butt;stroke-linejoin:round;stroke-miterlimit:10;stroke-dasharray:none;stroke-dashoffset:0;stroke-opacity:0.149;color-rendering:optimizeQuality;image-rendering:optimizeQuality;shape-rendering:auto;text-rendering:geometricPrecision"
       id="g11265">
      <line
         y2="45"
         style="fill:none"
         x1="116"
         x2="116"
         y1="536"
         id="line11197" />
      <line
         y2="45"
         style="fill:none"
         x1="165.10001"
         x2="165.10001"
         y1="536"
         id="line11199" />
      <line
         y2="45"
         style="fill:none"
         x1="214.2"
         x2="214.2"
         y1="536"
         id="line11201" />
      <line
         y2="45"
         style="fill:none"
         x1="263.29999"
         x2="263.29999"
         y1="536"
         id="line11203" />
      <line
         y2="45"
         style="fill:none"
         x1="312.39999"
         x2="312.39999"
         y1="536"
         id="line11205" />
      <line
         y2="45"
         style="fill:none"
         x1="361.5"
         x2="361.5"
         y1="536"
         id="line11207" />
      <line
         y2="45"
         style="fill:none"
         x1="410.60001"
         x2="410.60001"
         y1="536"
         id="line11209" />
      <line
         y2="45"
         style="fill:none"
         x1="459.70001"
         x2="459.70001"
         y1="536"
         id="line11211" />
      <line
         y2="45"
         style="fill:none"
         x1="508.79999"
         x2="508.79999"
         y1="536"
         id="line11213" />
      <line
         y2="45"
         style="fill:none"
         x1="557.90002"
         x2="557.90002"
         y1="536"
         id="line11215" />
      <line
         y2="45"
         style="fill:none"
         x1="607"
         x2="607"
         y1="536"
         id="line11217" />
      <line
         y2="536"
         style="fill:none"
         x1="607"
         x2="116"
         y1="536"
         id="line11219" />
      <line
         y2="486.89999"
         style="fill:none"
         x1="607"
         x2="116"
         y1="486.89999"
         id="line11221" />
      <line
         y2="437.79999"
         style="fill:none"
         x1="607"
         x2="116"
         y1="437.79999"
         id="line11223" />
      <line
         y2="388.70001"
         style="fill:none"
         x1="607"
         x2="116"
         y1="388.70001"
         id="line11225" />
      <line
         y2="339.60001"
         style="fill:none"
         x1="607"
         x2="116"
         y1="339.60001"
         id="line11227" />
      <line
         y2="290.5"
         style="fill:none"
         x1="607"
         x2="116"
         y1="290.5"
         id="line11229" />
      <line
         y2="241.39999"
         style="fill:none"
         x1="607"
         x2="116"
         y1="241.39999"
         id="line11231" />
      <line
         y2="192.3"
         style="fill:none"
         x1="607"
         x2="116"
         y1="192.3"
         id="line11233" />
      <line
         y2="143.2"
         style="fill:none"
         x1="607"
         x2="116"
         y1="143.2"
         id="line11235" />
      <line
         y2="94.099998"
         style="fill:none"
         x1="607"
         x2="116"
         y1="94.099998"
         id="line11237" />
      <line
         y2="45"
         style="fill:none"
         x1="607"
         x2="116"
         y1="45"
         id="line11239" />
      <line
         x1="116"
         x2="607"
         y1="536"
         style="fill:none;fill-opacity:1;stroke-linecap:square;stroke-opacity:1"
         y2="536"
         id="line11241" />
      <line
         x1="116"
         x2="116"
         y1="536"
         style="fill:none;fill-opacity:1;stroke-linecap:square;stroke-opacity:1"
         y2="531.09003"
         id="line11243" />
      <line
         x1="165.10001"
         x2="165.10001"
         y1="536"
         style="fill:none;fill-opacity:1;stroke-linecap:square;stroke-opacity:1"
         y2="531.09003"
         id="line11245" />
      <line
         x1="214.2"
         x2="214.2"
         y1="536"
         style="fill:none;fill-opacity:1;stroke-linecap:square;stroke-opacity:1"
         y2="531.09003"
         id="line11247" />
      <line
         x1="263.29999"
         x2="263.29999"
         y1="536"
         style="fill:none;fill-opacity:1;stroke-linecap:square;stroke-opacity:1"
         y2="531.09003"
         id="line11249" />
      <line
         x1="312.39999"
         x2="312.39999"
         y1="536"
         style="fill:none;fill-opacity:1;stroke-linecap:square;stroke-opacity:1"
         y2="531.09003"
         id="line11251" />
      <line
         x1="361.5"
         x2="361.5"
         y1="536"
         style="fill:none;fill-opacity:1;stroke-linecap:square;stroke-opacity:1"
         y2="531.09003"
         id="line11253" />
      <line
         x1="410.60001"
         x2="410.60001"
         y1="536"
         style="fill:none;fill-opacity:1;stroke-linecap:square;stroke-opacity:1"
         y2="531.09003"
         id="line11255" />
      <line
         x1="459.70001"
         x2="459.70001"
         y1="536"
         style="fill:none;fill-opacity:1;stroke-linecap:square;stroke-opacity:1"
         y2="531.09003"
         id="line11257" />
      <line
         x1="508.79999"
         x2="508.79999"
         y1="536"
         style="fill:none;fill-opacity:1;stroke-linecap:square;stroke-opacity:1"
         y2="531.09003"
         id="line11259" />
      <line
         x1="557.90002"
         x2="557.90002"
         y1="536"
         style="fill:none;fill-opacity:1;stroke-linecap:square;stroke-opacity:1"
         y2="531.09003"
         id="line11261" />
      <line
         x1="607"
         x2="607"
         y1="536"
         style="fill:none;fill-opacity:1;stroke-linecap:square;stroke-opacity:1"
         y2="531.09003"
         id="line11263" />
    </g>
    <g
       transform="matrix(0.18200169,0,0,0.18200169,8.4219289,92.440987)"
       style="font-style:normal;font-weight:normal;font-size:13px;font-family:SansSerif;color-interpolation:linearRGB;fill:#262626;fill-opacity:1;stroke:#262626;stroke-width:1;stroke-linecap:square;stroke-linejoin:miter;stroke-miterlimit:10;stroke-dasharray:none;stroke-dashoffset:0;stroke-opacity:1;color-rendering:optimizeQuality;image-rendering:optimizeQuality;shape-rendering:auto;text-rendering:geometricPrecision"
       id="g11269">
      <path
         style="stroke:none"
         d="m -3.4531,9.4062 q 0,-1.6406 0.3359,-2.6484 0.336,-1.0078 1.0078,-1.5547 0.6719,-0.5469 1.6875,-0.5469 0.75,0 1.3125,0.3047 0.5625,0.3047 0.9297,0.8672 0.3672,0.5625 0.5781,1.3828 0.211,0.8203 0.211,2.1953 0,1.6407 -0.336,2.6485 -0.3359,1.0078 -1.0078,1.5547 -0.6718,0.5468 -1.6875,0.5468 -1.3437,0 -2.125,-0.9687 -0.9062,-1.1563 -0.9062,-3.7813 z m 1.1719,0 q 0,2.2969 0.5312,3.0547 0.5312,0.7579 1.3281,0.7579 0.7813,0 1.3203,-0.7579 0.5391,-0.7578 0.5391,-3.0547 0,-2.2968 -0.5391,-3.0468 -0.539,-0.75 -1.3359,-0.75 -0.7813,0 -1.2656,0.6562 -0.5781,0.8594 -0.5781,3.1406 z"
         id="path11267" />
    </g>
    <g
       transform="matrix(0.18200169,0,0,0.18200169,17.358212,92.440987)"
       style="font-style:normal;font-weight:normal;font-size:13px;font-family:SansSerif;color-interpolation:linearRGB;fill:#262626;fill-opacity:1;stroke:#262626;stroke-width:1;stroke-linecap:square;stroke-linejoin:miter;stroke-miterlimit:10;stroke-dasharray:none;stroke-dashoffset:0;stroke-opacity:1;color-rendering:optimizeQuality;image-rendering:optimizeQuality;shape-rendering:auto;text-rendering:geometricPrecision"
       id="g11273">
      <path
         style="stroke:none"
         d="M 2.5469,12.9062 V 14 h -6.1563 q -0.0156,-0.4062 0.1406,-0.7969 0.2344,-0.625 0.75,-1.2343 0.5157,-0.6094 1.5,-1.4063 1.5157,-1.25 2.0469,-1.9766 0.5313,-0.7265 0.5313,-1.3671 0,-0.6876 -0.4844,-1.1485 -0.4844,-0.4609 -1.2656,-0.4609 -0.8282,0 -1.3203,0.4922 -0.4922,0.4922 -0.5079,1.3672 l -1.1718,-0.125 q 0.125,-1.3126 0.9062,-2 0.7813,-0.6876 2.1094,-0.6876 1.3438,0 2.125,0.7422 0.7812,0.7422 0.7812,1.836 0,0.5625 -0.2265,1.1015 -0.2266,0.5391 -0.7578,1.1407 -0.5313,0.6015 -1.7657,1.6328 -1.0312,0.8594 -1.3203,1.1718 -0.289,0.3126 -0.4765,0.625 z"
         id="path11271" />
    </g>
    <g
       transform="matrix(0.18200169,0,0,0.18200169,26.294495,92.440987)"
       style="font-style:normal;font-weight:normal;font-size:13px;font-family:SansSerif;color-interpolation:linearRGB;fill:#262626;fill-opacity:1;stroke:#262626;stroke-width:1;stroke-linecap:square;stroke-linejoin:miter;stroke-miterlimit:10;stroke-dasharray:none;stroke-dashoffset:0;stroke-opacity:1;color-rendering:optimizeQuality;image-rendering:optimizeQuality;shape-rendering:auto;text-rendering:geometricPrecision"
       id="g11277">
      <path
         style="stroke:none"
         d="M 0.2031,14 V 11.7656 H -3.8281 V 10.7188 L 0.4062,4.6875 h 0.9376 v 6.0313 h 1.2656 v 1.0468 H 1.3438 V 14 Z m 0,-3.2812 V 6.5312 l -2.9219,4.1876 z"
         id="path11275" />
    </g>
    <g
       transform="matrix(0.18200169,0,0,0.18200169,35.230778,92.440987)"
       style="font-style:normal;font-weight:normal;font-size:13px;font-family:SansSerif;color-interpolation:linearRGB;fill:#262626;fill-opacity:1;stroke:#262626;stroke-width:1;stroke-linecap:square;stroke-linejoin:miter;stroke-miterlimit:10;stroke-dasharray:none;stroke-dashoffset:0;stroke-opacity:1;color-rendering:optimizeQuality;image-rendering:optimizeQuality;shape-rendering:auto;text-rendering:geometricPrecision"
       id="g11281">
      <path
         style="stroke:none"
         d="M 2.4688,6.9688 1.3281,7.0625 Q 1.1875,6.3906 0.9062,6.0781 0.4375,5.5938 -0.2344,5.5938 q -0.5468,0 -0.9687,0.3124 -0.5313,0.3907 -0.8438,1.1407 -0.3125,0.75 -0.3281,2.1562 0.4062,-0.625 1.0078,-0.9297 0.6016,-0.3046 1.2578,-0.3046 1.1406,0 1.9453,0.8359 0.8047,0.8359 0.8047,2.1797 0,0.875 -0.3828,1.625 -0.3828,0.75 -1.039,1.1484 -0.6563,0.3984 -1.5,0.3984 -1.4219,0 -2.3282,-1.0468 -0.9062,-1.0469 -0.9062,-3.4688 0,-2.6875 1,-3.9218 0.875,-1.0626 2.3437,-1.0626 1.0938,0 1.7969,0.6172 0.7031,0.6172 0.8438,1.6954 z m -4.6719,4.0156 q 0,0.5937 0.25,1.1328 0.25,0.539 0.7031,0.8203 0.4531,0.2813 0.9531,0.2813 0.7188,0 1.2422,-0.586 0.5235,-0.5859 0.5235,-1.5859 0,-0.9688 -0.5157,-1.5235 -0.5156,-0.5546 -1.2969,-0.5546 -0.7812,0 -1.3203,0.5546 -0.539,0.5547 -0.539,1.461 z"
         id="path11279" />
    </g>
    <g
       transform="matrix(0.18200169,0,0,0.18200169,44.167061,92.440987)"
       style="font-style:normal;font-weight:normal;font-size:13px;font-family:SansSerif;color-interpolation:linearRGB;fill:#262626;fill-opacity:1;stroke:#262626;stroke-width:1;stroke-linecap:square;stroke-linejoin:miter;stroke-miterlimit:10;stroke-dasharray:none;stroke-dashoffset:0;stroke-opacity:1;color-rendering:optimizeQuality;image-rendering:optimizeQuality;shape-rendering:auto;text-rendering:geometricPrecision"
       id="g11285">
      <path
         style="stroke:none"
         d="M -1.7031,8.9531 Q -2.4062,8.6875 -2.75,8.2109 -3.0938,7.7344 -3.0938,7.0625 q 0,-1.0156 0.7266,-1.7109 0.7266,-0.6954 1.9453,-0.6954 1.2188,0 1.961,0.711 0.7421,0.7109 0.7421,1.7266 0,0.6406 -0.3437,1.1171 -0.3437,0.4766 -1.0313,0.7422 0.8594,0.2813 1.3047,0.9063 0.4453,0.625 0.4453,1.4844 0,1.1874 -0.8437,2 -0.8437,0.8124 -2.2187,0.8124 -1.375,0 -2.2188,-0.8124 -0.8438,-0.8126 -0.8438,-2.0313 0,-0.9063 0.461,-1.5234 0.4609,-0.6172 1.3047,-0.836 z M -1.9375,7.0156 q 0,0.6563 0.4297,1.0782 0.4297,0.4218 1.1016,0.4218 0.6718,0 1.0937,-0.414 0.4219,-0.4141 0.4219,-1.0235 0,-0.625 -0.4375,-1.0547 -0.4375,-0.4296 -1.0781,-0.4296 -0.6563,0 -1.0938,0.4218 -0.4375,0.4219 -0.4375,1 z m -0.3594,4.2969 q 0,0.4844 0.2344,0.9453 0.2344,0.461 0.6875,0.711 0.4531,0.25 0.9844,0.25 0.8125,0 1.3437,-0.5235 0.5313,-0.5234 0.5313,-1.3359 0,-0.8282 -0.5469,-1.3672 -0.5469,-0.5391 -1.375,-0.5391 -0.7969,0 -1.3281,0.5313 -0.5313,0.5312 -0.5313,1.3281 z"
         id="path11283" />
    </g>
    <g
       transform="matrix(0.18200169,0,0,0.18200169,53.103345,92.440987)"
       style="font-style:normal;font-weight:normal;font-size:13px;font-family:SansSerif;color-interpolation:linearRGB;fill:#262626;fill-opacity:1;stroke:#262626;stroke-width:1;stroke-linecap:square;stroke-linejoin:miter;stroke-miterlimit:10;stroke-dasharray:none;stroke-dashoffset:0;stroke-opacity:1;color-rendering:optimizeQuality;image-rendering:optimizeQuality;shape-rendering:auto;text-rendering:geometricPrecision"
       id="g11289">
      <path
         style="stroke:none"
         d="M -2.6562,14 H -3.7969 V 6.7188 q -0.4219,0.3906 -1.0859,0.789 -0.6641,0.3984 -1.1953,0.586 V 6.9844 q 0.9531,-0.4375 1.6719,-1.0782 0.7187,-0.6406 1.0156,-1.25 h 0.7344 z M 0.2769,9.4062 q 0,-1.6406 0.3359,-2.6484 Q 0.9487,5.75 1.6206,5.2031 2.2925,4.6562 3.3081,4.6562 q 0.75,0 1.3125,0.3047 0.5625,0.3047 0.9297,0.8672 0.3672,0.5625 0.5781,1.3828 0.211,0.8203 0.211,2.1953 0,1.6407 -0.336,2.6485 -0.3359,1.0078 -1.0078,1.5547 -0.6719,0.5468 -1.6875,0.5468 -1.3437,0 -2.125,-0.9687 Q 0.2769,12.0312 0.2769,9.4062 Z m 1.1718,0 q 0,2.2969 0.5313,3.0547 0.5312,0.7579 1.3281,0.7579 0.7813,0 1.3203,-0.7579 0.5391,-0.7578 0.5391,-3.0547 0,-2.2968 -0.5391,-3.0468 -0.539,-0.75 -1.3359,-0.75 -0.7813,0 -1.2656,0.6562 Q 1.4487,7.125 1.4487,9.4062 Z"
         id="path11287" />
    </g>
    <g
       transform="matrix(0.18200169,0,0,0.18200169,62.039628,92.440987)"
       style="font-style:normal;font-weight:normal;font-size:13px;font-family:SansSerif;color-interpolation:linearRGB;fill:#262626;fill-opacity:1;stroke:#262626;stroke-width:1;stroke-linecap:square;stroke-linejoin:miter;stroke-miterlimit:10;stroke-dasharray:none;stroke-dashoffset:0;stroke-opacity:1;color-rendering:optimizeQuality;image-rendering:optimizeQuality;shape-rendering:auto;text-rendering:geometricPrecision"
       id="g11293">
      <path
         style="stroke:none"
         d="M -2.6562,14 H -3.7969 V 6.7188 q -0.4219,0.3906 -1.0859,0.789 -0.6641,0.3984 -1.1953,0.586 V 6.9844 q 0.9531,-0.4375 1.6719,-1.0782 0.7187,-0.6406 1.0156,-1.25 h 0.7344 z M 6.2769,12.9062 V 14 H 0.1206 q -0.0156,-0.4062 0.1406,-0.7969 0.2344,-0.625 0.75,-1.2343 0.5157,-0.6094 1.5,-1.4063 Q 4.0269,9.3125 4.5581,8.5859 5.0894,7.8594 5.0894,7.2188 5.0894,6.5312 4.605,6.0703 4.1206,5.6094 3.3394,5.6094 2.5112,5.6094 2.019,6.1016 1.5269,6.5938 1.5112,7.4688 L 0.3394,7.3438 q 0.125,-1.3126 0.9062,-2 0.7813,-0.6876 2.1094,-0.6876 1.3437,0 2.125,0.7422 0.7812,0.7422 0.7812,1.836 0,0.5625 -0.2265,1.1015 Q 5.8081,8.875 5.2769,9.4766 4.7456,10.0781 3.5112,11.1094 2.48,11.9688 2.1909,12.2812 q -0.289,0.3126 -0.4765,0.625 z"
         id="path11291" />
    </g>
    <g
       transform="matrix(0.18200169,0,0,0.18200169,70.975911,92.440987)"
       style="font-style:normal;font-weight:normal;font-size:13px;font-family:SansSerif;color-interpolation:linearRGB;fill:#262626;fill-opacity:1;stroke:#262626;stroke-width:1;stroke-linecap:square;stroke-linejoin:miter;stroke-miterlimit:10;stroke-dasharray:none;stroke-dashoffset:0;stroke-opacity:1;color-rendering:optimizeQuality;image-rendering:optimizeQuality;shape-rendering:auto;text-rendering:geometricPrecision"
       id="g11297">
      <path
         style="stroke:none"
         d="M -2.6562,14 H -3.7969 V 6.7188 q -0.4219,0.3906 -1.0859,0.789 -0.6641,0.3984 -1.1953,0.586 V 6.9844 q 0.9531,-0.4375 1.6719,-1.0782 0.7187,-0.6406 1.0156,-1.25 h 0.7344 z m 6.5893,0 V 11.7656 H -0.0981 V 10.7188 L 4.1362,4.6875 h 0.9375 v 6.0313 h 1.2657 v 1.0468 H 5.0737 V 14 Z m 0,-3.2812 V 6.5312 l -2.9219,4.1876 z"
         id="path11295" />
    </g>
    <g
       transform="matrix(0.18200169,0,0,0.18200169,79.912194,92.440987)"
       style="font-style:normal;font-weight:normal;font-size:13px;font-family:SansSerif;color-interpolation:linearRGB;fill:#262626;fill-opacity:1;stroke:#262626;stroke-width:1;stroke-linecap:square;stroke-linejoin:miter;stroke-miterlimit:10;stroke-dasharray:none;stroke-dashoffset:0;stroke-opacity:1;color-rendering:optimizeQuality;image-rendering:optimizeQuality;shape-rendering:auto;text-rendering:geometricPrecision"
       id="g11301">
      <path
         style="stroke:none"
         d="M -2.6562,14 H -3.7969 V 6.7188 q -0.4219,0.3906 -1.0859,0.789 -0.6641,0.3984 -1.1953,0.586 V 6.9844 q 0.9531,-0.4375 1.6719,-1.0782 0.7187,-0.6406 1.0156,-1.25 h 0.7344 z M 6.1987,6.9688 5.0581,7.0625 Q 4.9175,6.3906 4.6362,6.0781 4.1675,5.5938 3.4956,5.5938 2.9487,5.5938 2.5269,5.9062 1.9956,6.2969 1.6831,7.0469 1.3706,7.7969 1.355,9.2031 1.7612,8.5781 2.3628,8.2734 2.9644,7.9688 3.6206,7.9688 q 1.1406,0 1.9453,0.8359 0.8047,0.8359 0.8047,2.1797 0,0.875 -0.3828,1.625 -0.3828,0.75 -1.0391,1.1484 -0.6562,0.3984 -1.5,0.3984 -1.4218,0 -2.3281,-1.0468 -0.9062,-1.0469 -0.9062,-3.4688 0,-2.6875 1,-3.9218 0.875,-1.0626 2.3437,-1.0626 1.0938,0 1.7969,0.6172 0.7031,0.6172 0.8437,1.6954 z m -4.6718,4.0156 q 0,0.5937 0.25,1.1328 0.25,0.539 0.7031,0.8203 0.4531,0.2813 0.9531,0.2813 0.7188,0 1.2422,-0.586 0.5234,-0.5859 0.5234,-1.5859 0,-0.9688 -0.5156,-1.5235 -0.5156,-0.5546 -1.2969,-0.5546 -0.7812,0 -1.3203,0.5546 -0.539,0.5547 -0.539,1.461 z"
         id="path11299" />
    </g>
    <g
       transform="matrix(0.18200169,0,0,0.18200169,88.848477,92.440987)"
       style="font-style:normal;font-weight:normal;font-size:13px;font-family:SansSerif;color-interpolation:linearRGB;fill:#262626;fill-opacity:1;stroke:#262626;stroke-width:1;stroke-linecap:square;stroke-linejoin:miter;stroke-miterlimit:10;stroke-dasharray:none;stroke-dashoffset:0;stroke-opacity:1;color-rendering:optimizeQuality;image-rendering:optimizeQuality;shape-rendering:auto;text-rendering:geometricPrecision"
       id="g11305">
      <path
         style="stroke:none"
         d="M -2.6562,14 H -3.7969 V 6.7188 q -0.4219,0.3906 -1.0859,0.789 -0.6641,0.3984 -1.1953,0.586 V 6.9844 q 0.9531,-0.4375 1.6719,-1.0782 0.7187,-0.6406 1.0156,-1.25 h 0.7344 z M 2.0269,8.9531 Q 1.3237,8.6875 0.98,8.2109 0.6362,7.7344 0.6362,7.0625 q 0,-1.0156 0.7266,-1.7109 0.7266,-0.6954 1.9453,-0.6954 1.2188,0 1.9609,0.711 0.7422,0.7109 0.7422,1.7266 0,0.6406 -0.3437,1.1171 -0.3438,0.4766 -1.0313,0.7422 0.8594,0.2813 1.3047,0.9063 0.4453,0.625 0.4453,1.4844 0,1.1874 -0.8437,2 -0.8438,0.8124 -2.2188,0.8124 -1.375,0 -2.2187,-0.8124 -0.8438,-0.8126 -0.8438,-2.0313 0,-0.9063 0.461,-1.5234 0.4609,-0.6172 1.3047,-0.836 z M 1.7925,7.0156 q 0,0.6563 0.4297,1.0782 0.4297,0.4218 1.1015,0.4218 0.6719,0 1.0938,-0.414 0.4219,-0.4141 0.4219,-1.0235 0,-0.625 -0.4375,-1.0547 -0.4375,-0.4296 -1.0782,-0.4296 -0.6562,0 -1.0937,0.4218 -0.4375,0.4219 -0.4375,1 z m -0.3594,4.2969 q 0,0.4844 0.2344,0.9453 0.2344,0.461 0.6875,0.711 0.4531,0.25 0.9844,0.25 0.8125,0 1.3437,-0.5235 0.5313,-0.5234 0.5313,-1.3359 0,-0.8282 -0.5469,-1.3672 -0.5469,-0.5391 -1.375,-0.5391 -0.7969,0 -1.3281,0.5313 -0.5313,0.5312 -0.5313,1.3281 z"
         id="path11303" />
    </g>
    <g
       transform="matrix(0.18200169,0,0,0.18200169,97.78476,92.440987)"
       style="font-style:normal;font-weight:normal;font-size:13px;font-family:SansSerif;color-interpolation:linearRGB;fill:#262626;fill-opacity:1;stroke:#262626;stroke-width:1;stroke-linecap:square;stroke-linejoin:miter;stroke-miterlimit:10;stroke-dasharray:none;stroke-dashoffset:0;stroke-opacity:1;color-rendering:optimizeQuality;image-rendering:optimizeQuality;shape-rendering:auto;text-rendering:geometricPrecision"
       id="g11309">
      <path
         style="stroke:none"
         d="M -0.9531,12.9062 V 14 h -6.1563 q -0.0156,-0.4062 0.1406,-0.7969 0.2344,-0.625 0.75,-1.2343 0.5157,-0.6094 1.5,-1.4063 1.5157,-1.25 2.0469,-1.9766 0.5313,-0.7265 0.5313,-1.3671 0,-0.6876 -0.4844,-1.1485 -0.4844,-0.4609 -1.2656,-0.4609 -0.8282,0 -1.3203,0.4922 -0.4922,0.4922 -0.5079,1.3672 l -1.1718,-0.125 q 0.125,-1.3126 0.9062,-2 0.7813,-0.6876 2.1094,-0.6876 1.3438,0 2.125,0.7422 0.7812,0.7422 0.7812,1.836 0,0.5625 -0.2265,1.1015 -0.2266,0.5391 -0.7578,1.1407 -0.5313,0.6015 -1.7657,1.6328 -1.0312,0.8594 -1.3203,1.1718 -0.289,0.3126 -0.4765,0.625 z m 1.23,-3.5 q 0,-1.6406 0.3359,-2.6484 Q 0.9487,5.75 1.6206,5.2031 2.2925,4.6562 3.3081,4.6562 q 0.75,0 1.3125,0.3047 0.5625,0.3047 0.9297,0.8672 0.3672,0.5625 0.5781,1.3828 0.211,0.8203 0.211,2.1953 0,1.6407 -0.336,2.6485 -0.3359,1.0078 -1.0078,1.5547 -0.6719,0.5468 -1.6875,0.5468 -1.3437,0 -2.125,-0.9687 Q 0.2769,12.0312 0.2769,9.4062 Z m 1.1718,0 q 0,2.2969 0.5313,3.0547 0.5312,0.7579 1.3281,0.7579 0.7813,0 1.3203,-0.7579 0.5391,-0.7578 0.5391,-3.0547 0,-2.2968 -0.5391,-3.0468 -0.539,-0.75 -1.3359,-0.75 -0.7813,0 -1.2656,0.6562 Q 1.4487,7.125 1.4487,9.4062 Z"
         id="path11307" />
    </g>
    <g
       transform="matrix(0.18200169,0,0,0.18200169,53.004162,93.330307)"
       style="font-style:normal;font-weight:normal;font-size:33px;font-family:mwa_cmmi10;color-interpolation:linearRGB;fill:#262626;fill-opacity:1;stroke:#262626;stroke-width:1;stroke-linecap:square;stroke-linejoin:miter;stroke-miterlimit:10;stroke-dasharray:none;stroke-dashoffset:0;stroke-opacity:1;color-rendering:optimizeQuality;image-rendering:optimizeQuality;shape-rendering:auto;text-rendering:geometricPrecision"
       id="g11315">
      <path
         style="stroke:none"
         d="m -9.2631,33.9843 q 0.125,-0.7344 0.4375,-0.7344 1.2031,0 1.8828,-0.1953 0.6797,-0.1953 0.8984,-0.9297 l 1.4063,-5.6094 q -1.875,1.8594 -3.7656,1.8594 -2.0782,0 -3.2657,-1.5703 -1.1875,-1.5703 -1.1875,-3.7266 0,-2.1094 1.0938,-4.375 1.0937,-2.2656 2.9531,-3.7734 1.8594,-1.5078 4.0156,-1.5078 1,0 1.8047,0.5937 0.8047,0.5938 1.2266,1.5781 0.1875,-0.3906 1.0703,-1.2812 0.8828,-0.8906 1.2266,-0.8906 0.375,0 0.375,0.4218 l -4.625,18.4063 q -0.0782,0.4844 -0.0938,0.5625 0,0.4375 2.1719,0.4375 0.1719,0 0.2578,0.1328 0.0859,0.1328 0.0859,0.2891 -0.1093,0.4375 -0.1875,0.5781 -0.0781,0.1406 -0.375,0.1406 h -7.0625 q -0.3437,0 -0.3437,-0.4062 z m 0.9219,-6.4844 q 1.1562,0 2.2656,-0.875 1.1094,-0.875 1.9219,-2.0938 l 1.8593,-7.4218 q -0.1875,-1.1563 -0.8437,-2 -0.6563,-0.8438 -1.7344,-0.8438 -1.1094,0 -2.0703,0.9141 -0.9609,0.914 -1.6172,2.1484 -0.6406,1.3281 -1.2344,3.6328 -0.5937,2.3047 -0.5937,3.5703 0,1.1407 0.4922,2.0547 0.4922,0.9141 1.5547,0.9141 z"
         id="path11311" />
      <path
         style="stroke:none"
         d="m 2.9142,32.9998 v -0.8125 q 2.875,0 2.875,-0.7187 V 19.3905 q -1.2031,0.5781 -3.0156,0.5781 v -0.8125 q 2.8125,0 4.25,-1.4688 h 0.3281 q 0.0781,0 0.1562,0.0625 0.0782,0.0625 0.0782,0.1407 v 13.5781 q 0,0.7187 2.875,0.7187 v 0.8125 z"
         id="path11313" />
    </g>
    <g
       transform="matrix(0.18200169,0,0,0.18200169,-12.690267,-6.0825871)"
       style="font-style:normal;font-weight:normal;font-size:12px;font-family:Dialog;color-interpolation:linearRGB;fill:#262626;fill-opacity:1;stroke:#262626;stroke-width:0.6667;stroke-linecap:square;stroke-linejoin:round;stroke-miterlimit:10;stroke-dasharray:none;stroke-dashoffset:0;stroke-opacity:1;color-rendering:optimizeQuality;image-rendering:optimizeQuality;shape-rendering:auto;text-rendering:geometricPrecision"
       id="g11341">
      <line
         y2="45"
         style="fill:none"
         x1="116"
         x2="116"
         y1="536"
         id="line11317" />
      <line
         y2="536"
         style="fill:none"
         x1="116"
         x2="120.91"
         y1="536"
         id="line11319" />
      <line
         y2="486.89999"
         style="fill:none"
         x1="116"
         x2="120.91"
         y1="486.89999"
         id="line11321" />
      <line
         y2="437.79999"
         style="fill:none"
         x1="116"
         x2="120.91"
         y1="437.79999"
         id="line11323" />
      <line
         y2="388.70001"
         style="fill:none"
         x1="116"
         x2="120.91"
         y1="388.70001"
         id="line11325" />
      <line
         y2="339.60001"
         style="fill:none"
         x1="116"
         x2="120.91"
         y1="339.60001"
         id="line11327" />
      <line
         y2="290.5"
         style="fill:none"
         x1="116"
         x2="120.91"
         y1="290.5"
         id="line11329" />
      <line
         y2="241.39999"
         style="fill:none"
         x1="116"
         x2="120.91"
         y1="241.39999"
         id="line11331" />
      <line
         y2="192.3"
         style="fill:none"
         x1="116"
         x2="120.91"
         y1="192.3"
         id="line11333" />
      <line
         y2="143.2"
         style="fill:none"
         x1="116"
         x2="120.91"
         y1="143.2"
         id="line11335" />
      <line
         y2="94.099998"
         style="fill:none"
         x1="116"
         x2="120.91"
         y1="94.099998"
         id="line11337" />
      <line
         y2="45"
         style="fill:none"
         x1="116"
         x2="120.91"
         y1="45"
         id="line11339" />
    </g>
    <g
       transform="matrix(0.18200169,0,0,0.18200169,7.4512594,91.470319)"
       style="font-style:normal;font-weight:normal;font-size:13px;font-family:SansSerif;color-interpolation:linearRGB;fill:#262626;fill-opacity:1;stroke:#262626;stroke-width:1;stroke-linecap:square;stroke-linejoin:miter;stroke-miterlimit:10;stroke-dasharray:none;stroke-dashoffset:0;stroke-opacity:1;color-rendering:optimizeQuality;image-rendering:optimizeQuality;shape-rendering:auto;text-rendering:geometricPrecision"
       id="g11345">
      <path
         style="stroke:none"
         d="m -7.4531,0.9062 q 0,-1.6406 0.3359,-2.6484 0.336,-1.0078 1.0078,-1.5547 0.6719,-0.5469 1.6875,-0.5469 0.75,0 1.3125,0.3047 0.5625,0.3047 0.9297,0.8672 0.3672,0.5625 0.5781,1.3828 0.211,0.8203 0.211,2.1953 0,1.6407 -0.336,2.6485 -0.3359,1.0078 -1.0078,1.5547 -0.6718,0.5468 -1.6875,0.5468 -1.3437,0 -2.125,-0.9687 -0.9062,-1.1563 -0.9062,-3.7813 z m 1.1719,0 q 0,2.2969 0.5312,3.0547 0.5312,0.7579 1.3281,0.7579 0.7813,0 1.3203,-0.7579 0.5391,-0.7578 0.5391,-3.0547 0,-2.2968 -0.5391,-3.0468 -0.539,-0.75 -1.3359,-0.75 -0.7813,0 -1.2656,0.6562 -0.5781,0.8594 -0.5781,3.1406 z"
         id="path11343" />
    </g>
    <g
       transform="matrix(0.18200169,0,0,0.18200169,7.4512594,82.534037)"
       style="font-style:normal;font-weight:normal;font-size:13px;font-family:SansSerif;color-interpolation:linearRGB;fill:#262626;fill-opacity:1;stroke:#262626;stroke-width:1;stroke-linecap:square;stroke-linejoin:miter;stroke-miterlimit:10;stroke-dasharray:none;stroke-dashoffset:0;stroke-opacity:1;color-rendering:optimizeQuality;image-rendering:optimizeQuality;shape-rendering:auto;text-rendering:geometricPrecision"
       id="g11349">
      <path
         style="stroke:none"
         d="M -1.4531,4.4062 V 5.5 h -6.1563 q -0.0156,-0.4062 0.1406,-0.7969 0.2344,-0.625 0.75,-1.2343 0.5157,-0.6094 1.5,-1.4063 1.5157,-1.25 2.0469,-1.9766 0.5313,-0.7265 0.5313,-1.3671 0,-0.6876 -0.4844,-1.1485 -0.4844,-0.4609 -1.2656,-0.4609 -0.8282,0 -1.3203,0.4922 -0.4922,0.4922 -0.5079,1.3672 l -1.1718,-0.125 q 0.125,-1.3126 0.9062,-2 0.7813,-0.6876 2.1094,-0.6876 1.3438,0 2.125,0.7422 0.7812,0.7422 0.7812,1.836 0,0.5625 -0.2265,1.1015 -0.2266,0.5391 -0.7578,1.1407 -0.5313,0.6015 -1.7657,1.6328 -1.0312,0.8594 -1.3203,1.1718 -0.289,0.3126 -0.4765,0.625 z"
         id="path11347" />
    </g>
    <g
       transform="matrix(0.18200169,0,0,0.18200169,7.4512594,73.597755)"
       style="font-style:normal;font-weight:normal;font-size:13px;font-family:SansSerif;color-interpolation:linearRGB;fill:#262626;fill-opacity:1;stroke:#262626;stroke-width:1;stroke-linecap:square;stroke-linejoin:miter;stroke-miterlimit:10;stroke-dasharray:none;stroke-dashoffset:0;stroke-opacity:1;color-rendering:optimizeQuality;image-rendering:optimizeQuality;shape-rendering:auto;text-rendering:geometricPrecision"
       id="g11353">
      <path
         style="stroke:none"
         d="M -3.7969,5.5 V 3.2656 H -7.8281 V 2.2188 l 4.2343,-6.0313 h 0.9376 v 6.0313 h 1.2656 V 3.2656 H -2.6562 V 5.5 Z m 0,-3.2812 v -4.1876 l -2.9219,4.1876 z"
         id="path11351" />
    </g>
    <g
       transform="matrix(0.18200169,0,0,0.18200169,7.4512594,64.66147)"
       style="font-style:normal;font-weight:normal;font-size:13px;font-family:SansSerif;color-interpolation:linearRGB;fill:#262626;fill-opacity:1;stroke:#262626;stroke-width:1;stroke-linecap:square;stroke-linejoin:miter;stroke-miterlimit:10;stroke-dasharray:none;stroke-dashoffset:0;stroke-opacity:1;color-rendering:optimizeQuality;image-rendering:optimizeQuality;shape-rendering:auto;text-rendering:geometricPrecision"
       id="g11357">
      <path
         style="stroke:none"
         d="m -1.5312,-1.5312 -1.1407,0.0937 q -0.1406,-0.6719 -0.4219,-0.9844 -0.4687,-0.4843 -1.1406,-0.4843 -0.5468,0 -0.9687,0.3124 -0.5313,0.3907 -0.8438,1.1407 -0.3125,0.75 -0.3281,2.1562 0.4062,-0.625 1.0078,-0.9297 0.6016,-0.3046 1.2578,-0.3046 1.1406,0 1.9453,0.8359 0.8047,0.8359 0.8047,2.1797 0,0.875 -0.3828,1.625 -0.3828,0.75 -1.039,1.1484 -0.6563,0.3984 -1.5,0.3984 -1.4219,0 -2.3282,-1.0468 -0.9062,-1.0469 -0.9062,-3.4688 0,-2.6875 1,-3.9218 0.875,-1.0626 2.3437,-1.0626 1.0938,0 1.7969,0.6172 0.7031,0.6172 0.8438,1.6954 z m -4.6719,4.0156 q 0,0.5937 0.25,1.1328 0.25,0.539 0.7031,0.8203 0.4531,0.2813 0.9531,0.2813 0.7188,0 1.2422,-0.586 0.5235,-0.5859 0.5235,-1.5859 0,-0.9688 -0.5157,-1.5235 -0.5156,-0.5546 -1.2969,-0.5546 -0.7812,0 -1.3203,0.5546 -0.539,0.5547 -0.539,1.461 z"
         id="path11355" />
    </g>
    <g
       transform="matrix(0.18200169,0,0,0.18200169,7.4512594,55.725188)"
       style="font-style:normal;font-weight:normal;font-size:13px;font-family:SansSerif;color-interpolation:linearRGB;fill:#262626;fill-opacity:1;stroke:#262626;stroke-width:1;stroke-linecap:square;stroke-linejoin:miter;stroke-miterlimit:10;stroke-dasharray:none;stroke-dashoffset:0;stroke-opacity:1;color-rendering:optimizeQuality;image-rendering:optimizeQuality;shape-rendering:auto;text-rendering:geometricPrecision"
       id="g11361">
      <path
         style="stroke:none"
         d="M -5.7031,0.4531 Q -6.4062,0.1875 -6.75,-0.2891 q -0.3438,-0.4765 -0.3438,-1.1484 0,-1.0156 0.7266,-1.7109 0.7266,-0.6954 1.9453,-0.6954 1.2188,0 1.961,0.711 0.7421,0.7109 0.7421,1.7266 0,0.6406 -0.3437,1.1171 -0.3437,0.4766 -1.0313,0.7422 0.8594,0.2813 1.3047,0.9063 0.4453,0.625 0.4453,1.4844 0,1.1874 -0.8437,2 -0.8437,0.8124 -2.2187,0.8124 -1.375,0 -2.2188,-0.8124 -0.8438,-0.8126 -0.8438,-2.0313 0,-0.9063 0.461,-1.5234 0.4609,-0.6172 1.3047,-0.836 z m -0.2344,-1.9375 q 0,0.6563 0.4297,1.0782 0.4297,0.4218 1.1016,0.4218 0.6718,0 1.0937,-0.414 0.4219,-0.4141 0.4219,-1.0235 0,-0.625 -0.4375,-1.0547 -0.4375,-0.4296 -1.0781,-0.4296 -0.6563,0 -1.0938,0.4218 -0.4375,0.4219 -0.4375,1 z m -0.3594,4.2969 q 0,0.4844 0.2344,0.9453 0.2344,0.461 0.6875,0.711 0.4531,0.25 0.9844,0.25 0.8125,0 1.3437,-0.5235 0.5313,-0.5234 0.5313,-1.3359 0,-0.8282 -0.5469,-1.3672 -0.5469,-0.5391 -1.375,-0.5391 -0.7969,0 -1.3281,0.5313 -0.5313,0.5312 -0.5313,1.3281 z"
         id="path11359" />
    </g>
    <g
       transform="matrix(0.18200169,0,0,0.18200169,7.4512594,46.788904)"
       style="font-style:normal;font-weight:normal;font-size:13px;font-family:SansSerif;color-interpolation:linearRGB;fill:#262626;fill-opacity:1;stroke:#262626;stroke-width:1;stroke-linecap:square;stroke-linejoin:miter;stroke-miterlimit:10;stroke-dasharray:none;stroke-dashoffset:0;stroke-opacity:1;color-rendering:optimizeQuality;image-rendering:optimizeQuality;shape-rendering:auto;text-rendering:geometricPrecision"
       id="g11365">
      <path
         style="stroke:none"
         d="m -10.1562,5.5 h -1.1407 v -7.2812 q -0.4219,0.3906 -1.0859,0.789 -0.6641,0.3984 -1.1953,0.586 v -1.1094 q 0.9531,-0.4375 1.6719,-1.0782 0.7187,-0.6406 1.0156,-1.25 h 0.7344 z m 2.9331,-4.5938 q 0,-1.6406 0.3359,-2.6484 0.3359,-1.0078 1.0078,-1.5547 0.6719,-0.5469 1.6875,-0.5469 0.75,0 1.3125,0.3047 0.5625,0.3047 0.9297,0.8672 0.3672,0.5625 0.5781,1.3828 0.211,0.8203 0.211,2.1953 0,1.6407 -0.336,2.6485 -0.3359,1.0078 -1.0078,1.5547 -0.6719,0.5468 -1.6875,0.5468 -1.3437,0 -2.125,-0.9687 -0.9062,-1.1563 -0.9062,-3.7813 z m 1.1718,0 q 0,2.2969 0.5313,3.0547 0.5312,0.7579 1.3281,0.7579 0.7813,0 1.3203,-0.7579 0.5391,-0.7578 0.5391,-3.0547 0,-2.2968 -0.5391,-3.0468 -0.539,-0.75 -1.3359,-0.75 -0.7813,0 -1.2656,0.6562 -0.5782,0.8594 -0.5782,3.1406 z"
         id="path11363" />
    </g>
    <g
       transform="matrix(0.18200169,0,0,0.18200169,7.4512594,37.852621)"
       style="font-style:normal;font-weight:normal;font-size:13px;font-family:SansSerif;color-interpolation:linearRGB;fill:#262626;fill-opacity:1;stroke:#262626;stroke-width:1;stroke-linecap:square;stroke-linejoin:miter;stroke-miterlimit:10;stroke-dasharray:none;stroke-dashoffset:0;stroke-opacity:1;color-rendering:optimizeQuality;image-rendering:optimizeQuality;shape-rendering:auto;text-rendering:geometricPrecision"
       id="g11369">
      <path
         style="stroke:none"
         d="m -10.1562,5.5 h -1.1407 v -7.2812 q -0.4219,0.3906 -1.0859,0.789 -0.6641,0.3984 -1.1953,0.586 v -1.1094 q 0.9531,-0.4375 1.6719,-1.0782 0.7187,-0.6406 1.0156,-1.25 h 0.7344 z M -1.2231,4.4062 V 5.5 h -6.1563 q -0.0156,-0.4062 0.1406,-0.7969 0.2344,-0.625 0.75,-1.2343 0.5157,-0.6094 1.5,-1.4063 1.5157,-1.25 2.0469,-1.9766 0.5313,-0.7265 0.5313,-1.3671 0,-0.6876 -0.4844,-1.1485 -0.4844,-0.4609 -1.2656,-0.4609 -0.8282,0 -1.3204,0.4922 -0.4921,0.4922 -0.5078,1.3672 l -1.1718,-0.125 q 0.125,-1.3126 0.9062,-2 0.7813,-0.6876 2.1094,-0.6876 1.3437,0 2.125,0.7422 0.7812,0.7422 0.7812,1.836 0,0.5625 -0.2265,1.1015 -0.2266,0.5391 -0.7578,1.1407 -0.5313,0.6015 -1.7657,1.6328 -1.0312,0.8594 -1.3203,1.1718 -0.289,0.3126 -0.4765,0.625 z"
         id="path11367" />
    </g>
    <g
       transform="matrix(0.18200169,0,0,0.18200169,7.4512594,28.916338)"
       style="font-style:normal;font-weight:normal;font-size:13px;font-family:SansSerif;color-interpolation:linearRGB;fill:#262626;fill-opacity:1;stroke:#262626;stroke-width:1;stroke-linecap:square;stroke-linejoin:miter;stroke-miterlimit:10;stroke-dasharray:none;stroke-dashoffset:0;stroke-opacity:1;color-rendering:optimizeQuality;image-rendering:optimizeQuality;shape-rendering:auto;text-rendering:geometricPrecision"
       id="g11373">
      <path
         style="stroke:none"
         d="m -10.1562,5.5 h -1.1407 v -7.2812 q -0.4219,0.3906 -1.0859,0.789 -0.6641,0.3984 -1.1953,0.586 v -1.1094 q 0.9531,-0.4375 1.6719,-1.0782 0.7187,-0.6406 1.0156,-1.25 h 0.7344 z m 6.5893,0 V 3.2656 H -7.5981 V 2.2188 l 4.2343,-6.0313 h 0.9375 v 6.0313 h 1.2657 V 3.2656 H -2.4263 V 5.5 Z m 0,-3.2812 v -4.1876 l -2.9219,4.1876 z"
         id="path11371" />
    </g>
    <g
       transform="matrix(0.18200169,0,0,0.18200169,7.4512594,19.980055)"
       style="font-style:normal;font-weight:normal;font-size:13px;font-family:SansSerif;color-interpolation:linearRGB;fill:#262626;fill-opacity:1;stroke:#262626;stroke-width:1;stroke-linecap:square;stroke-linejoin:miter;stroke-miterlimit:10;stroke-dasharray:none;stroke-dashoffset:0;stroke-opacity:1;color-rendering:optimizeQuality;image-rendering:optimizeQuality;shape-rendering:auto;text-rendering:geometricPrecision"
       id="g11377">
      <path
         style="stroke:none"
         d="m -10.1562,5.5 h -1.1407 v -7.2812 q -0.4219,0.3906 -1.0859,0.789 -0.6641,0.3984 -1.1953,0.586 v -1.1094 q 0.9531,-0.4375 1.6719,-1.0782 0.7187,-0.6406 1.0156,-1.25 h 0.7344 z m 8.8549,-7.0312 -1.1406,0.0937 q -0.1406,-0.6719 -0.4219,-0.9844 -0.4687,-0.4843 -1.1406,-0.4843 -0.5469,0 -0.9687,0.3124 -0.5313,0.3907 -0.8438,1.1407 -0.3125,0.75 -0.3281,2.1562 0.4062,-0.625 1.0078,-0.9297 0.6016,-0.3046 1.2578,-0.3046 1.1406,0 1.9453,0.8359 0.8047,0.8359 0.8047,2.1797 0,0.875 -0.3828,1.625 -0.3828,0.75 -1.0391,1.1484 -0.6562,0.3984 -1.5,0.3984 -1.4218,0 -2.3281,-1.0468 -0.9062,-1.0469 -0.9062,-3.4688 0,-2.6875 1,-3.9218 0.875,-1.0626 2.3437,-1.0626 1.0938,0 1.7969,0.6172 0.7031,0.6172 0.8437,1.6954 z m -4.6718,4.0156 q 0,0.5937 0.25,1.1328 0.25,0.539 0.7031,0.8203 0.4531,0.2813 0.9531,0.2813 0.7188,0 1.2422,-0.586 0.5234,-0.5859 0.5234,-1.5859 0,-0.9688 -0.5156,-1.5235 -0.5156,-0.5546 -1.2969,-0.5546 -0.7812,0 -1.3203,0.5546 -0.539,0.5547 -0.539,1.461 z"
         id="path11375" />
    </g>
    <g
       transform="matrix(0.18200169,0,0,0.18200169,7.4512594,11.043772)"
       style="font-style:normal;font-weight:normal;font-size:13px;font-family:SansSerif;color-interpolation:linearRGB;fill:#262626;fill-opacity:1;stroke:#262626;stroke-width:1;stroke-linecap:square;stroke-linejoin:miter;stroke-miterlimit:10;stroke-dasharray:none;stroke-dashoffset:0;stroke-opacity:1;color-rendering:optimizeQuality;image-rendering:optimizeQuality;shape-rendering:auto;text-rendering:geometricPrecision"
       id="g11381">
      <path
         style="stroke:none"
         d="m -10.1562,5.5 h -1.1407 v -7.2812 q -0.4219,0.3906 -1.0859,0.789 -0.6641,0.3984 -1.1953,0.586 v -1.1094 q 0.9531,-0.4375 1.6719,-1.0782 0.7187,-0.6406 1.0156,-1.25 h 0.7344 z M -5.4731,0.4531 Q -6.1763,0.1875 -6.52,-0.2891 q -0.3438,-0.4765 -0.3438,-1.1484 0,-1.0156 0.7266,-1.7109 0.7266,-0.6954 1.9453,-0.6954 1.2188,0 1.9609,0.711 0.7422,0.7109 0.7422,1.7266 0,0.6406 -0.3437,1.1171 -0.3438,0.4766 -1.0313,0.7422 0.8594,0.2813 1.3047,0.9063 0.4453,0.625 0.4453,1.4844 0,1.1874 -0.8437,2 -0.8438,0.8124 -2.2188,0.8124 -1.375,0 -2.2187,-0.8124 -0.8438,-0.8126 -0.8438,-2.0313 0,-0.9063 0.461,-1.5234 0.4609,-0.6172 1.3047,-0.836 z m -0.2344,-1.9375 q 0,0.6563 0.4297,1.0782 0.4297,0.4218 1.1015,0.4218 0.6719,0 1.0938,-0.414 0.4219,-0.4141 0.4219,-1.0235 0,-0.625 -0.4375,-1.0547 -0.4375,-0.4296 -1.0782,-0.4296 -0.6562,0 -1.0937,0.4218 -0.4375,0.4219 -0.4375,1 z m -0.3594,4.2969 q 0,0.4844 0.2344,0.9453 0.2344,0.461 0.6875,0.711 0.4531,0.25 0.9844,0.25 0.8125,0 1.3437,-0.5235 0.5313,-0.5234 0.5313,-1.3359 0,-0.8282 -0.5469,-1.3672 -0.5469,-0.5391 -1.375,-0.5391 -0.7969,0 -1.3281,0.5313 -0.5313,0.5312 -0.5313,1.3281 z"
         id="path11379" />
    </g>
    <g
       transform="matrix(0.18200169,0,0,0.18200169,7.4512594,2.1074892)"
       style="font-style:normal;font-weight:normal;font-size:13px;font-family:SansSerif;color-interpolation:linearRGB;fill:#262626;fill-opacity:1;stroke:#262626;stroke-width:1;stroke-linecap:square;stroke-linejoin:miter;stroke-miterlimit:10;stroke-dasharray:none;stroke-dashoffset:0;stroke-opacity:1;color-rendering:optimizeQuality;image-rendering:optimizeQuality;shape-rendering:auto;text-rendering:geometricPrecision"
       id="g11385">
      <path
         style="stroke:none"
         d="M -8.4531,4.4062 V 5.5 h -6.1563 q -0.0156,-0.4062 0.1406,-0.7969 0.2344,-0.625 0.75,-1.2343 0.5157,-0.6094 1.5,-1.4063 1.5157,-1.25 2.0469,-1.9766 0.5313,-0.7265 0.5313,-1.3671 0,-0.6876 -0.4844,-1.1485 -0.4844,-0.4609 -1.2656,-0.4609 -0.8282,0 -1.3203,0.4922 -0.4922,0.4922 -0.5079,1.3672 l -1.1718,-0.125 q 0.125,-1.3126 0.9062,-2 0.7813,-0.6876 2.1094,-0.6876 1.3438,0 2.125,0.7422 0.7812,0.7422 0.7812,1.836 0,0.5625 -0.2265,1.1015 -0.2266,0.5391 -0.7578,1.1407 -0.5313,0.6015 -1.7657,1.6328 -1.0312,0.8594 -1.3203,1.1718 -0.289,0.3126 -0.4765,0.625 z m 1.23,-3.5 q 0,-1.6406 0.3359,-2.6484 0.3359,-1.0078 1.0078,-1.5547 0.6719,-0.5469 1.6875,-0.5469 0.75,0 1.3125,0.3047 0.5625,0.3047 0.9297,0.8672 0.3672,0.5625 0.5781,1.3828 0.211,0.8203 0.211,2.1953 0,1.6407 -0.336,2.6485 -0.3359,1.0078 -1.0078,1.5547 -0.6719,0.5468 -1.6875,0.5468 -1.3437,0 -2.125,-0.9687 -0.9062,-1.1563 -0.9062,-3.7813 z m 1.1718,0 q 0,2.2969 0.5313,3.0547 0.5312,0.7579 1.3281,0.7579 0.7813,0 1.3203,-0.7579 0.5391,-0.7578 0.5391,-3.0547 0,-2.2968 -0.5391,-3.0468 -0.539,-0.75 -1.3359,-0.75 -0.7813,0 -1.2656,0.6562 -0.5782,0.8594 -0.5782,3.1406 z"
         id="path11383" />
    </g>
    <g
       transform="matrix(0,-0.18200169,0.18200169,0,5.4899367,46.788868)"
       style="font-style:normal;font-weight:normal;font-size:33px;font-family:mwa_cmmi10;color-interpolation:linearRGB;fill:#262626;fill-opacity:1;stroke:#262626;stroke-width:1;stroke-linecap:square;stroke-linejoin:miter;stroke-miterlimit:10;stroke-dasharray:none;stroke-dashoffset:0;stroke-opacity:1;color-rendering:optimizeQuality;image-rendering:optimizeQuality;shape-rendering:auto;text-rendering:geometricPrecision"
       id="g11391">
      <path
         style="stroke:none"
         d="m -9.2631,-6.0157 q 0.125,-0.7344 0.4375,-0.7344 1.2031,0 1.8828,-0.1953 0.6797,-0.1953 0.8984,-0.9297 l 1.4063,-5.6094 q -1.875,1.8594 -3.7656,1.8594 -2.0782,0 -3.2657,-1.5703 -1.1875,-1.5703 -1.1875,-3.7266 0,-2.1094 1.0938,-4.375 1.0937,-2.2656 2.9531,-3.7734 1.8594,-1.5078 4.0156,-1.5078 1,0 1.8047,0.5937 0.8047,0.5938 1.2266,1.5781 0.1875,-0.3906 1.0703,-1.2812 0.8828,-0.8906 1.2266,-0.8906 0.375,0 0.375,0.4218 l -4.625,18.4063 q -0.0782,0.4844 -0.0938,0.5625 0,0.4375 2.1719,0.4375 0.1719,0 0.2578,0.1328 0.0859,0.1328 0.0859,0.2891 -0.1093,0.4375 -0.1875,0.5781 -0.0781,0.1406 -0.375,0.1406 h -7.0625 q -0.3437,0 -0.3437,-0.4062 z m 0.9219,-6.4844 q 1.1562,0 2.2656,-0.875 1.1094,-0.875 1.9219,-2.0938 l 1.8593,-7.4218 q -0.1875,-1.1563 -0.8437,-2 -0.6563,-0.8438 -1.7344,-0.8438 -1.1094,0 -2.0703,0.9141 -0.9609,0.914 -1.6172,2.1484 -0.6406,1.3281 -1.2344,3.6328 -0.5937,2.3047 -0.5937,3.5703 0,1.1407 0.4922,2.0547 0.4922,0.9141 1.5547,0.9141 z"
         id="path11387" />
      <path
         style="stroke:none"
         d="m 1.9142,-7.0002 v -0.625 q 0,-0.0468 0.0469,-0.1093 l 3.5781,-3.9532 q 0.8125,-0.8906 1.3125,-1.4843 0.5,-0.5938 0.9922,-1.3672 0.4922,-0.7735 0.7812,-1.5782 0.2891,-0.8046 0.2891,-1.6953 0,-0.9531 -0.3438,-1.8125 -0.3437,-0.8593 -1.039,-1.375 -0.6953,-0.5156 -1.6641,-0.5156 -1,0 -1.7969,0.6016 -0.7968,0.6015 -1.125,1.5547 0.0782,-0.0157 0.25,-0.0157 0.5157,0 0.875,0.3438 0.3594,0.3437 0.3594,0.9062 0,0.5157 -0.3594,0.8828 -0.3593,0.3672 -0.875,0.3672 -0.5468,0 -0.914,-0.375 -0.3672,-0.375 -0.3672,-0.875 0,-0.875 0.3281,-1.6328 0.3281,-0.7578 0.9375,-1.3437 0.6094,-0.586 1.3828,-0.8985 0.7735,-0.3125 1.6328,-0.3125 1.3125,0 2.4454,0.5547 1.1328,0.5547 1.7968,1.5703 0.6641,1.0157 0.6641,2.375 0,1 -0.4375,1.8985 -0.4375,0.8984 -1.1172,1.6328 -0.6797,0.7344 -1.75,1.664 -1.0703,0.9297 -1.4141,1.2422 l -2.5937,2.5157 h 2.2031 q 1.625,0 2.7266,-0.0313 1.1015,-0.0312 1.164,-0.0937 0.2657,-0.2813 0.5469,-2.1094 h 0.6719 l -0.6406,4.0937 z"
         id="path11389" />
    </g>
    <g
       transform="matrix(0.18200169,0,0,0.18200169,-12.690267,-6.0825871)"
       style="font-style:normal;font-weight:normal;font-size:12px;font-family:Dialog;color-interpolation:sRGB;fill:#77ac30;fill-opacity:1;stroke:#77ac30;stroke-width:1;stroke-linecap:square;stroke-linejoin:miter;stroke-miterlimit:10;stroke-dasharray:none;stroke-dashoffset:0;stroke-opacity:1;color-rendering:optimizeSpeed;image-rendering:optimizeSpeed;shape-rendering:crispEdges;text-rendering:optimizeSpeed"
       id="g11397">
      <path
         style="stroke:none"
         d="M 392.9182,349.4088 323.7098,324.219 264.9337,485.7052 Z"
         id="path11393" />
      <path
         style="stroke:none"
         d="M 392.9182,349.4088 264.9337,485.7052 334.142,510.8949 Z"
         id="path11395" />
    </g>
    <g
       transform="matrix(0.18200169,0,0,0.18200169,-12.690267,-6.0825871)"
       style="font-style:normal;font-weight:normal;font-size:12px;font-family:Dialog;color-interpolation:linearRGB;fill:#000000;fill-opacity:1;stroke:#000000;stroke-width:0.6667;stroke-linecap:square;stroke-linejoin:miter;stroke-miterlimit:10;stroke-dasharray:none;stroke-dashoffset:0;stroke-opacity:1;color-rendering:optimizeQuality;image-rendering:optimizeQuality;shape-rendering:auto;text-rendering:geometricPrecision"
       id="g11401">
      <path
         d="m 264.9337,485.7052 69.2083,25.1897 58.7762,-161.4861 -69.2084,-25.1898 -58.7761,161.4862 v 0"
         style="fill:none;fill-rule:evenodd"
         id="path11399" />
    </g>
    <g
       transform="matrix(0.18200169,0,0,0.18200169,45.537777,69.621169)"
       style="font-style:normal;font-weight:normal;font-size:20px;font-family:mwa_cmsy10;color-interpolation:linearRGB;fill:#000000;fill-opacity:1;stroke:#000000;stroke-width:1;stroke-linecap:square;stroke-linejoin:miter;stroke-miterlimit:10;stroke-dasharray:none;stroke-dashoffset:0;stroke-opacity:1;color-rendering:optimizeQuality;image-rendering:optimizeQuality;shape-rendering:auto;text-rendering:geometricPrecision"
       id="g11405">
      <path
         style="stroke:none"
         d="M 3.9375,5.2843 Q 2.9844,5.2843 2.2891,4.9171 1.5938,4.5499 1.1328,3.8859 0.6719,3.2218 0.4609,2.4327 0.25,1.6437 0.25,0.7374 q 0,-1.7812 0.6562,-3.6093 0.6563,-1.8282 1.8516,-3.2735 1.1953,-1.4453 2.8281,-2.3047 1.6329,-0.8593 3.5235,-0.8593 h 0.1094 q 0.6562,0 1.0624,0.3359 0.4063,0.3359 0.4063,0.9766 0,0.5468 -0.3203,1.2968 -0.3203,0.75 -0.7891,1.5782 -0.2187,0.3593 -0.6484,0.625 Q 8.5,-4.2313 8.0312,-4.1844 H 7.9375 q -0.1406,-0.0625 -0.1406,-0.1407 0,-0.0781 0.3203,-0.7031 0.3203,-0.625 0.5469,-1.1797 0.2265,-0.5547 0.2265,-0.9609 0,-0.4844 -0.3047,-0.7188 -0.3047,-0.2343 -0.8203,-0.2343 -1.4687,0 -2.4765,0.7031 -1.0079,0.7031 -1.8047,2.0781 -0.6875,1.1719 -1.0782,2.5234 -0.3906,1.3516 -0.3906,2.6954 0,1.1093 0.3516,2.0781 0.3516,0.9687 1.1172,1.5547 0.7656,0.5859 1.9218,0.5859 1.2032,0 2.1563,-0.9062 Q 7.6875,3.0656 8.0859,2.5421 8.4844,2.0187 8.8203,1.7765 9.1562,1.5343 9.7031,1.4718 h 0.1094 q 0.125,0.0781 0.125,0.1563 0,0.0781 -0.0469,0.1718 Q 9.3125,2.7374 8.3594,3.5421 7.4062,4.3468 6.2656,4.8156 5.125,5.2843 4.0625,5.2843 Z"
         id="path11403" />
    </g>
    <g
       transform="matrix(0.18200169,0,0,0.18200169,45.537777,69.621169)"
       style="font-style:normal;font-weight:normal;font-size:14px;font-family:mwa_cmmi10;color-interpolation:linearRGB;fill:#000000;fill-opacity:1;stroke:#000000;stroke-width:1;stroke-linecap:square;stroke-linejoin:miter;stroke-miterlimit:10;stroke-dasharray:none;stroke-dashoffset:0;stroke-opacity:1;color-rendering:optimizeQuality;image-rendering:optimizeQuality;shape-rendering:auto;text-rendering:geometricPrecision"
       id="g11413">
      <path
         style="stroke:none"
         d="m 13.3431,7.9561 q -0.6563,0 -1.1719,-0.3125 -0.5156,-0.3125 -0.7969,-0.8437 -0.2812,-0.5313 -0.2812,-1.2188 0,-0.9531 0.5312,-1.8828 0.5313,-0.9297 1.4063,-1.5078 0.875,-0.5781 1.8437,-0.5781 0.5157,0 0.9219,0.1797 0.4063,0.1797 0.7109,0.5 0.3047,0.3203 0.461,0.75 0.1562,0.4297 0.1562,0.9297 0,0.7343 -0.3047,1.4453 -0.3046,0.7109 -0.8437,1.289 -0.5391,0.5782 -1.2266,0.9141 -0.6875,0.3359 -1.4062,0.3359 z m 0.0312,-0.375 q 0.625,0 1.1407,-0.4218 0.5156,-0.4219 0.8437,-1.0703 0.3281,-0.6485 0.5078,-1.3594 0.1797,-0.711 0.1797,-1.3047 0,-0.6094 -0.3047,-1.0313 -0.3047,-0.4218 -0.8984,-0.4218 -0.8125,0 -1.4297,0.7031 -0.6172,0.7031 -0.9297,1.6797 -0.3125,0.9765 -0.3125,1.7734 0,0.6094 0.3125,1.0313 0.3125,0.4218 0.8906,0.4218 z"
         id="path11407" />
      <path
         style="stroke:none"
         d="m 19.7386,7.9561 q -0.8438,0 -1.3204,-0.664 -0.4765,-0.6641 -0.4765,-1.5547 0,-0.125 0.0703,-0.5078 0.0703,-0.3828 0.0703,-0.461 l 1.3438,-5.4375 q 0.0625,-0.2343 0.0781,-0.375 0,-0.2343 -0.9219,-0.2343 -0.125,0 -0.125,-0.1719 0,-0.0469 0.0234,-0.1328 0.0235,-0.086 0.0625,-0.1328 0.0391,-0.0469 0.1016,-0.0469 l 1.8906,-0.1563 q 0.1719,0 0.1719,0.1875 l -1.0312,4.125 q 0.7812,-0.7812 1.5937,-0.7812 0.5938,0 1.0234,0.3125 0.4297,0.3125 0.6407,0.8281 0.2109,0.5156 0.2109,1.0938 0,0.6718 -0.2656,1.3984 -0.2656,0.7266 -0.7266,1.3438 -0.4609,0.6171 -1.0859,0.9921 -0.625,0.375 -1.3281,0.375 z m 0.0312,-0.375 q 0.4688,0 0.8906,-0.3984 0.4219,-0.3984 0.6719,-0.8984 0.2813,-0.5625 0.5234,-1.5235 0.2422,-0.9609 0.2422,-1.5234 0,-0.5 -0.2031,-0.8828 -0.2031,-0.3828 -0.6562,-0.3828 -0.5157,0 -0.9766,0.375 -0.4609,0.375 -0.8047,0.8906 l -0.3906,1.5781 q -0.2188,0.8906 -0.2344,1.4219 0,0.5156 0.2266,0.9297 0.2265,0.414 0.7109,0.414 z"
         id="path11409" />
      <path
         style="stroke:none"
         d="M 24.2469,9.8999 V 9.5405 q 1.25,0 1.25,-0.3125 V 3.978 Q 24.9813,4.228 24.2,4.228 V 3.8842 q 1.2188,0 1.8438,-0.6406 h 0.1406 q 0.0312,0 0.0625,0.0235 0.0312,0.0234 0.0312,0.0546 V 9.228 q 0,0.3125 1.25,0.3125 v 0.3594 z"
         id="path11411" />
    </g>
    <g
       transform="matrix(0.18200169,0,0,0.18200169,-12.690267,-6.0825871)"
       style="font-style:normal;font-weight:normal;font-size:12px;font-family:Dialog;color-interpolation:sRGB;fill:#77ac30;fill-opacity:1;stroke:#77ac30;stroke-width:1;stroke-linecap:square;stroke-linejoin:miter;stroke-miterlimit:10;stroke-dasharray:none;stroke-dashoffset:0;stroke-opacity:1;color-rendering:optimizeSpeed;image-rendering:optimizeSpeed;shape-rendering:crispEdges;text-rendering:optimizeSpeed"
       id="g11419">
      <path
         style="stroke:none"
         d="M 431.0854,213.7704 265.0911,169.2924 412.0234,284.9109 Z"
         id="path11415" />
      <path
         style="stroke:none"
         d="m 265.0911,169.2924 -19.062,71.1404 165.9943,44.4781 z"
         id="path11417" />
    </g>
    <g
       transform="matrix(0.18200169,0,0,0.18200169,-12.690267,-6.0825871)"
       style="font-style:normal;font-weight:normal;font-size:12px;font-family:Dialog;color-interpolation:linearRGB;fill:#000000;fill-opacity:1;stroke:#000000;stroke-width:0.6667;stroke-linecap:square;stroke-linejoin:miter;stroke-miterlimit:10;stroke-dasharray:none;stroke-dashoffset:0;stroke-opacity:1;color-rendering:optimizeQuality;image-rendering:optimizeQuality;shape-rendering:auto;text-rendering:geometricPrecision"
       id="g11423">
      <path
         d="m 246.0291,240.4328 165.9943,44.4781 19.062,-71.1405 -165.9943,-44.478 -19.062,71.1404 v 0"
         style="fill:none;fill-rule:evenodd"
         id="path11421" />
    </g>
    <g
       transform="matrix(0.18200169,0,0,0.18200169,48.927716,35.250289)"
       style="font-style:normal;font-weight:normal;font-size:20px;font-family:mwa_cmsy10;color-interpolation:linearRGB;fill:#000000;fill-opacity:1;stroke:#000000;stroke-width:1;stroke-linecap:square;stroke-linejoin:miter;stroke-miterlimit:10;stroke-dasharray:none;stroke-dashoffset:0;stroke-opacity:1;color-rendering:optimizeQuality;image-rendering:optimizeQuality;shape-rendering:auto;text-rendering:geometricPrecision"
       id="g11427">
      <path
         style="stroke:none"
         d="M 3.9375,5.2843 Q 2.9844,5.2843 2.2891,4.9171 1.5938,4.5499 1.1328,3.8859 0.6719,3.2218 0.4609,2.4327 0.25,1.6437 0.25,0.7374 q 0,-1.7812 0.6562,-3.6093 0.6563,-1.8282 1.8516,-3.2735 1.1953,-1.4453 2.8281,-2.3047 1.6329,-0.8593 3.5235,-0.8593 h 0.1094 q 0.6562,0 1.0624,0.3359 0.4063,0.3359 0.4063,0.9766 0,0.5468 -0.3203,1.2968 -0.3203,0.75 -0.7891,1.5782 -0.2187,0.3593 -0.6484,0.625 Q 8.5,-4.2313 8.0312,-4.1844 H 7.9375 q -0.1406,-0.0625 -0.1406,-0.1407 0,-0.0781 0.3203,-0.7031 0.3203,-0.625 0.5469,-1.1797 0.2265,-0.5547 0.2265,-0.9609 0,-0.4844 -0.3047,-0.7188 -0.3047,-0.2343 -0.8203,-0.2343 -1.4687,0 -2.4765,0.7031 -1.0079,0.7031 -1.8047,2.0781 -0.6875,1.1719 -1.0782,2.5234 -0.3906,1.3516 -0.3906,2.6954 0,1.1093 0.3516,2.0781 0.3516,0.9687 1.1172,1.5547 0.7656,0.5859 1.9218,0.5859 1.2032,0 2.1563,-0.9062 Q 7.6875,3.0656 8.0859,2.5421 8.4844,2.0187 8.8203,1.7765 9.1562,1.5343 9.7031,1.4718 h 0.1094 q 0.125,0.0781 0.125,0.1563 0,0.0781 -0.0469,0.1718 Q 9.3125,2.7374 8.3594,3.5421 7.4062,4.3468 6.2656,4.8156 5.125,5.2843 4.0625,5.2843 Z"
         id="path11425" />
    </g>
    <g
       transform="matrix(0.18200169,0,0,0.18200169,48.927716,35.250289)"
       style="font-style:normal;font-weight:normal;font-size:14px;font-family:mwa_cmmi10;color-interpolation:linearRGB;fill:#000000;fill-opacity:1;stroke:#000000;stroke-width:1;stroke-linecap:square;stroke-linejoin:miter;stroke-miterlimit:10;stroke-dasharray:none;stroke-dashoffset:0;stroke-opacity:1;color-rendering:optimizeQuality;image-rendering:optimizeQuality;shape-rendering:auto;text-rendering:geometricPrecision"
       id="g11435">
      <path
         style="stroke:none"
         d="m 13.3431,7.9561 q -0.6563,0 -1.1719,-0.3125 -0.5156,-0.3125 -0.7969,-0.8437 -0.2812,-0.5313 -0.2812,-1.2188 0,-0.9531 0.5312,-1.8828 0.5313,-0.9297 1.4063,-1.5078 0.875,-0.5781 1.8437,-0.5781 0.5157,0 0.9219,0.1797 0.4063,0.1797 0.7109,0.5 0.3047,0.3203 0.461,0.75 0.1562,0.4297 0.1562,0.9297 0,0.7343 -0.3047,1.4453 -0.3046,0.7109 -0.8437,1.289 -0.5391,0.5782 -1.2266,0.9141 -0.6875,0.3359 -1.4062,0.3359 z m 0.0312,-0.375 q 0.625,0 1.1407,-0.4218 0.5156,-0.4219 0.8437,-1.0703 0.3281,-0.6485 0.5078,-1.3594 0.1797,-0.711 0.1797,-1.3047 0,-0.6094 -0.3047,-1.0313 -0.3047,-0.4218 -0.8984,-0.4218 -0.8125,0 -1.4297,0.7031 -0.6172,0.7031 -0.9297,1.6797 -0.3125,0.9765 -0.3125,1.7734 0,0.6094 0.3125,1.0313 0.3125,0.4218 0.8906,0.4218 z"
         id="path11429" />
      <path
         style="stroke:none"
         d="m 19.7386,7.9561 q -0.8438,0 -1.3204,-0.664 -0.4765,-0.6641 -0.4765,-1.5547 0,-0.125 0.0703,-0.5078 0.0703,-0.3828 0.0703,-0.461 l 1.3438,-5.4375 q 0.0625,-0.2343 0.0781,-0.375 0,-0.2343 -0.9219,-0.2343 -0.125,0 -0.125,-0.1719 0,-0.0469 0.0234,-0.1328 0.0235,-0.086 0.0625,-0.1328 0.0391,-0.0469 0.1016,-0.0469 l 1.8906,-0.1563 q 0.1719,0 0.1719,0.1875 l -1.0312,4.125 q 0.7812,-0.7812 1.5937,-0.7812 0.5938,0 1.0234,0.3125 0.4297,0.3125 0.6407,0.8281 0.2109,0.5156 0.2109,1.0938 0,0.6718 -0.2656,1.3984 -0.2656,0.7266 -0.7266,1.3438 -0.4609,0.6171 -1.0859,0.9921 -0.625,0.375 -1.3281,0.375 z m 0.0312,-0.375 q 0.4688,0 0.8906,-0.3984 0.4219,-0.3984 0.6719,-0.8984 0.2813,-0.5625 0.5234,-1.5235 0.2422,-0.9609 0.2422,-1.5234 0,-0.5 -0.2031,-0.8828 -0.2031,-0.3828 -0.6562,-0.3828 -0.5157,0 -0.9766,0.375 -0.4609,0.375 -0.8047,0.8906 l -0.3906,1.5781 q -0.2188,0.8906 -0.2344,1.4219 0,0.5156 0.2266,0.9297 0.2265,0.414 0.7109,0.414 z"
         id="path11431" />
      <path
         style="stroke:none"
         d="M 23.825,9.8999 V 9.6342 q 0,-0.0312 0.0156,-0.0625 L 25.4031,7.853 q 0.3438,-0.375 0.5625,-0.6328 0.2188,-0.2578 0.4375,-0.5938 0.2188,-0.3359 0.3438,-0.6875 0.125,-0.3515 0.125,-0.7422 0,-0.4062 -0.1563,-0.7812 -0.1562,-0.375 -0.4531,-0.6016 -0.2969,-0.2265 -0.7187,-0.2265 -0.4375,0 -0.7891,0.2656 -0.3516,0.2656 -0.4922,0.6719 0.0469,0 0.1094,0 0.2344,0 0.3906,0.1484 0.1563,0.1484 0.1563,0.3828 0,0.2344 -0.1563,0.3906 -0.1562,0.1563 -0.3906,0.1563 -0.2344,0 -0.3906,-0.1641 -0.1563,-0.164 -0.1563,-0.3828 0,-0.375 0.1406,-0.7031 0.1407,-0.3281 0.4063,-0.5859 0.2656,-0.2579 0.6015,-0.3907 0.336,-0.1328 0.711,-0.1328 0.5781,0 1.0703,0.2422 0.4922,0.2422 0.7812,0.6797 0.2891,0.4375 0.2891,1.0312 0,0.4375 -0.1953,0.8282 -0.1953,0.3906 -0.4922,0.7109 -0.2969,0.3203 -0.7578,0.7266 -0.4609,0.4062 -0.6172,0.5312 l -1.125,1.0938 h 0.9531 q 0.7188,0 1.1953,-0.0078 0.4766,-0.0079 0.4922,-0.0391 0.125,-0.125 0.25,-0.9219 h 0.2969 l -0.2969,1.7813 z"
         id="path11433" />
    </g>
    <g
       transform="matrix(0.18200169,0,0,0.18200169,-12.690267,-6.0825871)"
       style="font-style:normal;font-weight:normal;font-size:12px;font-family:Dialog;color-interpolation:linearRGB;fill:#000000;fill-opacity:1;stroke:#000000;stroke-width:1.8667;stroke-linecap:butt;stroke-linejoin:round;stroke-miterlimit:10;stroke-dasharray:none;stroke-dashoffset:0;stroke-opacity:1;color-rendering:optimizeQuality;image-rendering:optimizeQuality;shape-rendering:auto;text-rendering:geometricPrecision"
       id="g11487">
      <line
         y2="511.56671"
         style="fill:none"
         x1="116"
         x2="118.3906"
         y1="536"
         id="line11437" />
      <line
         y2="490.922"
         style="fill:none"
         x1="118.3906"
         x2="131.6759"
         y1="511.56671"
         id="line11439" />
      <line
         y2="480.44019"
         style="fill:none"
         x1="131.6759"
         x2="153.8757"
         y1="490.922"
         id="line11441" />
      <line
         y2="482.8092"
         style="fill:none"
         x1="153.8757"
         x2="178.3112"
         y1="480.44019"
         id="line11443" />
      <line
         y2="459.72131"
         style="fill:none"
         x1="178.3112"
         x2="186.65669"
         y1="482.8092"
         id="line11445" />
      <line
         y2="440.78989"
         style="fill:none"
         x1="186.65669"
         x2="202.287"
         y1="459.72131"
         id="line11447" />
      <line
         y2="453.7811"
         style="fill:none"
         x1="202.287"
         x2="223.118"
         y1="440.78989"
         id="line11449" />
      <line
         y2="416.5372"
         style="fill:none"
         x1="202.287"
         x2="206.09621"
         y1="440.78989"
         id="line11451" />
      <line
         y2="392.23489"
         style="fill:none"
         x1="206.09621"
         x2="209.5748"
         y1="416.5372"
         id="line11453" />
      <line
         y2="458.5939"
         style="fill:none"
         x1="223.118"
         x2="247.1917"
         y1="453.7811"
         id="line11455" />
      <line
         y2="371.4043"
         style="fill:none"
         x1="209.5748"
         x2="222.5667"
         y1="392.23489"
         id="line11457" />
      <line
         y2="346.90161"
         style="fill:none"
         x1="222.5667"
         x2="224.0905"
         y1="371.4043"
         id="line11459" />
      <line
         y2="459.52939"
         style="fill:none"
         x1="247.1917"
         x2="271.72379"
         y1="458.5939"
         id="line11461" />
      <line
         y2="328.01309"
         style="fill:none"
         x1="224.0905"
         x2="239.7724"
         y1="346.90161"
         id="line11463" />
      <line
         y2="325.42761"
         style="fill:none"
         x1="239.7724"
         x2="264.18591"
         y1="328.01309"
         id="line11465" />
      <line
         y2="307.9313"
         style="fill:none"
         x1="239.7724"
         x2="225.6506"
         y1="328.01309"
         id="line11467" />
      <line
         y2="311.51682"
         style="fill:none"
         x1="264.18591"
         x2="284.4144"
         y1="325.42761"
         id="line11469" />
      <line
         y2="287.01099"
         style="fill:none"
         x1="284.4144"
         x2="285.8876"
         y1="311.51682"
         id="line11471" />
      <line
         y2="319.34509"
         style="fill:none"
         x1="284.4144"
         x2="307.68289"
         y1="311.51682"
         id="line11473" />
      <line
         y2="325.64581"
         style="fill:none"
         x1="307.68289"
         x2="331.41061"
         y1="319.34509"
         id="line11475" />
      <line
         y2="265.34531"
         style="fill:none"
         x1="285.8876"
         x2="297.43311"
         y1="287.01099"
         id="line11477" />
      <line
         y2="314.97009"
         style="fill:none"
         x1="331.41061"
         x2="353.51779"
         y1="325.64581"
         id="line11479" />
      <line
         y2="286.28601"
         style="fill:none"
         x1="225.6506"
         x2="214.06689"
         y1="307.9313"
         id="line11481" />
      <line
         y2="304.1073"
         style="fill:none"
         x1="353.51779"
         x2="375.53381"
         y1="314.97009"
         id="line11483" />
      <circle
         r="3.3333001"
         style="stroke:none"
         cx="0"
         transform="translate(116,536)"
         cy="0"
         id="circle11485" />
    </g>
    <g
       transform="matrix(0.18200169,0,0,0.18200169,8.8570222,87.02342)"
       style="font-style:normal;font-weight:normal;font-size:12px;font-family:Dialog;color-interpolation:linearRGB;fill:#000000;fill-opacity:1;stroke:#000000;stroke-width:1.8667;stroke-linecap:butt;stroke-linejoin:round;stroke-miterlimit:10;stroke-dasharray:none;stroke-dashoffset:0;stroke-opacity:1;color-rendering:optimizeQuality;image-rendering:optimizeQuality;shape-rendering:auto;text-rendering:geometricPrecision"
       id="g11491">
      <circle
         r="3.3333001"
         style="stroke:none"
         cx="0"
         cy="0"
         id="circle11489" />
    </g>
    <g
       transform="matrix(0.18200169,0,0,0.18200169,11.274969,83.266045)"
       style="font-style:normal;font-weight:normal;font-size:12px;font-family:Dialog;color-interpolation:linearRGB;fill:#000000;fill-opacity:1;stroke:#000000;stroke-width:1.8667;stroke-linecap:butt;stroke-linejoin:round;stroke-miterlimit:10;stroke-dasharray:none;stroke-dashoffset:0;stroke-opacity:1;color-rendering:optimizeQuality;image-rendering:optimizeQuality;shape-rendering:auto;text-rendering:geometricPrecision"
       id="g11495">
      <circle
         r="3.3333001"
         style="stroke:none"
         cx="0"
         cy="0"
         id="circle11493" />
    </g>
    <g
       transform="matrix(0.18200169,0,0,0.18200169,15.31537,81.35834)"
       style="font-style:normal;font-weight:normal;font-size:12px;font-family:Dialog;color-interpolation:linearRGB;fill:#000000;fill-opacity:1;stroke:#000000;stroke-width:1.8667;stroke-linecap:butt;stroke-linejoin:round;stroke-miterlimit:10;stroke-dasharray:none;stroke-dashoffset:0;stroke-opacity:1;color-rendering:optimizeQuality;image-rendering:optimizeQuality;shape-rendering:auto;text-rendering:geometricPrecision"
       id="g11499">
      <circle
         r="3.3333001"
         style="stroke:none"
         cx="0"
         cy="0"
         id="circle11497" />
    </g>
    <g
       transform="matrix(0.18200169,0,0,0.18200169,19.762673,81.789503)"
       style="font-style:normal;font-weight:normal;font-size:12px;font-family:Dialog;color-interpolation:linearRGB;fill:#000000;fill-opacity:1;stroke:#000000;stroke-width:1.8667;stroke-linecap:butt;stroke-linejoin:round;stroke-miterlimit:10;stroke-dasharray:none;stroke-dashoffset:0;stroke-opacity:1;color-rendering:optimizeQuality;image-rendering:optimizeQuality;shape-rendering:auto;text-rendering:geometricPrecision"
       id="g11503">
      <circle
         r="3.3333001"
         style="stroke:none"
         cx="0"
         cy="0"
         id="circle11501" />
    </g>
    <g
       transform="matrix(0.18200169,0,0,0.18200169,21.281568,77.587468)"
       style="font-style:normal;font-weight:normal;font-size:12px;font-family:Dialog;color-interpolation:linearRGB;fill:#000000;fill-opacity:1;stroke:#000000;stroke-width:1.8667;stroke-linecap:butt;stroke-linejoin:round;stroke-miterlimit:10;stroke-dasharray:none;stroke-dashoffset:0;stroke-opacity:1;color-rendering:optimizeQuality;image-rendering:optimizeQuality;shape-rendering:auto;text-rendering:geometricPrecision"
       id="g11507">
      <circle
         r="3.3333001"
         style="stroke:none"
         cx="0"
         cy="0"
         id="circle11505" />
    </g>
    <g
       transform="matrix(0.18200169,0,0,0.18200169,24.126309,74.141924)"
       style="font-style:normal;font-weight:normal;font-size:12px;font-family:Dialog;color-interpolation:linearRGB;fill:#000000;fill-opacity:1;stroke:#000000;stroke-width:1.8667;stroke-linecap:butt;stroke-linejoin:round;stroke-miterlimit:10;stroke-dasharray:none;stroke-dashoffset:0;stroke-opacity:1;color-rendering:optimizeQuality;image-rendering:optimizeQuality;shape-rendering:auto;text-rendering:geometricPrecision"
       id="g11511">
      <circle
         r="3.3333001"
         style="stroke:none"
         cx="0"
         cy="0"
         id="circle11509" />
    </g>
    <g
       transform="matrix(0.18200169,0,0,0.18200169,27.917586,76.506341)"
       style="font-style:normal;font-weight:normal;font-size:12px;font-family:Dialog;color-interpolation:linearRGB;fill:#000000;fill-opacity:1;stroke:#000000;stroke-width:1.8667;stroke-linecap:butt;stroke-linejoin:round;stroke-miterlimit:10;stroke-dasharray:none;stroke-dashoffset:0;stroke-opacity:1;color-rendering:optimizeQuality;image-rendering:optimizeQuality;shape-rendering:auto;text-rendering:geometricPrecision"
       id="g11515">
      <circle
         r="3.3333001"
         style="stroke:none"
         cx="0"
         cy="0"
         id="circle11513" />
    </g>
    <g
       transform="matrix(0.18200169,0,0,0.18200169,24.81959,69.727891)"
       style="font-style:normal;font-weight:normal;font-size:12px;font-family:Dialog;color-interpolation:linearRGB;fill:#000000;fill-opacity:1;stroke:#000000;stroke-width:1.8667;stroke-linecap:butt;stroke-linejoin:round;stroke-miterlimit:10;stroke-dasharray:none;stroke-dashoffset:0;stroke-opacity:1;color-rendering:optimizeQuality;image-rendering:optimizeQuality;shape-rendering:auto;text-rendering:geometricPrecision"
       id="g11519">
      <circle
         r="3.3333001"
         style="stroke:none"
         cx="0"
         cy="0"
         id="circle11517" />
    </g>
    <g
       transform="matrix(0.18200169,0,0,0.18200169,25.4527,65.304828)"
       style="font-style:normal;font-weight:normal;font-size:12px;font-family:Dialog;color-interpolation:linearRGB;fill:#000000;fill-opacity:1;stroke:#000000;stroke-width:1.8667;stroke-linecap:butt;stroke-linejoin:round;stroke-miterlimit:10;stroke-dasharray:none;stroke-dashoffset:0;stroke-opacity:1;color-rendering:optimizeQuality;image-rendering:optimizeQuality;shape-rendering:auto;text-rendering:geometricPrecision"
       id="g11523">
      <circle
         r="3.3333001"
         style="stroke:none"
         cx="0"
         cy="0"
         id="circle11521" />
    </g>
    <g
       transform="matrix(0.18200169,0,0,0.18200169,32.29904,77.382281)"
       style="font-style:normal;font-weight:normal;font-size:12px;font-family:Dialog;color-interpolation:linearRGB;fill:#000000;fill-opacity:1;stroke:#000000;stroke-width:1.8667;stroke-linecap:butt;stroke-linejoin:round;stroke-miterlimit:10;stroke-dasharray:none;stroke-dashoffset:0;stroke-opacity:1;color-rendering:optimizeQuality;image-rendering:optimizeQuality;shape-rendering:auto;text-rendering:geometricPrecision"
       id="g11527">
      <circle
         r="3.3333001"
         style="stroke:none"
         cx="0"
         cy="0"
         id="circle11525" />
    </g>
    <g
       transform="matrix(0.18200169,0,0,0.18200169,27.817249,61.513624)"
       style="font-style:normal;font-weight:normal;font-size:12px;font-family:Dialog;color-interpolation:linearRGB;fill:#000000;fill-opacity:1;stroke:#000000;stroke-width:1.8667;stroke-linecap:butt;stroke-linejoin:round;stroke-miterlimit:10;stroke-dasharray:none;stroke-dashoffset:0;stroke-opacity:1;color-rendering:optimizeQuality;image-rendering:optimizeQuality;shape-rendering:auto;text-rendering:geometricPrecision"
       id="g11531">
      <circle
         r="3.3333001"
         style="stroke:none"
         cx="0"
         cy="0"
         id="circle11529" />
    </g>
    <g
       transform="matrix(0.18200169,0,0,0.18200169,28.094583,57.054091)"
       style="font-style:normal;font-weight:normal;font-size:12px;font-family:Dialog;color-interpolation:linearRGB;fill:#000000;fill-opacity:1;stroke:#000000;stroke-width:1.8667;stroke-linecap:butt;stroke-linejoin:round;stroke-miterlimit:10;stroke-dasharray:none;stroke-dashoffset:0;stroke-opacity:1;color-rendering:optimizeQuality;image-rendering:optimizeQuality;shape-rendering:auto;text-rendering:geometricPrecision"
       id="g11535">
      <circle
         r="3.3333001"
         style="stroke:none"
         cx="0"
         cy="0"
         id="circle11533" />
    </g>
    <g
       transform="matrix(0.18200169,0,0,0.18200169,36.763924,77.552545)"
       style="font-style:normal;font-weight:normal;font-size:12px;font-family:Dialog;color-interpolation:linearRGB;fill:#000000;fill-opacity:1;stroke:#000000;stroke-width:1.8667;stroke-linecap:butt;stroke-linejoin:round;stroke-miterlimit:10;stroke-dasharray:none;stroke-dashoffset:0;stroke-opacity:1;color-rendering:optimizeQuality;image-rendering:optimizeQuality;shape-rendering:auto;text-rendering:geometricPrecision"
       id="g11539">
      <circle
         r="3.3333001"
         style="stroke:none"
         cx="0"
         cy="0"
         id="circle11537" />
    </g>
    <g
       transform="matrix(0.18200169,0,0,0.18200169,30.948715,53.616352)"
       style="font-style:normal;font-weight:normal;font-size:12px;font-family:Dialog;color-interpolation:linearRGB;fill:#000000;fill-opacity:1;stroke:#000000;stroke-width:1.8667;stroke-linecap:butt;stroke-linejoin:round;stroke-miterlimit:10;stroke-dasharray:none;stroke-dashoffset:0;stroke-opacity:1;color-rendering:optimizeQuality;image-rendering:optimizeQuality;shape-rendering:auto;text-rendering:geometricPrecision"
       id="g11543">
      <circle
         r="3.3333001"
         style="stroke:none"
         cx="0"
         cy="0"
         id="circle11541" />
    </g>
    <g
       transform="matrix(0.18200169,0,0,0.18200169,35.392013,53.145787)"
       style="font-style:normal;font-weight:normal;font-size:12px;font-family:Dialog;color-interpolation:linearRGB;fill:#000000;fill-opacity:1;stroke:#000000;stroke-width:1.8667;stroke-linecap:butt;stroke-linejoin:round;stroke-miterlimit:10;stroke-dasharray:none;stroke-dashoffset:0;stroke-opacity:1;color-rendering:optimizeQuality;image-rendering:optimizeQuality;shape-rendering:auto;text-rendering:geometricPrecision"
       id="g11547">
      <circle
         r="3.3333001"
         style="stroke:none"
         cx="0"
         cy="0"
         id="circle11545" />
    </g>
    <g
       transform="matrix(0.18200169,0,0,0.18200169,28.378523,49.961431)"
       style="font-style:normal;font-weight:normal;font-size:12px;font-family:Dialog;color-interpolation:linearRGB;fill:#000000;fill-opacity:1;stroke:#000000;stroke-width:1.8667;stroke-linecap:butt;stroke-linejoin:round;stroke-miterlimit:10;stroke-dasharray:none;stroke-dashoffset:0;stroke-opacity:1;color-rendering:optimizeQuality;image-rendering:optimizeQuality;shape-rendering:auto;text-rendering:geometricPrecision"
       id="g11551">
      <circle
         r="3.3333001"
         style="stroke:none"
         cx="0"
         cy="0"
         id="circle11549" />
    </g>
    <g
       transform="matrix(0.18200169,0,0,0.18200169,39.073635,50.613997)"
       style="font-style:normal;font-weight:normal;font-size:12px;font-family:Dialog;color-interpolation:linearRGB;fill:#000000;fill-opacity:1;stroke:#000000;stroke-width:1.8667;stroke-linecap:butt;stroke-linejoin:round;stroke-miterlimit:10;stroke-dasharray:none;stroke-dashoffset:0;stroke-opacity:1;color-rendering:optimizeQuality;image-rendering:optimizeQuality;shape-rendering:auto;text-rendering:geometricPrecision"
       id="g11555">
      <circle
         r="3.3333001"
         style="stroke:none"
         cx="0"
         cy="0"
         id="circle11553" />
    </g>
    <g
       transform="matrix(0.18200169,0,0,0.18200169,39.34176,46.1539)"
       style="font-style:normal;font-weight:normal;font-size:12px;font-family:Dialog;color-interpolation:linearRGB;fill:#000000;fill-opacity:1;stroke:#000000;stroke-width:1.8667;stroke-linecap:butt;stroke-linejoin:round;stroke-miterlimit:10;stroke-dasharray:none;stroke-dashoffset:0;stroke-opacity:1;color-rendering:optimizeQuality;image-rendering:optimizeQuality;shape-rendering:auto;text-rendering:geometricPrecision"
       id="g11559">
      <circle
         r="3.3333001"
         style="stroke:none"
         cx="0"
         cy="0"
         id="circle11557" />
    </g>
    <g
       transform="matrix(0.18200169,0,0,0.18200169,43.308541,52.038761)"
       style="font-style:normal;font-weight:normal;font-size:12px;font-family:Dialog;color-interpolation:linearRGB;fill:#000000;fill-opacity:1;stroke:#000000;stroke-width:1.8667;stroke-linecap:butt;stroke-linejoin:round;stroke-miterlimit:10;stroke-dasharray:none;stroke-dashoffset:0;stroke-opacity:1;color-rendering:optimizeQuality;image-rendering:optimizeQuality;shape-rendering:auto;text-rendering:geometricPrecision"
       id="g11563">
      <circle
         r="3.3333001"
         style="stroke:none"
         cx="0"
         cy="0"
         id="circle11561" />
    </g>
    <g
       transform="matrix(0.18200169,0,0,0.18200169,47.627023,53.185499)"
       style="font-style:normal;font-weight:normal;font-size:12px;font-family:Dialog;color-interpolation:linearRGB;fill:#000000;fill-opacity:1;stroke:#000000;stroke-width:1.8667;stroke-linecap:butt;stroke-linejoin:round;stroke-miterlimit:10;stroke-dasharray:none;stroke-dashoffset:0;stroke-opacity:1;color-rendering:optimizeQuality;image-rendering:optimizeQuality;shape-rendering:auto;text-rendering:geometricPrecision"
       id="g11567">
      <circle
         r="3.3333001"
         style="stroke:none"
         cx="0"
         cy="0"
         id="circle11565" />
    </g>
    <g
       transform="matrix(0.18200169,0,0,0.18200169,41.44306,42.210706)"
       style="font-style:normal;font-weight:normal;font-size:12px;font-family:Dialog;color-interpolation:linearRGB;fill:#000000;fill-opacity:1;stroke:#000000;stroke-width:1.8667;stroke-linecap:butt;stroke-linejoin:round;stroke-miterlimit:10;stroke-dasharray:none;stroke-dashoffset:0;stroke-opacity:1;color-rendering:optimizeQuality;image-rendering:optimizeQuality;shape-rendering:auto;text-rendering:geometricPrecision"
       id="g11571">
      <circle
         r="3.3333001"
         style="stroke:none"
         cx="0"
         cy="0"
         id="circle11569" />
    </g>
    <g
       transform="matrix(0.18200169,0,0,0.18200169,51.650571,51.242504)"
       style="font-style:normal;font-weight:normal;font-size:12px;font-family:Dialog;color-interpolation:linearRGB;fill:#000000;fill-opacity:1;stroke:#000000;stroke-width:1.8667;stroke-linecap:butt;stroke-linejoin:round;stroke-miterlimit:10;stroke-dasharray:none;stroke-dashoffset:0;stroke-opacity:1;color-rendering:optimizeQuality;image-rendering:optimizeQuality;shape-rendering:auto;text-rendering:geometricPrecision"
       id="g11575">
      <circle
         r="3.3333001"
         style="stroke:none"
         cx="0"
         cy="0"
         id="circle11573" />
    </g>
    <g
       transform="matrix(0.18200169,0,0,0.18200169,26.27027,46.021949)"
       style="font-style:normal;font-weight:normal;font-size:12px;font-family:Dialog;color-interpolation:linearRGB;fill:#000000;fill-opacity:1;stroke:#000000;stroke-width:1.8667;stroke-linecap:butt;stroke-linejoin:round;stroke-miterlimit:10;stroke-dasharray:none;stroke-dashoffset:0;stroke-opacity:1;color-rendering:optimizeQuality;image-rendering:optimizeQuality;shape-rendering:auto;text-rendering:geometricPrecision"
       id="g11579">
      <circle
         r="3.3333001"
         style="stroke:none"
         cx="0"
         cy="0"
         id="circle11577" />
    </g>
    <g
       transform="matrix(0.18200169,0,0,0.18200169,55.65752,49.265456)"
       style="font-style:normal;font-weight:normal;font-size:12px;font-family:Dialog;color-interpolation:linearRGB;fill:#000000;fill-opacity:1;stroke:#000000;stroke-width:1.8667;stroke-linecap:butt;stroke-linejoin:round;stroke-miterlimit:10;stroke-dasharray:none;stroke-dashoffset:0;stroke-opacity:1;color-rendering:optimizeQuality;image-rendering:optimizeQuality;shape-rendering:auto;text-rendering:geometricPrecision"
       id="g11583">
      <circle
         r="3.3333001"
         style="stroke:none"
         cx="0"
         cy="0"
         id="circle11581" />
    </g>
    <g
       transform="matrix(0.18200169,0,0,0.18200169,-12.690267,-6.0825871)"
       style="font-style:normal;font-weight:normal;font-size:12px;font-family:Dialog;color-interpolation:sRGB;fill:#00ff00;fill-opacity:1;stroke:#00ff00;stroke-width:1;stroke-linecap:square;stroke-linejoin:miter;stroke-miterlimit:10;stroke-dasharray:none;stroke-dashoffset:0;stroke-opacity:1;color-rendering:optimizeSpeed;image-rendering:optimizeSpeed;shape-rendering:crispEdges;text-rendering:optimizeSpeed"
       id="g11587">
      <path
         style="stroke:none"
         d="m 123.1667,535.5 -0.8932,-3.3333 -2.4402,-2.4402 -3.3333,-0.8932 -3.3333,0.8932 -2.4402,2.4402 -0.8932,3.3333 0.8932,3.3333 2.4402,2.4402 3.3333,0.8932 3.3333,-0.8932 2.4402,-2.4402 z"
         id="path11585" />
    </g>
    <g
       transform="matrix(0.18200169,0,0,0.18200169,-12.690267,-6.0825871)"
       style="font-style:normal;font-weight:normal;font-size:12px;font-family:Dialog;color-interpolation:linearRGB;fill:#000000;fill-opacity:1;stroke:#000000;stroke-width:1;stroke-linecap:butt;stroke-linejoin:round;stroke-miterlimit:10;stroke-dasharray:none;stroke-dashoffset:0;stroke-opacity:1;color-rendering:optimizeQuality;image-rendering:optimizeQuality;shape-rendering:auto;text-rendering:geometricPrecision"
       id="g11591">
      <path
         d="m 123.1667,535.5 -0.8932,-3.3333 -2.4402,-2.4402 -3.3333,-0.8932 -3.3333,0.8932 -2.4402,2.4402 -0.8932,3.3333 0.8932,3.3333 2.4402,2.4402 3.3333,0.8932 3.3333,-0.8932 2.4402,-2.4402 z"
         style="fill:none;fill-rule:evenodd"
         id="path11589" />
    </g>
    <g
       transform="matrix(0.18200169,0,0,0.18200169,8.4219289,91.470319)"
       style="font-style:normal;font-weight:normal;font-size:11px;font-family:mwa_cmmi10;color-interpolation:linearRGB;fill:#000000;fill-opacity:1;stroke:#000000;stroke-width:1;stroke-linecap:square;stroke-linejoin:miter;stroke-miterlimit:10;stroke-dasharray:none;stroke-dashoffset:0;stroke-opacity:1;color-rendering:optimizeQuality;image-rendering:optimizeQuality;shape-rendering:auto;text-rendering:geometricPrecision"
       id="g11595">
      <path
         style="stroke:none"
         d="m -2.9059,2.7943 q -0.0312,0 -0.0625,-0.0312 Q -2.9996,2.7318 -2.9996,2.7006 L -2.359,0.1225 Q -2.3434,0.06 -2.2653,0.06 h 0.125 q 0.0469,0 0.0703,0.0312 0.0235,0.0313 0.0235,0.0781 -0.0938,0.375 -0.0938,0.6719 0,0.7969 0.5469,1.1875 0.5469,0.3906 1.3906,0.3906 0.3594,0 0.7032,-0.1797 Q 0.8441,2.06 1.1097,1.7787 1.3754,1.4975 1.5316,1.1459 1.6879,0.7943 1.6879,0.435 1.6879,0.0443 1.4769,-0.2604 1.266,-0.565 0.9066,-0.6588 l -1.3437,-0.3437 q -0.5313,-0.1563 -0.8594,-0.5938 -0.3281,-0.4375 -0.3281,-0.9844 0,-0.6562 0.3984,-1.2656 0.3984,-0.6094 1.0234,-0.9766 0.625,-0.3671 1.2813,-0.3671 0.5156,0 0.9375,0.1796 0.4219,0.1797 0.6406,0.586 l 0.625,-0.7344 Q 3.3441,-5.19 3.3597,-5.19 h 0.0782 q 0.0312,0 0.0625,0.0312 0.0312,0.0313 0.0312,0.0781 L 2.891,-2.5338 q -0.0156,0.0781 -0.0938,0.0781 h -0.125 q -0.0937,0 -0.0937,-0.125 0.0469,-0.3437 0.0469,-0.5937 0,-0.5156 -0.1719,-0.8985 Q 2.2816,-4.4557 1.93,-4.651 1.5785,-4.8463 1.0472,-4.8463 q -0.4375,0 -0.875,0.2578 -0.4375,0.2578 -0.7031,0.6719 -0.2656,0.4141 -0.2656,0.8672 0,0.3594 0.2109,0.6328 0.211,0.2734 0.5547,0.3672 l 1.3281,0.3437 q 0.375,0.1094 0.6485,0.3516 0.2734,0.2422 0.4062,0.5781 0.1328,0.336 0.1328,0.7266 0,0.5312 -0.2187,1.039 Q 2.0472,1.4975 1.6566,1.9115 1.266,2.3256 0.766,2.56 q -0.5,0.2343 -1.0313,0.2343 -1.2968,0 -1.875,-0.7656 l -0.6093,0.7344 q -0.0625,0.0312 -0.0782,0.0312 z"
         id="path11593" />
    </g>
    <g
       transform="matrix(0.18200169,0,0,0.18200169,-12.690267,-6.0825871)"
       style="font-style:normal;font-weight:normal;font-size:12px;font-family:Dialog;color-interpolation:sRGB;fill:#00ff00;fill-opacity:1;stroke:#00ff00;stroke-width:1;stroke-linecap:square;stroke-linejoin:miter;stroke-miterlimit:10;stroke-dasharray:none;stroke-dashoffset:0;stroke-opacity:1;color-rendering:optimizeSpeed;image-rendering:optimizeSpeed;shape-rendering:crispEdges;text-rendering:optimizeSpeed"
       id="g11599">
      <path
         style="stroke:none"
         d="m 564.1667,192.5 -0.8932,-3.3333 -2.4402,-2.4402 -3.3333,-0.8932 -3.3333,0.8932 -2.4402,2.4402 -0.8932,3.3333 0.8932,3.3333 2.4402,2.4402 3.3333,0.8932 3.3333,-0.8932 2.4402,-2.4402 z"
         id="path11597" />
    </g>
    <g
       transform="matrix(0.18200169,0,0,0.18200169,-12.690267,-6.0825871)"
       style="font-style:normal;font-weight:normal;font-size:12px;font-family:Dialog;color-interpolation:linearRGB;fill:#000000;fill-opacity:1;stroke:#000000;stroke-width:1;stroke-linecap:butt;stroke-linejoin:round;stroke-miterlimit:10;stroke-dasharray:none;stroke-dashoffset:0;stroke-opacity:1;color-rendering:optimizeQuality;image-rendering:optimizeQuality;shape-rendering:auto;text-rendering:geometricPrecision"
       id="g11603">
      <path
         d="m 564.1667,192.5 -0.8932,-3.3333 -2.4402,-2.4402 -3.3333,-0.8932 -3.3333,0.8932 -2.4402,2.4402 -0.8932,3.3333 0.8932,3.3333 2.4402,2.4402 3.3333,0.8932 3.3333,-0.8932 2.4402,-2.4402 z"
         style="fill:none;fill-rule:evenodd"
         id="path11601" />
    </g>
    <g
       transform="matrix(0.18200169,0,0,0.18200169,88.848477,28.916338)"
       style="font-style:normal;font-weight:normal;font-size:11px;font-family:mwa_cmmi10;color-interpolation:linearRGB;fill:#000000;fill-opacity:1;stroke:#000000;stroke-width:1;stroke-linecap:square;stroke-linejoin:miter;stroke-miterlimit:10;stroke-dasharray:none;stroke-dashoffset:0;stroke-opacity:1;color-rendering:optimizeQuality;image-rendering:optimizeQuality;shape-rendering:auto;text-rendering:geometricPrecision"
       id="g11607">
      <path
         style="stroke:none"
         d="m -4.4257626,3.4273329 q -0.1093,0 -0.1093,-0.1407 0,-0.0312 0.0234,-0.1015 0.0234,-0.0703 0.0469,-0.1094 0.0234,-0.0391 0.0703,-0.0391 0.6719,0 0.9375,-0.0781 0.1406,-0.0469 0.2031,-0.2812 l 1.5156,-6.0469 q 0.0157,-0.1094 0.0157,-0.1563 0,-0.1093 -0.125,-0.125 -0.2032,-0.0468 -0.7969,-0.0468 -0.1094,0 -0.1094,-0.1407 0.0156,-0.0312 0.0313,-0.1015 0.0156,-0.0703 0.039,-0.1094 0.0235,-0.0391 0.0703,-0.0391 h 5.8125 q 0.1094,0 0.1094,0.1407 l -0.2656,2.2812 q 0,0.0313 -0.0391,0.0625 -0.039,0.0313 -0.0703,0.0313 h -0.0937 q -0.1094,0 -0.1094,-0.1407 0.0625,-0.5 0.0625,-0.8125 0,-0.5468 -0.2344,-0.8047 -0.2344,-0.2578 -0.5937,-0.3125 -0.3594,-0.0546 -1.00000001,-0.0546 h -1.1719 q -0.2969,0 -0.3984,0.0468 -0.1016,0.0469 -0.1797,0.3282 l -0.70319999,2.79680004 h 0.82819999 q 0.4062,0 0.6562,-0.039 0.25,-0.0391 0.4219,-0.1641 0.1719,-0.125 0.2812,-0.35940004 0.1094,-0.2343 0.2032,-0.625 0.0312,-0.0937 0.10930001,-0.0937 h 0.0938 q 0.1094,0 0.1094,0.1406 l -0.67190001,2.7188 q -0.0469,0.0937 -0.1094,0.0937 h -0.0937 q -0.1094,0 -0.1094,-0.1406 0.0312,-0.10939996 0.0469,-0.18749996 0.0156,-0.0781 0.039,-0.2188 0.0235,-0.1406 0.0235,-0.25 0,-0.3125 -0.2813,-0.3984 -0.2812,-0.0859 -0.7344,-0.0859 H -1.5663626 l -0.7187,2.84369996 q -0.0313,0.1094 -0.0313,0.1094 0,0.125 0.0781,0.1406 0.2813,0.0781 1.125,0.0781 0.1094,0 0.1094,0.1563 -0.0312,0.1406 -0.0547,0.1875 -0.0234,0.0469 -0.1328,0.0469 z"
         id="path11605" />
    </g>
  </g>
</svg>
