<?xml version="1.0" encoding="UTF-8" standalone="no"?>
<svg
   xmlns:dc="http://purl.org/dc/elements/1.1/"
   xmlns:cc="http://creativecommons.org/ns#"
   xmlns:rdf="http://www.w3.org/1999/02/22-rdf-syntax-ns#"
   xmlns:svg="http://www.w3.org/2000/svg"
   xmlns="http://www.w3.org/2000/svg"
   xmlns:sodipodi="http://sodipodi.sourceforge.net/DTD/sodipodi-0.dtd"
   xmlns:inkscape="http://www.inkscape.org/namespaces/inkscape"
   sodipodi:docname="ex2D_BiRRTiter20.svg"
   inkscape:version="1.0 (4035a4fb49, 2020-05-01)"
   id="svg8"
   version="1.1"
   viewBox="0 0 100 100"
   height="100mm"
   width="100mm">
  <defs
     id="defs2">
    <clipPath
       clipPathUnits="userSpaceOnUse"
       id="clipPath1">
      <path
         d="M 0,0 H 725 V 591 H 0 Z"
         id="path1818" />
    </clipPath>
    <clipPath
       clipPathUnits="userSpaceOnUse"
       id="clipPath2805">
      <path
         d="M 0,0 H 725 V 591 H 0 Z"
         id="path2803" />
    </clipPath>
    <defs
       id="defs1">
      <clipPath
         id="clipPath3227"
         clipPathUnits="userSpaceOnUse">
        <path
           id="path3225"
           d="M 0,0 H 725 V 591 H 0 Z" />
      </clipPath>
    </defs>
  </defs>
  <sodipodi:namedview
     inkscape:window-maximized="1"
     inkscape:window-y="-8"
     inkscape:window-x="-8"
     inkscape:window-height="837"
     inkscape:window-width="1600"
     width="100mm"
     inkscape:pagecheckerboard="true"
     showgrid="false"
     inkscape:document-rotation="0"
     inkscape:current-layer="layer1"
     inkscape:document-units="mm"
     inkscape:cy="220.9154"
     inkscape:cx="168.5295"
     inkscape:zoom="0.98994949"
     inkscape:pageshadow="2"
     inkscape:pageopacity="0.0"
     borderopacity="1.0"
     bordercolor="#666666"
     pagecolor="#ffffff"
     id="base" />
  <metadata
     id="metadata5">
    <rdf:RDF>
      <cc:Work
         rdf:about="">
        <dc:format>image/svg+xml</dc:format>
        <dc:type
           rdf:resource="http://purl.org/dc/dcmitype/StillImage" />
        <dc:title></dc:title>
      </cc:Work>
    </rdf:RDF>
  </metadata>
  <g
     id="layer1"
     inkscape:groupmode="layer"
     inkscape:label="Layer 1">
    <g
       transform="matrix(0.18735817,0,0,0.18735817,-16.630791,-6.9054653)"
       id="g1900"
       style="font-style:normal;font-weight:normal;font-size:12px;font-family:Dialog;color-interpolation:linearRGB;fill:#262626;fill-opacity:0.149;stroke:#262626;stroke-width:0.6667;stroke-linecap:butt;stroke-linejoin:round;stroke-miterlimit:10;stroke-dasharray:none;stroke-dashoffset:0;stroke-opacity:0.149;color-rendering:optimizeQuality;image-rendering:optimizeQuality;shape-rendering:auto;text-rendering:geometricPrecision">
      <line
         id="line1832"
         y1="526"
         x2="134"
         x1="134"
         style="fill:none"
         y2="44" />
      <line
         id="line1834"
         y1="526"
         x2="182.2"
         x1="182.2"
         style="fill:none"
         y2="44" />
      <line
         id="line1836"
         y1="526"
         x2="230.39999"
         x1="230.39999"
         style="fill:none"
         y2="44" />
      <line
         id="line1838"
         y1="526"
         x2="278.60001"
         x1="278.60001"
         style="fill:none"
         y2="44" />
      <line
         id="line1840"
         y1="526"
         x2="326.79999"
         x1="326.79999"
         style="fill:none"
         y2="44" />
      <line
         id="line1842"
         y1="526"
         x2="375"
         x1="375"
         style="fill:none"
         y2="44" />
      <line
         id="line1844"
         y1="526"
         x2="423.20001"
         x1="423.20001"
         style="fill:none"
         y2="44" />
      <line
         id="line1846"
         y1="526"
         x2="471.39999"
         x1="471.39999"
         style="fill:none"
         y2="44" />
      <line
         id="line1848"
         y1="526"
         x2="519.59998"
         x1="519.59998"
         style="fill:none"
         y2="44" />
      <line
         id="line1850"
         y1="526"
         x2="567.79999"
         x1="567.79999"
         style="fill:none"
         y2="44" />
      <line
         id="line1852"
         y1="526"
         x2="616"
         x1="616"
         style="fill:none"
         y2="44" />
      <line
         id="line1854"
         y1="526"
         x2="134"
         x1="616"
         style="fill:none"
         y2="526" />
      <line
         id="line1856"
         y1="477.79999"
         x2="134"
         x1="616"
         style="fill:none"
         y2="477.79999" />
      <line
         id="line1858"
         y1="429.60001"
         x2="134"
         x1="616"
         style="fill:none"
         y2="429.60001" />
      <line
         id="line1860"
         y1="381.39999"
         x2="134"
         x1="616"
         style="fill:none"
         y2="381.39999" />
      <line
         id="line1862"
         y1="333.20001"
         x2="134"
         x1="616"
         style="fill:none"
         y2="333.20001" />
      <line
         id="line1864"
         y1="285"
         x2="134"
         x1="616"
         style="fill:none"
         y2="285" />
      <line
         id="line1866"
         y1="236.8"
         x2="134"
         x1="616"
         style="fill:none"
         y2="236.8" />
      <line
         id="line1868"
         y1="188.60001"
         x2="134"
         x1="616"
         style="fill:none"
         y2="188.60001" />
      <line
         id="line1870"
         y1="140.39999"
         x2="134"
         x1="616"
         style="fill:none"
         y2="140.39999" />
      <line
         id="line1872"
         y1="92.199997"
         x2="134"
         x1="616"
         style="fill:none"
         y2="92.199997" />
      <line
         id="line1874"
         y1="44"
         x2="134"
         x1="616"
         style="fill:none"
         y2="44" />
      <line
         id="line1876"
         y2="526"
         style="fill:none;fill-opacity:1;stroke-linecap:square;stroke-opacity:1"
         y1="526"
         x2="616"
         x1="134" />
      <line
         id="line1878"
         y2="521.17999"
         style="fill:none;fill-opacity:1;stroke-linecap:square;stroke-opacity:1"
         y1="526"
         x2="134"
         x1="134" />
      <line
         id="line1880"
         y2="521.17999"
         style="fill:none;fill-opacity:1;stroke-linecap:square;stroke-opacity:1"
         y1="526"
         x2="182.2"
         x1="182.2" />
      <line
         id="line1882"
         y2="521.17999"
         style="fill:none;fill-opacity:1;stroke-linecap:square;stroke-opacity:1"
         y1="526"
         x2="230.39999"
         x1="230.39999" />
      <line
         id="line1884"
         y2="521.17999"
         style="fill:none;fill-opacity:1;stroke-linecap:square;stroke-opacity:1"
         y1="526"
         x2="278.60001"
         x1="278.60001" />
      <line
         id="line1886"
         y2="521.17999"
         style="fill:none;fill-opacity:1;stroke-linecap:square;stroke-opacity:1"
         y1="526"
         x2="326.79999"
         x1="326.79999" />
      <line
         id="line1888"
         y2="521.17999"
         style="fill:none;fill-opacity:1;stroke-linecap:square;stroke-opacity:1"
         y1="526"
         x2="375"
         x1="375" />
      <line
         id="line1890"
         y2="521.17999"
         style="fill:none;fill-opacity:1;stroke-linecap:square;stroke-opacity:1"
         y1="526"
         x2="423.20001"
         x1="423.20001" />
      <line
         id="line1892"
         y2="521.17999"
         style="fill:none;fill-opacity:1;stroke-linecap:square;stroke-opacity:1"
         y1="526"
         x2="471.39999"
         x1="471.39999" />
      <line
         id="line1894"
         y2="521.17999"
         style="fill:none;fill-opacity:1;stroke-linecap:square;stroke-opacity:1"
         y1="526"
         x2="519.59998"
         x1="519.59998" />
      <line
         id="line1896"
         y2="521.17999"
         style="fill:none;fill-opacity:1;stroke-linecap:square;stroke-opacity:1"
         y1="526"
         x2="567.79999"
         x1="567.79999" />
      <line
         id="line1898"
         y2="521.17999"
         style="fill:none;fill-opacity:1;stroke-linecap:square;stroke-opacity:1"
         y1="526"
         x2="616"
         x1="616" />
    </g>
    <g
       id="g1904"
       style="font-style:normal;font-weight:normal;font-size:13px;font-family:SansSerif;color-interpolation:linearRGB;fill:#262626;fill-opacity:1;stroke:#262626;stroke-width:1;stroke-linecap:square;stroke-linejoin:miter;stroke-miterlimit:10;stroke-dasharray:none;stroke-dashoffset:0;stroke-opacity:1;color-rendering:optimizeQuality;image-rendering:optimizeQuality;shape-rendering:auto;text-rendering:geometricPrecision"
       transform="matrix(0.18735817,0,0,0.18735817,8.4752032,92.644167)">
      <path
         id="path1902"
         d="m -3.4531,9.4062 q 0,-1.6406 0.3359,-2.6484 0.336,-1.0078 1.0078,-1.5547 0.6719,-0.5469 1.6875,-0.5469 0.75,0 1.3125,0.3047 0.5625,0.3047 0.9297,0.8672 0.3672,0.5625 0.5781,1.3828 0.211,0.8203 0.211,2.1953 0,1.6407 -0.336,2.6485 -0.3359,1.0078 -1.0078,1.5547 -0.6718,0.5468 -1.6875,0.5468 -1.3437,0 -2.125,-0.9687 -0.9062,-1.1563 -0.9062,-3.7813 z m 1.1719,0 q 0,2.2969 0.5312,3.0547 0.5312,0.7579 1.3281,0.7579 0.7813,0 1.3203,-0.7579 0.5391,-0.7578 0.5391,-3.0547 0,-2.2968 -0.5391,-3.0468 -0.539,-0.75 -1.3359,-0.75 -0.7813,0 -1.2656,0.6562 -0.5781,0.8594 -0.5781,3.1406 z"
         style="stroke:none" />
    </g>
    <g
       id="g1908"
       style="font-style:normal;font-weight:normal;font-size:13px;font-family:SansSerif;color-interpolation:linearRGB;fill:#262626;fill-opacity:1;stroke:#262626;stroke-width:1;stroke-linecap:square;stroke-linejoin:miter;stroke-miterlimit:10;stroke-dasharray:none;stroke-dashoffset:0;stroke-opacity:1;color-rendering:optimizeQuality;image-rendering:optimizeQuality;shape-rendering:auto;text-rendering:geometricPrecision"
       transform="matrix(0.18735817,0,0,0.18735817,17.505867,92.644167)">
      <path
         id="path1906"
         d="M 2.5469,12.9062 V 14 h -6.1563 q -0.0156,-0.4062 0.1406,-0.7969 0.2344,-0.625 0.75,-1.2343 0.5157,-0.6094 1.5,-1.4063 1.5157,-1.25 2.0469,-1.9766 0.5313,-0.7265 0.5313,-1.3671 0,-0.6876 -0.4844,-1.1485 -0.4844,-0.4609 -1.2656,-0.4609 -0.8282,0 -1.3203,0.4922 -0.4922,0.4922 -0.5079,1.3672 l -1.1718,-0.125 q 0.125,-1.3126 0.9062,-2 0.7813,-0.6876 2.1094,-0.6876 1.3438,0 2.125,0.7422 0.7812,0.7422 0.7812,1.836 0,0.5625 -0.2265,1.1015 -0.2266,0.5391 -0.7578,1.1407 -0.5313,0.6015 -1.7657,1.6328 -1.0312,0.8594 -1.3203,1.1718 -0.289,0.3126 -0.4765,0.625 z"
         style="stroke:none" />
    </g>
    <g
       id="g1912"
       style="font-style:normal;font-weight:normal;font-size:13px;font-family:SansSerif;color-interpolation:linearRGB;fill:#262626;fill-opacity:1;stroke:#262626;stroke-width:1;stroke-linecap:square;stroke-linejoin:miter;stroke-miterlimit:10;stroke-dasharray:none;stroke-dashoffset:0;stroke-opacity:1;color-rendering:optimizeQuality;image-rendering:optimizeQuality;shape-rendering:auto;text-rendering:geometricPrecision"
       transform="matrix(0.18735817,0,0,0.18735817,26.53653,92.644167)">
      <path
         id="path1910"
         d="M 0.2031,14 V 11.7656 H -3.8281 V 10.7188 L 0.4062,4.6875 h 0.9376 v 6.0313 h 1.2656 v 1.0468 H 1.3438 V 14 Z m 0,-3.2812 V 6.5312 l -2.9219,4.1876 z"
         style="stroke:none" />
    </g>
    <g
       id="g1916"
       style="font-style:normal;font-weight:normal;font-size:13px;font-family:SansSerif;color-interpolation:linearRGB;fill:#262626;fill-opacity:1;stroke:#262626;stroke-width:1;stroke-linecap:square;stroke-linejoin:miter;stroke-miterlimit:10;stroke-dasharray:none;stroke-dashoffset:0;stroke-opacity:1;color-rendering:optimizeQuality;image-rendering:optimizeQuality;shape-rendering:auto;text-rendering:geometricPrecision"
       transform="matrix(0.18735817,0,0,0.18735817,35.567193,92.644167)">
      <path
         id="path1914"
         d="M 2.4688,6.9688 1.3281,7.0625 Q 1.1875,6.3906 0.9062,6.0781 0.4375,5.5938 -0.2344,5.5938 q -0.5468,0 -0.9687,0.3124 -0.5313,0.3907 -0.8438,1.1407 -0.3125,0.75 -0.3281,2.1562 0.4062,-0.625 1.0078,-0.9297 0.6016,-0.3046 1.2578,-0.3046 1.1406,0 1.9453,0.8359 0.8047,0.8359 0.8047,2.1797 0,0.875 -0.3828,1.625 -0.3828,0.75 -1.039,1.1484 -0.6563,0.3984 -1.5,0.3984 -1.4219,0 -2.3282,-1.0468 -0.9062,-1.0469 -0.9062,-3.4688 0,-2.6875 1,-3.9218 0.875,-1.0626 2.3437,-1.0626 1.0938,0 1.7969,0.6172 0.7031,0.6172 0.8438,1.6954 z m -4.6719,4.0156 q 0,0.5937 0.25,1.1328 0.25,0.539 0.7031,0.8203 0.4531,0.2813 0.9531,0.2813 0.7188,0 1.2422,-0.586 0.5235,-0.5859 0.5235,-1.5859 0,-0.9688 -0.5157,-1.5235 -0.5156,-0.5546 -1.2969,-0.5546 -0.7812,0 -1.3203,0.5546 -0.539,0.5547 -0.539,1.461 z"
         style="stroke:none" />
    </g>
    <g
       id="g1920"
       style="font-style:normal;font-weight:normal;font-size:13px;font-family:SansSerif;color-interpolation:linearRGB;fill:#262626;fill-opacity:1;stroke:#262626;stroke-width:1;stroke-linecap:square;stroke-linejoin:miter;stroke-miterlimit:10;stroke-dasharray:none;stroke-dashoffset:0;stroke-opacity:1;color-rendering:optimizeQuality;image-rendering:optimizeQuality;shape-rendering:auto;text-rendering:geometricPrecision"
       transform="matrix(0.18735817,0,0,0.18735817,44.597858,92.644167)">
      <path
         id="path1918"
         d="M -1.7031,8.9531 Q -2.4062,8.6875 -2.75,8.2109 -3.0938,7.7344 -3.0938,7.0625 q 0,-1.0156 0.7266,-1.7109 0.7266,-0.6954 1.9453,-0.6954 1.2188,0 1.961,0.711 0.7421,0.7109 0.7421,1.7266 0,0.6406 -0.3437,1.1171 -0.3437,0.4766 -1.0313,0.7422 0.8594,0.2813 1.3047,0.9063 0.4453,0.625 0.4453,1.4844 0,1.1874 -0.8437,2 -0.8437,0.8124 -2.2187,0.8124 -1.375,0 -2.2188,-0.8124 -0.8438,-0.8126 -0.8438,-2.0313 0,-0.9063 0.461,-1.5234 0.4609,-0.6172 1.3047,-0.836 z M -1.9375,7.0156 q 0,0.6563 0.4297,1.0782 0.4297,0.4218 1.1016,0.4218 0.6718,0 1.0937,-0.414 0.4219,-0.4141 0.4219,-1.0235 0,-0.625 -0.4375,-1.0547 -0.4375,-0.4296 -1.0781,-0.4296 -0.6563,0 -1.0938,0.4218 -0.4375,0.4219 -0.4375,1 z m -0.3594,4.2969 q 0,0.4844 0.2344,0.9453 0.2344,0.461 0.6875,0.711 0.4531,0.25 0.9844,0.25 0.8125,0 1.3437,-0.5235 0.5313,-0.5234 0.5313,-1.3359 0,-0.8282 -0.5469,-1.3672 -0.5469,-0.5391 -1.375,-0.5391 -0.7969,0 -1.3281,0.5313 -0.5313,0.5312 -0.5313,1.3281 z"
         style="stroke:none" />
    </g>
    <g
       id="g1924"
       style="font-style:normal;font-weight:normal;font-size:13px;font-family:SansSerif;color-interpolation:linearRGB;fill:#262626;fill-opacity:1;stroke:#262626;stroke-width:1;stroke-linecap:square;stroke-linejoin:miter;stroke-miterlimit:10;stroke-dasharray:none;stroke-dashoffset:0;stroke-opacity:1;color-rendering:optimizeQuality;image-rendering:optimizeQuality;shape-rendering:auto;text-rendering:geometricPrecision"
       transform="matrix(0.18735817,0,0,0.18735817,53.628521,92.644167)">
      <path
         id="path1922"
         d="M -2.6562,14 H -3.7969 V 6.7188 q -0.4219,0.3906 -1.0859,0.789 -0.6641,0.3984 -1.1953,0.586 V 6.9844 q 0.9531,-0.4375 1.6719,-1.0782 0.7187,-0.6406 1.0156,-1.25 h 0.7344 z M 0.2769,9.4062 q 0,-1.6406 0.3359,-2.6484 Q 0.9487,5.75 1.6206,5.2031 2.2925,4.6562 3.3081,4.6562 q 0.75,0 1.3125,0.3047 0.5625,0.3047 0.9297,0.8672 0.3672,0.5625 0.5781,1.3828 0.211,0.8203 0.211,2.1953 0,1.6407 -0.336,2.6485 -0.3359,1.0078 -1.0078,1.5547 -0.6719,0.5468 -1.6875,0.5468 -1.3437,0 -2.125,-0.9687 Q 0.2769,12.0312 0.2769,9.4062 Z m 1.1718,0 q 0,2.2969 0.5313,3.0547 0.5312,0.7579 1.3281,0.7579 0.7813,0 1.3203,-0.7579 0.5391,-0.7578 0.5391,-3.0547 0,-2.2968 -0.5391,-3.0468 -0.539,-0.75 -1.3359,-0.75 -0.7813,0 -1.2656,0.6562 Q 1.4487,7.125 1.4487,9.4062 Z"
         style="stroke:none" />
    </g>
    <g
       id="g1928"
       style="font-style:normal;font-weight:normal;font-size:13px;font-family:SansSerif;color-interpolation:linearRGB;fill:#262626;fill-opacity:1;stroke:#262626;stroke-width:1;stroke-linecap:square;stroke-linejoin:miter;stroke-miterlimit:10;stroke-dasharray:none;stroke-dashoffset:0;stroke-opacity:1;color-rendering:optimizeQuality;image-rendering:optimizeQuality;shape-rendering:auto;text-rendering:geometricPrecision"
       transform="matrix(0.18735817,0,0,0.18735817,62.659184,92.644167)">
      <path
         id="path1926"
         d="M -2.6562,14 H -3.7969 V 6.7188 q -0.4219,0.3906 -1.0859,0.789 -0.6641,0.3984 -1.1953,0.586 V 6.9844 q 0.9531,-0.4375 1.6719,-1.0782 0.7187,-0.6406 1.0156,-1.25 h 0.7344 z M 6.2769,12.9062 V 14 H 0.1206 q -0.0156,-0.4062 0.1406,-0.7969 0.2344,-0.625 0.75,-1.2343 0.5157,-0.6094 1.5,-1.4063 Q 4.0269,9.3125 4.5581,8.5859 5.0894,7.8594 5.0894,7.2188 5.0894,6.5312 4.605,6.0703 4.1206,5.6094 3.3394,5.6094 2.5112,5.6094 2.019,6.1016 1.5269,6.5938 1.5112,7.4688 L 0.3394,7.3438 q 0.125,-1.3126 0.9062,-2 0.7813,-0.6876 2.1094,-0.6876 1.3437,0 2.125,0.7422 0.7812,0.7422 0.7812,1.836 0,0.5625 -0.2265,1.1015 Q 5.8081,8.875 5.2769,9.4766 4.7456,10.0781 3.5112,11.1094 2.48,11.9688 2.1909,12.2812 q -0.289,0.3126 -0.4765,0.625 z"
         style="stroke:none" />
    </g>
    <g
       id="g1932"
       style="font-style:normal;font-weight:normal;font-size:13px;font-family:SansSerif;color-interpolation:linearRGB;fill:#262626;fill-opacity:1;stroke:#262626;stroke-width:1;stroke-linecap:square;stroke-linejoin:miter;stroke-miterlimit:10;stroke-dasharray:none;stroke-dashoffset:0;stroke-opacity:1;color-rendering:optimizeQuality;image-rendering:optimizeQuality;shape-rendering:auto;text-rendering:geometricPrecision"
       transform="matrix(0.18735817,0,0,0.18735817,71.689849,92.644167)">
      <path
         id="path1930"
         d="M -2.6562,14 H -3.7969 V 6.7188 q -0.4219,0.3906 -1.0859,0.789 -0.6641,0.3984 -1.1953,0.586 V 6.9844 q 0.9531,-0.4375 1.6719,-1.0782 0.7187,-0.6406 1.0156,-1.25 h 0.7344 z m 6.5893,0 V 11.7656 H -0.0981 V 10.7188 L 4.1362,4.6875 h 0.9375 v 6.0313 h 1.2657 v 1.0468 H 5.0737 V 14 Z m 0,-3.2812 V 6.5312 l -2.9219,4.1876 z"
         style="stroke:none" />
    </g>
    <g
       id="g1936"
       style="font-style:normal;font-weight:normal;font-size:13px;font-family:SansSerif;color-interpolation:linearRGB;fill:#262626;fill-opacity:1;stroke:#262626;stroke-width:1;stroke-linecap:square;stroke-linejoin:miter;stroke-miterlimit:10;stroke-dasharray:none;stroke-dashoffset:0;stroke-opacity:1;color-rendering:optimizeQuality;image-rendering:optimizeQuality;shape-rendering:auto;text-rendering:geometricPrecision"
       transform="matrix(0.18735817,0,0,0.18735817,80.720512,92.644167)">
      <path
         id="path1934"
         d="M -2.6562,14 H -3.7969 V 6.7188 q -0.4219,0.3906 -1.0859,0.789 -0.6641,0.3984 -1.1953,0.586 V 6.9844 q 0.9531,-0.4375 1.6719,-1.0782 0.7187,-0.6406 1.0156,-1.25 h 0.7344 z M 6.1987,6.9688 5.0581,7.0625 Q 4.9175,6.3906 4.6362,6.0781 4.1675,5.5938 3.4956,5.5938 2.9487,5.5938 2.5269,5.9062 1.9956,6.2969 1.6831,7.0469 1.3706,7.7969 1.355,9.2031 1.7612,8.5781 2.3628,8.2734 2.9644,7.9688 3.6206,7.9688 q 1.1406,0 1.9453,0.8359 0.8047,0.8359 0.8047,2.1797 0,0.875 -0.3828,1.625 -0.3828,0.75 -1.0391,1.1484 -0.6562,0.3984 -1.5,0.3984 -1.4218,0 -2.3281,-1.0468 -0.9062,-1.0469 -0.9062,-3.4688 0,-2.6875 1,-3.9218 0.875,-1.0626 2.3437,-1.0626 1.0938,0 1.7969,0.6172 0.7031,0.6172 0.8437,1.6954 z m -4.6718,4.0156 q 0,0.5937 0.25,1.1328 0.25,0.539 0.7031,0.8203 0.4531,0.2813 0.9531,0.2813 0.7188,0 1.2422,-0.586 0.5234,-0.5859 0.5234,-1.5859 0,-0.9688 -0.5156,-1.5235 -0.5156,-0.5546 -1.2969,-0.5546 -0.7812,0 -1.3203,0.5546 -0.539,0.5547 -0.539,1.461 z"
         style="stroke:none" />
    </g>
    <g
       id="g1940"
       style="font-style:normal;font-weight:normal;font-size:13px;font-family:SansSerif;color-interpolation:linearRGB;fill:#262626;fill-opacity:1;stroke:#262626;stroke-width:1;stroke-linecap:square;stroke-linejoin:miter;stroke-miterlimit:10;stroke-dasharray:none;stroke-dashoffset:0;stroke-opacity:1;color-rendering:optimizeQuality;image-rendering:optimizeQuality;shape-rendering:auto;text-rendering:geometricPrecision"
       transform="matrix(0.18735817,0,0,0.18735817,89.751175,92.644167)">
      <path
         id="path1938"
         d="M -2.6562,14 H -3.7969 V 6.7188 q -0.4219,0.3906 -1.0859,0.789 -0.6641,0.3984 -1.1953,0.586 V 6.9844 q 0.9531,-0.4375 1.6719,-1.0782 0.7187,-0.6406 1.0156,-1.25 h 0.7344 z M 2.0269,8.9531 Q 1.3237,8.6875 0.98,8.2109 0.6362,7.7344 0.6362,7.0625 q 0,-1.0156 0.7266,-1.7109 0.7266,-0.6954 1.9453,-0.6954 1.2188,0 1.9609,0.711 0.7422,0.7109 0.7422,1.7266 0,0.6406 -0.3437,1.1171 -0.3438,0.4766 -1.0313,0.7422 0.8594,0.2813 1.3047,0.9063 0.4453,0.625 0.4453,1.4844 0,1.1874 -0.8437,2 -0.8438,0.8124 -2.2188,0.8124 -1.375,0 -2.2187,-0.8124 -0.8438,-0.8126 -0.8438,-2.0313 0,-0.9063 0.461,-1.5234 0.4609,-0.6172 1.3047,-0.836 z M 1.7925,7.0156 q 0,0.6563 0.4297,1.0782 0.4297,0.4218 1.1015,0.4218 0.6719,0 1.0938,-0.414 0.4219,-0.4141 0.4219,-1.0235 0,-0.625 -0.4375,-1.0547 -0.4375,-0.4296 -1.0782,-0.4296 -0.6562,0 -1.0937,0.4218 -0.4375,0.4219 -0.4375,1 z m -0.3594,4.2969 q 0,0.4844 0.2344,0.9453 0.2344,0.461 0.6875,0.711 0.4531,0.25 0.9844,0.25 0.8125,0 1.3437,-0.5235 0.5313,-0.5234 0.5313,-1.3359 0,-0.8282 -0.5469,-1.3672 -0.5469,-0.5391 -1.375,-0.5391 -0.7969,0 -1.3281,0.5313 -0.5313,0.5312 -0.5313,1.3281 z"
         style="stroke:none" />
    </g>
    <g
       id="g1944"
       style="font-style:normal;font-weight:normal;font-size:13px;font-family:SansSerif;color-interpolation:linearRGB;fill:#262626;fill-opacity:1;stroke:#262626;stroke-width:1;stroke-linecap:square;stroke-linejoin:miter;stroke-miterlimit:10;stroke-dasharray:none;stroke-dashoffset:0;stroke-opacity:1;color-rendering:optimizeQuality;image-rendering:optimizeQuality;shape-rendering:auto;text-rendering:geometricPrecision"
       transform="matrix(0.18735817,0,0,0.18735817,98.781839,92.644167)">
      <path
         id="path1942"
         d="M -0.9531,12.9062 V 14 h -6.1563 q -0.0156,-0.4062 0.1406,-0.7969 0.2344,-0.625 0.75,-1.2343 0.5157,-0.6094 1.5,-1.4063 1.5157,-1.25 2.0469,-1.9766 0.5313,-0.7265 0.5313,-1.3671 0,-0.6876 -0.4844,-1.1485 -0.4844,-0.4609 -1.2656,-0.4609 -0.8282,0 -1.3203,0.4922 -0.4922,0.4922 -0.5079,1.3672 l -1.1718,-0.125 q 0.125,-1.3126 0.9062,-2 0.7813,-0.6876 2.1094,-0.6876 1.3438,0 2.125,0.7422 0.7812,0.7422 0.7812,1.836 0,0.5625 -0.2265,1.1015 -0.2266,0.5391 -0.7578,1.1407 -0.5313,0.6015 -1.7657,1.6328 -1.0312,0.8594 -1.3203,1.1718 -0.289,0.3126 -0.4765,0.625 z m 1.23,-3.5 q 0,-1.6406 0.3359,-2.6484 Q 0.9487,5.75 1.6206,5.2031 2.2925,4.6562 3.3081,4.6562 q 0.75,0 1.3125,0.3047 0.5625,0.3047 0.9297,0.8672 0.3672,0.5625 0.5781,1.3828 0.211,0.8203 0.211,2.1953 0,1.6407 -0.336,2.6485 -0.3359,1.0078 -1.0078,1.5547 -0.6719,0.5468 -1.6875,0.5468 -1.3437,0 -2.125,-0.9687 Q 0.2769,12.0312 0.2769,9.4062 Z m 1.1718,0 q 0,2.2969 0.5313,3.0547 0.5312,0.7579 1.3281,0.7579 0.7813,0 1.3203,-0.7579 0.5391,-0.7578 0.5391,-3.0547 0,-2.2968 -0.5391,-3.0468 -0.539,-0.75 -1.3359,-0.75 -0.7813,0 -1.2656,0.6562 Q 1.4487,7.125 1.4487,9.4062 Z"
         style="stroke:none" />
    </g>
    <g
       id="g1950"
       style="font-style:normal;font-weight:normal;font-size:33px;font-family:mwa_cmmi10;color-interpolation:linearRGB;fill:#262626;fill-opacity:1;stroke:#262626;stroke-width:1;stroke-linecap:square;stroke-linejoin:miter;stroke-miterlimit:10;stroke-dasharray:none;stroke-dashoffset:0;stroke-opacity:1;color-rendering:optimizeQuality;image-rendering:optimizeQuality;shape-rendering:auto;text-rendering:geometricPrecision"
       transform="matrix(0.18735817,0,0,0.18735817,53.519981,93.456497)">
      <path
         id="path1946"
         d="m -9.2631,33.9843 q 0.125,-0.7344 0.4375,-0.7344 1.2031,0 1.8828,-0.1953 0.6797,-0.1953 0.8984,-0.9297 l 1.4063,-5.6094 q -1.875,1.8594 -3.7656,1.8594 -2.0782,0 -3.2657,-1.5703 -1.1875,-1.5703 -1.1875,-3.7266 0,-2.1094 1.0938,-4.375 1.0937,-2.2656 2.9531,-3.7734 1.8594,-1.5078 4.0156,-1.5078 1,0 1.8047,0.5937 0.8047,0.5938 1.2266,1.5781 0.1875,-0.3906 1.0703,-1.2812 0.8828,-0.8906 1.2266,-0.8906 0.375,0 0.375,0.4218 l -4.625,18.4063 q -0.0782,0.4844 -0.0938,0.5625 0,0.4375 2.1719,0.4375 0.1719,0 0.2578,0.1328 0.0859,0.1328 0.0859,0.2891 -0.1093,0.4375 -0.1875,0.5781 -0.0781,0.1406 -0.375,0.1406 h -7.0625 q -0.3437,0 -0.3437,-0.4062 z m 0.9219,-6.4844 q 1.1562,0 2.2656,-0.875 1.1094,-0.875 1.9219,-2.0938 l 1.8593,-7.4218 q -0.1875,-1.1563 -0.8437,-2 -0.6563,-0.8438 -1.7344,-0.8438 -1.1094,0 -2.0703,0.9141 -0.9609,0.914 -1.6172,2.1484 -0.6406,1.3281 -1.2344,3.6328 -0.5937,2.3047 -0.5937,3.5703 0,1.1407 0.4922,2.0547 0.4922,0.9141 1.5547,0.9141 z"
         style="stroke:none" />
      <path
         id="path1948"
         d="m 2.9142,32.9998 v -0.8125 q 2.875,0 2.875,-0.7187 V 19.3905 q -1.2031,0.5781 -3.0156,0.5781 v -0.8125 q 2.8125,0 4.25,-1.4688 h 0.3281 q 0.0781,0 0.1562,0.0625 0.0782,0.0625 0.0782,0.1407 v 13.5781 q 0,0.7187 2.875,0.7187 v 0.8125 z"
         style="stroke:none" />
    </g>
    <g
       transform="matrix(0.18735817,0,0,0.18735817,-16.630791,-6.9054653)"
       id="g1976"
       style="font-style:normal;font-weight:normal;font-size:12px;font-family:Dialog;color-interpolation:linearRGB;fill:#262626;fill-opacity:1;stroke:#262626;stroke-width:0.6667;stroke-linecap:square;stroke-linejoin:round;stroke-miterlimit:10;stroke-dasharray:none;stroke-dashoffset:0;stroke-opacity:1;color-rendering:optimizeQuality;image-rendering:optimizeQuality;shape-rendering:auto;text-rendering:geometricPrecision">
      <line
         id="line1952"
         y1="526"
         x2="134"
         x1="134"
         style="fill:none"
         y2="44" />
      <line
         id="line1954"
         y1="526"
         x2="138.82001"
         x1="134"
         style="fill:none"
         y2="526" />
      <line
         id="line1956"
         y1="477.79999"
         x2="138.82001"
         x1="134"
         style="fill:none"
         y2="477.79999" />
      <line
         id="line1958"
         y1="429.60001"
         x2="138.82001"
         x1="134"
         style="fill:none"
         y2="429.60001" />
      <line
         id="line1960"
         y1="381.39999"
         x2="138.82001"
         x1="134"
         style="fill:none"
         y2="381.39999" />
      <line
         id="line1962"
         y1="333.20001"
         x2="138.82001"
         x1="134"
         style="fill:none"
         y2="333.20001" />
      <line
         id="line1964"
         y1="285"
         x2="138.82001"
         x1="134"
         style="fill:none"
         y2="285" />
      <line
         id="line1966"
         y1="236.8"
         x2="138.82001"
         x1="134"
         style="fill:none"
         y2="236.8" />
      <line
         id="line1968"
         y1="188.60001"
         x2="138.82001"
         x1="134"
         style="fill:none"
         y2="188.60001" />
      <line
         id="line1970"
         y1="140.39999"
         x2="138.82001"
         x1="134"
         style="fill:none"
         y2="140.39999" />
      <line
         id="line1972"
         y1="92.199997"
         x2="138.82001"
         x1="134"
         style="fill:none"
         y2="92.199997" />
      <line
         id="line1974"
         y1="44"
         x2="138.82001"
         x1="134"
         style="fill:none"
         y2="44" />
    </g>
    <g
       id="g1980"
       style="font-style:normal;font-weight:normal;font-size:13px;font-family:SansSerif;color-interpolation:linearRGB;fill:#262626;fill-opacity:1;stroke:#262626;stroke-width:1;stroke-linecap:square;stroke-linejoin:miter;stroke-miterlimit:10;stroke-dasharray:none;stroke-dashoffset:0;stroke-opacity:1;color-rendering:optimizeQuality;image-rendering:optimizeQuality;shape-rendering:auto;text-rendering:geometricPrecision"
       transform="matrix(0.18735817,0,0,0.18735817,7.4759665,91.644931)">
      <path
         id="path1978"
         d="m -7.4531,0.9062 q 0,-1.6406 0.3359,-2.6484 0.336,-1.0078 1.0078,-1.5547 0.6719,-0.5469 1.6875,-0.5469 0.75,0 1.3125,0.3047 0.5625,0.3047 0.9297,0.8672 0.3672,0.5625 0.5781,1.3828 0.211,0.8203 0.211,2.1953 0,1.6407 -0.336,2.6485 -0.3359,1.0078 -1.0078,1.5547 -0.6718,0.5468 -1.6875,0.5468 -1.3437,0 -2.125,-0.9687 -0.9062,-1.1563 -0.9062,-3.7813 z m 1.1719,0 q 0,2.2969 0.5312,3.0547 0.5312,0.7579 1.3281,0.7579 0.7813,0 1.3203,-0.7579 0.5391,-0.7578 0.5391,-3.0547 0,-2.2968 -0.5391,-3.0468 -0.539,-0.75 -1.3359,-0.75 -0.7813,0 -1.2656,0.6562 -0.5781,0.8594 -0.5781,3.1406 z"
         style="stroke:none" />
    </g>
    <g
       id="g1984"
       style="font-style:normal;font-weight:normal;font-size:13px;font-family:SansSerif;color-interpolation:linearRGB;fill:#262626;fill-opacity:1;stroke:#262626;stroke-width:1;stroke-linecap:square;stroke-linejoin:miter;stroke-miterlimit:10;stroke-dasharray:none;stroke-dashoffset:0;stroke-opacity:1;color-rendering:optimizeQuality;image-rendering:optimizeQuality;shape-rendering:auto;text-rendering:geometricPrecision"
       transform="matrix(0.18735817,0,0,0.18735817,7.4759665,82.614266)">
      <path
         id="path1982"
         d="M -1.4531,4.4062 V 5.5 h -6.1563 q -0.0156,-0.4062 0.1406,-0.7969 0.2344,-0.625 0.75,-1.2343 0.5157,-0.6094 1.5,-1.4063 1.5157,-1.25 2.0469,-1.9766 0.5313,-0.7265 0.5313,-1.3671 0,-0.6876 -0.4844,-1.1485 -0.4844,-0.4609 -1.2656,-0.4609 -0.8282,0 -1.3203,0.4922 -0.4922,0.4922 -0.5079,1.3672 l -1.1718,-0.125 q 0.125,-1.3126 0.9062,-2 0.7813,-0.6876 2.1094,-0.6876 1.3438,0 2.125,0.7422 0.7812,0.7422 0.7812,1.836 0,0.5625 -0.2265,1.1015 -0.2266,0.5391 -0.7578,1.1407 -0.5313,0.6015 -1.7657,1.6328 -1.0312,0.8594 -1.3203,1.1718 -0.289,0.3126 -0.4765,0.625 z"
         style="stroke:none" />
    </g>
    <g
       id="g1988"
       style="font-style:normal;font-weight:normal;font-size:13px;font-family:SansSerif;color-interpolation:linearRGB;fill:#262626;fill-opacity:1;stroke:#262626;stroke-width:1;stroke-linecap:square;stroke-linejoin:miter;stroke-miterlimit:10;stroke-dasharray:none;stroke-dashoffset:0;stroke-opacity:1;color-rendering:optimizeQuality;image-rendering:optimizeQuality;shape-rendering:auto;text-rendering:geometricPrecision"
       transform="matrix(0.18735817,0,0,0.18735817,7.4759665,73.583603)">
      <path
         id="path1986"
         d="M -3.7969,5.5 V 3.2656 H -7.8281 V 2.2188 l 4.2343,-6.0313 h 0.9376 v 6.0313 h 1.2656 V 3.2656 H -2.6562 V 5.5 Z m 0,-3.2812 v -4.1876 l -2.9219,4.1876 z"
         style="stroke:none" />
    </g>
    <g
       id="g1992"
       style="font-style:normal;font-weight:normal;font-size:13px;font-family:SansSerif;color-interpolation:linearRGB;fill:#262626;fill-opacity:1;stroke:#262626;stroke-width:1;stroke-linecap:square;stroke-linejoin:miter;stroke-miterlimit:10;stroke-dasharray:none;stroke-dashoffset:0;stroke-opacity:1;color-rendering:optimizeQuality;image-rendering:optimizeQuality;shape-rendering:auto;text-rendering:geometricPrecision"
       transform="matrix(0.18735817,0,0,0.18735817,7.4759665,64.55294)">
      <path
         id="path1990"
         d="m -1.5312,-1.5312 -1.1407,0.0937 q -0.1406,-0.6719 -0.4219,-0.9844 -0.4687,-0.4843 -1.1406,-0.4843 -0.5468,0 -0.9687,0.3124 -0.5313,0.3907 -0.8438,1.1407 -0.3125,0.75 -0.3281,2.1562 0.4062,-0.625 1.0078,-0.9297 0.6016,-0.3046 1.2578,-0.3046 1.1406,0 1.9453,0.8359 0.8047,0.8359 0.8047,2.1797 0,0.875 -0.3828,1.625 -0.3828,0.75 -1.039,1.1484 -0.6563,0.3984 -1.5,0.3984 -1.4219,0 -2.3282,-1.0468 -0.9062,-1.0469 -0.9062,-3.4688 0,-2.6875 1,-3.9218 0.875,-1.0626 2.3437,-1.0626 1.0938,0 1.7969,0.6172 0.7031,0.6172 0.8438,1.6954 z m -4.6719,4.0156 q 0,0.5937 0.25,1.1328 0.25,0.539 0.7031,0.8203 0.4531,0.2813 0.9531,0.2813 0.7188,0 1.2422,-0.586 0.5235,-0.5859 0.5235,-1.5859 0,-0.9688 -0.5157,-1.5235 -0.5156,-0.5546 -1.2969,-0.5546 -0.7812,0 -1.3203,0.5546 -0.539,0.5547 -0.539,1.461 z"
         style="stroke:none" />
    </g>
    <g
       id="g1996"
       style="font-style:normal;font-weight:normal;font-size:13px;font-family:SansSerif;color-interpolation:linearRGB;fill:#262626;fill-opacity:1;stroke:#262626;stroke-width:1;stroke-linecap:square;stroke-linejoin:miter;stroke-miterlimit:10;stroke-dasharray:none;stroke-dashoffset:0;stroke-opacity:1;color-rendering:optimizeQuality;image-rendering:optimizeQuality;shape-rendering:auto;text-rendering:geometricPrecision"
       transform="matrix(0.18735817,0,0,0.18735817,7.4759665,55.522275)">
      <path
         id="path1994"
         d="M -5.7031,0.4531 Q -6.4062,0.1875 -6.75,-0.2891 q -0.3438,-0.4765 -0.3438,-1.1484 0,-1.0156 0.7266,-1.7109 0.7266,-0.6954 1.9453,-0.6954 1.2188,0 1.961,0.711 0.7421,0.7109 0.7421,1.7266 0,0.6406 -0.3437,1.1171 -0.3437,0.4766 -1.0313,0.7422 0.8594,0.2813 1.3047,0.9063 0.4453,0.625 0.4453,1.4844 0,1.1874 -0.8437,2 -0.8437,0.8124 -2.2187,0.8124 -1.375,0 -2.2188,-0.8124 -0.8438,-0.8126 -0.8438,-2.0313 0,-0.9063 0.461,-1.5234 0.4609,-0.6172 1.3047,-0.836 z m -0.2344,-1.9375 q 0,0.6563 0.4297,1.0782 0.4297,0.4218 1.1016,0.4218 0.6718,0 1.0937,-0.414 0.4219,-0.4141 0.4219,-1.0235 0,-0.625 -0.4375,-1.0547 -0.4375,-0.4296 -1.0781,-0.4296 -0.6563,0 -1.0938,0.4218 -0.4375,0.4219 -0.4375,1 z m -0.3594,4.2969 q 0,0.4844 0.2344,0.9453 0.2344,0.461 0.6875,0.711 0.4531,0.25 0.9844,0.25 0.8125,0 1.3437,-0.5235 0.5313,-0.5234 0.5313,-1.3359 0,-0.8282 -0.5469,-1.3672 -0.5469,-0.5391 -1.375,-0.5391 -0.7969,0 -1.3281,0.5313 -0.5313,0.5312 -0.5313,1.3281 z"
         style="stroke:none" />
    </g>
    <g
       id="g2000"
       style="font-style:normal;font-weight:normal;font-size:13px;font-family:SansSerif;color-interpolation:linearRGB;fill:#262626;fill-opacity:1;stroke:#262626;stroke-width:1;stroke-linecap:square;stroke-linejoin:miter;stroke-miterlimit:10;stroke-dasharray:none;stroke-dashoffset:0;stroke-opacity:1;color-rendering:optimizeQuality;image-rendering:optimizeQuality;shape-rendering:auto;text-rendering:geometricPrecision"
       transform="matrix(0.18735817,0,0,0.18735817,7.4759665,46.491612)">
      <path
         id="path1998"
         d="m -10.1562,5.5 h -1.1407 v -7.2812 q -0.4219,0.3906 -1.0859,0.789 -0.6641,0.3984 -1.1953,0.586 v -1.1094 q 0.9531,-0.4375 1.6719,-1.0782 0.7187,-0.6406 1.0156,-1.25 h 0.7344 z m 2.9331,-4.5938 q 0,-1.6406 0.3359,-2.6484 0.3359,-1.0078 1.0078,-1.5547 0.6719,-0.5469 1.6875,-0.5469 0.75,0 1.3125,0.3047 0.5625,0.3047 0.9297,0.8672 0.3672,0.5625 0.5781,1.3828 0.211,0.8203 0.211,2.1953 0,1.6407 -0.336,2.6485 -0.3359,1.0078 -1.0078,1.5547 -0.6719,0.5468 -1.6875,0.5468 -1.3437,0 -2.125,-0.9687 -0.9062,-1.1563 -0.9062,-3.7813 z m 1.1718,0 q 0,2.2969 0.5313,3.0547 0.5312,0.7579 1.3281,0.7579 0.7813,0 1.3203,-0.7579 0.5391,-0.7578 0.5391,-3.0547 0,-2.2968 -0.5391,-3.0468 -0.539,-0.75 -1.3359,-0.75 -0.7813,0 -1.2656,0.6562 -0.5782,0.8594 -0.5782,3.1406 z"
         style="stroke:none" />
    </g>
    <g
       id="g2004"
       style="font-style:normal;font-weight:normal;font-size:13px;font-family:SansSerif;color-interpolation:linearRGB;fill:#262626;fill-opacity:1;stroke:#262626;stroke-width:1;stroke-linecap:square;stroke-linejoin:miter;stroke-miterlimit:10;stroke-dasharray:none;stroke-dashoffset:0;stroke-opacity:1;color-rendering:optimizeQuality;image-rendering:optimizeQuality;shape-rendering:auto;text-rendering:geometricPrecision"
       transform="matrix(0.18735817,0,0,0.18735817,7.4759665,37.460948)">
      <path
         id="path2002"
         d="m -10.1562,5.5 h -1.1407 v -7.2812 q -0.4219,0.3906 -1.0859,0.789 -0.6641,0.3984 -1.1953,0.586 v -1.1094 q 0.9531,-0.4375 1.6719,-1.0782 0.7187,-0.6406 1.0156,-1.25 h 0.7344 z M -1.2231,4.4062 V 5.5 h -6.1563 q -0.0156,-0.4062 0.1406,-0.7969 0.2344,-0.625 0.75,-1.2343 0.5157,-0.6094 1.5,-1.4063 1.5157,-1.25 2.0469,-1.9766 0.5313,-0.7265 0.5313,-1.3671 0,-0.6876 -0.4844,-1.1485 -0.4844,-0.4609 -1.2656,-0.4609 -0.8282,0 -1.3204,0.4922 -0.4921,0.4922 -0.5078,1.3672 l -1.1718,-0.125 q 0.125,-1.3126 0.9062,-2 0.7813,-0.6876 2.1094,-0.6876 1.3437,0 2.125,0.7422 0.7812,0.7422 0.7812,1.836 0,0.5625 -0.2265,1.1015 -0.2266,0.5391 -0.7578,1.1407 -0.5313,0.6015 -1.7657,1.6328 -1.0312,0.8594 -1.3203,1.1718 -0.289,0.3126 -0.4765,0.625 z"
         style="stroke:none" />
    </g>
    <g
       id="g2008"
       style="font-style:normal;font-weight:normal;font-size:13px;font-family:SansSerif;color-interpolation:linearRGB;fill:#262626;fill-opacity:1;stroke:#262626;stroke-width:1;stroke-linecap:square;stroke-linejoin:miter;stroke-miterlimit:10;stroke-dasharray:none;stroke-dashoffset:0;stroke-opacity:1;color-rendering:optimizeQuality;image-rendering:optimizeQuality;shape-rendering:auto;text-rendering:geometricPrecision"
       transform="matrix(0.18735817,0,0,0.18735817,7.4759665,28.430285)">
      <path
         id="path2006"
         d="m -10.1562,5.5 h -1.1407 v -7.2812 q -0.4219,0.3906 -1.0859,0.789 -0.6641,0.3984 -1.1953,0.586 v -1.1094 q 0.9531,-0.4375 1.6719,-1.0782 0.7187,-0.6406 1.0156,-1.25 h 0.7344 z m 6.5893,0 V 3.2656 H -7.5981 V 2.2188 l 4.2343,-6.0313 h 0.9375 v 6.0313 h 1.2657 V 3.2656 H -2.4263 V 5.5 Z m 0,-3.2812 v -4.1876 l -2.9219,4.1876 z"
         style="stroke:none" />
    </g>
    <g
       id="g2012"
       style="font-style:normal;font-weight:normal;font-size:13px;font-family:SansSerif;color-interpolation:linearRGB;fill:#262626;fill-opacity:1;stroke:#262626;stroke-width:1;stroke-linecap:square;stroke-linejoin:miter;stroke-miterlimit:10;stroke-dasharray:none;stroke-dashoffset:0;stroke-opacity:1;color-rendering:optimizeQuality;image-rendering:optimizeQuality;shape-rendering:auto;text-rendering:geometricPrecision"
       transform="matrix(0.18735817,0,0,0.18735817,7.4759665,19.399621)">
      <path
         id="path2010"
         d="m -10.1562,5.5 h -1.1407 v -7.2812 q -0.4219,0.3906 -1.0859,0.789 -0.6641,0.3984 -1.1953,0.586 v -1.1094 q 0.9531,-0.4375 1.6719,-1.0782 0.7187,-0.6406 1.0156,-1.25 h 0.7344 z m 8.8549,-7.0312 -1.1406,0.0937 q -0.1406,-0.6719 -0.4219,-0.9844 -0.4687,-0.4843 -1.1406,-0.4843 -0.5469,0 -0.9687,0.3124 -0.5313,0.3907 -0.8438,1.1407 -0.3125,0.75 -0.3281,2.1562 0.4062,-0.625 1.0078,-0.9297 0.6016,-0.3046 1.2578,-0.3046 1.1406,0 1.9453,0.8359 0.8047,0.8359 0.8047,2.1797 0,0.875 -0.3828,1.625 -0.3828,0.75 -1.0391,1.1484 -0.6562,0.3984 -1.5,0.3984 -1.4218,0 -2.3281,-1.0468 -0.9062,-1.0469 -0.9062,-3.4688 0,-2.6875 1,-3.9218 0.875,-1.0626 2.3437,-1.0626 1.0938,0 1.7969,0.6172 0.7031,0.6172 0.8437,1.6954 z m -4.6718,4.0156 q 0,0.5937 0.25,1.1328 0.25,0.539 0.7031,0.8203 0.4531,0.2813 0.9531,0.2813 0.7188,0 1.2422,-0.586 0.5234,-0.5859 0.5234,-1.5859 0,-0.9688 -0.5156,-1.5235 -0.5156,-0.5546 -1.2969,-0.5546 -0.7812,0 -1.3203,0.5546 -0.539,0.5547 -0.539,1.461 z"
         style="stroke:none" />
    </g>
    <g
       id="g2016"
       style="font-style:normal;font-weight:normal;font-size:13px;font-family:SansSerif;color-interpolation:linearRGB;fill:#262626;fill-opacity:1;stroke:#262626;stroke-width:1;stroke-linecap:square;stroke-linejoin:miter;stroke-miterlimit:10;stroke-dasharray:none;stroke-dashoffset:0;stroke-opacity:1;color-rendering:optimizeQuality;image-rendering:optimizeQuality;shape-rendering:auto;text-rendering:geometricPrecision"
       transform="matrix(0.18735817,0,0,0.18735817,7.4759665,10.368958)">
      <path
         id="path2014"
         d="m -10.1562,5.5 h -1.1407 v -7.2812 q -0.4219,0.3906 -1.0859,0.789 -0.6641,0.3984 -1.1953,0.586 v -1.1094 q 0.9531,-0.4375 1.6719,-1.0782 0.7187,-0.6406 1.0156,-1.25 h 0.7344 z M -5.4731,0.4531 Q -6.1763,0.1875 -6.52,-0.2891 q -0.3438,-0.4765 -0.3438,-1.1484 0,-1.0156 0.7266,-1.7109 0.7266,-0.6954 1.9453,-0.6954 1.2188,0 1.9609,0.711 0.7422,0.7109 0.7422,1.7266 0,0.6406 -0.3437,1.1171 -0.3438,0.4766 -1.0313,0.7422 0.8594,0.2813 1.3047,0.9063 0.4453,0.625 0.4453,1.4844 0,1.1874 -0.8437,2 -0.8438,0.8124 -2.2188,0.8124 -1.375,0 -2.2187,-0.8124 -0.8438,-0.8126 -0.8438,-2.0313 0,-0.9063 0.461,-1.5234 0.4609,-0.6172 1.3047,-0.836 z m -0.2344,-1.9375 q 0,0.6563 0.4297,1.0782 0.4297,0.4218 1.1015,0.4218 0.6719,0 1.0938,-0.414 0.4219,-0.4141 0.4219,-1.0235 0,-0.625 -0.4375,-1.0547 -0.4375,-0.4296 -1.0782,-0.4296 -0.6562,0 -1.0937,0.4218 -0.4375,0.4219 -0.4375,1 z m -0.3594,4.2969 q 0,0.4844 0.2344,0.9453 0.2344,0.461 0.6875,0.711 0.4531,0.25 0.9844,0.25 0.8125,0 1.3437,-0.5235 0.5313,-0.5234 0.5313,-1.3359 0,-0.8282 -0.5469,-1.3672 -0.5469,-0.5391 -1.375,-0.5391 -0.7969,0 -1.3281,0.5313 -0.5313,0.5312 -0.5313,1.3281 z"
         style="stroke:none" />
    </g>
    <g
       id="g2020"
       style="font-style:normal;font-weight:normal;font-size:13px;font-family:SansSerif;color-interpolation:linearRGB;fill:#262626;fill-opacity:1;stroke:#262626;stroke-width:1;stroke-linecap:square;stroke-linejoin:miter;stroke-miterlimit:10;stroke-dasharray:none;stroke-dashoffset:0;stroke-opacity:1;color-rendering:optimizeQuality;image-rendering:optimizeQuality;shape-rendering:auto;text-rendering:geometricPrecision"
       transform="matrix(0.18735817,0,0,0.18735817,7.4759665,1.3382939)">
      <path
         id="path2018"
         d="M -8.4531,4.4062 V 5.5 h -6.1563 q -0.0156,-0.4062 0.1406,-0.7969 0.2344,-0.625 0.75,-1.2343 0.5157,-0.6094 1.5,-1.4063 1.5157,-1.25 2.0469,-1.9766 0.5313,-0.7265 0.5313,-1.3671 0,-0.6876 -0.4844,-1.1485 -0.4844,-0.4609 -1.2656,-0.4609 -0.8282,0 -1.3203,0.4922 -0.4922,0.4922 -0.5079,1.3672 l -1.1718,-0.125 q 0.125,-1.3126 0.9062,-2 0.7813,-0.6876 2.1094,-0.6876 1.3438,0 2.125,0.7422 0.7812,0.7422 0.7812,1.836 0,0.5625 -0.2265,1.1015 -0.2266,0.5391 -0.7578,1.1407 -0.5313,0.6015 -1.7657,1.6328 -1.0312,0.8594 -1.3203,1.1718 -0.289,0.3126 -0.4765,0.625 z m 1.23,-3.5 q 0,-1.6406 0.3359,-2.6484 0.3359,-1.0078 1.0078,-1.5547 0.6719,-0.5469 1.6875,-0.5469 0.75,0 1.3125,0.3047 0.5625,0.3047 0.9297,0.8672 0.3672,0.5625 0.5781,1.3828 0.211,0.8203 0.211,2.1953 0,1.6407 -0.336,2.6485 -0.3359,1.0078 -1.0078,1.5547 -0.6719,0.5468 -1.6875,0.5468 -1.3437,0 -2.125,-0.9687 -0.9062,-1.1563 -0.9062,-3.7813 z m 1.1718,0 q 0,2.2969 0.5313,3.0547 0.5312,0.7579 1.3281,0.7579 0.7813,0 1.3203,-0.7579 0.5391,-0.7578 0.5391,-3.0547 0,-2.2968 -0.5391,-3.0468 -0.539,-0.75 -1.3359,-0.75 -0.7813,0 -1.2656,0.6562 -0.5782,0.8594 -0.5782,3.1406 z"
         style="stroke:none" />
    </g>
    <g
       id="g2026"
       style="font-style:normal;font-weight:normal;font-size:33px;font-family:mwa_cmmi10;color-interpolation:linearRGB;fill:#262626;fill-opacity:1;stroke:#262626;stroke-width:1;stroke-linecap:square;stroke-linejoin:miter;stroke-miterlimit:10;stroke-dasharray:none;stroke-dashoffset:0;stroke-opacity:1;color-rendering:optimizeQuality;image-rendering:optimizeQuality;shape-rendering:auto;text-rendering:geometricPrecision"
       transform="matrix(0,-0.18735817,0.18735817,0,5.6499168,46.874574)">
      <path
         id="path2022"
         d="m -9.2631,-6.0157 q 0.125,-0.7344 0.4375,-0.7344 1.2031,0 1.8828,-0.1953 0.6797,-0.1953 0.8984,-0.9297 l 1.4063,-5.6094 q -1.875,1.8594 -3.7656,1.8594 -2.0782,0 -3.2657,-1.5703 -1.1875,-1.5703 -1.1875,-3.7266 0,-2.1094 1.0938,-4.375 1.0937,-2.2656 2.9531,-3.7734 1.8594,-1.5078 4.0156,-1.5078 1,0 1.8047,0.5937 0.8047,0.5938 1.2266,1.5781 0.1875,-0.3906 1.0703,-1.2812 0.8828,-0.8906 1.2266,-0.8906 0.375,0 0.375,0.4218 l -4.625,18.4063 q -0.0782,0.4844 -0.0938,0.5625 0,0.4375 2.1719,0.4375 0.1719,0 0.2578,0.1328 0.0859,0.1328 0.0859,0.2891 -0.1093,0.4375 -0.1875,0.5781 -0.0781,0.1406 -0.375,0.1406 h -7.0625 q -0.3437,0 -0.3437,-0.4062 z m 0.9219,-6.4844 q 1.1562,0 2.2656,-0.875 1.1094,-0.875 1.9219,-2.0938 l 1.8593,-7.4218 q -0.1875,-1.1563 -0.8437,-2 -0.6563,-0.8438 -1.7344,-0.8438 -1.1094,0 -2.0703,0.9141 -0.9609,0.914 -1.6172,2.1484 -0.6406,1.3281 -1.2344,3.6328 -0.5937,2.3047 -0.5937,3.5703 0,1.1407 0.4922,2.0547 0.4922,0.9141 1.5547,0.9141 z"
         style="stroke:none" />
      <path
         id="path2024"
         d="m 1.9142,-7.0002 v -0.625 q 0,-0.0468 0.0469,-0.1093 l 3.5781,-3.9532 q 0.8125,-0.8906 1.3125,-1.4843 0.5,-0.5938 0.9922,-1.3672 0.4922,-0.7735 0.7812,-1.5782 0.2891,-0.8046 0.2891,-1.6953 0,-0.9531 -0.3438,-1.8125 -0.3437,-0.8593 -1.039,-1.375 -0.6953,-0.5156 -1.6641,-0.5156 -1,0 -1.7969,0.6016 -0.7968,0.6015 -1.125,1.5547 0.0782,-0.0157 0.25,-0.0157 0.5157,0 0.875,0.3438 0.3594,0.3437 0.3594,0.9062 0,0.5157 -0.3594,0.8828 -0.3593,0.3672 -0.875,0.3672 -0.5468,0 -0.914,-0.375 -0.3672,-0.375 -0.3672,-0.875 0,-0.875 0.3281,-1.6328 0.3281,-0.7578 0.9375,-1.3437 0.6094,-0.586 1.3828,-0.8985 0.7735,-0.3125 1.6328,-0.3125 1.3125,0 2.4454,0.5547 1.1328,0.5547 1.7968,1.5703 0.6641,1.0157 0.6641,2.375 0,1 -0.4375,1.8985 -0.4375,0.8984 -1.1172,1.6328 -0.6797,0.7344 -1.75,1.664 -1.0703,0.9297 -1.4141,1.2422 l -2.5937,2.5157 h 2.2031 q 1.625,0 2.7266,-0.0313 1.1015,-0.0312 1.164,-0.0937 0.2657,-0.2813 0.5469,-2.1094 h 0.6719 l -0.6406,4.0937 z"
         style="stroke:none" />
    </g>
    <g
       transform="matrix(0.18735817,0,0,0.18735817,-16.630791,-6.9054653)"
       id="g2032"
       style="font-style:normal;font-weight:normal;font-size:12px;font-family:Dialog;color-interpolation:sRGB;fill:#77ac30;fill-opacity:1;stroke:#77ac30;stroke-width:1;stroke-linecap:square;stroke-linejoin:miter;stroke-miterlimit:10;stroke-dasharray:none;stroke-dashoffset:0;stroke-opacity:1;color-rendering:optimizeSpeed;image-rendering:optimizeSpeed;shape-rendering:crispEdges;text-rendering:optimizeSpeed">
      <path
         id="path2028"
         d="M 405.8423,342.829 337.9025,318.1009 280.2037,476.627 Z"
         style="stroke:none" />
      <path
         id="path2030"
         d="m 405.8423,342.829 -125.6386,133.798 67.9398,24.7281 z"
         style="stroke:none" />
    </g>
    <g
       transform="matrix(0.18735817,0,0,0.18735817,-16.630791,-6.9054653)"
       id="g2036"
       style="font-style:normal;font-weight:normal;font-size:12px;font-family:Dialog;color-interpolation:linearRGB;fill:#000000;fill-opacity:1;stroke:#000000;stroke-width:0.6667;stroke-linecap:square;stroke-linejoin:miter;stroke-miterlimit:10;stroke-dasharray:none;stroke-dashoffset:0;stroke-opacity:1;color-rendering:optimizeQuality;image-rendering:optimizeQuality;shape-rendering:auto;text-rendering:geometricPrecision">
      <path
         id="path2034"
         style="fill:none;fill-rule:evenodd"
         d="m 280.2037,476.627 67.9398,24.7281 57.6988,-158.5261 -67.9398,-24.7281 -57.6988,158.5261 v 0" />
    </g>
    <g
       id="g2040"
       style="font-style:normal;font-weight:normal;font-size:20px;font-family:mwa_cmsy10;color-interpolation:linearRGB;fill:#000000;fill-opacity:1;stroke:#000000;stroke-width:1;stroke-linecap:square;stroke-linejoin:miter;stroke-miterlimit:10;stroke-dasharray:none;stroke-dashoffset:0;stroke-opacity:1;color-rendering:optimizeQuality;image-rendering:optimizeQuality;shape-rendering:auto;text-rendering:geometricPrecision"
       transform="matrix(0.18735817,0,0,0.18735817,45.889229,68.820986)">
      <path
         id="path2038"
         d="M 3.9375,5.2843 Q 2.9844,5.2843 2.2891,4.9171 1.5938,4.5499 1.1328,3.8859 0.6719,3.2218 0.4609,2.4327 0.25,1.6437 0.25,0.7374 q 0,-1.7812 0.6562,-3.6093 0.6563,-1.8282 1.8516,-3.2735 1.1953,-1.4453 2.8281,-2.3047 1.6329,-0.8593 3.5235,-0.8593 h 0.1094 q 0.6562,0 1.0624,0.3359 0.4063,0.3359 0.4063,0.9766 0,0.5468 -0.3203,1.2968 -0.3203,0.75 -0.7891,1.5782 -0.2187,0.3593 -0.6484,0.625 Q 8.5,-4.2313 8.0312,-4.1844 H 7.9375 q -0.1406,-0.0625 -0.1406,-0.1407 0,-0.0781 0.3203,-0.7031 0.3203,-0.625 0.5469,-1.1797 0.2265,-0.5547 0.2265,-0.9609 0,-0.4844 -0.3047,-0.7188 -0.3047,-0.2343 -0.8203,-0.2343 -1.4687,0 -2.4765,0.7031 -1.0079,0.7031 -1.8047,2.0781 -0.6875,1.1719 -1.0782,2.5234 -0.3906,1.3516 -0.3906,2.6954 0,1.1093 0.3516,2.0781 0.3516,0.9687 1.1172,1.5547 0.7656,0.5859 1.9218,0.5859 1.2032,0 2.1563,-0.9062 Q 7.6875,3.0656 8.0859,2.5421 8.4844,2.0187 8.8203,1.7765 9.1562,1.5343 9.7031,1.4718 h 0.1094 q 0.125,0.0781 0.125,0.1563 0,0.0781 -0.0469,0.1718 Q 9.3125,2.7374 8.3594,3.5421 7.4062,4.3468 6.2656,4.8156 5.125,5.2843 4.0625,5.2843 Z"
         style="stroke:none" />
    </g>
    <g
       id="g2048"
       style="font-style:normal;font-weight:normal;font-size:14px;font-family:mwa_cmmi10;color-interpolation:linearRGB;fill:#000000;fill-opacity:1;stroke:#000000;stroke-width:1;stroke-linecap:square;stroke-linejoin:miter;stroke-miterlimit:10;stroke-dasharray:none;stroke-dashoffset:0;stroke-opacity:1;color-rendering:optimizeQuality;image-rendering:optimizeQuality;shape-rendering:auto;text-rendering:geometricPrecision"
       transform="matrix(0.18735817,0,0,0.18735817,45.889229,68.820986)">
      <path
         id="path2042"
         d="m 13.3431,7.9561 q -0.6563,0 -1.1719,-0.3125 -0.5156,-0.3125 -0.7969,-0.8437 -0.2812,-0.5313 -0.2812,-1.2188 0,-0.9531 0.5312,-1.8828 0.5313,-0.9297 1.4063,-1.5078 0.875,-0.5781 1.8437,-0.5781 0.5157,0 0.9219,0.1797 0.4063,0.1797 0.7109,0.5 0.3047,0.3203 0.461,0.75 0.1562,0.4297 0.1562,0.9297 0,0.7343 -0.3047,1.4453 -0.3046,0.7109 -0.8437,1.289 -0.5391,0.5782 -1.2266,0.9141 -0.6875,0.3359 -1.4062,0.3359 z m 0.0312,-0.375 q 0.625,0 1.1407,-0.4218 0.5156,-0.4219 0.8437,-1.0703 0.3281,-0.6485 0.5078,-1.3594 0.1797,-0.711 0.1797,-1.3047 0,-0.6094 -0.3047,-1.0313 -0.3047,-0.4218 -0.8984,-0.4218 -0.8125,0 -1.4297,0.7031 -0.6172,0.7031 -0.9297,1.6797 -0.3125,0.9765 -0.3125,1.7734 0,0.6094 0.3125,1.0313 0.3125,0.4218 0.8906,0.4218 z"
         style="stroke:none" />
      <path
         id="path2044"
         d="m 19.7386,7.9561 q -0.8438,0 -1.3204,-0.664 -0.4765,-0.6641 -0.4765,-1.5547 0,-0.125 0.0703,-0.5078 0.0703,-0.3828 0.0703,-0.461 l 1.3438,-5.4375 q 0.0625,-0.2343 0.0781,-0.375 0,-0.2343 -0.9219,-0.2343 -0.125,0 -0.125,-0.1719 0,-0.0469 0.0234,-0.1328 0.0235,-0.086 0.0625,-0.1328 0.0391,-0.0469 0.1016,-0.0469 l 1.8906,-0.1563 q 0.1719,0 0.1719,0.1875 l -1.0312,4.125 q 0.7812,-0.7812 1.5937,-0.7812 0.5938,0 1.0234,0.3125 0.4297,0.3125 0.6407,0.8281 0.2109,0.5156 0.2109,1.0938 0,0.6718 -0.2656,1.3984 -0.2656,0.7266 -0.7266,1.3438 -0.4609,0.6171 -1.0859,0.9921 -0.625,0.375 -1.3281,0.375 z m 0.0312,-0.375 q 0.4688,0 0.8906,-0.3984 0.4219,-0.3984 0.6719,-0.8984 0.2813,-0.5625 0.5234,-1.5235 0.2422,-0.9609 0.2422,-1.5234 0,-0.5 -0.2031,-0.8828 -0.2031,-0.3828 -0.6562,-0.3828 -0.5157,0 -0.9766,0.375 -0.4609,0.375 -0.8047,0.8906 l -0.3906,1.5781 q -0.2188,0.8906 -0.2344,1.4219 0,0.5156 0.2266,0.9297 0.2265,0.414 0.7109,0.414 z"
         style="stroke:none" />
      <path
         id="path2046"
         d="M 24.2469,9.8999 V 9.5405 q 1.25,0 1.25,-0.3125 V 3.978 Q 24.9813,4.228 24.2,4.228 V 3.8842 q 1.2188,0 1.8438,-0.6406 h 0.1406 q 0.0312,0 0.0625,0.0235 0.0312,0.0234 0.0312,0.0546 V 9.228 q 0,0.3125 1.25,0.3125 v 0.3594 z"
         style="stroke:none" />
    </g>
    <g
       transform="matrix(0.18735817,0,0,0.18735817,-16.630791,-6.9054653)"
       id="g2054"
       style="font-style:normal;font-weight:normal;font-size:12px;font-family:Dialog;color-interpolation:sRGB;fill:#77ac30;fill-opacity:1;stroke:#77ac30;stroke-width:1;stroke-linecap:square;stroke-linejoin:miter;stroke-miterlimit:10;stroke-dasharray:none;stroke-dashoffset:0;stroke-opacity:1;color-rendering:optimizeSpeed;image-rendering:optimizeSpeed;shape-rendering:crispEdges;text-rendering:optimizeSpeed">
      <path
         id="path2050"
         d="M 443.3099,209.6769 280.3582,166.0141 424.5973,279.5133 Z"
         style="stroke:none" />
      <path
         id="path2052"
         d="m 280.3582,166.0141 -18.7126,69.8364 162.9517,43.6628 z"
         style="stroke:none" />
    </g>
    <g
       transform="matrix(0.18735817,0,0,0.18735817,-16.630791,-6.9054653)"
       id="g2058"
       style="font-style:normal;font-weight:normal;font-size:12px;font-family:Dialog;color-interpolation:linearRGB;fill:#000000;fill-opacity:1;stroke:#000000;stroke-width:0.6667;stroke-linecap:square;stroke-linejoin:miter;stroke-miterlimit:10;stroke-dasharray:none;stroke-dashoffset:0;stroke-opacity:1;color-rendering:optimizeQuality;image-rendering:optimizeQuality;shape-rendering:auto;text-rendering:geometricPrecision">
      <path
         id="path2056"
         style="fill:none;fill-rule:evenodd"
         d="m 261.6456,235.8505 162.9517,43.6628 18.7126,-69.8364 -162.9517,-43.6628 -18.7126,69.8364 v 0" />
    </g>
    <g
       id="g2062"
       style="font-style:normal;font-weight:normal;font-size:20px;font-family:mwa_cmsy10;color-interpolation:linearRGB;fill:#000000;fill-opacity:1;stroke:#000000;stroke-width:1;stroke-linecap:square;stroke-linejoin:miter;stroke-miterlimit:10;stroke-dasharray:none;stroke-dashoffset:0;stroke-opacity:1;color-rendering:optimizeQuality;image-rendering:optimizeQuality;shape-rendering:auto;text-rendering:geometricPrecision"
       transform="matrix(0.18735817,0,0,0.18735817,49.408802,34.831133)">
      <path
         id="path2060"
         d="M 3.9375,5.2843 Q 2.9844,5.2843 2.2891,4.9171 1.5938,4.5499 1.1328,3.8859 0.6719,3.2218 0.4609,2.4327 0.25,1.6437 0.25,0.7374 q 0,-1.7812 0.6562,-3.6093 0.6563,-1.8282 1.8516,-3.2735 1.1953,-1.4453 2.8281,-2.3047 1.6329,-0.8593 3.5235,-0.8593 h 0.1094 q 0.6562,0 1.0624,0.3359 0.4063,0.3359 0.4063,0.9766 0,0.5468 -0.3203,1.2968 -0.3203,0.75 -0.7891,1.5782 -0.2187,0.3593 -0.6484,0.625 Q 8.5,-4.2313 8.0312,-4.1844 H 7.9375 q -0.1406,-0.0625 -0.1406,-0.1407 0,-0.0781 0.3203,-0.7031 0.3203,-0.625 0.5469,-1.1797 0.2265,-0.5547 0.2265,-0.9609 0,-0.4844 -0.3047,-0.7188 -0.3047,-0.2343 -0.8203,-0.2343 -1.4687,0 -2.4765,0.7031 -1.0079,0.7031 -1.8047,2.0781 -0.6875,1.1719 -1.0782,2.5234 -0.3906,1.3516 -0.3906,2.6954 0,1.1093 0.3516,2.0781 0.3516,0.9687 1.1172,1.5547 0.7656,0.5859 1.9218,0.5859 1.2032,0 2.1563,-0.9062 Q 7.6875,3.0656 8.0859,2.5421 8.4844,2.0187 8.8203,1.7765 9.1562,1.5343 9.7031,1.4718 h 0.1094 q 0.125,0.0781 0.125,0.1563 0,0.0781 -0.0469,0.1718 Q 9.3125,2.7374 8.3594,3.5421 7.4062,4.3468 6.2656,4.8156 5.125,5.2843 4.0625,5.2843 Z"
         style="stroke:none" />
    </g>
    <g
       id="g2070"
       style="font-style:normal;font-weight:normal;font-size:14px;font-family:mwa_cmmi10;color-interpolation:linearRGB;fill:#000000;fill-opacity:1;stroke:#000000;stroke-width:1;stroke-linecap:square;stroke-linejoin:miter;stroke-miterlimit:10;stroke-dasharray:none;stroke-dashoffset:0;stroke-opacity:1;color-rendering:optimizeQuality;image-rendering:optimizeQuality;shape-rendering:auto;text-rendering:geometricPrecision"
       transform="matrix(0.18735817,0,0,0.18735817,49.408802,34.831133)">
      <path
         id="path2064"
         d="m 13.3431,7.9561 q -0.6563,0 -1.1719,-0.3125 -0.5156,-0.3125 -0.7969,-0.8437 -0.2812,-0.5313 -0.2812,-1.2188 0,-0.9531 0.5312,-1.8828 0.5313,-0.9297 1.4063,-1.5078 0.875,-0.5781 1.8437,-0.5781 0.5157,0 0.9219,0.1797 0.4063,0.1797 0.7109,0.5 0.3047,0.3203 0.461,0.75 0.1562,0.4297 0.1562,0.9297 0,0.7343 -0.3047,1.4453 -0.3046,0.7109 -0.8437,1.289 -0.5391,0.5782 -1.2266,0.9141 -0.6875,0.3359 -1.4062,0.3359 z m 0.0312,-0.375 q 0.625,0 1.1407,-0.4218 0.5156,-0.4219 0.8437,-1.0703 0.3281,-0.6485 0.5078,-1.3594 0.1797,-0.711 0.1797,-1.3047 0,-0.6094 -0.3047,-1.0313 -0.3047,-0.4218 -0.8984,-0.4218 -0.8125,0 -1.4297,0.7031 -0.6172,0.7031 -0.9297,1.6797 -0.3125,0.9765 -0.3125,1.7734 0,0.6094 0.3125,1.0313 0.3125,0.4218 0.8906,0.4218 z"
         style="stroke:none" />
      <path
         id="path2066"
         d="m 19.7386,7.9561 q -0.8438,0 -1.3204,-0.664 -0.4765,-0.6641 -0.4765,-1.5547 0,-0.125 0.0703,-0.5078 0.0703,-0.3828 0.0703,-0.461 l 1.3438,-5.4375 q 0.0625,-0.2343 0.0781,-0.375 0,-0.2343 -0.9219,-0.2343 -0.125,0 -0.125,-0.1719 0,-0.0469 0.0234,-0.1328 0.0235,-0.086 0.0625,-0.1328 0.0391,-0.0469 0.1016,-0.0469 l 1.8906,-0.1563 q 0.1719,0 0.1719,0.1875 l -1.0312,4.125 q 0.7812,-0.7812 1.5937,-0.7812 0.5938,0 1.0234,0.3125 0.4297,0.3125 0.6407,0.8281 0.2109,0.5156 0.2109,1.0938 0,0.6718 -0.2656,1.3984 -0.2656,0.7266 -0.7266,1.3438 -0.4609,0.6171 -1.0859,0.9921 -0.625,0.375 -1.3281,0.375 z m 0.0312,-0.375 q 0.4688,0 0.8906,-0.3984 0.4219,-0.3984 0.6719,-0.8984 0.2813,-0.5625 0.5234,-1.5235 0.2422,-0.9609 0.2422,-1.5234 0,-0.5 -0.2031,-0.8828 -0.2031,-0.3828 -0.6562,-0.3828 -0.5157,0 -0.9766,0.375 -0.4609,0.375 -0.8047,0.8906 l -0.3906,1.5781 q -0.2188,0.8906 -0.2344,1.4219 0,0.5156 0.2266,0.9297 0.2265,0.414 0.7109,0.414 z"
         style="stroke:none" />
      <path
         id="path2068"
         d="M 23.825,9.8999 V 9.6342 q 0,-0.0312 0.0156,-0.0625 L 25.4031,7.853 q 0.3438,-0.375 0.5625,-0.6328 0.2188,-0.2578 0.4375,-0.5938 0.2188,-0.3359 0.3438,-0.6875 0.125,-0.3515 0.125,-0.7422 0,-0.4062 -0.1563,-0.7812 -0.1562,-0.375 -0.4531,-0.6016 -0.2969,-0.2265 -0.7187,-0.2265 -0.4375,0 -0.7891,0.2656 -0.3516,0.2656 -0.4922,0.6719 0.0469,0 0.1094,0 0.2344,0 0.3906,0.1484 0.1563,0.1484 0.1563,0.3828 0,0.2344 -0.1563,0.3906 -0.1562,0.1563 -0.3906,0.1563 -0.2344,0 -0.3906,-0.1641 -0.1563,-0.164 -0.1563,-0.3828 0,-0.375 0.1406,-0.7031 0.1407,-0.3281 0.4063,-0.5859 0.2656,-0.2579 0.6015,-0.3907 0.336,-0.1328 0.711,-0.1328 0.5781,0 1.0703,0.2422 0.4922,0.2422 0.7812,0.6797 0.2891,0.4375 0.2891,1.0312 0,0.4375 -0.1953,0.8282 -0.1953,0.3906 -0.4922,0.7109 -0.2969,0.3203 -0.7578,0.7266 -0.4609,0.4062 -0.6172,0.5312 l -1.125,1.0938 h 0.9531 q 0.7188,0 1.1953,-0.0078 0.4766,-0.0079 0.4922,-0.0391 0.125,-0.125 0.25,-0.9219 h 0.2969 l -0.2969,1.7813 z"
         style="stroke:none" />
    </g>
    <g
       transform="matrix(0.18735817,0,0,0.18735817,-16.630791,-6.9054653)"
       id="g2096"
       style="font-style:normal;font-weight:normal;font-size:12px;font-family:Dialog;color-interpolation:linearRGB;fill:#000000;fill-opacity:1;stroke:#000000;stroke-width:1.8667;stroke-linecap:butt;stroke-linejoin:round;stroke-miterlimit:10;stroke-dasharray:none;stroke-dashoffset:0;stroke-opacity:1;color-rendering:optimizeQuality;image-rendering:optimizeQuality;shape-rendering:auto;text-rendering:geometricPrecision">
      <line
         id="line2072"
         y1="526"
         x2="139.291"
         x1="134"
         style="fill:none"
         y2="502.48801" />
      <line
         id="line2074"
         y1="502.48801"
         x2="159.7545"
         x1="139.291"
         style="fill:none"
         y2="489.75781" />
      <line
         id="line2076"
         y1="489.75781"
         x2="160.7459"
         x1="159.7545"
         style="fill:none"
         y2="465.67819" />
      <line
         id="line2078"
         y1="465.67819"
         x2="184.46201"
         x1="160.7459"
         style="fill:none"
         y2="461.39389" />
      <line
         id="line2080"
         y1="461.39389"
         x2="202.8192"
         x1="184.46201"
         style="fill:none"
         y2="445.77899" />
      <line
         id="line2082"
         y1="445.77899"
         x2="203.509"
         x1="202.8192"
         style="fill:none"
         y2="421.6889" />
      <line
         id="line2084"
         y1="421.6889"
         x2="216.5616"
         x1="203.509"
         style="fill:none"
         y2="401.4296" />
      <line
         id="line2086"
         y1="401.4296"
         x2="234.0332"
         x1="216.5616"
         style="fill:none"
         y2="384.8298" />
      <line
         id="line2088"
         y1="384.8298"
         x2="257.9101"
         x1="234.0332"
         style="fill:none"
         y2="381.55771" />
      <line
         id="line2090"
         y1="421.6889"
         x2="187.7207"
         x1="203.509"
         style="fill:none"
         y2="404.89981" />
      <line
         id="line2092"
         y1="381.55771"
         x2="281.89651"
         x1="257.9101"
         style="fill:none"
         y2="379.22061" />
      <circle
         id="circle2094"
         cy="0"
         transform="translate(134,526)"
         cx="0"
         style="stroke:none"
         r="3.3333001" />
    </g>
    <g
       id="g2100"
       style="font-style:normal;font-weight:normal;font-size:12px;font-family:Dialog;color-interpolation:linearRGB;fill:#000000;fill-opacity:1;stroke:#000000;stroke-width:1.8667;stroke-linecap:butt;stroke-linejoin:round;stroke-miterlimit:10;stroke-dasharray:none;stroke-dashoffset:0;stroke-opacity:1;color-rendering:optimizeQuality;image-rendering:optimizeQuality;shape-rendering:auto;text-rendering:geometricPrecision"
       transform="matrix(0.18735817,0,0,0.18735817,9.4665158,87.239765)">
      <circle
         id="circle2098"
         cy="0"
         cx="0"
         style="stroke:none"
         r="3.3333001" />
    </g>
    <g
       id="g2104"
       style="font-style:normal;font-weight:normal;font-size:12px;font-family:Dialog;color-interpolation:linearRGB;fill:#000000;fill-opacity:1;stroke:#000000;stroke-width:1.8667;stroke-linecap:butt;stroke-linejoin:round;stroke-miterlimit:10;stroke-dasharray:none;stroke-dashoffset:0;stroke-opacity:1;color-rendering:optimizeQuality;image-rendering:optimizeQuality;shape-rendering:auto;text-rendering:geometricPrecision"
       transform="matrix(0.18735817,0,0,0.18735817,13.300519,84.854658)">
      <circle
         id="circle2102"
         cy="0"
         cx="0"
         style="stroke:none"
         r="3.3333001" />
    </g>
    <g
       id="g2108"
       style="font-style:normal;font-weight:normal;font-size:12px;font-family:Dialog;color-interpolation:linearRGB;fill:#000000;fill-opacity:1;stroke:#000000;stroke-width:1.8667;stroke-linecap:butt;stroke-linejoin:round;stroke-miterlimit:10;stroke-dasharray:none;stroke-dashoffset:0;stroke-opacity:1;color-rendering:optimizeQuality;image-rendering:optimizeQuality;shape-rendering:auto;text-rendering:geometricPrecision"
       transform="matrix(0.18735817,0,0,0.18735817,13.486266,80.343149)">
      <circle
         id="circle2106"
         cy="0"
         cx="0"
         style="stroke:none"
         r="3.3333001" />
    </g>
    <g
       id="g2112"
       style="font-style:normal;font-weight:normal;font-size:12px;font-family:Dialog;color-interpolation:linearRGB;fill:#000000;fill-opacity:1;stroke:#000000;stroke-width:1.8667;stroke-linecap:butt;stroke-linejoin:round;stroke-miterlimit:10;stroke-dasharray:none;stroke-dashoffset:0;stroke-opacity:1;color-rendering:optimizeQuality;image-rendering:optimizeQuality;shape-rendering:auto;text-rendering:geometricPrecision"
       transform="matrix(0.18735817,0,0,0.18735817,17.92967,79.540449)">
      <circle
         id="circle2110"
         cy="0"
         cx="0"
         style="stroke:none"
         r="3.3333001" />
    </g>
    <g
       id="g2116"
       style="font-style:normal;font-weight:normal;font-size:12px;font-family:Dialog;color-interpolation:linearRGB;fill:#000000;fill-opacity:1;stroke:#000000;stroke-width:1.8667;stroke-linecap:butt;stroke-linejoin:round;stroke-miterlimit:10;stroke-dasharray:none;stroke-dashoffset:0;stroke-opacity:1;color-rendering:optimizeQuality;image-rendering:optimizeQuality;shape-rendering:auto;text-rendering:geometricPrecision"
       transform="matrix(0.18735817,0,0,0.18735817,21.369042,76.61487)">
      <circle
         id="circle2114"
         cy="0"
         cx="0"
         style="stroke:none"
         r="3.3333001" />
    </g>
    <g
       id="g2120"
       style="font-style:normal;font-weight:normal;font-size:12px;font-family:Dialog;color-interpolation:linearRGB;fill:#000000;fill-opacity:1;stroke:#000000;stroke-width:1.8667;stroke-linecap:butt;stroke-linejoin:round;stroke-miterlimit:10;stroke-dasharray:none;stroke-dashoffset:0;stroke-opacity:1;color-rendering:optimizeQuality;image-rendering:optimizeQuality;shape-rendering:auto;text-rendering:geometricPrecision"
       transform="matrix(0.18735817,0,0,0.18735817,21.498281,72.101393)">
      <circle
         id="circle2118"
         cy="0"
         cx="0"
         style="stroke:none"
         r="3.3333001" />
    </g>
    <g
       id="g2124"
       style="font-style:normal;font-weight:normal;font-size:12px;font-family:Dialog;color-interpolation:linearRGB;fill:#000000;fill-opacity:1;stroke:#000000;stroke-width:1.8667;stroke-linecap:butt;stroke-linejoin:round;stroke-miterlimit:10;stroke-dasharray:none;stroke-dashoffset:0;stroke-opacity:1;color-rendering:optimizeQuality;image-rendering:optimizeQuality;shape-rendering:auto;text-rendering:geometricPrecision"
       transform="matrix(0.18735817,0,0,0.18735817,23.943793,68.305648)">
      <circle
         id="circle2122"
         cy="0"
         cx="0"
         style="stroke:none"
         r="3.3333001" />
    </g>
    <g
       id="g2128"
       style="font-style:normal;font-weight:normal;font-size:12px;font-family:Dialog;color-interpolation:linearRGB;fill:#000000;fill-opacity:1;stroke:#000000;stroke-width:1.8667;stroke-linecap:butt;stroke-linejoin:round;stroke-miterlimit:10;stroke-dasharray:none;stroke-dashoffset:0;stroke-opacity:1;color-rendering:optimizeQuality;image-rendering:optimizeQuality;shape-rendering:auto;text-rendering:geometricPrecision"
       transform="matrix(0.18735817,0,0,0.18735817,27.21724,65.19554)">
      <circle
         id="circle2126"
         cy="0"
         cx="0"
         style="stroke:none"
         r="3.3333001" />
    </g>
    <g
       id="g2132"
       style="font-style:normal;font-weight:normal;font-size:12px;font-family:Dialog;color-interpolation:linearRGB;fill:#000000;fill-opacity:1;stroke:#000000;stroke-width:1.8667;stroke-linecap:butt;stroke-linejoin:round;stroke-miterlimit:10;stroke-dasharray:none;stroke-dashoffset:0;stroke-opacity:1;color-rendering:optimizeQuality;image-rendering:optimizeQuality;shape-rendering:auto;text-rendering:geometricPrecision"
       transform="matrix(0.18735817,0,0,0.18735817,31.690772,64.582486)">
      <circle
         id="circle2130"
         cy="0"
         cx="0"
         style="stroke:none"
         r="3.3333001" />
    </g>
    <g
       id="g2136"
       style="font-style:normal;font-weight:normal;font-size:12px;font-family:Dialog;color-interpolation:linearRGB;fill:#000000;fill-opacity:1;stroke:#000000;stroke-width:1.8667;stroke-linecap:butt;stroke-linejoin:round;stroke-miterlimit:10;stroke-dasharray:none;stroke-dashoffset:0;stroke-opacity:1;color-rendering:optimizeQuality;image-rendering:optimizeQuality;shape-rendering:auto;text-rendering:geometricPrecision"
       transform="matrix(0.18735817,0,0,0.18735817,18.540214,68.955819)">
      <circle
         id="circle2134"
         cy="0"
         cx="0"
         style="stroke:none"
         r="3.3333001" />
    </g>
    <g
       id="g2140"
       style="font-style:normal;font-weight:normal;font-size:12px;font-family:Dialog;color-interpolation:linearRGB;fill:#000000;fill-opacity:1;stroke:#000000;stroke-width:1.8667;stroke-linecap:butt;stroke-linejoin:round;stroke-miterlimit:10;stroke-dasharray:none;stroke-dashoffset:0;stroke-opacity:1;color-rendering:optimizeQuality;image-rendering:optimizeQuality;shape-rendering:auto;text-rendering:geometricPrecision"
       transform="matrix(0.18735817,0,0,0.18735817,36.184819,64.14461)">
      <circle
         id="circle2138"
         cy="0"
         cx="0"
         style="stroke:none"
         r="3.3333001" />
    </g>
    <g
       transform="matrix(0.18735817,0,0,0.18735817,-16.630791,-6.9054653)"
       id="g2162"
       style="font-style:normal;font-weight:normal;font-size:12px;font-family:Dialog;color-interpolation:linearRGB;fill:#0000ff;fill-opacity:1;stroke:#0000ff;stroke-width:1.8667;stroke-linecap:butt;stroke-linejoin:round;stroke-miterlimit:10;stroke-dasharray:none;stroke-dashoffset:0;stroke-opacity:1;color-rendering:optimizeQuality;image-rendering:optimizeQuality;shape-rendering:auto;text-rendering:geometricPrecision">
      <line
         id="line2142"
         y1="188.60001"
         x2="548.29303"
         x1="567.79999"
         style="fill:none"
         y2="202.7523" />
      <line
         id="line2144"
         y1="202.7523"
         x2="527.24799"
         x1="548.29303"
         style="fill:none"
         y2="214.4962" />
      <line
         id="line2146"
         y1="214.4962"
         x2="503.23779"
         x1="527.24799"
         style="fill:none"
         y2="216.5737" />
      <line
         id="line2148"
         y1="216.5737"
         x2="503.97421"
         x1="503.23779"
         style="fill:none"
         y2="240.66251" />
      <line
         id="line2150"
         y1="240.66251"
         x2="525.28748"
         x1="503.97421"
         style="fill:none"
         y2="251.912" />
      <line
         id="line2152"
         y1="188.60001"
         x2="570.80078"
         x1="567.79999"
         style="fill:none"
         y2="164.6875" />
      <line
         id="line2154"
         y1="240.66251"
         x2="489.7576"
         x1="503.97421"
         style="fill:none"
         y2="260.12271" />
      <line
         id="line2156"
         y1="260.12271"
         x2="468.44891"
         x1="489.7576"
         style="fill:none"
         y2="271.38101" />
      <line
         id="line2158"
         y1="216.5737"
         x2="490.6282"
         x1="503.23779"
         style="fill:none"
         y2="196.0358" />
      <circle
         id="circle2160"
         cy="0"
         transform="translate(567.8,188.6)"
         cx="0"
         style="stroke:none"
         r="3.3333001" />
    </g>
    <g
       id="g2166"
       style="font-style:normal;font-weight:normal;font-size:12px;font-family:Dialog;color-interpolation:linearRGB;fill:#0000ff;fill-opacity:1;stroke:#0000ff;stroke-width:1.8667;stroke-linecap:butt;stroke-linejoin:round;stroke-miterlimit:10;stroke-dasharray:none;stroke-dashoffset:0;stroke-opacity:1;color-rendering:optimizeQuality;image-rendering:optimizeQuality;shape-rendering:auto;text-rendering:geometricPrecision"
       transform="matrix(0.18735817,0,0,0.18735817,86.096379,31.081833)">
      <circle
         id="circle2164"
         cy="0"
         cx="0"
         style="stroke:none"
         r="3.3333001" />
    </g>
    <g
       id="g2170"
       style="font-style:normal;font-weight:normal;font-size:12px;font-family:Dialog;color-interpolation:linearRGB;fill:#0000ff;fill-opacity:1;stroke:#0000ff;stroke-width:1.8667;stroke-linecap:butt;stroke-linejoin:round;stroke-miterlimit:10;stroke-dasharray:none;stroke-dashoffset:0;stroke-opacity:1;color-rendering:optimizeQuality;image-rendering:optimizeQuality;shape-rendering:auto;text-rendering:geometricPrecision"
       transform="matrix(0.18735817,0,0,0.18735817,82.153428,33.282149)">
      <circle
         id="circle2168"
         cy="0"
         cx="0"
         style="stroke:none"
         r="3.3333001" />
    </g>
    <g
       id="g2174"
       style="font-style:normal;font-weight:normal;font-size:12px;font-family:Dialog;color-interpolation:linearRGB;fill:#0000ff;fill-opacity:1;stroke:#0000ff;stroke-width:1.8667;stroke-linecap:butt;stroke-linejoin:round;stroke-miterlimit:10;stroke-dasharray:none;stroke-dashoffset:0;stroke-opacity:1;color-rendering:optimizeQuality;image-rendering:optimizeQuality;shape-rendering:auto;text-rendering:geometricPrecision"
       transform="matrix(0.18735817,0,0,0.18735817,77.65492,33.671386)">
      <circle
         id="circle2172"
         cy="0"
         cx="0"
         style="stroke:none"
         r="3.3333001" />
    </g>
    <g
       id="g2178"
       style="font-style:normal;font-weight:normal;font-size:12px;font-family:Dialog;color-interpolation:linearRGB;fill:#0000ff;fill-opacity:1;stroke:#0000ff;stroke-width:1.8667;stroke-linecap:butt;stroke-linejoin:round;stroke-miterlimit:10;stroke-dasharray:none;stroke-dashoffset:0;stroke-opacity:1;color-rendering:optimizeQuality;image-rendering:optimizeQuality;shape-rendering:auto;text-rendering:geometricPrecision"
       transform="matrix(0.18735817,0,0,0.18735817,77.792891,38.184619)">
      <circle
         id="circle2176"
         cy="0"
         cx="0"
         style="stroke:none"
         r="3.3333001" />
    </g>
    <g
       id="g2182"
       style="font-style:normal;font-weight:normal;font-size:12px;font-family:Dialog;color-interpolation:linearRGB;fill:#0000ff;fill-opacity:1;stroke:#0000ff;stroke-width:1.8667;stroke-linecap:butt;stroke-linejoin:round;stroke-miterlimit:10;stroke-dasharray:none;stroke-dashoffset:0;stroke-opacity:1;color-rendering:optimizeQuality;image-rendering:optimizeQuality;shape-rendering:auto;text-rendering:geometricPrecision"
       transform="matrix(0.18735817,0,0,0.18735817,81.786112,40.292305)">
      <circle
         id="circle2180"
         cy="0"
         cx="0"
         style="stroke:none"
         r="3.3333001" />
    </g>
    <g
       id="g2186"
       style="font-style:normal;font-weight:normal;font-size:12px;font-family:Dialog;color-interpolation:linearRGB;fill:#0000ff;fill-opacity:1;stroke:#0000ff;stroke-width:1.8667;stroke-linecap:butt;stroke-linejoin:round;stroke-miterlimit:10;stroke-dasharray:none;stroke-dashoffset:0;stroke-opacity:1;color-rendering:optimizeQuality;image-rendering:optimizeQuality;shape-rendering:auto;text-rendering:geometricPrecision"
       transform="matrix(0.18735817,0,0,0.18735817,90.3134,23.950082)">
      <circle
         id="circle2184"
         cy="0"
         cx="0"
         style="stroke:none"
         r="3.3333001" />
    </g>
    <g
       id="g2190"
       style="font-style:normal;font-weight:normal;font-size:12px;font-family:Dialog;color-interpolation:linearRGB;fill:#0000ff;fill-opacity:1;stroke:#0000ff;stroke-width:1.8667;stroke-linecap:butt;stroke-linejoin:round;stroke-miterlimit:10;stroke-dasharray:none;stroke-dashoffset:0;stroke-opacity:1;color-rendering:optimizeQuality;image-rendering:optimizeQuality;shape-rendering:auto;text-rendering:geometricPrecision"
       transform="matrix(0.18735817,0,0,0.18735817,75.129295,41.830647)">
      <circle
         id="circle2188"
         cy="0"
         cx="0"
         style="stroke:none"
         r="3.3333001" />
    </g>
    <g
       id="g2194"
       style="font-style:normal;font-weight:normal;font-size:12px;font-family:Dialog;color-interpolation:linearRGB;fill:#0000ff;fill-opacity:1;stroke:#0000ff;stroke-width:1.8667;stroke-linecap:butt;stroke-linejoin:round;stroke-miterlimit:10;stroke-dasharray:none;stroke-dashoffset:0;stroke-opacity:1;color-rendering:optimizeQuality;image-rendering:optimizeQuality;shape-rendering:auto;text-rendering:geometricPrecision"
       transform="matrix(0.18735817,0,0,0.18735817,71.136935,43.939981)">
      <circle
         id="circle2192"
         cy="0"
         cx="0"
         style="stroke:none"
         r="3.3333001" />
    </g>
    <g
       id="g2198"
       style="font-style:normal;font-weight:normal;font-size:12px;font-family:Dialog;color-interpolation:linearRGB;fill:#0000ff;fill-opacity:1;stroke:#0000ff;stroke-width:1.8667;stroke-linecap:butt;stroke-linejoin:round;stroke-miterlimit:10;stroke-dasharray:none;stroke-dashoffset:0;stroke-opacity:1;color-rendering:optimizeQuality;image-rendering:optimizeQuality;shape-rendering:auto;text-rendering:geometricPrecision"
       transform="matrix(0.18735817,0,0,0.18735817,75.292408,29.823443)">
      <circle
         id="circle2196"
         cy="0"
         cx="0"
         style="stroke:none"
         r="3.3333001" />
    </g>
    <g
       transform="matrix(0.18735817,0,0,0.18735817,-16.630791,-6.9054653)"
       id="g2202"
       style="font-style:normal;font-weight:normal;font-size:12px;font-family:Dialog;color-interpolation:sRGB;fill:#00ff00;fill-opacity:1;stroke:#00ff00;stroke-width:1;stroke-linecap:square;stroke-linejoin:miter;stroke-miterlimit:10;stroke-dasharray:none;stroke-dashoffset:0;stroke-opacity:1;color-rendering:optimizeSpeed;image-rendering:optimizeSpeed;shape-rendering:crispEdges;text-rendering:optimizeSpeed">
      <path
         id="path2200"
         d="m 141.1667,526.5 -0.8932,-3.3333 -2.4402,-2.4402 -3.3333,-0.8932 -3.3333,0.8932 -2.4402,2.4402 -0.8932,3.3333 0.8932,3.3333 2.4402,2.4402 3.3333,0.8932 3.3333,-0.8932 2.4402,-2.4402 z"
         style="stroke:none" />
    </g>
    <g
       transform="matrix(0.18735817,0,0,0.18735817,-16.630791,-6.9054653)"
       id="g2206"
       style="font-style:normal;font-weight:normal;font-size:12px;font-family:Dialog;color-interpolation:linearRGB;fill:#000000;fill-opacity:1;stroke:#000000;stroke-width:1;stroke-linecap:butt;stroke-linejoin:round;stroke-miterlimit:10;stroke-dasharray:none;stroke-dashoffset:0;stroke-opacity:1;color-rendering:optimizeQuality;image-rendering:optimizeQuality;shape-rendering:auto;text-rendering:geometricPrecision">
      <path
         id="path2204"
         style="fill:none;fill-rule:evenodd"
         d="m 141.1667,526.5 -0.8932,-3.3333 -2.4402,-2.4402 -3.3333,-0.8932 -3.3333,0.8932 -2.4402,2.4402 -0.8932,3.3333 0.8932,3.3333 2.4402,2.4402 3.3333,0.8932 3.3333,-0.8932 2.4402,-2.4402 z" />
    </g>
    <g
       id="g2210"
       style="font-style:normal;font-weight:normal;font-size:11px;font-family:mwa_cmmi10;color-interpolation:linearRGB;fill:#000000;fill-opacity:1;stroke:#000000;stroke-width:1;stroke-linecap:square;stroke-linejoin:miter;stroke-miterlimit:10;stroke-dasharray:none;stroke-dashoffset:0;stroke-opacity:1;color-rendering:optimizeQuality;image-rendering:optimizeQuality;shape-rendering:auto;text-rendering:geometricPrecision"
       transform="matrix(0.18735817,0,0,0.18735817,8.515928,91.882359)">
      <path
         id="path2208"
         d="m -2.9059,2.7943 q -0.0312,0 -0.0625,-0.0312 Q -2.9996,2.7318 -2.9996,2.7006 L -2.359,0.1225 Q -2.3434,0.06 -2.2653,0.06 h 0.125 q 0.0469,0 0.0703,0.0312 0.0235,0.0313 0.0235,0.0781 -0.0938,0.375 -0.0938,0.6719 0,0.7969 0.5469,1.1875 0.5469,0.3906 1.3906,0.3906 0.3594,0 0.7032,-0.1797 Q 0.8441,2.06 1.1097,1.7787 1.3754,1.4975 1.5316,1.1459 1.6879,0.7943 1.6879,0.435 1.6879,0.0443 1.4769,-0.2604 1.266,-0.565 0.9066,-0.6588 l -1.3437,-0.3437 q -0.5313,-0.1563 -0.8594,-0.5938 -0.3281,-0.4375 -0.3281,-0.9844 0,-0.6562 0.3984,-1.2656 0.3984,-0.6094 1.0234,-0.9766 0.625,-0.3671 1.2813,-0.3671 0.5156,0 0.9375,0.1796 0.4219,0.1797 0.6406,0.586 l 0.625,-0.7344 Q 3.3441,-5.19 3.3597,-5.19 h 0.0782 q 0.0312,0 0.0625,0.0312 0.0312,0.0313 0.0312,0.0781 L 2.891,-2.5338 q -0.0156,0.0781 -0.0938,0.0781 h -0.125 q -0.0937,0 -0.0937,-0.125 0.0469,-0.3437 0.0469,-0.5937 0,-0.5156 -0.1719,-0.8985 Q 2.2816,-4.4557 1.93,-4.651 1.5785,-4.8463 1.0472,-4.8463 q -0.4375,0 -0.875,0.2578 -0.4375,0.2578 -0.7031,0.6719 -0.2656,0.4141 -0.2656,0.8672 0,0.3594 0.2109,0.6328 0.211,0.2734 0.5547,0.3672 l 1.3281,0.3437 q 0.375,0.1094 0.6485,0.3516 0.2734,0.2422 0.4062,0.5781 0.1328,0.336 0.1328,0.7266 0,0.5312 -0.2187,1.039 Q 2.0472,1.4975 1.6566,1.9115 1.266,2.3256 0.766,2.56 q -0.5,0.2343 -1.0313,0.2343 -1.2968,0 -1.875,-0.7656 l -0.6093,0.7344 q -0.0625,0.0312 -0.0782,0.0312 z"
         style="stroke:none" />
    </g>
    <g
       transform="matrix(0.18735817,0,0,0.18735817,-16.630791,-6.9054653)"
       id="g2214"
       style="font-style:normal;font-weight:normal;font-size:12px;font-family:Dialog;color-interpolation:sRGB;fill:#00ff00;fill-opacity:1;stroke:#00ff00;stroke-width:1;stroke-linecap:square;stroke-linejoin:miter;stroke-miterlimit:10;stroke-dasharray:none;stroke-dashoffset:0;stroke-opacity:1;color-rendering:optimizeSpeed;image-rendering:optimizeSpeed;shape-rendering:crispEdges;text-rendering:optimizeSpeed">
      <path
         id="path2212"
         d="m 574.1667,188.5 -0.8932,-3.3333 -2.4402,-2.4402 -3.3333,-0.8932 -3.3333,0.8932 -2.4402,2.4402 -0.8932,3.3333 0.8932,3.3333 2.4402,2.4402 3.3333,0.8932 3.3333,-0.8932 2.4402,-2.4402 z"
         style="stroke:none" />
    </g>
    <g
       transform="matrix(0.18735817,0,0,0.18735817,-16.630791,-6.9054653)"
       id="g2218"
       style="font-style:normal;font-weight:normal;font-size:12px;font-family:Dialog;color-interpolation:linearRGB;fill:#000000;fill-opacity:1;stroke:#000000;stroke-width:1;stroke-linecap:butt;stroke-linejoin:round;stroke-miterlimit:10;stroke-dasharray:none;stroke-dashoffset:0;stroke-opacity:1;color-rendering:optimizeQuality;image-rendering:optimizeQuality;shape-rendering:auto;text-rendering:geometricPrecision">
      <path
         id="path2216"
         style="fill:none;fill-rule:evenodd"
         d="m 574.1667,188.5 -0.8932,-3.3333 -2.4402,-2.4402 -3.3333,-0.8932 -3.3333,0.8932 -2.4402,2.4402 -0.8932,3.3333 0.8932,3.3333 2.4402,2.4402 3.3333,0.8932 3.3333,-0.8932 2.4402,-2.4402 z" />
    </g>
    <g
       id="g2222"
       style="font-style:normal;font-weight:normal;font-size:11px;font-family:mwa_cmmi10;color-interpolation:linearRGB;fill:#000000;fill-opacity:1;stroke:#000000;stroke-width:1;stroke-linecap:square;stroke-linejoin:miter;stroke-miterlimit:10;stroke-dasharray:none;stroke-dashoffset:0;stroke-opacity:1;color-rendering:optimizeQuality;image-rendering:optimizeQuality;shape-rendering:auto;text-rendering:geometricPrecision"
       transform="matrix(0.18735817,0,0,0.18735817,89.640312,28.563872)">
      <path
         id="path2220"
         d="m -3.6548,2.56 q -0.1093,0 -0.1093,-0.1407 0,-0.0312 0.0234,-0.1015 0.0234,-0.0703 0.0469,-0.1094 0.0234,-0.0391 0.0703,-0.0391 0.6719,0 0.9375,-0.0781 0.1406,-0.0469 0.2031,-0.2812 l 1.5156,-6.0469 q 0.0157,-0.1094 0.0157,-0.1563 0,-0.1093 -0.125,-0.125 -0.2032,-0.0468 -0.7969,-0.0468 -0.1094,0 -0.1094,-0.1407 0.0156,-0.0312 0.0313,-0.1015 0.0156,-0.0703 0.039,-0.1094 0.0235,-0.0391 0.0703,-0.0391 h 5.8125 q 0.1094,0 0.1094,0.1407 L 3.814,-2.5338 q 0,0.0313 -0.0391,0.0625 Q 3.7359,-2.44 3.7046,-2.44 H 3.6109 q -0.1094,0 -0.1094,-0.1407 0.0625,-0.5 0.0625,-0.8125 0,-0.5468 -0.2344,-0.8047 -0.2344,-0.2578 -0.5937,-0.3125 -0.3594,-0.0546 -1,-0.0546 H 0.564 q -0.2969,0 -0.3984,0.0468 -0.1016,0.0469 -0.1797,0.3282 l -0.7032,2.7968 h 0.8282 q 0.4062,0 0.6562,-0.039 0.25,-0.0391 0.4219,-0.1641 0.1719,-0.125 0.2812,-0.3594 0.1094,-0.2343 0.2032,-0.625 0.0312,-0.0937 0.1093,-0.0937 h 0.0938 q 0.1094,0 0.1094,0.1406 L 1.314,0.185 Q 1.2671,0.2787 1.2046,0.2787 H 1.1109 q -0.1094,0 -0.1094,-0.1406 0.0312,-0.1094 0.0469,-0.1875 0.0156,-0.0781 0.039,-0.2188 0.0235,-0.1406 0.0235,-0.25 0,-0.3125 -0.2813,-0.3984 -0.2812,-0.0859 -0.7344,-0.0859 h -0.8906 l -0.7187,2.8437 q -0.0313,0.1094 -0.0313,0.1094 0,0.125 0.0781,0.1406 0.2813,0.0781 1.125,0.0781 0.1094,0 0.1094,0.1563 Q -0.2641,2.4662 -0.2876,2.5131 -0.311,2.56 -0.4204,2.56 Z"
         style="stroke:none" />
    </g>
  </g>
</svg>
