<?xml version="1.0" encoding="UTF-8" standalone="no"?>
<svg
   xmlns:dc="http://purl.org/dc/elements/1.1/"
   xmlns:cc="http://creativecommons.org/ns#"
   xmlns:rdf="http://www.w3.org/1999/02/22-rdf-syntax-ns#"
   xmlns:svg="http://www.w3.org/2000/svg"
   xmlns="http://www.w3.org/2000/svg"
   xmlns:sodipodi="http://sodipodi.sourceforge.net/DTD/sodipodi-0.dtd"
   xmlns:inkscape="http://www.inkscape.org/namespaces/inkscape"
   sodipodi:docname="exMi1_iter60.svg"
   inkscape:version="1.0 (4035a4fb49, 2020-05-01)"
   id="svg1111"
   version="1.1"
   viewBox="0 0 100 100"
   height="100mm"
   width="100mm">
  <defs
     id="defs1105">
    <clipPath
       clipPathUnits="userSpaceOnUse"
       id="clipPath1">
      <path
         d="M0 0 L697 0 L697 620 L0 620 L0 0 Z"
         id="path1114" />
    </clipPath>
    <defs
       id="defs1">
      <clipPath
         clipPathUnits="userSpaceOnUse"
         id="clipPath1562">
        <path
           d="M 0,0 H 697 V 620 H 0 Z"
           id="path1560" />
      </clipPath>
    </defs>
  </defs>
  <sodipodi:namedview
     inkscape:window-maximized="1"
     inkscape:window-y="-8"
     inkscape:window-x="-8"
     inkscape:window-height="837"
     inkscape:window-width="1600"
     inkscape:pagecheckerboard="true"
     showgrid="false"
     inkscape:document-rotation="0"
     inkscape:current-layer="layer1"
     inkscape:document-units="mm"
     inkscape:cy="122.82078"
     inkscape:cx="155.36945"
     inkscape:zoom="1.4"
     inkscape:pageshadow="2"
     inkscape:pageopacity="0.0"
     borderopacity="1.0"
     bordercolor="#666666"
     pagecolor="#ffffff"
     id="base" />
  <metadata
     id="metadata1108">
    <rdf:RDF>
      <cc:Work
         rdf:about="">
        <dc:format>image/svg+xml</dc:format>
        <dc:type
           rdf:resource="http://purl.org/dc/dcmitype/StillImage" />
        <dc:title></dc:title>
      </cc:Work>
    </rdf:RDF>
  </metadata>
  <g
     id="layer1"
     inkscape:groupmode="layer"
     inkscape:label="Layer 1">
    <g
       transform="matrix(0.17633869,0,0,0.17633869,-10.062394,-6.9572837)"
       style="font-style:normal;font-weight:normal;font-size:12px;font-family:Dialog;color-interpolation:linearRGB;fill:#262626;fill-opacity:0.149;stroke:#262626;stroke-width:0.6667;stroke-linecap:butt;stroke-linejoin:round;stroke-miterlimit:10;stroke-dasharray:none;stroke-dashoffset:0;stroke-opacity:0.149;color-rendering:optimizeQuality;image-rendering:optimizeQuality;shape-rendering:auto;text-rendering:geometricPrecision"
       id="g1196">
      <line
         y2="46"
         style="fill:none"
         x1="108"
         x2="108"
         y1="552"
         id="line1128" />
      <line
         y2="46"
         style="fill:none"
         x1="158.60001"
         x2="158.60001"
         y1="552"
         id="line1130" />
      <line
         y2="46"
         style="fill:none"
         x1="209.2"
         x2="209.2"
         y1="552"
         id="line1132" />
      <line
         y2="46"
         style="fill:none"
         x1="259.79999"
         x2="259.79999"
         y1="552"
         id="line1134" />
      <line
         y2="46"
         style="fill:none"
         x1="310.39999"
         x2="310.39999"
         y1="552"
         id="line1136" />
      <line
         y2="46"
         style="fill:none"
         x1="361"
         x2="361"
         y1="552"
         id="line1138" />
      <line
         y2="46"
         style="fill:none"
         x1="411.60001"
         x2="411.60001"
         y1="552"
         id="line1140" />
      <line
         y2="46"
         style="fill:none"
         x1="462.20001"
         x2="462.20001"
         y1="552"
         id="line1142" />
      <line
         y2="46"
         style="fill:none"
         x1="512.79999"
         x2="512.79999"
         y1="552"
         id="line1144" />
      <line
         y2="46"
         style="fill:none"
         x1="563.40002"
         x2="563.40002"
         y1="552"
         id="line1146" />
      <line
         y2="46"
         style="fill:none"
         x1="614"
         x2="614"
         y1="552"
         id="line1148" />
      <line
         y2="552"
         style="fill:none"
         x1="614"
         x2="108"
         y1="552"
         id="line1150" />
      <line
         y2="501.39999"
         style="fill:none"
         x1="614"
         x2="108"
         y1="501.39999"
         id="line1152" />
      <line
         y2="450.79999"
         style="fill:none"
         x1="614"
         x2="108"
         y1="450.79999"
         id="line1154" />
      <line
         y2="400.20001"
         style="fill:none"
         x1="614"
         x2="108"
         y1="400.20001"
         id="line1156" />
      <line
         y2="349.60001"
         style="fill:none"
         x1="614"
         x2="108"
         y1="349.60001"
         id="line1158" />
      <line
         y2="299"
         style="fill:none"
         x1="614"
         x2="108"
         y1="299"
         id="line1160" />
      <line
         y2="248.39999"
         style="fill:none"
         x1="614"
         x2="108"
         y1="248.39999"
         id="line1162" />
      <line
         y2="197.8"
         style="fill:none"
         x1="614"
         x2="108"
         y1="197.8"
         id="line1164" />
      <line
         y2="147.2"
         style="fill:none"
         x1="614"
         x2="108"
         y1="147.2"
         id="line1166" />
      <line
         y2="96.599998"
         style="fill:none"
         x1="614"
         x2="108"
         y1="96.599998"
         id="line1168" />
      <line
         y2="46"
         style="fill:none"
         x1="614"
         x2="108"
         y1="46"
         id="line1170" />
      <line
         x1="108"
         x2="614"
         y1="552"
         style="fill:none;fill-opacity:1;stroke-linecap:square;stroke-opacity:1"
         y2="552"
         id="line1172" />
      <line
         x1="108"
         x2="108"
         y1="552"
         style="fill:none;fill-opacity:1;stroke-linecap:square;stroke-opacity:1"
         y2="546.94"
         id="line1174" />
      <line
         x1="158.60001"
         x2="158.60001"
         y1="552"
         style="fill:none;fill-opacity:1;stroke-linecap:square;stroke-opacity:1"
         y2="546.94"
         id="line1176" />
      <line
         x1="209.2"
         x2="209.2"
         y1="552"
         style="fill:none;fill-opacity:1;stroke-linecap:square;stroke-opacity:1"
         y2="546.94"
         id="line1178" />
      <line
         x1="259.79999"
         x2="259.79999"
         y1="552"
         style="fill:none;fill-opacity:1;stroke-linecap:square;stroke-opacity:1"
         y2="546.94"
         id="line1180" />
      <line
         x1="310.39999"
         x2="310.39999"
         y1="552"
         style="fill:none;fill-opacity:1;stroke-linecap:square;stroke-opacity:1"
         y2="546.94"
         id="line1182" />
      <line
         x1="361"
         x2="361"
         y1="552"
         style="fill:none;fill-opacity:1;stroke-linecap:square;stroke-opacity:1"
         y2="546.94"
         id="line1184" />
      <line
         x1="411.60001"
         x2="411.60001"
         y1="552"
         style="fill:none;fill-opacity:1;stroke-linecap:square;stroke-opacity:1"
         y2="546.94"
         id="line1186" />
      <line
         x1="462.20001"
         x2="462.20001"
         y1="552"
         style="fill:none;fill-opacity:1;stroke-linecap:square;stroke-opacity:1"
         y2="546.94"
         id="line1188" />
      <line
         x1="512.79999"
         x2="512.79999"
         y1="552"
         style="fill:none;fill-opacity:1;stroke-linecap:square;stroke-opacity:1"
         y2="546.94"
         id="line1190" />
      <line
         x1="563.40002"
         x2="563.40002"
         y1="552"
         style="fill:none;fill-opacity:1;stroke-linecap:square;stroke-opacity:1"
         y2="546.94"
         id="line1192" />
      <line
         x1="614"
         x2="614"
         y1="552"
         style="fill:none;fill-opacity:1;stroke-linecap:square;stroke-opacity:1"
         y2="546.94"
         id="line1194" />
    </g>
    <g
       transform="matrix(0.17633869,0,0,0.17633869,8.9821858,91.322144)"
       style="font-style:normal;font-weight:normal;font-size:13px;font-family:SansSerif;color-interpolation:linearRGB;fill:#262626;fill-opacity:1;stroke:#262626;stroke-width:1;stroke-linecap:square;stroke-linejoin:miter;stroke-miterlimit:10;stroke-dasharray:none;stroke-dashoffset:0;stroke-opacity:1;color-rendering:optimizeQuality;image-rendering:optimizeQuality;shape-rendering:auto;text-rendering:geometricPrecision"
       id="g1200">
      <path
         style="stroke:none"
         d="m -3.4531,9.4062 q 0,-1.6406 0.3359,-2.6484 0.336,-1.0078 1.0078,-1.5547 0.6719,-0.5469 1.6875,-0.5469 0.75,0 1.3125,0.3047 0.5625,0.3047 0.9297,0.8672 0.3672,0.5625 0.5781,1.3828 0.211,0.8203 0.211,2.1953 0,1.6407 -0.336,2.6485 -0.3359,1.0078 -1.0078,1.5547 -0.6718,0.5468 -1.6875,0.5468 -1.3437,0 -2.125,-0.9687 -0.9062,-1.1563 -0.9062,-3.7813 z m 1.1719,0 q 0,2.2969 0.5312,3.0547 0.5312,0.7579 1.3281,0.7579 0.7813,0 1.3203,-0.7579 0.5391,-0.7578 0.5391,-3.0547 0,-2.2968 -0.5391,-3.0468 -0.539,-0.75 -1.3359,-0.75 -0.7813,0 -1.2656,0.6562 -0.5781,0.8594 -0.5781,3.1406 z"
         id="path1198" />
    </g>
    <g
       transform="matrix(0.17633869,0,0,0.17633869,17.904924,91.322144)"
       style="font-style:normal;font-weight:normal;font-size:13px;font-family:SansSerif;color-interpolation:linearRGB;fill:#262626;fill-opacity:1;stroke:#262626;stroke-width:1;stroke-linecap:square;stroke-linejoin:miter;stroke-miterlimit:10;stroke-dasharray:none;stroke-dashoffset:0;stroke-opacity:1;color-rendering:optimizeQuality;image-rendering:optimizeQuality;shape-rendering:auto;text-rendering:geometricPrecision"
       id="g1204">
      <path
         style="stroke:none"
         d="M 2.5469,12.9062 V 14 h -6.1563 q -0.0156,-0.4062 0.1406,-0.7969 0.2344,-0.625 0.75,-1.2343 0.5157,-0.6094 1.5,-1.4063 1.5157,-1.25 2.0469,-1.9766 0.5313,-0.7265 0.5313,-1.3671 0,-0.6876 -0.4844,-1.1485 -0.4844,-0.4609 -1.2656,-0.4609 -0.8282,0 -1.3203,0.4922 -0.4922,0.4922 -0.5079,1.3672 l -1.1718,-0.125 q 0.125,-1.3126 0.9062,-2 0.7813,-0.6876 2.1094,-0.6876 1.3438,0 2.125,0.7422 0.7812,0.7422 0.7812,1.836 0,0.5625 -0.2265,1.1015 -0.2266,0.5391 -0.7578,1.1407 -0.5313,0.6015 -1.7657,1.6328 -1.0312,0.8594 -1.3203,1.1718 -0.289,0.3126 -0.4765,0.625 z"
         id="path1202" />
    </g>
    <g
       transform="matrix(0.17633869,0,0,0.17633869,26.827662,91.322144)"
       style="font-style:normal;font-weight:normal;font-size:13px;font-family:SansSerif;color-interpolation:linearRGB;fill:#262626;fill-opacity:1;stroke:#262626;stroke-width:1;stroke-linecap:square;stroke-linejoin:miter;stroke-miterlimit:10;stroke-dasharray:none;stroke-dashoffset:0;stroke-opacity:1;color-rendering:optimizeQuality;image-rendering:optimizeQuality;shape-rendering:auto;text-rendering:geometricPrecision"
       id="g1208">
      <path
         style="stroke:none"
         d="M 0.2031,14 V 11.7656 H -3.8281 V 10.7188 L 0.4062,4.6875 h 0.9376 v 6.0313 h 1.2656 v 1.0468 H 1.3438 V 14 Z m 0,-3.2812 V 6.5312 l -2.9219,4.1876 z"
         id="path1206" />
    </g>
    <g
       transform="matrix(0.17633869,0,0,0.17633869,35.7504,91.322144)"
       style="font-style:normal;font-weight:normal;font-size:13px;font-family:SansSerif;color-interpolation:linearRGB;fill:#262626;fill-opacity:1;stroke:#262626;stroke-width:1;stroke-linecap:square;stroke-linejoin:miter;stroke-miterlimit:10;stroke-dasharray:none;stroke-dashoffset:0;stroke-opacity:1;color-rendering:optimizeQuality;image-rendering:optimizeQuality;shape-rendering:auto;text-rendering:geometricPrecision"
       id="g1212">
      <path
         style="stroke:none"
         d="M 2.4688,6.9688 1.3281,7.0625 Q 1.1875,6.3906 0.9062,6.0781 0.4375,5.5938 -0.2344,5.5938 q -0.5468,0 -0.9687,0.3124 -0.5313,0.3907 -0.8438,1.1407 -0.3125,0.75 -0.3281,2.1562 0.4062,-0.625 1.0078,-0.9297 0.6016,-0.3046 1.2578,-0.3046 1.1406,0 1.9453,0.8359 0.8047,0.8359 0.8047,2.1797 0,0.875 -0.3828,1.625 -0.3828,0.75 -1.039,1.1484 -0.6563,0.3984 -1.5,0.3984 -1.4219,0 -2.3282,-1.0468 -0.9062,-1.0469 -0.9062,-3.4688 0,-2.6875 1,-3.9218 0.875,-1.0626 2.3437,-1.0626 1.0938,0 1.7969,0.6172 0.7031,0.6172 0.8438,1.6954 z m -4.6719,4.0156 q 0,0.5937 0.25,1.1328 0.25,0.539 0.7031,0.8203 0.4531,0.2813 0.9531,0.2813 0.7188,0 1.2422,-0.586 0.5235,-0.5859 0.5235,-1.5859 0,-0.9688 -0.5157,-1.5235 -0.5156,-0.5546 -1.2969,-0.5546 -0.7812,0 -1.3203,0.5546 -0.539,0.5547 -0.539,1.461 z"
         id="path1210" />
    </g>
    <g
       transform="matrix(0.17633869,0,0,0.17633869,44.673138,91.322144)"
       style="font-style:normal;font-weight:normal;font-size:13px;font-family:SansSerif;color-interpolation:linearRGB;fill:#262626;fill-opacity:1;stroke:#262626;stroke-width:1;stroke-linecap:square;stroke-linejoin:miter;stroke-miterlimit:10;stroke-dasharray:none;stroke-dashoffset:0;stroke-opacity:1;color-rendering:optimizeQuality;image-rendering:optimizeQuality;shape-rendering:auto;text-rendering:geometricPrecision"
       id="g1216">
      <path
         style="stroke:none"
         d="M -1.7031,8.9531 Q -2.4062,8.6875 -2.75,8.2109 -3.0938,7.7344 -3.0938,7.0625 q 0,-1.0156 0.7266,-1.7109 0.7266,-0.6954 1.9453,-0.6954 1.2188,0 1.961,0.711 0.7421,0.7109 0.7421,1.7266 0,0.6406 -0.3437,1.1171 -0.3437,0.4766 -1.0313,0.7422 0.8594,0.2813 1.3047,0.9063 0.4453,0.625 0.4453,1.4844 0,1.1874 -0.8437,2 -0.8437,0.8124 -2.2187,0.8124 -1.375,0 -2.2188,-0.8124 -0.8438,-0.8126 -0.8438,-2.0313 0,-0.9063 0.461,-1.5234 0.4609,-0.6172 1.3047,-0.836 z M -1.9375,7.0156 q 0,0.6563 0.4297,1.0782 0.4297,0.4218 1.1016,0.4218 0.6718,0 1.0937,-0.414 0.4219,-0.4141 0.4219,-1.0235 0,-0.625 -0.4375,-1.0547 -0.4375,-0.4296 -1.0781,-0.4296 -0.6563,0 -1.0938,0.4218 -0.4375,0.4219 -0.4375,1 z m -0.3594,4.2969 q 0,0.4844 0.2344,0.9453 0.2344,0.461 0.6875,0.711 0.4531,0.25 0.9844,0.25 0.8125,0 1.3437,-0.5235 0.5313,-0.5234 0.5313,-1.3359 0,-0.8282 -0.5469,-1.3672 -0.5469,-0.5391 -1.375,-0.5391 -0.7969,0 -1.3281,0.5313 -0.5313,0.5312 -0.5313,1.3281 z"
         id="path1214" />
    </g>
    <g
       transform="matrix(0.17633869,0,0,0.17633869,53.595876,91.322144)"
       style="font-style:normal;font-weight:normal;font-size:13px;font-family:SansSerif;color-interpolation:linearRGB;fill:#262626;fill-opacity:1;stroke:#262626;stroke-width:1;stroke-linecap:square;stroke-linejoin:miter;stroke-miterlimit:10;stroke-dasharray:none;stroke-dashoffset:0;stroke-opacity:1;color-rendering:optimizeQuality;image-rendering:optimizeQuality;shape-rendering:auto;text-rendering:geometricPrecision"
       id="g1220">
      <path
         style="stroke:none"
         d="M -2.6562,14 H -3.7969 V 6.7188 q -0.4219,0.3906 -1.0859,0.789 -0.6641,0.3984 -1.1953,0.586 V 6.9844 q 0.9531,-0.4375 1.6719,-1.0782 0.7187,-0.6406 1.0156,-1.25 h 0.7344 z M 0.2769,9.4062 q 0,-1.6406 0.3359,-2.6484 Q 0.9487,5.75 1.6206,5.2031 2.2925,4.6562 3.3081,4.6562 q 0.75,0 1.3125,0.3047 0.5625,0.3047 0.9297,0.8672 0.3672,0.5625 0.5781,1.3828 0.211,0.8203 0.211,2.1953 0,1.6407 -0.336,2.6485 -0.3359,1.0078 -1.0078,1.5547 -0.6719,0.5468 -1.6875,0.5468 -1.3437,0 -2.125,-0.9687 Q 0.2769,12.0312 0.2769,9.4062 Z m 1.1718,0 q 0,2.2969 0.5313,3.0547 0.5312,0.7579 1.3281,0.7579 0.7813,0 1.3203,-0.7579 0.5391,-0.7578 0.5391,-3.0547 0,-2.2968 -0.5391,-3.0468 -0.539,-0.75 -1.3359,-0.75 -0.7813,0 -1.2656,0.6562 Q 1.4487,7.125 1.4487,9.4062 Z"
         id="path1218" />
    </g>
    <g
       transform="matrix(0.17633869,0,0,0.17633869,62.518615,91.322144)"
       style="font-style:normal;font-weight:normal;font-size:13px;font-family:SansSerif;color-interpolation:linearRGB;fill:#262626;fill-opacity:1;stroke:#262626;stroke-width:1;stroke-linecap:square;stroke-linejoin:miter;stroke-miterlimit:10;stroke-dasharray:none;stroke-dashoffset:0;stroke-opacity:1;color-rendering:optimizeQuality;image-rendering:optimizeQuality;shape-rendering:auto;text-rendering:geometricPrecision"
       id="g1224">
      <path
         style="stroke:none"
         d="M -2.6562,14 H -3.7969 V 6.7188 q -0.4219,0.3906 -1.0859,0.789 -0.6641,0.3984 -1.1953,0.586 V 6.9844 q 0.9531,-0.4375 1.6719,-1.0782 0.7187,-0.6406 1.0156,-1.25 h 0.7344 z M 6.2769,12.9062 V 14 H 0.1206 q -0.0156,-0.4062 0.1406,-0.7969 0.2344,-0.625 0.75,-1.2343 0.5157,-0.6094 1.5,-1.4063 Q 4.0269,9.3125 4.5581,8.5859 5.0894,7.8594 5.0894,7.2188 5.0894,6.5312 4.605,6.0703 4.1206,5.6094 3.3394,5.6094 2.5112,5.6094 2.019,6.1016 1.5269,6.5938 1.5112,7.4688 L 0.3394,7.3438 q 0.125,-1.3126 0.9062,-2 0.7813,-0.6876 2.1094,-0.6876 1.3437,0 2.125,0.7422 0.7812,0.7422 0.7812,1.836 0,0.5625 -0.2265,1.1015 Q 5.8081,8.875 5.2769,9.4766 4.7456,10.0781 3.5112,11.1094 2.48,11.9688 2.1909,12.2812 q -0.289,0.3126 -0.4765,0.625 z"
         id="path1222" />
    </g>
    <g
       transform="matrix(0.17633869,0,0,0.17633869,71.441352,91.322144)"
       style="font-style:normal;font-weight:normal;font-size:13px;font-family:SansSerif;color-interpolation:linearRGB;fill:#262626;fill-opacity:1;stroke:#262626;stroke-width:1;stroke-linecap:square;stroke-linejoin:miter;stroke-miterlimit:10;stroke-dasharray:none;stroke-dashoffset:0;stroke-opacity:1;color-rendering:optimizeQuality;image-rendering:optimizeQuality;shape-rendering:auto;text-rendering:geometricPrecision"
       id="g1228">
      <path
         style="stroke:none"
         d="M -2.6562,14 H -3.7969 V 6.7188 q -0.4219,0.3906 -1.0859,0.789 -0.6641,0.3984 -1.1953,0.586 V 6.9844 q 0.9531,-0.4375 1.6719,-1.0782 0.7187,-0.6406 1.0156,-1.25 h 0.7344 z m 6.5893,0 V 11.7656 H -0.0981 V 10.7188 L 4.1362,4.6875 h 0.9375 v 6.0313 h 1.2657 v 1.0468 H 5.0737 V 14 Z m 0,-3.2812 V 6.5312 l -2.9219,4.1876 z"
         id="path1226" />
    </g>
    <g
       transform="matrix(0.17633869,0,0,0.17633869,80.36409,91.322144)"
       style="font-style:normal;font-weight:normal;font-size:13px;font-family:SansSerif;color-interpolation:linearRGB;fill:#262626;fill-opacity:1;stroke:#262626;stroke-width:1;stroke-linecap:square;stroke-linejoin:miter;stroke-miterlimit:10;stroke-dasharray:none;stroke-dashoffset:0;stroke-opacity:1;color-rendering:optimizeQuality;image-rendering:optimizeQuality;shape-rendering:auto;text-rendering:geometricPrecision"
       id="g1232">
      <path
         style="stroke:none"
         d="M -2.6562,14 H -3.7969 V 6.7188 q -0.4219,0.3906 -1.0859,0.789 -0.6641,0.3984 -1.1953,0.586 V 6.9844 q 0.9531,-0.4375 1.6719,-1.0782 0.7187,-0.6406 1.0156,-1.25 h 0.7344 z M 6.1987,6.9688 5.0581,7.0625 Q 4.9175,6.3906 4.6362,6.0781 4.1675,5.5938 3.4956,5.5938 2.9487,5.5938 2.5269,5.9062 1.9956,6.2969 1.6831,7.0469 1.3706,7.7969 1.355,9.2031 1.7612,8.5781 2.3628,8.2734 2.9644,7.9688 3.6206,7.9688 q 1.1406,0 1.9453,0.8359 0.8047,0.8359 0.8047,2.1797 0,0.875 -0.3828,1.625 -0.3828,0.75 -1.0391,1.1484 -0.6562,0.3984 -1.5,0.3984 -1.4218,0 -2.3281,-1.0468 -0.9062,-1.0469 -0.9062,-3.4688 0,-2.6875 1,-3.9218 0.875,-1.0626 2.3437,-1.0626 1.0938,0 1.7969,0.6172 0.7031,0.6172 0.8437,1.6954 z m -4.6718,4.0156 q 0,0.5937 0.25,1.1328 0.25,0.539 0.7031,0.8203 0.4531,0.2813 0.9531,0.2813 0.7188,0 1.2422,-0.586 0.5234,-0.5859 0.5234,-1.5859 0,-0.9688 -0.5156,-1.5235 -0.5156,-0.5546 -1.2969,-0.5546 -0.7812,0 -1.3203,0.5546 -0.539,0.5547 -0.539,1.461 z"
         id="path1230" />
    </g>
    <g
       transform="matrix(0.17633869,0,0,0.17633869,89.286828,91.322144)"
       style="font-style:normal;font-weight:normal;font-size:13px;font-family:SansSerif;color-interpolation:linearRGB;fill:#262626;fill-opacity:1;stroke:#262626;stroke-width:1;stroke-linecap:square;stroke-linejoin:miter;stroke-miterlimit:10;stroke-dasharray:none;stroke-dashoffset:0;stroke-opacity:1;color-rendering:optimizeQuality;image-rendering:optimizeQuality;shape-rendering:auto;text-rendering:geometricPrecision"
       id="g1236">
      <path
         style="stroke:none"
         d="M -2.6562,14 H -3.7969 V 6.7188 q -0.4219,0.3906 -1.0859,0.789 -0.6641,0.3984 -1.1953,0.586 V 6.9844 q 0.9531,-0.4375 1.6719,-1.0782 0.7187,-0.6406 1.0156,-1.25 h 0.7344 z M 2.0269,8.9531 Q 1.3237,8.6875 0.98,8.2109 0.6362,7.7344 0.6362,7.0625 q 0,-1.0156 0.7266,-1.7109 0.7266,-0.6954 1.9453,-0.6954 1.2188,0 1.9609,0.711 0.7422,0.7109 0.7422,1.7266 0,0.6406 -0.3437,1.1171 -0.3438,0.4766 -1.0313,0.7422 0.8594,0.2813 1.3047,0.9063 0.4453,0.625 0.4453,1.4844 0,1.1874 -0.8437,2 -0.8438,0.8124 -2.2188,0.8124 -1.375,0 -2.2187,-0.8124 -0.8438,-0.8126 -0.8438,-2.0313 0,-0.9063 0.461,-1.5234 0.4609,-0.6172 1.3047,-0.836 z M 1.7925,7.0156 q 0,0.6563 0.4297,1.0782 0.4297,0.4218 1.1015,0.4218 0.6719,0 1.0938,-0.414 0.4219,-0.4141 0.4219,-1.0235 0,-0.625 -0.4375,-1.0547 -0.4375,-0.4296 -1.0782,-0.4296 -0.6562,0 -1.0937,0.4218 -0.4375,0.4219 -0.4375,1 z m -0.3594,4.2969 q 0,0.4844 0.2344,0.9453 0.2344,0.461 0.6875,0.711 0.4531,0.25 0.9844,0.25 0.8125,0 1.3437,-0.5235 0.5313,-0.5234 0.5313,-1.3359 0,-0.8282 -0.5469,-1.3672 -0.5469,-0.5391 -1.375,-0.5391 -0.7969,0 -1.3281,0.5313 -0.5313,0.5312 -0.5313,1.3281 z"
         id="path1234" />
    </g>
    <g
       transform="matrix(0.17633869,0,0,0.17633869,98.209567,91.322144)"
       style="font-style:normal;font-weight:normal;font-size:13px;font-family:SansSerif;color-interpolation:linearRGB;fill:#262626;fill-opacity:1;stroke:#262626;stroke-width:1;stroke-linecap:square;stroke-linejoin:miter;stroke-miterlimit:10;stroke-dasharray:none;stroke-dashoffset:0;stroke-opacity:1;color-rendering:optimizeQuality;image-rendering:optimizeQuality;shape-rendering:auto;text-rendering:geometricPrecision"
       id="g1240">
      <path
         style="stroke:none"
         d="M -0.9531,12.9062 V 14 h -6.1563 q -0.0156,-0.4062 0.1406,-0.7969 0.2344,-0.625 0.75,-1.2343 0.5157,-0.6094 1.5,-1.4063 1.5157,-1.25 2.0469,-1.9766 0.5313,-0.7265 0.5313,-1.3671 0,-0.6876 -0.4844,-1.1485 -0.4844,-0.4609 -1.2656,-0.4609 -0.8282,0 -1.3203,0.4922 -0.4922,0.4922 -0.5079,1.3672 l -1.1718,-0.125 q 0.125,-1.3126 0.9062,-2 0.7813,-0.6876 2.1094,-0.6876 1.3438,0 2.125,0.7422 0.7812,0.7422 0.7812,1.836 0,0.5625 -0.2265,1.1015 -0.2266,0.5391 -0.7578,1.1407 -0.5313,0.6015 -1.7657,1.6328 -1.0312,0.8594 -1.3203,1.1718 -0.289,0.3126 -0.4765,0.625 z m 1.23,-3.5 q 0,-1.6406 0.3359,-2.6484 Q 0.9487,5.75 1.6206,5.2031 2.2925,4.6562 3.3081,4.6562 q 0.75,0 1.3125,0.3047 0.5625,0.3047 0.9297,0.8672 0.3672,0.5625 0.5781,1.3828 0.211,0.8203 0.211,2.1953 0,1.6407 -0.336,2.6485 -0.3359,1.0078 -1.0078,1.5547 -0.6719,0.5468 -1.6875,0.5468 -1.3437,0 -2.125,-0.9687 Q 0.2769,12.0312 0.2769,9.4062 Z m 1.1718,0 q 0,2.2969 0.5313,3.0547 0.5312,0.7579 1.3281,0.7579 0.7813,0 1.3203,-0.7579 0.5391,-0.7578 0.5391,-3.0547 0,-2.2968 -0.5391,-3.0468 -0.539,-0.75 -1.3359,-0.75 -0.7813,0 -1.2656,0.6562 Q 1.4487,7.125 1.4487,9.4062 Z"
         id="path1238" />
    </g>
    <g
       transform="matrix(0.17633869,0,0,0.17633869,53.495685,93.085048)"
       style="font-style:normal;font-weight:normal;font-size:33px;font-family:mwa_cmmi10;color-interpolation:linearRGB;fill:#262626;fill-opacity:1;stroke:#262626;stroke-width:1;stroke-linecap:square;stroke-linejoin:miter;stroke-miterlimit:10;stroke-dasharray:none;stroke-dashoffset:0;stroke-opacity:1;color-rendering:optimizeQuality;image-rendering:optimizeQuality;shape-rendering:auto;text-rendering:geometricPrecision"
       id="g1246">
      <path
         style="stroke:none"
         d="m -9.2631,33.9843 q 0.125,-0.7344 0.4375,-0.7344 1.2031,0 1.8828,-0.1953 0.6797,-0.1953 0.8984,-0.9297 l 1.4063,-5.6094 q -1.875,1.8594 -3.7656,1.8594 -2.0782,0 -3.2657,-1.5703 -1.1875,-1.5703 -1.1875,-3.7266 0,-2.1094 1.0938,-4.375 1.0937,-2.2656 2.9531,-3.7734 1.8594,-1.5078 4.0156,-1.5078 1,0 1.8047,0.5937 0.8047,0.5938 1.2266,1.5781 0.1875,-0.3906 1.0703,-1.2812 0.8828,-0.8906 1.2266,-0.8906 0.375,0 0.375,0.4218 l -4.625,18.4063 q -0.0782,0.4844 -0.0938,0.5625 0,0.4375 2.1719,0.4375 0.1719,0 0.2578,0.1328 0.0859,0.1328 0.0859,0.2891 -0.1093,0.4375 -0.1875,0.5781 -0.0781,0.1406 -0.375,0.1406 h -7.0625 q -0.3437,0 -0.3437,-0.4062 z m 0.9219,-6.4844 q 1.1562,0 2.2656,-0.875 1.1094,-0.875 1.9219,-2.0938 l 1.8593,-7.4218 q -0.1875,-1.1563 -0.8437,-2 -0.6563,-0.8438 -1.7344,-0.8438 -1.1094,0 -2.0703,0.9141 -0.9609,0.914 -1.6172,2.1484 -0.6406,1.3281 -1.2344,3.6328 -0.5937,2.3047 -0.5937,3.5703 0,1.1407 0.4922,2.0547 0.4922,0.9141 1.5547,0.9141 z"
         id="path1242" />
      <path
         style="stroke:none"
         d="m 2.9142,32.9998 v -0.8125 q 2.875,0 2.875,-0.7187 V 19.3905 q -1.2031,0.5781 -3.0156,0.5781 v -0.8125 q 2.8125,0 4.25,-1.4688 h 0.3281 q 0.0781,0 0.1562,0.0625 0.0782,0.0625 0.0782,0.1407 v 13.5781 q 0,0.7187 2.875,0.7187 v 0.8125 z"
         id="path1244" />
    </g>
    <g
       transform="matrix(0.17633869,0,0,0.17633869,-10.062394,-6.9572837)"
       style="font-style:normal;font-weight:normal;font-size:12px;font-family:Dialog;color-interpolation:linearRGB;fill:#262626;fill-opacity:1;stroke:#262626;stroke-width:0.6667;stroke-linecap:square;stroke-linejoin:round;stroke-miterlimit:10;stroke-dasharray:none;stroke-dashoffset:0;stroke-opacity:1;color-rendering:optimizeQuality;image-rendering:optimizeQuality;shape-rendering:auto;text-rendering:geometricPrecision"
       id="g1272">
      <line
         y2="46"
         style="fill:none"
         x1="108"
         x2="108"
         y1="552"
         id="line1248" />
      <line
         y2="552"
         style="fill:none"
         x1="108"
         x2="113.06"
         y1="552"
         id="line1250" />
      <line
         y2="501.39999"
         style="fill:none"
         x1="108"
         x2="113.06"
         y1="501.39999"
         id="line1252" />
      <line
         y2="450.79999"
         style="fill:none"
         x1="108"
         x2="113.06"
         y1="450.79999"
         id="line1254" />
      <line
         y2="400.20001"
         style="fill:none"
         x1="108"
         x2="113.06"
         y1="400.20001"
         id="line1256" />
      <line
         y2="349.60001"
         style="fill:none"
         x1="108"
         x2="113.06"
         y1="349.60001"
         id="line1258" />
      <line
         y2="299"
         style="fill:none"
         x1="108"
         x2="113.06"
         y1="299"
         id="line1260" />
      <line
         y2="248.39999"
         style="fill:none"
         x1="108"
         x2="113.06"
         y1="248.39999"
         id="line1262" />
      <line
         y2="197.8"
         style="fill:none"
         x1="108"
         x2="113.06"
         y1="197.8"
         id="line1264" />
      <line
         y2="147.2"
         style="fill:none"
         x1="108"
         x2="113.06"
         y1="147.2"
         id="line1266" />
      <line
         y2="96.599998"
         style="fill:none"
         x1="108"
         x2="113.06"
         y1="96.599998"
         id="line1268" />
      <line
         y2="46"
         style="fill:none"
         x1="108"
         x2="113.06"
         y1="46"
         id="line1270" />
    </g>
    <g
       transform="matrix(0.17633869,0,0,0.17633869,8.0417183,90.381673)"
       style="font-style:normal;font-weight:normal;font-size:13px;font-family:SansSerif;color-interpolation:linearRGB;fill:#262626;fill-opacity:1;stroke:#262626;stroke-width:1;stroke-linecap:square;stroke-linejoin:miter;stroke-miterlimit:10;stroke-dasharray:none;stroke-dashoffset:0;stroke-opacity:1;color-rendering:optimizeQuality;image-rendering:optimizeQuality;shape-rendering:auto;text-rendering:geometricPrecision"
       id="g1276">
      <path
         style="stroke:none"
         d="m -7.4531,0.9062 q 0,-1.6406 0.3359,-2.6484 0.336,-1.0078 1.0078,-1.5547 0.6719,-0.5469 1.6875,-0.5469 0.75,0 1.3125,0.3047 0.5625,0.3047 0.9297,0.8672 0.3672,0.5625 0.5781,1.3828 0.211,0.8203 0.211,2.1953 0,1.6407 -0.336,2.6485 -0.3359,1.0078 -1.0078,1.5547 -0.6718,0.5468 -1.6875,0.5468 -1.3437,0 -2.125,-0.9687 -0.9062,-1.1563 -0.9062,-3.7813 z m 1.1719,0 q 0,2.2969 0.5312,3.0547 0.5312,0.7579 1.3281,0.7579 0.7813,0 1.3203,-0.7579 0.5391,-0.7578 0.5391,-3.0547 0,-2.2968 -0.5391,-3.0468 -0.539,-0.75 -1.3359,-0.75 -0.7813,0 -1.2656,0.6562 -0.5781,0.8594 -0.5781,3.1406 z"
         id="path1274" />
    </g>
    <g
       transform="matrix(0.17633869,0,0,0.17633869,8.0417183,81.458941)"
       style="font-style:normal;font-weight:normal;font-size:13px;font-family:SansSerif;color-interpolation:linearRGB;fill:#262626;fill-opacity:1;stroke:#262626;stroke-width:1;stroke-linecap:square;stroke-linejoin:miter;stroke-miterlimit:10;stroke-dasharray:none;stroke-dashoffset:0;stroke-opacity:1;color-rendering:optimizeQuality;image-rendering:optimizeQuality;shape-rendering:auto;text-rendering:geometricPrecision"
       id="g1280">
      <path
         style="stroke:none"
         d="M -1.4531,4.4062 V 5.5 h -6.1563 q -0.0156,-0.4062 0.1406,-0.7969 0.2344,-0.625 0.75,-1.2343 0.5157,-0.6094 1.5,-1.4063 1.5157,-1.25 2.0469,-1.9766 0.5313,-0.7265 0.5313,-1.3671 0,-0.6876 -0.4844,-1.1485 -0.4844,-0.4609 -1.2656,-0.4609 -0.8282,0 -1.3203,0.4922 -0.4922,0.4922 -0.5079,1.3672 l -1.1718,-0.125 q 0.125,-1.3126 0.9062,-2 0.7813,-0.6876 2.1094,-0.6876 1.3438,0 2.125,0.7422 0.7812,0.7422 0.7812,1.836 0,0.5625 -0.2265,1.1015 -0.2266,0.5391 -0.7578,1.1407 -0.5313,0.6015 -1.7657,1.6328 -1.0312,0.8594 -1.3203,1.1718 -0.289,0.3126 -0.4765,0.625 z"
         id="path1278" />
    </g>
    <g
       transform="matrix(0.17633869,0,0,0.17633869,8.0417183,72.5362)"
       style="font-style:normal;font-weight:normal;font-size:13px;font-family:SansSerif;color-interpolation:linearRGB;fill:#262626;fill-opacity:1;stroke:#262626;stroke-width:1;stroke-linecap:square;stroke-linejoin:miter;stroke-miterlimit:10;stroke-dasharray:none;stroke-dashoffset:0;stroke-opacity:1;color-rendering:optimizeQuality;image-rendering:optimizeQuality;shape-rendering:auto;text-rendering:geometricPrecision"
       id="g1284">
      <path
         style="stroke:none"
         d="M -3.7969,5.5 V 3.2656 H -7.8281 V 2.2188 l 4.2343,-6.0313 h 0.9376 v 6.0313 h 1.2656 V 3.2656 H -2.6562 V 5.5 Z m 0,-3.2812 v -4.1876 l -2.9219,4.1876 z"
         id="path1282" />
    </g>
    <g
       transform="matrix(0.17633869,0,0,0.17633869,8.0417183,63.613463)"
       style="font-style:normal;font-weight:normal;font-size:13px;font-family:SansSerif;color-interpolation:linearRGB;fill:#262626;fill-opacity:1;stroke:#262626;stroke-width:1;stroke-linecap:square;stroke-linejoin:miter;stroke-miterlimit:10;stroke-dasharray:none;stroke-dashoffset:0;stroke-opacity:1;color-rendering:optimizeQuality;image-rendering:optimizeQuality;shape-rendering:auto;text-rendering:geometricPrecision"
       id="g1288">
      <path
         style="stroke:none"
         d="m -1.5312,-1.5312 -1.1407,0.0937 q -0.1406,-0.6719 -0.4219,-0.9844 -0.4687,-0.4843 -1.1406,-0.4843 -0.5468,0 -0.9687,0.3124 -0.5313,0.3907 -0.8438,1.1407 -0.3125,0.75 -0.3281,2.1562 0.4062,-0.625 1.0078,-0.9297 0.6016,-0.3046 1.2578,-0.3046 1.1406,0 1.9453,0.8359 0.8047,0.8359 0.8047,2.1797 0,0.875 -0.3828,1.625 -0.3828,0.75 -1.039,1.1484 -0.6563,0.3984 -1.5,0.3984 -1.4219,0 -2.3282,-1.0468 -0.9062,-1.0469 -0.9062,-3.4688 0,-2.6875 1,-3.9218 0.875,-1.0626 2.3437,-1.0626 1.0938,0 1.7969,0.6172 0.7031,0.6172 0.8438,1.6954 z m -4.6719,4.0156 q 0,0.5937 0.25,1.1328 0.25,0.539 0.7031,0.8203 0.4531,0.2813 0.9531,0.2813 0.7188,0 1.2422,-0.586 0.5235,-0.5859 0.5235,-1.5859 0,-0.9688 -0.5157,-1.5235 -0.5156,-0.5546 -1.2969,-0.5546 -0.7812,0 -1.3203,0.5546 -0.539,0.5547 -0.539,1.461 z"
         id="path1286" />
    </g>
    <g
       transform="matrix(0.17633869,0,0,0.17633869,8.0417183,54.690724)"
       style="font-style:normal;font-weight:normal;font-size:13px;font-family:SansSerif;color-interpolation:linearRGB;fill:#262626;fill-opacity:1;stroke:#262626;stroke-width:1;stroke-linecap:square;stroke-linejoin:miter;stroke-miterlimit:10;stroke-dasharray:none;stroke-dashoffset:0;stroke-opacity:1;color-rendering:optimizeQuality;image-rendering:optimizeQuality;shape-rendering:auto;text-rendering:geometricPrecision"
       id="g1292">
      <path
         style="stroke:none"
         d="M -5.7031,0.4531 Q -6.4062,0.1875 -6.75,-0.2891 q -0.3438,-0.4765 -0.3438,-1.1484 0,-1.0156 0.7266,-1.7109 0.7266,-0.6954 1.9453,-0.6954 1.2188,0 1.961,0.711 0.7421,0.7109 0.7421,1.7266 0,0.6406 -0.3437,1.1171 -0.3437,0.4766 -1.0313,0.7422 0.8594,0.2813 1.3047,0.9063 0.4453,0.625 0.4453,1.4844 0,1.1874 -0.8437,2 -0.8437,0.8124 -2.2187,0.8124 -1.375,0 -2.2188,-0.8124 -0.8438,-0.8126 -0.8438,-2.0313 0,-0.9063 0.461,-1.5234 0.4609,-0.6172 1.3047,-0.836 z m -0.2344,-1.9375 q 0,0.6563 0.4297,1.0782 0.4297,0.4218 1.1016,0.4218 0.6718,0 1.0937,-0.414 0.4219,-0.4141 0.4219,-1.0235 0,-0.625 -0.4375,-1.0547 -0.4375,-0.4296 -1.0781,-0.4296 -0.6563,0 -1.0938,0.4218 -0.4375,0.4219 -0.4375,1 z m -0.3594,4.2969 q 0,0.4844 0.2344,0.9453 0.2344,0.461 0.6875,0.711 0.4531,0.25 0.9844,0.25 0.8125,0 1.3437,-0.5235 0.5313,-0.5234 0.5313,-1.3359 0,-0.8282 -0.5469,-1.3672 -0.5469,-0.5391 -1.375,-0.5391 -0.7969,0 -1.3281,0.5313 -0.5313,0.5312 -0.5313,1.3281 z"
         id="path1290" />
    </g>
    <g
       transform="matrix(0.17633869,0,0,0.17633869,8.0417183,45.767987)"
       style="font-style:normal;font-weight:normal;font-size:13px;font-family:SansSerif;color-interpolation:linearRGB;fill:#262626;fill-opacity:1;stroke:#262626;stroke-width:1;stroke-linecap:square;stroke-linejoin:miter;stroke-miterlimit:10;stroke-dasharray:none;stroke-dashoffset:0;stroke-opacity:1;color-rendering:optimizeQuality;image-rendering:optimizeQuality;shape-rendering:auto;text-rendering:geometricPrecision"
       id="g1296">
      <path
         style="stroke:none"
         d="m -10.1562,5.5 h -1.1407 v -7.2812 q -0.4219,0.3906 -1.0859,0.789 -0.6641,0.3984 -1.1953,0.586 v -1.1094 q 0.9531,-0.4375 1.6719,-1.0782 0.7187,-0.6406 1.0156,-1.25 h 0.7344 z m 2.9331,-4.5938 q 0,-1.6406 0.3359,-2.6484 0.3359,-1.0078 1.0078,-1.5547 0.6719,-0.5469 1.6875,-0.5469 0.75,0 1.3125,0.3047 0.5625,0.3047 0.9297,0.8672 0.3672,0.5625 0.5781,1.3828 0.211,0.8203 0.211,2.1953 0,1.6407 -0.336,2.6485 -0.3359,1.0078 -1.0078,1.5547 -0.6719,0.5468 -1.6875,0.5468 -1.3437,0 -2.125,-0.9687 -0.9062,-1.1563 -0.9062,-3.7813 z m 1.1718,0 q 0,2.2969 0.5313,3.0547 0.5312,0.7579 1.3281,0.7579 0.7813,0 1.3203,-0.7579 0.5391,-0.7578 0.5391,-3.0547 0,-2.2968 -0.5391,-3.0468 -0.539,-0.75 -1.3359,-0.75 -0.7813,0 -1.2656,0.6562 -0.5782,0.8594 -0.5782,3.1406 z"
         id="path1294" />
    </g>
    <g
       transform="matrix(0.17633869,0,0,0.17633869,8.0417183,36.845248)"
       style="font-style:normal;font-weight:normal;font-size:13px;font-family:SansSerif;color-interpolation:linearRGB;fill:#262626;fill-opacity:1;stroke:#262626;stroke-width:1;stroke-linecap:square;stroke-linejoin:miter;stroke-miterlimit:10;stroke-dasharray:none;stroke-dashoffset:0;stroke-opacity:1;color-rendering:optimizeQuality;image-rendering:optimizeQuality;shape-rendering:auto;text-rendering:geometricPrecision"
       id="g1300">
      <path
         style="stroke:none"
         d="m -10.1562,5.5 h -1.1407 v -7.2812 q -0.4219,0.3906 -1.0859,0.789 -0.6641,0.3984 -1.1953,0.586 v -1.1094 q 0.9531,-0.4375 1.6719,-1.0782 0.7187,-0.6406 1.0156,-1.25 h 0.7344 z M -1.2231,4.4062 V 5.5 h -6.1563 q -0.0156,-0.4062 0.1406,-0.7969 0.2344,-0.625 0.75,-1.2343 0.5157,-0.6094 1.5,-1.4063 1.5157,-1.25 2.0469,-1.9766 0.5313,-0.7265 0.5313,-1.3671 0,-0.6876 -0.4844,-1.1485 -0.4844,-0.4609 -1.2656,-0.4609 -0.8282,0 -1.3204,0.4922 -0.4921,0.4922 -0.5078,1.3672 l -1.1718,-0.125 q 0.125,-1.3126 0.9062,-2 0.7813,-0.6876 2.1094,-0.6876 1.3437,0 2.125,0.7422 0.7812,0.7422 0.7812,1.836 0,0.5625 -0.2265,1.1015 -0.2266,0.5391 -0.7578,1.1407 -0.5313,0.6015 -1.7657,1.6328 -1.0312,0.8594 -1.3203,1.1718 -0.289,0.3126 -0.4765,0.625 z"
         id="path1298" />
    </g>
    <g
       transform="matrix(0.17633869,0,0,0.17633869,8.0417183,27.92251)"
       style="font-style:normal;font-weight:normal;font-size:13px;font-family:SansSerif;color-interpolation:linearRGB;fill:#262626;fill-opacity:1;stroke:#262626;stroke-width:1;stroke-linecap:square;stroke-linejoin:miter;stroke-miterlimit:10;stroke-dasharray:none;stroke-dashoffset:0;stroke-opacity:1;color-rendering:optimizeQuality;image-rendering:optimizeQuality;shape-rendering:auto;text-rendering:geometricPrecision"
       id="g1304">
      <path
         style="stroke:none"
         d="m -10.1562,5.5 h -1.1407 v -7.2812 q -0.4219,0.3906 -1.0859,0.789 -0.6641,0.3984 -1.1953,0.586 v -1.1094 q 0.9531,-0.4375 1.6719,-1.0782 0.7187,-0.6406 1.0156,-1.25 h 0.7344 z m 6.5893,0 V 3.2656 H -7.5981 V 2.2188 l 4.2343,-6.0313 h 0.9375 v 6.0313 h 1.2657 V 3.2656 H -2.4263 V 5.5 Z m 0,-3.2812 v -4.1876 l -2.9219,4.1876 z"
         id="path1302" />
    </g>
    <g
       transform="matrix(0.17633869,0,0,0.17633869,8.0417183,18.999772)"
       style="font-style:normal;font-weight:normal;font-size:13px;font-family:SansSerif;color-interpolation:linearRGB;fill:#262626;fill-opacity:1;stroke:#262626;stroke-width:1;stroke-linecap:square;stroke-linejoin:miter;stroke-miterlimit:10;stroke-dasharray:none;stroke-dashoffset:0;stroke-opacity:1;color-rendering:optimizeQuality;image-rendering:optimizeQuality;shape-rendering:auto;text-rendering:geometricPrecision"
       id="g1308">
      <path
         style="stroke:none"
         d="m -10.1562,5.5 h -1.1407 v -7.2812 q -0.4219,0.3906 -1.0859,0.789 -0.6641,0.3984 -1.1953,0.586 v -1.1094 q 0.9531,-0.4375 1.6719,-1.0782 0.7187,-0.6406 1.0156,-1.25 h 0.7344 z m 8.8549,-7.0312 -1.1406,0.0937 q -0.1406,-0.6719 -0.4219,-0.9844 -0.4687,-0.4843 -1.1406,-0.4843 -0.5469,0 -0.9687,0.3124 -0.5313,0.3907 -0.8438,1.1407 -0.3125,0.75 -0.3281,2.1562 0.4062,-0.625 1.0078,-0.9297 0.6016,-0.3046 1.2578,-0.3046 1.1406,0 1.9453,0.8359 0.8047,0.8359 0.8047,2.1797 0,0.875 -0.3828,1.625 -0.3828,0.75 -1.0391,1.1484 -0.6562,0.3984 -1.5,0.3984 -1.4218,0 -2.3281,-1.0468 -0.9062,-1.0469 -0.9062,-3.4688 0,-2.6875 1,-3.9218 0.875,-1.0626 2.3437,-1.0626 1.0938,0 1.7969,0.6172 0.7031,0.6172 0.8437,1.6954 z m -4.6718,4.0156 q 0,0.5937 0.25,1.1328 0.25,0.539 0.7031,0.8203 0.4531,0.2813 0.9531,0.2813 0.7188,0 1.2422,-0.586 0.5234,-0.5859 0.5234,-1.5859 0,-0.9688 -0.5156,-1.5235 -0.5156,-0.5546 -1.2969,-0.5546 -0.7812,0 -1.3203,0.5546 -0.539,0.5547 -0.539,1.461 z"
         id="path1306" />
    </g>
    <g
       transform="matrix(0.17633869,0,0,0.17633869,8.0417183,10.077034)"
       style="font-style:normal;font-weight:normal;font-size:13px;font-family:SansSerif;color-interpolation:linearRGB;fill:#262626;fill-opacity:1;stroke:#262626;stroke-width:1;stroke-linecap:square;stroke-linejoin:miter;stroke-miterlimit:10;stroke-dasharray:none;stroke-dashoffset:0;stroke-opacity:1;color-rendering:optimizeQuality;image-rendering:optimizeQuality;shape-rendering:auto;text-rendering:geometricPrecision"
       id="g1312">
      <path
         style="stroke:none"
         d="m -10.1562,5.5 h -1.1407 v -7.2812 q -0.4219,0.3906 -1.0859,0.789 -0.6641,0.3984 -1.1953,0.586 v -1.1094 q 0.9531,-0.4375 1.6719,-1.0782 0.7187,-0.6406 1.0156,-1.25 h 0.7344 z M -5.4731,0.4531 Q -6.1763,0.1875 -6.52,-0.2891 q -0.3438,-0.4765 -0.3438,-1.1484 0,-1.0156 0.7266,-1.7109 0.7266,-0.6954 1.9453,-0.6954 1.2188,0 1.9609,0.711 0.7422,0.7109 0.7422,1.7266 0,0.6406 -0.3437,1.1171 -0.3438,0.4766 -1.0313,0.7422 0.8594,0.2813 1.3047,0.9063 0.4453,0.625 0.4453,1.4844 0,1.1874 -0.8437,2 -0.8438,0.8124 -2.2188,0.8124 -1.375,0 -2.2187,-0.8124 -0.8438,-0.8126 -0.8438,-2.0313 0,-0.9063 0.461,-1.5234 0.4609,-0.6172 1.3047,-0.836 z m -0.2344,-1.9375 q 0,0.6563 0.4297,1.0782 0.4297,0.4218 1.1015,0.4218 0.6719,0 1.0938,-0.414 0.4219,-0.4141 0.4219,-1.0235 0,-0.625 -0.4375,-1.0547 -0.4375,-0.4296 -1.0782,-0.4296 -0.6562,0 -1.0937,0.4218 -0.4375,0.4219 -0.4375,1 z m -0.3594,4.2969 q 0,0.4844 0.2344,0.9453 0.2344,0.461 0.6875,0.711 0.4531,0.25 0.9844,0.25 0.8125,0 1.3437,-0.5235 0.5313,-0.5234 0.5313,-1.3359 0,-0.8282 -0.5469,-1.3672 -0.5469,-0.5391 -1.375,-0.5391 -0.7969,0 -1.3281,0.5313 -0.5313,0.5312 -0.5313,1.3281 z"
         id="path1310" />
    </g>
    <g
       transform="matrix(0.17633869,0,0,0.17633869,8.0417183,1.1542963)"
       style="font-style:normal;font-weight:normal;font-size:13px;font-family:SansSerif;color-interpolation:linearRGB;fill:#262626;fill-opacity:1;stroke:#262626;stroke-width:1;stroke-linecap:square;stroke-linejoin:miter;stroke-miterlimit:10;stroke-dasharray:none;stroke-dashoffset:0;stroke-opacity:1;color-rendering:optimizeQuality;image-rendering:optimizeQuality;shape-rendering:auto;text-rendering:geometricPrecision"
       id="g1316">
      <path
         style="stroke:none"
         d="M -8.4531,4.4062 V 5.5 h -6.1563 q -0.0156,-0.4062 0.1406,-0.7969 0.2344,-0.625 0.75,-1.2343 0.5157,-0.6094 1.5,-1.4063 1.5157,-1.25 2.0469,-1.9766 0.5313,-0.7265 0.5313,-1.3671 0,-0.6876 -0.4844,-1.1485 -0.4844,-0.4609 -1.2656,-0.4609 -0.8282,0 -1.3203,0.4922 -0.4922,0.4922 -0.5079,1.3672 l -1.1718,-0.125 q 0.125,-1.3126 0.9062,-2 0.7813,-0.6876 2.1094,-0.6876 1.3438,0 2.125,0.7422 0.7812,0.7422 0.7812,1.836 0,0.5625 -0.2265,1.1015 -0.2266,0.5391 -0.7578,1.1407 -0.5313,0.6015 -1.7657,1.6328 -1.0312,0.8594 -1.3203,1.1718 -0.289,0.3126 -0.4765,0.625 z m 1.23,-3.5 q 0,-1.6406 0.3359,-2.6484 0.3359,-1.0078 1.0078,-1.5547 0.6719,-0.5469 1.6875,-0.5469 0.75,0 1.3125,0.3047 0.5625,0.3047 0.9297,0.8672 0.3672,0.5625 0.5781,1.3828 0.211,0.8203 0.211,2.1953 0,1.6407 -0.336,2.6485 -0.3359,1.0078 -1.0078,1.5547 -0.6719,0.5468 -1.6875,0.5468 -1.3437,0 -2.125,-0.9687 -0.9062,-1.1563 -0.9062,-3.7813 z m 1.1718,0 q 0,2.2969 0.5313,3.0547 0.5312,0.7579 1.3281,0.7579 0.7813,0 1.3203,-0.7579 0.5391,-0.7578 0.5391,-3.0547 0,-2.2968 -0.5391,-3.0468 -0.539,-0.75 -1.3359,-0.75 -0.7813,0 -1.2656,0.6562 -0.5782,0.8594 -0.5782,3.1406 z"
         id="path1314" />
    </g>
    <g
       transform="matrix(0,-0.17633869,0.17633869,0,5.3260485,45.834768)"
       style="font-style:normal;font-weight:normal;font-size:33px;font-family:mwa_cmmi10;color-interpolation:linearRGB;fill:#262626;fill-opacity:1;stroke:#262626;stroke-width:1;stroke-linecap:square;stroke-linejoin:miter;stroke-miterlimit:10;stroke-dasharray:none;stroke-dashoffset:0;stroke-opacity:1;color-rendering:optimizeQuality;image-rendering:optimizeQuality;shape-rendering:auto;text-rendering:geometricPrecision"
       id="g1322">
      <path
         style="stroke:none"
         d="m -9.2631,-6.0157 q 0.125,-0.7344 0.4375,-0.7344 1.2031,0 1.8828,-0.1953 0.6797,-0.1953 0.8984,-0.9297 l 1.4063,-5.6094 q -1.875,1.8594 -3.7656,1.8594 -2.0782,0 -3.2657,-1.5703 -1.1875,-1.5703 -1.1875,-3.7266 0,-2.1094 1.0938,-4.375 1.0937,-2.2656 2.9531,-3.7734 1.8594,-1.5078 4.0156,-1.5078 1,0 1.8047,0.5937 0.8047,0.5938 1.2266,1.5781 0.1875,-0.3906 1.0703,-1.2812 0.8828,-0.8906 1.2266,-0.8906 0.375,0 0.375,0.4218 l -4.625,18.4063 q -0.0782,0.4844 -0.0938,0.5625 0,0.4375 2.1719,0.4375 0.1719,0 0.2578,0.1328 0.0859,0.1328 0.0859,0.2891 -0.1093,0.4375 -0.1875,0.5781 -0.0781,0.1406 -0.375,0.1406 h -7.0625 q -0.3437,0 -0.3437,-0.4062 z m 0.9219,-6.4844 q 1.1562,0 2.2656,-0.875 1.1094,-0.875 1.9219,-2.0938 l 1.8593,-7.4218 q -0.1875,-1.1563 -0.8437,-2 -0.6563,-0.8438 -1.7344,-0.8438 -1.1094,0 -2.0703,0.9141 -0.9609,0.914 -1.6172,2.1484 -0.6406,1.3281 -1.2344,3.6328 -0.5937,2.3047 -0.5937,3.5703 0,1.1407 0.4922,2.0547 0.4922,0.9141 1.5547,0.9141 z"
         id="path1318" />
      <path
         style="stroke:none"
         d="m 1.9142,-7.0002 v -0.625 q 0,-0.0468 0.0469,-0.1093 l 3.5781,-3.9532 q 0.8125,-0.8906 1.3125,-1.4843 0.5,-0.5938 0.9922,-1.3672 0.4922,-0.7735 0.7812,-1.5782 0.2891,-0.8046 0.2891,-1.6953 0,-0.9531 -0.3438,-1.8125 -0.3437,-0.8593 -1.039,-1.375 -0.6953,-0.5156 -1.6641,-0.5156 -1,0 -1.7969,0.6016 -0.7968,0.6015 -1.125,1.5547 0.0782,-0.0157 0.25,-0.0157 0.5157,0 0.875,0.3438 0.3594,0.3437 0.3594,0.9062 0,0.5157 -0.3594,0.8828 -0.3593,0.3672 -0.875,0.3672 -0.5468,0 -0.914,-0.375 -0.3672,-0.375 -0.3672,-0.875 0,-0.875 0.3281,-1.6328 0.3281,-0.7578 0.9375,-1.3437 0.6094,-0.586 1.3828,-0.8985 0.7735,-0.3125 1.6328,-0.3125 1.3125,0 2.4454,0.5547 1.1328,0.5547 1.7968,1.5703 0.6641,1.0157 0.6641,2.375 0,1 -0.4375,1.8985 -0.4375,0.8984 -1.1172,1.6328 -0.6797,0.7344 -1.75,1.664 -1.0703,0.9297 -1.4141,1.2422 l -2.5937,2.5157 h 2.2031 q 1.625,0 2.7266,-0.0313 1.1015,-0.0312 1.164,-0.0937 0.2657,-0.2813 0.5469,-2.1094 h 0.6719 l -0.6406,4.0937 z"
         id="path1320" />
    </g>
    <g
       transform="matrix(0.17633869,0,0,0.17633869,-10.062394,-6.9572837)"
       style="font-style:normal;font-weight:normal;font-size:12px;font-family:Dialog;color-interpolation:sRGB;fill:#77ac30;fill-opacity:1;stroke:#77ac30;stroke-width:1;stroke-linecap:square;stroke-linejoin:miter;stroke-miterlimit:10;stroke-dasharray:none;stroke-dashoffset:0;stroke-opacity:1;color-rendering:optimizeSpeed;image-rendering:optimizeSpeed;shape-rendering:crispEdges;text-rendering:optimizeSpeed"
       id="g1328">
      <path
         style="stroke:none"
         d="M 393.378,359.7084 322.0553,333.7491 261.4836,500.1686 Z"
         id="path1324" />
      <path
         style="stroke:none"
         d="M 393.378,359.7084 261.4836,500.1686 332.8062,526.128 Z"
         id="path1326" />
    </g>
    <g
       transform="matrix(0.17633869,0,0,0.17633869,-10.062394,-6.9572837)"
       style="font-style:normal;font-weight:normal;font-size:12px;font-family:Dialog;color-interpolation:linearRGB;fill:#000000;fill-opacity:1;stroke:#000000;stroke-width:0.6667;stroke-linecap:square;stroke-linejoin:miter;stroke-miterlimit:10;stroke-dasharray:none;stroke-dashoffset:0;stroke-opacity:1;color-rendering:optimizeQuality;image-rendering:optimizeQuality;shape-rendering:auto;text-rendering:geometricPrecision"
       id="g1332">
      <path
         d="m 261.4836,500.1686 71.3226,25.9594 60.5718,-166.4196 -71.3227,-25.9593 -60.5717,166.4195 v 0"
         style="fill:none;fill-rule:evenodd"
         id="path1330" />
    </g>
    <g
       transform="matrix(0.17633869,0,0,0.17633869,46.589644,68.054311)"
       style="font-style:normal;font-weight:normal;font-size:20px;font-family:mwa_cmsy10;color-interpolation:linearRGB;fill:#000000;fill-opacity:1;stroke:#000000;stroke-width:1;stroke-linecap:square;stroke-linejoin:miter;stroke-miterlimit:10;stroke-dasharray:none;stroke-dashoffset:0;stroke-opacity:1;color-rendering:optimizeQuality;image-rendering:optimizeQuality;shape-rendering:auto;text-rendering:geometricPrecision"
       id="g1336">
      <path
         style="stroke:none"
         d="M 3.9375,5.2843 Q 2.9844,5.2843 2.2891,4.9171 1.5938,4.5499 1.1328,3.8859 0.6719,3.2218 0.4609,2.4327 0.25,1.6437 0.25,0.7374 q 0,-1.7812 0.6562,-3.6093 0.6563,-1.8282 1.8516,-3.2735 1.1953,-1.4453 2.8281,-2.3047 1.6329,-0.8593 3.5235,-0.8593 h 0.1094 q 0.6562,0 1.0624,0.3359 0.4063,0.3359 0.4063,0.9766 0,0.5468 -0.3203,1.2968 -0.3203,0.75 -0.7891,1.5782 -0.2187,0.3593 -0.6484,0.625 Q 8.5,-4.2313 8.0312,-4.1844 H 7.9375 q -0.1406,-0.0625 -0.1406,-0.1407 0,-0.0781 0.3203,-0.7031 0.3203,-0.625 0.5469,-1.1797 0.2265,-0.5547 0.2265,-0.9609 0,-0.4844 -0.3047,-0.7188 -0.3047,-0.2343 -0.8203,-0.2343 -1.4687,0 -2.4765,0.7031 -1.0079,0.7031 -1.8047,2.0781 -0.6875,1.1719 -1.0782,2.5234 -0.3906,1.3516 -0.3906,2.6954 0,1.1093 0.3516,2.0781 0.3516,0.9687 1.1172,1.5547 0.7656,0.5859 1.9218,0.5859 1.2032,0 2.1563,-0.9062 Q 7.6875,3.0656 8.0859,2.5421 8.4844,2.0187 8.8203,1.7765 9.1562,1.5343 9.7031,1.4718 h 0.1094 q 0.125,0.0781 0.125,0.1563 0,0.0781 -0.0469,0.1718 Q 9.3125,2.7374 8.3594,3.5421 7.4062,4.3468 6.2656,4.8156 5.125,5.2843 4.0625,5.2843 Z"
         id="path1334" />
    </g>
    <g
       transform="matrix(0.17633869,0,0,0.17633869,46.589644,68.054311)"
       style="font-style:normal;font-weight:normal;font-size:14px;font-family:mwa_cmmi10;color-interpolation:linearRGB;fill:#000000;fill-opacity:1;stroke:#000000;stroke-width:1;stroke-linecap:square;stroke-linejoin:miter;stroke-miterlimit:10;stroke-dasharray:none;stroke-dashoffset:0;stroke-opacity:1;color-rendering:optimizeQuality;image-rendering:optimizeQuality;shape-rendering:auto;text-rendering:geometricPrecision"
       id="g1344">
      <path
         style="stroke:none"
         d="m 13.3431,7.9561 q -0.6563,0 -1.1719,-0.3125 -0.5156,-0.3125 -0.7969,-0.8437 -0.2812,-0.5313 -0.2812,-1.2188 0,-0.9531 0.5312,-1.8828 0.5313,-0.9297 1.4063,-1.5078 0.875,-0.5781 1.8437,-0.5781 0.5157,0 0.9219,0.1797 0.4063,0.1797 0.7109,0.5 0.3047,0.3203 0.461,0.75 0.1562,0.4297 0.1562,0.9297 0,0.7343 -0.3047,1.4453 -0.3046,0.7109 -0.8437,1.289 -0.5391,0.5782 -1.2266,0.9141 -0.6875,0.3359 -1.4062,0.3359 z m 0.0312,-0.375 q 0.625,0 1.1407,-0.4218 0.5156,-0.4219 0.8437,-1.0703 0.3281,-0.6485 0.5078,-1.3594 0.1797,-0.711 0.1797,-1.3047 0,-0.6094 -0.3047,-1.0313 -0.3047,-0.4218 -0.8984,-0.4218 -0.8125,0 -1.4297,0.7031 -0.6172,0.7031 -0.9297,1.6797 -0.3125,0.9765 -0.3125,1.7734 0,0.6094 0.3125,1.0313 0.3125,0.4218 0.8906,0.4218 z"
         id="path1338" />
      <path
         style="stroke:none"
         d="m 19.7386,7.9561 q -0.8438,0 -1.3204,-0.664 -0.4765,-0.6641 -0.4765,-1.5547 0,-0.125 0.0703,-0.5078 0.0703,-0.3828 0.0703,-0.461 l 1.3438,-5.4375 q 0.0625,-0.2343 0.0781,-0.375 0,-0.2343 -0.9219,-0.2343 -0.125,0 -0.125,-0.1719 0,-0.0469 0.0234,-0.1328 0.0235,-0.086 0.0625,-0.1328 0.0391,-0.0469 0.1016,-0.0469 l 1.8906,-0.1563 q 0.1719,0 0.1719,0.1875 l -1.0312,4.125 q 0.7812,-0.7812 1.5937,-0.7812 0.5938,0 1.0234,0.3125 0.4297,0.3125 0.6407,0.8281 0.2109,0.5156 0.2109,1.0938 0,0.6718 -0.2656,1.3984 -0.2656,0.7266 -0.7266,1.3438 -0.4609,0.6171 -1.0859,0.9921 -0.625,0.375 -1.3281,0.375 z m 0.0312,-0.375 q 0.4688,0 0.8906,-0.3984 0.4219,-0.3984 0.6719,-0.8984 0.2813,-0.5625 0.5234,-1.5235 0.2422,-0.9609 0.2422,-1.5234 0,-0.5 -0.2031,-0.8828 -0.2031,-0.3828 -0.6562,-0.3828 -0.5157,0 -0.9766,0.375 -0.4609,0.375 -0.8047,0.8906 l -0.3906,1.5781 q -0.2188,0.8906 -0.2344,1.4219 0,0.5156 0.2266,0.9297 0.2265,0.414 0.7109,0.414 z"
         id="path1340" />
      <path
         style="stroke:none"
         d="M 24.2469,9.8999 V 9.5405 q 1.25,0 1.25,-0.3125 V 3.978 Q 24.9813,4.228 24.2,4.228 V 3.8842 q 1.2188,0 1.8438,-0.6406 h 0.1406 q 0.0312,0 0.0625,0.0235 0.0312,0.0234 0.0312,0.0546 V 9.228 q 0,0.3125 1.25,0.3125 v 0.3594 z"
         id="path1342" />
    </g>
    <g
       transform="matrix(0.17633869,0,0,0.17633869,-10.062394,-6.9572837)"
       style="font-style:normal;font-weight:normal;font-size:12px;font-family:Dialog;color-interpolation:sRGB;fill:#77ac30;fill-opacity:1;stroke:#77ac30;stroke-width:1;stroke-linecap:square;stroke-linejoin:miter;stroke-miterlimit:10;stroke-dasharray:none;stroke-dashoffset:0;stroke-opacity:1;color-rendering:optimizeSpeed;image-rendering:optimizeSpeed;shape-rendering:crispEdges;text-rendering:optimizeSpeed"
       id="g1350">
      <path
         style="stroke:none"
         d="M 432.7113,219.9263 261.6458,174.0895 413.0669,293.2401 Z"
         id="path1346" />
      <path
         style="stroke:none"
         d="m 261.6458,174.0895 -19.6444,73.3137 171.0655,45.8369 z"
         id="path1348" />
    </g>
    <g
       transform="matrix(0.17633869,0,0,0.17633869,-10.062394,-6.9572837)"
       style="font-style:normal;font-weight:normal;font-size:12px;font-family:Dialog;color-interpolation:linearRGB;fill:#000000;fill-opacity:1;stroke:#000000;stroke-width:0.6667;stroke-linecap:square;stroke-linejoin:miter;stroke-miterlimit:10;stroke-dasharray:none;stroke-dashoffset:0;stroke-opacity:1;color-rendering:optimizeQuality;image-rendering:optimizeQuality;shape-rendering:auto;text-rendering:geometricPrecision"
       id="g1354">
      <path
         d="m 242.0014,247.4032 171.0655,45.8369 19.6444,-73.3138 -171.0655,-45.8368 -19.6444,73.3137 v 0"
         style="fill:none;fill-rule:evenodd"
         id="path1352" />
    </g>
    <g
       transform="matrix(0.17633869,0,0,0.17633869,47.455464,34.246862)"
       style="font-style:normal;font-weight:normal;font-size:20px;font-family:mwa_cmsy10;color-interpolation:linearRGB;fill:#000000;fill-opacity:1;stroke:#000000;stroke-width:1;stroke-linecap:square;stroke-linejoin:miter;stroke-miterlimit:10;stroke-dasharray:none;stroke-dashoffset:0;stroke-opacity:1;color-rendering:optimizeQuality;image-rendering:optimizeQuality;shape-rendering:auto;text-rendering:geometricPrecision"
       id="g1358">
      <path
         style="stroke:none"
         d="M 3.9375,5.2843 Q 2.9844,5.2843 2.2891,4.9171 1.5938,4.5499 1.1328,3.8859 0.6719,3.2218 0.4609,2.4327 0.25,1.6437 0.25,0.7374 q 0,-1.7812 0.6562,-3.6093 0.6563,-1.8282 1.8516,-3.2735 1.1953,-1.4453 2.8281,-2.3047 1.6329,-0.8593 3.5235,-0.8593 h 0.1094 q 0.6562,0 1.0624,0.3359 0.4063,0.3359 0.4063,0.9766 0,0.5468 -0.3203,1.2968 -0.3203,0.75 -0.7891,1.5782 -0.2187,0.3593 -0.6484,0.625 Q 8.5,-4.2313 8.0312,-4.1844 H 7.9375 q -0.1406,-0.0625 -0.1406,-0.1407 0,-0.0781 0.3203,-0.7031 0.3203,-0.625 0.5469,-1.1797 0.2265,-0.5547 0.2265,-0.9609 0,-0.4844 -0.3047,-0.7188 -0.3047,-0.2343 -0.8203,-0.2343 -1.4687,0 -2.4765,0.7031 -1.0079,0.7031 -1.8047,2.0781 -0.6875,1.1719 -1.0782,2.5234 -0.3906,1.3516 -0.3906,2.6954 0,1.1093 0.3516,2.0781 0.3516,0.9687 1.1172,1.5547 0.7656,0.5859 1.9218,0.5859 1.2032,0 2.1563,-0.9062 Q 7.6875,3.0656 8.0859,2.5421 8.4844,2.0187 8.8203,1.7765 9.1562,1.5343 9.7031,1.4718 h 0.1094 q 0.125,0.0781 0.125,0.1563 0,0.0781 -0.0469,0.1718 Q 9.3125,2.7374 8.3594,3.5421 7.4062,4.3468 6.2656,4.8156 5.125,5.2843 4.0625,5.2843 Z"
         id="path1356" />
    </g>
    <g
       transform="matrix(0.17633869,0,0,0.17633869,47.455464,34.246862)"
       style="font-style:normal;font-weight:normal;font-size:14px;font-family:mwa_cmmi10;color-interpolation:linearRGB;fill:#000000;fill-opacity:1;stroke:#000000;stroke-width:1;stroke-linecap:square;stroke-linejoin:miter;stroke-miterlimit:10;stroke-dasharray:none;stroke-dashoffset:0;stroke-opacity:1;color-rendering:optimizeQuality;image-rendering:optimizeQuality;shape-rendering:auto;text-rendering:geometricPrecision"
       id="g1366">
      <path
         style="stroke:none"
         d="m 13.3431,7.9561 q -0.6563,0 -1.1719,-0.3125 -0.5156,-0.3125 -0.7969,-0.8437 -0.2812,-0.5313 -0.2812,-1.2188 0,-0.9531 0.5312,-1.8828 0.5313,-0.9297 1.4063,-1.5078 0.875,-0.5781 1.8437,-0.5781 0.5157,0 0.9219,0.1797 0.4063,0.1797 0.7109,0.5 0.3047,0.3203 0.461,0.75 0.1562,0.4297 0.1562,0.9297 0,0.7343 -0.3047,1.4453 -0.3046,0.7109 -0.8437,1.289 -0.5391,0.5782 -1.2266,0.9141 -0.6875,0.3359 -1.4062,0.3359 z m 0.0312,-0.375 q 0.625,0 1.1407,-0.4218 0.5156,-0.4219 0.8437,-1.0703 0.3281,-0.6485 0.5078,-1.3594 0.1797,-0.711 0.1797,-1.3047 0,-0.6094 -0.3047,-1.0313 -0.3047,-0.4218 -0.8984,-0.4218 -0.8125,0 -1.4297,0.7031 -0.6172,0.7031 -0.9297,1.6797 -0.3125,0.9765 -0.3125,1.7734 0,0.6094 0.3125,1.0313 0.3125,0.4218 0.8906,0.4218 z"
         id="path1360" />
      <path
         style="stroke:none"
         d="m 19.7386,7.9561 q -0.8438,0 -1.3204,-0.664 -0.4765,-0.6641 -0.4765,-1.5547 0,-0.125 0.0703,-0.5078 0.0703,-0.3828 0.0703,-0.461 l 1.3438,-5.4375 q 0.0625,-0.2343 0.0781,-0.375 0,-0.2343 -0.9219,-0.2343 -0.125,0 -0.125,-0.1719 0,-0.0469 0.0234,-0.1328 0.0235,-0.086 0.0625,-0.1328 0.0391,-0.0469 0.1016,-0.0469 l 1.8906,-0.1563 q 0.1719,0 0.1719,0.1875 l -1.0312,4.125 q 0.7812,-0.7812 1.5937,-0.7812 0.5938,0 1.0234,0.3125 0.4297,0.3125 0.6407,0.8281 0.2109,0.5156 0.2109,1.0938 0,0.6718 -0.2656,1.3984 -0.2656,0.7266 -0.7266,1.3438 -0.4609,0.6171 -1.0859,0.9921 -0.625,0.375 -1.3281,0.375 z m 0.0312,-0.375 q 0.4688,0 0.8906,-0.3984 0.4219,-0.3984 0.6719,-0.8984 0.2813,-0.5625 0.5234,-1.5235 0.2422,-0.9609 0.2422,-1.5234 0,-0.5 -0.2031,-0.8828 -0.2031,-0.3828 -0.6562,-0.3828 -0.5157,0 -0.9766,0.375 -0.4609,0.375 -0.8047,0.8906 l -0.3906,1.5781 q -0.2188,0.8906 -0.2344,1.4219 0,0.5156 0.2266,0.9297 0.2265,0.414 0.7109,0.414 z"
         id="path1362" />
      <path
         style="stroke:none"
         d="M 23.825,9.8999 V 9.6342 q 0,-0.0312 0.0156,-0.0625 L 25.4031,7.853 q 0.3438,-0.375 0.5625,-0.6328 0.2188,-0.2578 0.4375,-0.5938 0.2188,-0.3359 0.3438,-0.6875 0.125,-0.3515 0.125,-0.7422 0,-0.4062 -0.1563,-0.7812 -0.1562,-0.375 -0.4531,-0.6016 -0.2969,-0.2265 -0.7187,-0.2265 -0.4375,0 -0.7891,0.2656 -0.3516,0.2656 -0.4922,0.6719 0.0469,0 0.1094,0 0.2344,0 0.3906,0.1484 0.1563,0.1484 0.1563,0.3828 0,0.2344 -0.1563,0.3906 -0.1562,0.1563 -0.3906,0.1563 -0.2344,0 -0.3906,-0.1641 -0.1563,-0.164 -0.1563,-0.3828 0,-0.375 0.1406,-0.7031 0.1407,-0.3281 0.4063,-0.5859 0.2656,-0.2579 0.6015,-0.3907 0.336,-0.1328 0.711,-0.1328 0.5781,0 1.0703,0.2422 0.4922,0.2422 0.7812,0.6797 0.2891,0.4375 0.2891,1.0312 0,0.4375 -0.1953,0.8282 -0.1953,0.3906 -0.4922,0.7109 -0.2969,0.3203 -0.7578,0.7266 -0.4609,0.4062 -0.6172,0.5312 l -1.125,1.0938 h 0.9531 q 0.7188,0 1.1953,-0.0078 0.4766,-0.0079 0.4922,-0.0391 0.125,-0.125 0.25,-0.9219 h 0.2969 l -0.2969,1.7813 z"
         id="path1364" />
    </g>
    <g
       transform="matrix(0.17633869,0,0,0.17633869,-10.062394,-6.9572837)"
       style="font-style:normal;font-weight:normal;font-size:12px;font-family:Dialog;color-interpolation:linearRGB;fill:#000000;fill-opacity:1;stroke:#000000;stroke-width:1.8667;stroke-linecap:butt;stroke-linejoin:round;stroke-miterlimit:10;stroke-dasharray:none;stroke-dashoffset:0;stroke-opacity:1;color-rendering:optimizeQuality;image-rendering:optimizeQuality;shape-rendering:auto;text-rendering:geometricPrecision"
       id="g1392">
      <line
         y2="526.98132"
         style="fill:none"
         x1="108"
         x2="111.762"
         y1="552"
         id="line1368" />
      <line
         y2="510.54651"
         style="fill:none"
         x1="111.762"
         x2="130.99699"
         y1="526.98132"
         id="line1370" />
      <line
         y2="495.71939"
         style="fill:none"
         x1="130.99699"
         x2="151.49699"
         y1="510.54651"
         id="line1372" />
      <line
         y2="481.72571"
         style="fill:none"
         x1="151.49699"
         x2="172.5746"
         y1="495.71939"
         id="line1374" />
      <line
         y2="467.73209"
         style="fill:none"
         x1="172.5746"
         x2="193.6523"
         y1="481.72571"
         id="line1376" />
      <line
         y2="453.0889"
         style="fill:none"
         x1="193.6523"
         x2="214.284"
         y1="467.73209"
         id="line1378" />
      <line
         y2="438.44559"
         style="fill:none"
         x1="214.284"
         x2="234.9156"
         y1="453.0889"
         id="line1380" />
      <line
         y2="423.8024"
         style="fill:none"
         x1="234.9156"
         x2="255.5473"
         y1="438.44559"
         id="line1382" />
      <line
         y2="409.15909"
         style="fill:none"
         x1="255.5473"
         x2="276.17899"
         y1="423.8024"
         id="line1384" />
      <line
         y2="394.5159"
         style="fill:none"
         x1="276.17899"
         x2="296.81061"
         y1="409.15909"
         id="line1386" />
      <line
         y2="370.7666"
         style="fill:none"
         x1="296.81061"
         x2="305.5318"
         y1="394.5159"
         id="line1388" />
      <circle
         r="3.3333001"
         style="stroke:none"
         cx="0"
         transform="translate(108,552)"
         cy="0"
         id="circle1390" />
    </g>
    <g
       transform="matrix(0.17633869,0,0,0.17633869,9.6455721,85.969913)"
       style="font-style:normal;font-weight:normal;font-size:12px;font-family:Dialog;color-interpolation:linearRGB;fill:#000000;fill-opacity:1;stroke:#000000;stroke-width:1.8667;stroke-linecap:butt;stroke-linejoin:round;stroke-miterlimit:10;stroke-dasharray:none;stroke-dashoffset:0;stroke-opacity:1;color-rendering:optimizeQuality;image-rendering:optimizeQuality;shape-rendering:auto;text-rendering:geometricPrecision"
       id="g1396">
      <circle
         r="3.3333001"
         style="stroke:none"
         cx="0"
         cy="0"
         id="circle1394" />
    </g>
    <g
       transform="matrix(0.17633869,0,0,0.17633869,13.037447,83.071818)"
       style="font-style:normal;font-weight:normal;font-size:12px;font-family:Dialog;color-interpolation:linearRGB;fill:#000000;fill-opacity:1;stroke:#000000;stroke-width:1.8667;stroke-linecap:butt;stroke-linejoin:round;stroke-miterlimit:10;stroke-dasharray:none;stroke-dashoffset:0;stroke-opacity:1;color-rendering:optimizeQuality;image-rendering:optimizeQuality;shape-rendering:auto;text-rendering:geometricPrecision"
       id="g1400">
      <circle
         r="3.3333001"
         style="stroke:none"
         cx="0"
         cy="0"
         id="circle1398" />
    </g>
    <g
       transform="matrix(0.17633869,0,0,0.17633869,16.65239,80.457229)"
       style="font-style:normal;font-weight:normal;font-size:12px;font-family:Dialog;color-interpolation:linearRGB;fill:#000000;fill-opacity:1;stroke:#000000;stroke-width:1.8667;stroke-linecap:butt;stroke-linejoin:round;stroke-miterlimit:10;stroke-dasharray:none;stroke-dashoffset:0;stroke-opacity:1;color-rendering:optimizeQuality;image-rendering:optimizeQuality;shape-rendering:auto;text-rendering:geometricPrecision"
       id="g1404">
      <circle
         r="3.3333001"
         style="stroke:none"
         cx="0"
         cy="0"
         id="circle1402" />
    </g>
    <g
       transform="matrix(0.17633869,0,0,0.17633869,20.369186,77.989598)"
       style="font-style:normal;font-weight:normal;font-size:12px;font-family:Dialog;color-interpolation:linearRGB;fill:#000000;fill-opacity:1;stroke:#000000;stroke-width:1.8667;stroke-linecap:butt;stroke-linejoin:round;stroke-miterlimit:10;stroke-dasharray:none;stroke-dashoffset:0;stroke-opacity:1;color-rendering:optimizeQuality;image-rendering:optimizeQuality;shape-rendering:auto;text-rendering:geometricPrecision"
       id="g1408">
      <circle
         r="3.3333001"
         style="stroke:none"
         cx="0"
         cy="0"
         id="circle1406" />
    </g>
    <g
       transform="matrix(0.17633869,0,0,0.17633869,24.086,75.521985)"
       style="font-style:normal;font-weight:normal;font-size:12px;font-family:Dialog;color-interpolation:linearRGB;fill:#000000;fill-opacity:1;stroke:#000000;stroke-width:1.8667;stroke-linecap:butt;stroke-linejoin:round;stroke-miterlimit:10;stroke-dasharray:none;stroke-dashoffset:0;stroke-opacity:1;color-rendering:optimizeQuality;image-rendering:optimizeQuality;shape-rendering:auto;text-rendering:geometricPrecision"
       id="g1412">
      <circle
         r="3.3333001"
         style="stroke:none"
         cx="0"
         cy="0"
         id="circle1410" />
    </g>
    <g
       transform="matrix(0.17633869,0,0,0.17633869,27.724167,72.939822)"
       style="font-style:normal;font-weight:normal;font-size:12px;font-family:Dialog;color-interpolation:linearRGB;fill:#000000;fill-opacity:1;stroke:#000000;stroke-width:1.8667;stroke-linecap:butt;stroke-linejoin:round;stroke-miterlimit:10;stroke-dasharray:none;stroke-dashoffset:0;stroke-opacity:1;color-rendering:optimizeQuality;image-rendering:optimizeQuality;shape-rendering:auto;text-rendering:geometricPrecision"
       id="g1416">
      <circle
         r="3.3333001"
         style="stroke:none"
         cx="0"
         cy="0"
         id="circle1414" />
    </g>
    <g
       transform="matrix(0.17633869,0,0,0.17633869,31.362317,70.357642)"
       style="font-style:normal;font-weight:normal;font-size:12px;font-family:Dialog;color-interpolation:linearRGB;fill:#000000;fill-opacity:1;stroke:#000000;stroke-width:1.8667;stroke-linecap:butt;stroke-linejoin:round;stroke-miterlimit:10;stroke-dasharray:none;stroke-dashoffset:0;stroke-opacity:1;color-rendering:optimizeQuality;image-rendering:optimizeQuality;shape-rendering:auto;text-rendering:geometricPrecision"
       id="g1420">
      <circle
         r="3.3333001"
         style="stroke:none"
         cx="0"
         cy="0"
         id="circle1418" />
    </g>
    <g
       transform="matrix(0.17633869,0,0,0.17633869,35.000484,67.775479)"
       style="font-style:normal;font-weight:normal;font-size:12px;font-family:Dialog;color-interpolation:linearRGB;fill:#000000;fill-opacity:1;stroke:#000000;stroke-width:1.8667;stroke-linecap:butt;stroke-linejoin:round;stroke-miterlimit:10;stroke-dasharray:none;stroke-dashoffset:0;stroke-opacity:1;color-rendering:optimizeQuality;image-rendering:optimizeQuality;shape-rendering:auto;text-rendering:geometricPrecision"
       id="g1424">
      <circle
         r="3.3333001"
         style="stroke:none"
         cx="0"
         cy="0"
         id="circle1422" />
    </g>
    <g
       transform="matrix(0.17633869,0,0,0.17633869,38.638651,65.193299)"
       style="font-style:normal;font-weight:normal;font-size:12px;font-family:Dialog;color-interpolation:linearRGB;fill:#000000;fill-opacity:1;stroke:#000000;stroke-width:1.8667;stroke-linecap:butt;stroke-linejoin:round;stroke-miterlimit:10;stroke-dasharray:none;stroke-dashoffset:0;stroke-opacity:1;color-rendering:optimizeQuality;image-rendering:optimizeQuality;shape-rendering:auto;text-rendering:geometricPrecision"
       id="g1428">
      <circle
         r="3.3333001"
         style="stroke:none"
         cx="0"
         cy="0"
         id="circle1426" />
    </g>
    <g
       transform="matrix(0.17633869,0,0,0.17633869,42.276801,62.611136)"
       style="font-style:normal;font-weight:normal;font-size:12px;font-family:Dialog;color-interpolation:linearRGB;fill:#000000;fill-opacity:1;stroke:#000000;stroke-width:1.8667;stroke-linecap:butt;stroke-linejoin:round;stroke-miterlimit:10;stroke-dasharray:none;stroke-dashoffset:0;stroke-opacity:1;color-rendering:optimizeQuality;image-rendering:optimizeQuality;shape-rendering:auto;text-rendering:geometricPrecision"
       id="g1432">
      <circle
         r="3.3333001"
         style="stroke:none"
         cx="0"
         cy="0"
         id="circle1430" />
    </g>
    <g
       transform="matrix(0.17633869,0,0,0.17633869,43.814685,58.423215)"
       style="font-style:normal;font-weight:normal;font-size:12px;font-family:Dialog;color-interpolation:linearRGB;fill:#000000;fill-opacity:1;stroke:#000000;stroke-width:1.8667;stroke-linecap:butt;stroke-linejoin:round;stroke-miterlimit:10;stroke-dasharray:none;stroke-dashoffset:0;stroke-opacity:1;color-rendering:optimizeQuality;image-rendering:optimizeQuality;shape-rendering:auto;text-rendering:geometricPrecision"
       id="g1436">
      <circle
         r="3.3333001"
         style="stroke:none"
         cx="0"
         cy="0"
         id="circle1434" />
    </g>
    <g
       transform="matrix(0.17633869,0,0,0.17633869,-10.062394,-6.9572837)"
       style="font-style:normal;font-weight:normal;font-size:12px;font-family:Dialog;color-interpolation:linearRGB;fill:#0000ff;fill-opacity:1;stroke:#0000ff;stroke-width:1.8667;stroke-linecap:butt;stroke-linejoin:round;stroke-miterlimit:10;stroke-dasharray:none;stroke-dashoffset:0;stroke-opacity:1;color-rendering:optimizeQuality;image-rendering:optimizeQuality;shape-rendering:auto;text-rendering:geometricPrecision"
       id="g1460">
      <line
         y2="212.62711"
         style="fill:none"
         x1="563.40002"
         x2="542.90009"
         y1="197.8"
         id="line1438" />
      <line
         y2="237.7646"
         style="fill:none"
         x1="542.90009"
         x2="540.03711"
         y1="212.62711"
         id="line1440" />
      <line
         y2="251.75819"
         style="fill:none"
         x1="540.03711"
         x2="518.95941"
         y1="237.7646"
         id="line1442" />
      <line
         y2="265.7518"
         style="fill:none"
         x1="518.95941"
         x2="497.88181"
         y1="251.75819"
         id="line1444" />
      <line
         y2="269.55869"
         style="fill:none"
         x1="497.88181"
         x2="472.86981"
         y1="265.7518"
         id="line1446" />
      <line
         y2="284.2019"
         style="fill:none"
         x1="472.86981"
         x2="452.23819"
         y1="269.55869"
         id="line1448" />
      <line
         y2="298.84509"
         style="fill:none"
         x1="452.23819"
         x2="431.60651"
         y1="284.2019"
         id="line1450" />
      <line
         y2="313.4884"
         style="fill:none"
         x1="431.60651"
         x2="410.97479"
         y1="298.84509"
         id="line1452" />
      <line
         y2="328.13159"
         style="fill:none"
         x1="410.97479"
         x2="390.34311"
         y1="313.4884"
         id="line1454" />
      <line
         y2="342.77481"
         style="fill:none"
         x1="390.34311"
         x2="369.71149"
         y1="328.13159"
         id="line1456" />
      <circle
         r="3.3333001"
         style="stroke:none"
         cx="0"
         transform="translate(563.4,197.8)"
         cy="0"
         id="circle1458" />
    </g>
    <g
       transform="matrix(0.17633869,0,0,0.17633869,85.671903,30.537102)"
       style="font-style:normal;font-weight:normal;font-size:12px;font-family:Dialog;color-interpolation:linearRGB;fill:#0000ff;fill-opacity:1;stroke:#0000ff;stroke-width:1.8667;stroke-linecap:butt;stroke-linejoin:round;stroke-miterlimit:10;stroke-dasharray:none;stroke-dashoffset:0;stroke-opacity:1;color-rendering:optimizeQuality;image-rendering:optimizeQuality;shape-rendering:auto;text-rendering:geometricPrecision"
       id="g1464">
      <circle
         r="3.3333001"
         style="stroke:none"
         cx="0"
         cy="0"
         id="circle1462" />
    </g>
    <g
       transform="matrix(0.17633869,0,0,0.17633869,85.167044,34.969816)"
       style="font-style:normal;font-weight:normal;font-size:12px;font-family:Dialog;color-interpolation:linearRGB;fill:#0000ff;fill-opacity:1;stroke:#0000ff;stroke-width:1.8667;stroke-linecap:butt;stroke-linejoin:round;stroke-miterlimit:10;stroke-dasharray:none;stroke-dashoffset:0;stroke-opacity:1;color-rendering:optimizeQuality;image-rendering:optimizeQuality;shape-rendering:auto;text-rendering:geometricPrecision"
       id="g1468">
      <circle
         r="3.3333001"
         style="stroke:none"
         cx="0"
         cy="0"
         id="circle1466" />
    </g>
    <g
       transform="matrix(0.17633869,0,0,0.17633869,81.450231,37.437428)"
       style="font-style:normal;font-weight:normal;font-size:12px;font-family:Dialog;color-interpolation:linearRGB;fill:#0000ff;fill-opacity:1;stroke:#0000ff;stroke-width:1.8667;stroke-linecap:butt;stroke-linejoin:round;stroke-miterlimit:10;stroke-dasharray:none;stroke-dashoffset:0;stroke-opacity:1;color-rendering:optimizeQuality;image-rendering:optimizeQuality;shape-rendering:auto;text-rendering:geometricPrecision"
       id="g1472">
      <circle
         r="3.3333001"
         style="stroke:none"
         cx="0"
         cy="0"
         id="circle1470" />
    </g>
    <g
       transform="matrix(0.17633869,0,0,0.17633869,77.733434,39.905042)"
       style="font-style:normal;font-weight:normal;font-size:12px;font-family:Dialog;color-interpolation:linearRGB;fill:#0000ff;fill-opacity:1;stroke:#0000ff;stroke-width:1.8667;stroke-linecap:butt;stroke-linejoin:round;stroke-miterlimit:10;stroke-dasharray:none;stroke-dashoffset:0;stroke-opacity:1;color-rendering:optimizeQuality;image-rendering:optimizeQuality;shape-rendering:auto;text-rendering:geometricPrecision"
       id="g1476">
      <circle
         r="3.3333001"
         style="stroke:none"
         cx="0"
         cy="0"
         id="circle1474" />
    </g>
    <g
       transform="matrix(0.17633869,0,0,0.17633869,73.322851,40.576346)"
       style="font-style:normal;font-weight:normal;font-size:12px;font-family:Dialog;color-interpolation:linearRGB;fill:#0000ff;fill-opacity:1;stroke:#0000ff;stroke-width:1.8667;stroke-linecap:butt;stroke-linejoin:round;stroke-miterlimit:10;stroke-dasharray:none;stroke-dashoffset:0;stroke-opacity:1;color-rendering:optimizeQuality;image-rendering:optimizeQuality;shape-rendering:auto;text-rendering:geometricPrecision"
       id="g1480">
      <circle
         r="3.3333001"
         style="stroke:none"
         cx="0"
         cy="0"
         id="circle1478" />
    </g>
    <g
       transform="matrix(0.17633869,0,0,0.17633869,69.684701,43.158509)"
       style="font-style:normal;font-weight:normal;font-size:12px;font-family:Dialog;color-interpolation:linearRGB;fill:#0000ff;fill-opacity:1;stroke:#0000ff;stroke-width:1.8667;stroke-linecap:butt;stroke-linejoin:round;stroke-miterlimit:10;stroke-dasharray:none;stroke-dashoffset:0;stroke-opacity:1;color-rendering:optimizeQuality;image-rendering:optimizeQuality;shape-rendering:auto;text-rendering:geometricPrecision"
       id="g1484">
      <circle
         r="3.3333001"
         style="stroke:none"
         cx="0"
         cy="0"
         id="circle1482" />
    </g>
    <g
       transform="matrix(0.17633869,0,0,0.17633869,66.046535,45.740671)"
       style="font-style:normal;font-weight:normal;font-size:12px;font-family:Dialog;color-interpolation:linearRGB;fill:#0000ff;fill-opacity:1;stroke:#0000ff;stroke-width:1.8667;stroke-linecap:butt;stroke-linejoin:round;stroke-miterlimit:10;stroke-dasharray:none;stroke-dashoffset:0;stroke-opacity:1;color-rendering:optimizeQuality;image-rendering:optimizeQuality;shape-rendering:auto;text-rendering:geometricPrecision"
       id="g1488">
      <circle
         r="3.3333001"
         style="stroke:none"
         cx="0"
         cy="0"
         id="circle1486" />
    </g>
    <g
       transform="matrix(0.17633869,0,0,0.17633869,62.408367,48.322852)"
       style="font-style:normal;font-weight:normal;font-size:12px;font-family:Dialog;color-interpolation:linearRGB;fill:#0000ff;fill-opacity:1;stroke:#0000ff;stroke-width:1.8667;stroke-linecap:butt;stroke-linejoin:round;stroke-miterlimit:10;stroke-dasharray:none;stroke-dashoffset:0;stroke-opacity:1;color-rendering:optimizeQuality;image-rendering:optimizeQuality;shape-rendering:auto;text-rendering:geometricPrecision"
       id="g1492">
      <circle
         r="3.3333001"
         style="stroke:none"
         cx="0"
         cy="0"
         id="circle1490" />
    </g>
    <g
       transform="matrix(0.17633869,0,0,0.17633869,58.7702,50.905015)"
       style="font-style:normal;font-weight:normal;font-size:12px;font-family:Dialog;color-interpolation:linearRGB;fill:#0000ff;fill-opacity:1;stroke:#0000ff;stroke-width:1.8667;stroke-linecap:butt;stroke-linejoin:round;stroke-miterlimit:10;stroke-dasharray:none;stroke-dashoffset:0;stroke-opacity:1;color-rendering:optimizeQuality;image-rendering:optimizeQuality;shape-rendering:auto;text-rendering:geometricPrecision"
       id="g1496">
      <circle
         r="3.3333001"
         style="stroke:none"
         cx="0"
         cy="0"
         id="circle1494" />
    </g>
    <g
       transform="matrix(0.17633869,0,0,0.17633869,55.132051,53.487177)"
       style="font-style:normal;font-weight:normal;font-size:12px;font-family:Dialog;color-interpolation:linearRGB;fill:#0000ff;fill-opacity:1;stroke:#0000ff;stroke-width:1.8667;stroke-linecap:butt;stroke-linejoin:round;stroke-miterlimit:10;stroke-dasharray:none;stroke-dashoffset:0;stroke-opacity:1;color-rendering:optimizeQuality;image-rendering:optimizeQuality;shape-rendering:auto;text-rendering:geometricPrecision"
       id="g1500">
      <circle
         r="3.3333001"
         style="stroke:none"
         cx="0"
         cy="0"
         id="circle1498" />
    </g>
    <g
       transform="matrix(0.17633869,0,0,0.17633869,-10.062394,-6.9572837)"
       style="font-style:normal;font-weight:normal;font-size:12px;font-family:Dialog;color-interpolation:sRGB;fill:#00ff00;fill-opacity:1;stroke:#00ff00;stroke-width:1;stroke-linecap:square;stroke-linejoin:miter;stroke-miterlimit:10;stroke-dasharray:none;stroke-dashoffset:0;stroke-opacity:1;color-rendering:optimizeSpeed;image-rendering:optimizeSpeed;shape-rendering:crispEdges;text-rendering:optimizeSpeed"
       id="g1504">
      <path
         style="stroke:none"
         d="m 115.1667,551.5 -0.8932,-3.3333 -2.4402,-2.4402 -3.3333,-0.8932 -3.3333,0.8932 -2.4402,2.4402 -0.8932,3.3333 0.8932,3.3333 2.4402,2.4402 3.3333,0.8932 3.3333,-0.8932 2.4402,-2.4402 z"
         id="path1502" />
    </g>
    <g
       transform="matrix(0.17633869,0,0,0.17633869,-10.062394,-6.9572837)"
       style="font-style:normal;font-weight:normal;font-size:12px;font-family:Dialog;color-interpolation:linearRGB;fill:#000000;fill-opacity:1;stroke:#000000;stroke-width:1;stroke-linecap:butt;stroke-linejoin:round;stroke-miterlimit:10;stroke-dasharray:none;stroke-dashoffset:0;stroke-opacity:1;color-rendering:optimizeQuality;image-rendering:optimizeQuality;shape-rendering:auto;text-rendering:geometricPrecision"
       id="g1508">
      <path
         d="m 115.1667,551.5 -0.8932,-3.3333 -2.4402,-2.4402 -3.3333,-0.8932 -3.3333,0.8932 -2.4402,2.4402 -0.8932,3.3333 0.8932,3.3333 2.4402,2.4402 3.3333,0.8932 3.3333,-0.8932 2.4402,-2.4402 z"
         style="fill:none;fill-rule:evenodd"
         id="path1506" />
    </g>
    <g
       transform="matrix(0.17633869,0,0,0.17633869,8.9821858,90.381673)"
       style="font-style:normal;font-weight:normal;font-size:11px;font-family:mwa_cmmi10;color-interpolation:linearRGB;fill:#000000;fill-opacity:1;stroke:#000000;stroke-width:1;stroke-linecap:square;stroke-linejoin:miter;stroke-miterlimit:10;stroke-dasharray:none;stroke-dashoffset:0;stroke-opacity:1;color-rendering:optimizeQuality;image-rendering:optimizeQuality;shape-rendering:auto;text-rendering:geometricPrecision"
       id="g1512">
      <path
         style="stroke:none"
         d="m -2.9059,2.7943 q -0.0312,0 -0.0625,-0.0312 Q -2.9996,2.7318 -2.9996,2.7006 L -2.359,0.1225 Q -2.3434,0.06 -2.2653,0.06 h 0.125 q 0.0469,0 0.0703,0.0312 0.0235,0.0313 0.0235,0.0781 -0.0938,0.375 -0.0938,0.6719 0,0.7969 0.5469,1.1875 0.5469,0.3906 1.3906,0.3906 0.3594,0 0.7032,-0.1797 Q 0.8441,2.06 1.1097,1.7787 1.3754,1.4975 1.5316,1.1459 1.6879,0.7943 1.6879,0.435 1.6879,0.0443 1.4769,-0.2604 1.266,-0.565 0.9066,-0.6588 l -1.3437,-0.3437 q -0.5313,-0.1563 -0.8594,-0.5938 -0.3281,-0.4375 -0.3281,-0.9844 0,-0.6562 0.3984,-1.2656 0.3984,-0.6094 1.0234,-0.9766 0.625,-0.3671 1.2813,-0.3671 0.5156,0 0.9375,0.1796 0.4219,0.1797 0.6406,0.586 l 0.625,-0.7344 Q 3.3441,-5.19 3.3597,-5.19 h 0.0782 q 0.0312,0 0.0625,0.0312 0.0312,0.0313 0.0312,0.0781 L 2.891,-2.5338 q -0.0156,0.0781 -0.0938,0.0781 h -0.125 q -0.0937,0 -0.0937,-0.125 0.0469,-0.3437 0.0469,-0.5937 0,-0.5156 -0.1719,-0.8985 Q 2.2816,-4.4557 1.93,-4.651 1.5785,-4.8463 1.0472,-4.8463 q -0.4375,0 -0.875,0.2578 -0.4375,0.2578 -0.7031,0.6719 -0.2656,0.4141 -0.2656,0.8672 0,0.3594 0.2109,0.6328 0.211,0.2734 0.5547,0.3672 l 1.3281,0.3437 q 0.375,0.1094 0.6485,0.3516 0.2734,0.2422 0.4062,0.5781 0.1328,0.336 0.1328,0.7266 0,0.5312 -0.2187,1.039 Q 2.0472,1.4975 1.6566,1.9115 1.266,2.3256 0.766,2.56 q -0.5,0.2343 -1.0313,0.2343 -1.2968,0 -1.875,-0.7656 l -0.6093,0.7344 q -0.0625,0.0312 -0.0782,0.0312 z"
         id="path1510" />
    </g>
    <g
       transform="matrix(0.17633869,0,0,0.17633869,-10.062394,-6.9572837)"
       style="font-style:normal;font-weight:normal;font-size:12px;font-family:Dialog;color-interpolation:sRGB;fill:#00ff00;fill-opacity:1;stroke:#00ff00;stroke-width:1;stroke-linecap:square;stroke-linejoin:miter;stroke-miterlimit:10;stroke-dasharray:none;stroke-dashoffset:0;stroke-opacity:1;color-rendering:optimizeSpeed;image-rendering:optimizeSpeed;shape-rendering:crispEdges;text-rendering:optimizeSpeed"
       id="g1516">
      <path
         style="stroke:none"
         d="m 570.1667,197.5 -0.8932,-3.3333 -2.4402,-2.4402 -3.3333,-0.8932 -3.3333,0.8932 -2.4402,2.4402 -0.8932,3.3333 0.8932,3.3333 2.4402,2.4402 3.3333,0.8932 3.3333,-0.8932 2.4402,-2.4402 z"
         id="path1514" />
    </g>
    <g
       transform="matrix(0.17633869,0,0,0.17633869,-10.062394,-6.9572837)"
       style="font-style:normal;font-weight:normal;font-size:12px;font-family:Dialog;color-interpolation:linearRGB;fill:#000000;fill-opacity:1;stroke:#000000;stroke-width:1;stroke-linecap:butt;stroke-linejoin:round;stroke-miterlimit:10;stroke-dasharray:none;stroke-dashoffset:0;stroke-opacity:1;color-rendering:optimizeQuality;image-rendering:optimizeQuality;shape-rendering:auto;text-rendering:geometricPrecision"
       id="g1520">
      <path
         d="m 570.1667,197.5 -0.8932,-3.3333 -2.4402,-2.4402 -3.3333,-0.8932 -3.3333,0.8932 -2.4402,2.4402 -0.8932,3.3333 0.8932,3.3333 2.4402,2.4402 3.3333,0.8932 3.3333,-0.8932 2.4402,-2.4402 z"
         style="fill:none;fill-rule:evenodd"
         id="path1518" />
    </g>
    <g
       transform="matrix(0.17633869,0,0,0.17633869,89.286828,27.92251)"
       style="font-style:normal;font-weight:normal;font-size:11px;font-family:mwa_cmmi10;color-interpolation:linearRGB;fill:#000000;fill-opacity:1;stroke:#000000;stroke-width:1;stroke-linecap:square;stroke-linejoin:miter;stroke-miterlimit:10;stroke-dasharray:none;stroke-dashoffset:0;stroke-opacity:1;color-rendering:optimizeQuality;image-rendering:optimizeQuality;shape-rendering:auto;text-rendering:geometricPrecision"
       id="g1524">
      <path
         style="stroke:none"
         d="m -3.6548,2.56 q -0.1093,0 -0.1093,-0.1407 0,-0.0312 0.0234,-0.1015 0.0234,-0.0703 0.0469,-0.1094 0.0234,-0.0391 0.0703,-0.0391 0.6719,0 0.9375,-0.0781 0.1406,-0.0469 0.2031,-0.2812 l 1.5156,-6.0469 q 0.0157,-0.1094 0.0157,-0.1563 0,-0.1093 -0.125,-0.125 -0.2032,-0.0468 -0.7969,-0.0468 -0.1094,0 -0.1094,-0.1407 0.0156,-0.0312 0.0313,-0.1015 0.0156,-0.0703 0.039,-0.1094 0.0235,-0.0391 0.0703,-0.0391 h 5.8125 q 0.1094,0 0.1094,0.1407 L 3.814,-2.5338 q 0,0.0313 -0.0391,0.0625 Q 3.7359,-2.44 3.7046,-2.44 H 3.6109 q -0.1094,0 -0.1094,-0.1407 0.0625,-0.5 0.0625,-0.8125 0,-0.5468 -0.2344,-0.8047 -0.2344,-0.2578 -0.5937,-0.3125 -0.3594,-0.0546 -1,-0.0546 H 0.564 q -0.2969,0 -0.3984,0.0468 -0.1016,0.0469 -0.1797,0.3282 l -0.7032,2.7968 h 0.8282 q 0.4062,0 0.6562,-0.039 0.25,-0.0391 0.4219,-0.1641 0.1719,-0.125 0.2812,-0.3594 0.1094,-0.2343 0.2032,-0.625 0.0312,-0.0937 0.1093,-0.0937 h 0.0938 q 0.1094,0 0.1094,0.1406 L 1.314,0.185 Q 1.2671,0.2787 1.2046,0.2787 H 1.1109 q -0.1094,0 -0.1094,-0.1406 0.0312,-0.1094 0.0469,-0.1875 0.0156,-0.0781 0.039,-0.2188 0.0235,-0.1406 0.0235,-0.25 0,-0.3125 -0.2813,-0.3984 -0.2812,-0.0859 -0.7344,-0.0859 h -0.8906 l -0.7187,2.8437 q -0.0313,0.1094 -0.0313,0.1094 0,0.125 0.0781,0.1406 0.2813,0.0781 1.125,0.0781 0.1094,0 0.1094,0.1563 Q -0.2641,2.4662 -0.2876,2.5131 -0.311,2.56 -0.4204,2.56 Z"
         id="path1522" />
    </g>
    <g
       transform="matrix(0.17633869,0,0,0.17633869,-10.062394,-6.9572837)"
       style="font-style:normal;font-weight:normal;font-size:12px;font-family:Dialog;color-interpolation:sRGB;fill:#00ff00;fill-opacity:1;stroke:#00ff00;stroke-width:1;stroke-linecap:square;stroke-linejoin:miter;stroke-miterlimit:10;stroke-dasharray:none;stroke-dashoffset:0;stroke-opacity:1;color-rendering:optimizeSpeed;image-rendering:optimizeSpeed;shape-rendering:crispEdges;text-rendering:optimizeSpeed"
       id="g1528">
      <path
         style="stroke:none"
         d="m 115.1667,551.5 -0.8932,-3.3333 -2.4402,-2.4402 -3.3333,-0.8932 -3.3333,0.8932 -2.4402,2.4402 -0.8932,3.3333 0.8932,3.3333 2.4402,2.4402 3.3333,0.8932 3.3333,-0.8932 2.4402,-2.4402 z"
         id="path1526" />
    </g>
    <g
       transform="matrix(0.17633869,0,0,0.17633869,-10.062394,-6.9572837)"
       style="font-style:normal;font-weight:normal;font-size:12px;font-family:Dialog;color-interpolation:linearRGB;fill:#000000;fill-opacity:1;stroke:#000000;stroke-width:1;stroke-linecap:butt;stroke-linejoin:round;stroke-miterlimit:10;stroke-dasharray:none;stroke-dashoffset:0;stroke-opacity:1;color-rendering:optimizeQuality;image-rendering:optimizeQuality;shape-rendering:auto;text-rendering:geometricPrecision"
       id="g1532">
      <path
         d="m 115.1667,551.5 -0.8932,-3.3333 -2.4402,-2.4402 -3.3333,-0.8932 -3.3333,0.8932 -2.4402,2.4402 -0.8932,3.3333 0.8932,3.3333 2.4402,2.4402 3.3333,0.8932 3.3333,-0.8932 2.4402,-2.4402 z"
         style="fill:none;fill-rule:evenodd"
         id="path1530" />
    </g>
    <g
       transform="matrix(0.17633869,0,0,0.17633869,8.9821858,90.381673)"
       style="font-style:normal;font-weight:normal;font-size:11px;font-family:mwa_cmmi10;color-interpolation:linearRGB;fill:#000000;fill-opacity:1;stroke:#000000;stroke-width:1;stroke-linecap:square;stroke-linejoin:miter;stroke-miterlimit:10;stroke-dasharray:none;stroke-dashoffset:0;stroke-opacity:1;color-rendering:optimizeQuality;image-rendering:optimizeQuality;shape-rendering:auto;text-rendering:geometricPrecision"
       id="g1536">
      <path
         style="stroke:none"
         d="m -2.9059,2.7943 q -0.0312,0 -0.0625,-0.0312 Q -2.9996,2.7318 -2.9996,2.7006 L -2.359,0.1225 Q -2.3434,0.06 -2.2653,0.06 h 0.125 q 0.0469,0 0.0703,0.0312 0.0235,0.0313 0.0235,0.0781 -0.0938,0.375 -0.0938,0.6719 0,0.7969 0.5469,1.1875 0.5469,0.3906 1.3906,0.3906 0.3594,0 0.7032,-0.1797 Q 0.8441,2.06 1.1097,1.7787 1.3754,1.4975 1.5316,1.1459 1.6879,0.7943 1.6879,0.435 1.6879,0.0443 1.4769,-0.2604 1.266,-0.565 0.9066,-0.6588 l -1.3437,-0.3437 q -0.5313,-0.1563 -0.8594,-0.5938 -0.3281,-0.4375 -0.3281,-0.9844 0,-0.6562 0.3984,-1.2656 0.3984,-0.6094 1.0234,-0.9766 0.625,-0.3671 1.2813,-0.3671 0.5156,0 0.9375,0.1796 0.4219,0.1797 0.6406,0.586 l 0.625,-0.7344 Q 3.3441,-5.19 3.3597,-5.19 h 0.0782 q 0.0312,0 0.0625,0.0312 0.0312,0.0313 0.0312,0.0781 L 2.891,-2.5338 q -0.0156,0.0781 -0.0938,0.0781 h -0.125 q -0.0937,0 -0.0937,-0.125 0.0469,-0.3437 0.0469,-0.5937 0,-0.5156 -0.1719,-0.8985 Q 2.2816,-4.4557 1.93,-4.651 1.5785,-4.8463 1.0472,-4.8463 q -0.4375,0 -0.875,0.2578 -0.4375,0.2578 -0.7031,0.6719 -0.2656,0.4141 -0.2656,0.8672 0,0.3594 0.2109,0.6328 0.211,0.2734 0.5547,0.3672 l 1.3281,0.3437 q 0.375,0.1094 0.6485,0.3516 0.2734,0.2422 0.4062,0.5781 0.1328,0.336 0.1328,0.7266 0,0.5312 -0.2187,1.039 Q 2.0472,1.4975 1.6566,1.9115 1.266,2.3256 0.766,2.56 q -0.5,0.2343 -1.0313,0.2343 -1.2968,0 -1.875,-0.7656 l -0.6093,0.7344 q -0.0625,0.0312 -0.0782,0.0312 z"
         id="path1534" />
    </g>
    <g
       transform="matrix(0.17633869,0,0,0.17633869,-10.062394,-6.9572837)"
       style="font-style:normal;font-weight:normal;font-size:12px;font-family:Dialog;color-interpolation:sRGB;fill:#00ff00;fill-opacity:1;stroke:#00ff00;stroke-width:1;stroke-linecap:square;stroke-linejoin:miter;stroke-miterlimit:10;stroke-dasharray:none;stroke-dashoffset:0;stroke-opacity:1;color-rendering:optimizeSpeed;image-rendering:optimizeSpeed;shape-rendering:crispEdges;text-rendering:optimizeSpeed"
       id="g1540">
      <path
         style="stroke:none"
         d="m 570.1667,197.5 -0.8932,-3.3333 -2.4402,-2.4402 -3.3333,-0.8932 -3.3333,0.8932 -2.4402,2.4402 -0.8932,3.3333 0.8932,3.3333 2.4402,2.4402 3.3333,0.8932 3.3333,-0.8932 2.4402,-2.4402 z"
         id="path1538" />
    </g>
    <g
       transform="matrix(0.17633869,0,0,0.17633869,-10.062394,-6.9572837)"
       style="font-style:normal;font-weight:normal;font-size:12px;font-family:Dialog;color-interpolation:linearRGB;fill:#000000;fill-opacity:1;stroke:#000000;stroke-width:1;stroke-linecap:butt;stroke-linejoin:round;stroke-miterlimit:10;stroke-dasharray:none;stroke-dashoffset:0;stroke-opacity:1;color-rendering:optimizeQuality;image-rendering:optimizeQuality;shape-rendering:auto;text-rendering:geometricPrecision"
       id="g1544">
      <path
         d="m 570.1667,197.5 -0.8932,-3.3333 -2.4402,-2.4402 -3.3333,-0.8932 -3.3333,0.8932 -2.4402,2.4402 -0.8932,3.3333 0.8932,3.3333 2.4402,2.4402 3.3333,0.8932 3.3333,-0.8932 2.4402,-2.4402 z"
         style="fill:none;fill-rule:evenodd"
         id="path1542" />
    </g>
    <g
       transform="matrix(0.17633869,0,0,0.17633869,89.273056,27.991406)"
       style="font-style:normal;font-weight:normal;font-size:11px;font-family:mwa_cmmi10;color-interpolation:linearRGB;fill:#000000;fill-opacity:1;stroke:#000000;stroke-width:1;stroke-linecap:square;stroke-linejoin:miter;stroke-miterlimit:10;stroke-dasharray:none;stroke-dashoffset:0;stroke-opacity:1;color-rendering:optimizeQuality;image-rendering:optimizeQuality;shape-rendering:auto;text-rendering:geometricPrecision"
       id="g1548">
      <path
         style="stroke:none"
         d="m -3.6548,2.56 q -0.1093,0 -0.1093,-0.1407 0,-0.0312 0.0234,-0.1015 0.0234,-0.0703 0.0469,-0.1094 0.0234,-0.0391 0.0703,-0.0391 0.6719,0 0.9375,-0.0781 0.1406,-0.0469 0.2031,-0.2812 l 1.5156,-6.0469 q 0.0157,-0.1094 0.0157,-0.1563 0,-0.1093 -0.125,-0.125 -0.2032,-0.0468 -0.7969,-0.0468 -0.1094,0 -0.1094,-0.1407 0.0156,-0.0312 0.0313,-0.1015 0.0156,-0.0703 0.039,-0.1094 0.0235,-0.0391 0.0703,-0.0391 h 5.8125 q 0.1094,0 0.1094,0.1407 L 3.814,-2.5338 q 0,0.0313 -0.0391,0.0625 Q 3.7359,-2.44 3.7046,-2.44 H 3.6109 q -0.1094,0 -0.1094,-0.1407 0.0625,-0.5 0.0625,-0.8125 0,-0.5468 -0.2344,-0.8047 -0.2344,-0.2578 -0.5937,-0.3125 -0.3594,-0.0546 -1,-0.0546 H 0.564 q -0.2969,0 -0.3984,0.0468 -0.1016,0.0469 -0.1797,0.3282 l -0.7032,2.7968 h 0.8282 q 0.4062,0 0.6562,-0.039 0.25,-0.0391 0.4219,-0.1641 0.1719,-0.125 0.2812,-0.3594 0.1094,-0.2343 0.2032,-0.625 0.0312,-0.0937 0.1093,-0.0937 h 0.0938 q 0.1094,0 0.1094,0.1406 L 1.314,0.185 Q 1.2671,0.2787 1.2046,0.2787 H 1.1109 q -0.1094,0 -0.1094,-0.1406 0.0312,-0.1094 0.0469,-0.1875 0.0156,-0.0781 0.039,-0.2188 0.0235,-0.1406 0.0235,-0.25 0,-0.3125 -0.2813,-0.3984 -0.2812,-0.0859 -0.7344,-0.0859 h -0.8906 l -0.7187,2.8437 q -0.0313,0.1094 -0.0313,0.1094 0,0.125 0.0781,0.1406 0.2813,0.0781 1.125,0.0781 0.1094,0 0.1094,0.1563 Q -0.2641,2.4662 -0.2876,2.5131 -0.311,2.56 -0.4204,2.56 Z"
         id="path1546" />
    </g>
  </g>
</svg>
