<?xml version="1.0" encoding="UTF-8" standalone="no"?>
<svg
   xmlns:ns15="http://www.iki.fi/pav/software/textext/"
   xmlns:dc="http://purl.org/dc/elements/1.1/"
   xmlns:cc="http://creativecommons.org/ns#"
   xmlns:rdf="http://www.w3.org/1999/02/22-rdf-syntax-ns#"
   xmlns:svg="http://www.w3.org/2000/svg"
   xmlns="http://www.w3.org/2000/svg"
   xmlns:xlink="http://www.w3.org/1999/xlink"
   xmlns:sodipodi="http://sodipodi.sourceforge.net/DTD/sodipodi-0.dtd"
   xmlns:inkscape="http://www.inkscape.org/namespaces/inkscape"
   sodipodi:docname="roboAnthroArm.svg"
   inkscape:version="1.0 (4035a4fb49, 2020-05-01)"
   id="svg2559"
   version="1.1"
   viewBox="0 0 100 89"
   height="89mm"
   width="100mm">
  <defs
     id="defs2553">
    <marker
       inkscape:isstock="true"
       style="overflow:visible"
       id="marker3791"
       refX="0"
       refY="0"
       orient="auto"
       inkscape:stockid="Arrow1Mstart">
      <path
         transform="matrix(0.4,0,0,0.4,4,0)"
         style="fill:#000000;fill-opacity:1;fill-rule:evenodd;stroke:#000000;stroke-width:1pt;stroke-opacity:1"
         d="M 0,0 5,-5 -12.5,0 5,5 Z"
         id="path3789" />
    </marker>
    <marker
       inkscape:collect="always"
       inkscape:stockid="Arrow1Mstart"
       orient="auto"
       refY="0"
       refX="0"
       id="marker3739"
       style="overflow:visible"
       inkscape:isstock="true">
      <path
         id="path3737"
         d="M 0,0 5,-5 -12.5,0 5,5 Z"
         style="fill:#000000;fill-opacity:1;fill-rule:evenodd;stroke:#000000;stroke-width:1pt;stroke-opacity:1"
         transform="matrix(0.4,0,0,0.4,4,0)" />
    </marker>
    <marker
       inkscape:collect="always"
       inkscape:isstock="true"
       style="overflow:visible"
       id="marker3699"
       refX="0"
       refY="0"
       orient="auto"
       inkscape:stockid="Arrow1Mstart">
      <path
         transform="matrix(0.4,0,0,0.4,4,0)"
         style="fill:#000000;fill-opacity:1;fill-rule:evenodd;stroke:#000000;stroke-width:1pt;stroke-opacity:1"
         d="M 0,0 5,-5 -12.5,0 5,5 Z"
         id="path3697" />
    </marker>
    <marker
       inkscape:collect="always"
       inkscape:stockid="Arrow1Mstart"
       orient="auto"
       refY="0"
       refX="0"
       id="marker3436"
       style="overflow:visible"
       inkscape:isstock="true">
      <path
         id="path3434"
         d="M 0,0 5,-5 -12.5,0 5,5 Z"
         style="fill:#000000;fill-opacity:1;fill-rule:evenodd;stroke:#000000;stroke-width:1pt;stroke-opacity:1"
         transform="matrix(0.4,0,0,0.4,4,0)" />
    </marker>
    <marker
       inkscape:collect="always"
       inkscape:isstock="true"
       style="overflow:visible"
       id="Arrow1Mstart"
       refX="0"
       refY="0"
       orient="auto"
       inkscape:stockid="Arrow1Mstart">
      <path
         transform="matrix(0.4,0,0,0.4,4,0)"
         style="fill:#000000;fill-opacity:1;fill-rule:evenodd;stroke:#000000;stroke-width:1pt;stroke-opacity:1"
         d="M 0,0 5,-5 -12.5,0 5,5 Z"
         id="path849" />
    </marker>
    <radialGradient
       gradientUnits="userSpaceOnUse"
       r="1.9999996"
       fy="90.798058"
       fx="10.889302"
       cy="90.798058"
       cx="10.889302"
       id="radialGradient1364-6"
       xlink:href="#linearGradient1362"
       inkscape:collect="always"
       gradientTransform="matrix(1.1223203,0,0,1.1223203,23.024994,-35.569678)" />
    <linearGradient
       inkscape:collect="always"
       id="linearGradient1362">
      <stop
         style="stop-color:#060023;stop-opacity:1;"
         offset="0"
         id="stop1358" />
      <stop
         style="stop-color:#060023;stop-opacity:0;"
         offset="1"
         id="stop1360" />
    </linearGradient>
    <marker
       inkscape:isstock="true"
       style="overflow:visible"
       id="marker3436-8"
       refX="0"
       refY="0"
       orient="auto"
       inkscape:stockid="Arrow1Mstart">
      <path
         transform="matrix(0.4,0,0,0.4,4,0)"
         style="fill:#000000;fill-opacity:1;fill-rule:evenodd;stroke:#000000;stroke-width:1pt;stroke-opacity:1"
         d="M 0,0 5,-5 -12.5,0 5,5 Z"
         id="path3434-4" />
    </marker>
    <defs
       id="id-108452ab-9993-4057-ad04-19e1743c0ec5">
      <g
         id="id-9661a42e-4456-47a1-beee-865b97bf777b">
        <symbol
           overflow="visible"
           id="id-1ac090f4-9ec9-4a0a-8a69-3892303c4b54">
          <path
             style="stroke:none"
             d=""
             id="id-681c5dd4-8dc6-4ae4-9aa6-610fedf922ea" />
        </symbol>
        <symbol
           overflow="visible"
           id="id-a9e312c6-17dd-40c0-9b9c-05cdd2a108f5">
          <path
             style="stroke:none"
             d="M 3.71875,-3.765625 C 3.53125,-4.140625 3.25,-4.40625 2.796875,-4.40625 c -1.15625,0 -2.390625,1.46875 -2.390625,2.921875 0,0.9375 0.546875,1.59375 1.3125,1.59375 0.203125,0 0.703125,-0.046875 1.296875,-0.75 0.078125,0.421875 0.4375,0.75 0.90625,0.75 0.359375,0 0.578125,-0.234375 0.75,-0.546875 0.15625,-0.359375 0.296875,-0.96875 0.296875,-0.984375 0,-0.109375 -0.09375,-0.109375 -0.125,-0.109375 -0.09375,0 -0.109375,0.046875 -0.140625,0.1875 -0.171875,0.640625 -0.34375,1.234375 -0.75,1.234375 -0.28125,0 -0.296875,-0.265625 -0.296875,-0.453125 0,-0.21875 0.015625,-0.3125 0.125,-0.75 C 3.890625,-1.71875 3.90625,-1.828125 4,-2.203125 L 4.359375,-3.59375 c 0.0625,-0.28125 0.0625,-0.296875 0.0625,-0.34375 0,-0.171875 -0.109375,-0.265625 -0.28125,-0.265625 -0.25,0 -0.390625,0.21875 -0.421875,0.4375 z M 3.078125,-1.1875 C 3.015625,-1 3.015625,-0.984375 2.875,-0.8125 2.4375,-0.265625 2.03125,-0.109375 1.75,-0.109375 c -0.5,0 -0.640625,-0.546875 -0.640625,-0.9375 0,-0.5 0.3125,-1.71875 0.546875,-2.1875 0.3125,-0.578125 0.75,-0.953125 1.15625,-0.953125 0.640625,0 0.78125,0.8125 0.78125,0.875 0,0.0625 -0.015625,0.125 -0.03125,0.171875 z m 0,0"
             id="id-0edcbc89-3d55-4f10-9da4-f32b45414daa" />
        </symbol>
        <symbol
           overflow="visible"
           id="id-b0cacf7b-aa39-4bd0-bc54-5222e023108f">
          <path
             style="stroke:none"
             d="m 1.328125,-0.828125 c 0.53125,-0.578125 0.828125,-0.828125 1.1875,-1.140625 0,0 0.609375,-0.53125 0.96875,-0.890625 C 4.4375,-3.78125 4.65625,-4.265625 4.65625,-4.3125 c 0,-0.09375 -0.09375,-0.09375 -0.109375,-0.09375 -0.078125,0 -0.09375,0.015625 -0.15625,0.109375 -0.296875,0.484375 -0.5,0.640625 -0.734375,0.640625 -0.25,0 -0.359375,-0.15625 -0.515625,-0.328125 -0.1875,-0.21875 -0.359375,-0.421875 -0.6875,-0.421875 -0.75,0 -1.203125,0.921875 -1.203125,1.140625 0,0.046875 0.03125,0.109375 0.109375,0.109375 0.09375,0 0.109375,-0.046875 0.140625,-0.109375 0.1875,-0.46875 0.765625,-0.46875 0.84375,-0.46875 0.203125,0 0.390625,0.0625 0.625,0.140625 0.40625,0.15625 0.515625,0.15625 0.765625,0.15625 -0.359375,0.421875 -1.1875,1.140625 -1.375,1.296875 l -0.90625,0.84375 C 0.78125,-0.625 0.421875,-0.0625 0.421875,0.015625 c 0,0.09375 0.109375,0.09375 0.125,0.09375 0.078125,0 0.09375,-0.015625 0.15625,-0.125 0.234375,-0.359375 0.53125,-0.625 0.859375,-0.625 0.21875,0 0.328125,0.09375 0.578125,0.375 0.15625,0.21875 0.34375,0.375 0.625,0.375 1,0 1.578125,-1.265625 1.578125,-1.53125 0,-0.046875 -0.046875,-0.109375 -0.125,-0.109375 -0.09375,0 -0.109375,0.0625 -0.140625,0.140625 C 3.84375,-0.75 3.203125,-0.5625 2.875,-0.5625 c -0.1875,0 -0.375,-0.0625 -0.578125,-0.125 -0.34375,-0.125 -0.5,-0.171875 -0.703125,-0.171875 -0.015625,0 -0.171875,0 -0.265625,0.03125 z m 0,0"
             id="id-18052ca5-e1e0-4ae0-b556-930b59c08318" />
        </symbol>
        <symbol
           overflow="visible"
           id="id-3b8162d8-7fea-4397-8c2b-b04e458a8ffc">
          <path
             style="stroke:none"
             d=""
             id="id-63ec1713-54d9-421e-82c0-601f28bd04d2" />
        </symbol>
        <symbol
           overflow="visible"
           id="id-e79a357a-0922-46f1-a486-b2b34c7f1d79">
          <path
             style="stroke:none"
             d="M 3.515625,-1.265625 H 3.28125 c -0.015625,0.15625 -0.09375,0.5625 -0.1875,0.625 C 3.046875,-0.59375 2.515625,-0.59375 2.40625,-0.59375 H 1.125 c 0.734375,-0.640625 0.984375,-0.84375 1.390625,-1.171875 0.515625,-0.40625 1,-0.84375 1,-1.5 0,-0.84375 -0.734375,-1.359375 -1.625,-1.359375 -0.859375,0 -1.453125,0.609375 -1.453125,1.25 0,0.34375 0.296875,0.390625 0.375,0.390625 0.15625,0 0.359375,-0.125 0.359375,-0.375 0,-0.125 -0.046875,-0.375 -0.40625,-0.375 C 0.984375,-4.21875 1.453125,-4.375 1.78125,-4.375 c 0.703125,0 1.0625,0.546875 1.0625,1.109375 0,0.609375 -0.4375,1.078125 -0.65625,1.328125 L 0.515625,-0.265625 C 0.4375,-0.203125 0.4375,-0.1875 0.4375,0 h 2.875 z m 0,0"
             id="id-2262577c-001e-4012-aef7-68110cc932b7" />
        </symbol>
        <symbol
           overflow="visible"
           id="id-a33e6742-3b28-4c57-b792-ed393733dc02">
          <path
             style="stroke:none"
             d="m 2.328125,-4.4375 c 0,-0.1875 0,-0.1875 -0.203125,-0.1875 -0.453125,0.4375 -1.078125,0.4375 -1.359375,0.4375 v 0.25 c 0.15625,0 0.625,0 1,-0.1875 v 3.546875 c 0,0.234375 0,0.328125 -0.6875,0.328125 H 0.8125 V 0 c 0.125,0 0.984375,-0.03125 1.234375,-0.03125 0.21875,0 1.09375,0.03125 1.25,0.03125 V -0.25 H 3.03125 c -0.703125,0 -0.703125,-0.09375 -0.703125,-0.328125 z m 0,0"
             id="id-60282aca-0382-44dc-9608-65e0d2daf5cf" />
        </symbol>
        <symbol
           overflow="visible"
           id="id-e872f2db-2831-447d-b877-c0cddf702373">
          <path
             style="stroke:none"
             d="m 1.90625,-2.328125 c 0.546875,0 0.9375,0.375 0.9375,1.125 0,0.859375 -0.515625,1.125 -0.90625,1.125 -0.28125,0 -0.90625,-0.078125 -1.1875,-0.5 0.328125,0 0.40625,-0.234375 0.40625,-0.390625 0,-0.21875 -0.171875,-0.375 -0.390625,-0.375 -0.1875,0 -0.390625,0.125 -0.390625,0.40625 0,0.65625 0.71875,1.078125 1.5625,1.078125 0.96875,0 1.640625,-0.65625 1.640625,-1.34375 0,-0.546875 -0.4375,-1.09375 -1.203125,-1.25 0.71875,-0.265625 0.984375,-0.78125 0.984375,-1.21875 0,-0.546875 -0.625,-0.953125 -1.40625,-0.953125 -0.765625,0 -1.359375,0.375 -1.359375,0.9375 0,0.234375 0.15625,0.359375 0.359375,0.359375 0.21875,0 0.359375,-0.15625 0.359375,-0.34375 0,-0.203125 -0.140625,-0.359375 -0.359375,-0.375 0.25,-0.296875 0.71875,-0.375 0.984375,-0.375 0.3125,0 0.75,0.15625 0.75,0.75 0,0.296875 -0.09375,0.625 -0.28125,0.828125 -0.21875,0.265625 -0.421875,0.28125 -0.765625,0.3125 -0.171875,0.015625 -0.1875,0.015625 -0.21875,0.015625 -0.015625,0 -0.078125,0.015625 -0.078125,0.09375 0,0.09375 0.0625,0.09375 0.1875,0.09375 z m 0,0"
             id="id-001fa934-48b9-4597-8fa9-ce06d11b3a41" />
        </symbol>
      </g>
    </defs>
    <g
       id="id-d8f93f9e-6baf-4a46-8746-833b248af7af">
      <symbol
         overflow="visible"
         id="id-6b6cd6dd-1e0c-4b01-bb9e-4ba33d87b0a7">
        <path
           style="stroke:none"
           d=""
           id="id-b0370aa5-5f48-4289-87f4-eab461978690" />
      </symbol>
      <symbol
         overflow="visible"
         id="id-949b4ef7-28ab-4bb0-9626-734423d58549">
        <path
           style="stroke:none"
           d="m 4.53125,-4.984375 c 0,-0.65625 -0.171875,-2.046875 -1.1875,-2.046875 -1.390625,0 -2.921875,2.8125 -2.921875,5.09375 0,0.9375 0.28125,2.046875 1.1875,2.046875 1.40625,0 2.921875,-2.859375 2.921875,-5.09375 z M 1.46875,-3.625 C 1.640625,-4.25 1.84375,-5.046875 2.25,-5.765625 2.515625,-6.25 2.875,-6.8125 3.328125,-6.8125 c 0.484375,0 0.546875,0.640625 0.546875,1.203125 0,0.5 -0.078125,1 -0.3125,1.984375 z m 2,0.328125 C 3.359375,-2.84375 3.15625,-2 2.765625,-1.28125 c -0.34375,0.6875 -0.71875,1.171875 -1.15625,1.171875 -0.328125,0 -0.53125,-0.296875 -0.53125,-1.21875 0,-0.421875 0.0625,-1 0.3125,-1.96875 z m 0,0"
           id="id-8cac428f-7df8-45c7-a1ff-1c66919fe18b" />
      </symbol>
      <symbol
         overflow="visible"
         id="id-c2958c39-6a5f-4f20-bac5-47399137eb97">
        <path
           style="stroke:none"
           d="m 5.140625,-6.8125 c 0,0 0,-0.109375 -0.125,-0.109375 -0.15625,0 -1.09375,0.09375 -1.265625,0.109375 -0.078125,0.015625 -0.140625,0.0625 -0.140625,0.1875 0,0.125 0.09375,0.125 0.234375,0.125 0.484375,0 0.5,0.0625 0.5,0.171875 L 4.3125,-6.125 3.71875,-3.765625 C 3.53125,-4.140625 3.25,-4.40625 2.796875,-4.40625 c -1.15625,0 -2.390625,1.46875 -2.390625,2.921875 0,0.9375 0.546875,1.59375 1.3125,1.59375 0.203125,0 0.703125,-0.046875 1.296875,-0.75 0.078125,0.421875 0.4375,0.75 0.90625,0.75 0.359375,0 0.578125,-0.234375 0.75,-0.546875 0.15625,-0.359375 0.296875,-0.96875 0.296875,-0.984375 0,-0.109375 -0.09375,-0.109375 -0.125,-0.109375 -0.09375,0 -0.109375,0.046875 -0.140625,0.1875 -0.171875,0.640625 -0.34375,1.234375 -0.75,1.234375 -0.28125,0 -0.296875,-0.265625 -0.296875,-0.453125 0,-0.25 0.015625,-0.3125 0.046875,-0.484375 z m -2.0625,5.625 C 3.015625,-1 3.015625,-0.984375 2.875,-0.8125 2.4375,-0.265625 2.03125,-0.109375 1.75,-0.109375 c -0.5,0 -0.640625,-0.546875 -0.640625,-0.9375 0,-0.5 0.3125,-1.71875 0.546875,-2.1875 0.3125,-0.578125 0.75,-0.953125 1.15625,-0.953125 0.640625,0 0.78125,0.8125 0.78125,0.875 0,0.0625 -0.015625,0.125 -0.03125,0.171875 z m 0,0"
           id="id-827a2b19-7563-4826-9492-25e88a443cbc" />
      </symbol>
      <symbol
         overflow="visible"
         id="id-397d1338-049f-4184-ab0e-0b194db1780e">
        <path
           style="stroke:none"
           d=""
           id="id-4ac33aee-ec63-462e-be69-125a6473c490" />
      </symbol>
      <symbol
         overflow="visible"
         id="id-5b8848ed-1306-4d9d-8a92-af127660c6b0">
        <path
           style="stroke:none"
           d="m 3.6875,-1.140625 v -0.25 H 2.90625 V -4.5 c 0,-0.140625 0,-0.203125 -0.140625,-0.203125 -0.09375,0 -0.125,0 -0.1875,0.109375 l -2.3125,3.203125 v 0.25 h 2.0625 v 0.5625 c 0,0.25 0,0.328125 -0.578125,0.328125 H 1.5625 V 0 C 1.921875,-0.015625 2.359375,-0.03125 2.609375,-0.03125 2.875,-0.03125 3.3125,-0.015625 3.671875,0 v -0.25 h -0.1875 C 2.90625,-0.25 2.90625,-0.328125 2.90625,-0.578125 v -0.5625 z M 2.375,-3.9375 v 2.546875 H 0.53125 Z m 0,0"
           id="id-1f75f5f4-ad9b-4cc4-b557-74403061751c" />
      </symbol>
      <symbol
         overflow="visible"
         id="id-0352bd1e-271f-43ab-8d98-e624fa0a44e0">
        <path
           style="stroke:none"
           d="m 1.078125,-3.890625 c 0.359375,0.09375 0.5625,0.09375 0.671875,0.09375 0.921875,0 1.46875,-0.625 1.46875,-0.734375 0,-0.078125 -0.046875,-0.09375 -0.078125,-0.09375 -0.015625,0 -0.03125,0 -0.0625,0.015625 -0.171875,0.0625 -0.53125,0.203125 -1.046875,0.203125 -0.203125,0 -0.5625,-0.015625 -1.015625,-0.1875 C 0.9375,-4.625 0.921875,-4.625 0.921875,-4.625 c -0.09375,0 -0.09375,0.078125 -0.09375,0.1875 v 2.046875 c 0,0.125 0,0.203125 0.109375,0.203125 0.0625,0 0.078125,0 0.140625,-0.09375 0.296875,-0.375 0.734375,-0.4375 0.96875,-0.4375 0.421875,0 0.609375,0.328125 0.640625,0.390625 0.125,0.234375 0.171875,0.5 0.171875,0.90625 0,0.203125 0,0.609375 -0.21875,0.921875 -0.171875,0.25 -0.46875,0.421875 -0.8125,0.421875 -0.453125,0 -0.921875,-0.25 -1.09375,-0.71875 0.265625,0.015625 0.40625,-0.15625 0.40625,-0.34375 0,-0.296875 -0.265625,-0.34375 -0.359375,-0.34375 0,0 -0.34375,0 -0.34375,0.375 0,0.625 0.578125,1.25 1.40625,1.25 0.890625,0 1.671875,-0.65625 1.671875,-1.546875 0,-0.78125 -0.59375,-1.5 -1.453125,-1.5 -0.3125,0 -0.671875,0.0625 -0.984375,0.328125 z m 0,0"
           id="id-0cd12685-14e2-48da-b33c-646d2148e464" />
      </symbol>
      <symbol
         overflow="visible"
         id="id-0fd645e7-6e3a-49f6-9a18-221ff2b36d0d">
        <path
           style="stroke:none"
           d="m 1.046875,-2.28125 c 0,-0.5625 0.046875,-1.078125 0.3125,-1.515625 0.234375,-0.375 0.609375,-0.625 1.0625,-0.625 0.203125,0 0.484375,0.046875 0.625,0.234375 C 2.875,-4.171875 2.71875,-4.046875 2.71875,-3.84375 c 0,0.171875 0.125,0.328125 0.328125,0.328125 0.21875,0 0.34375,-0.140625 0.34375,-0.34375 0,-0.40625 -0.296875,-0.765625 -0.984375,-0.765625 -1,0 -2.03125,0.921875 -2.03125,2.421875 0,1.796875 0.84375,2.34375 1.625,2.34375 0.84375,0 1.578125,-0.65625 1.578125,-1.5625 0,-0.890625 -0.703125,-1.546875 -1.515625,-1.546875 -0.5625,0 -0.859375,0.375 -1.015625,0.6875 z M 2,-0.078125 c -0.359375,0 -0.625,-0.203125 -0.78125,-0.515625 C 1.125,-0.796875 1.0625,-1.15625 1.0625,-1.5625 c 0,-0.6875 0.40625,-1.203125 0.96875,-1.203125 0.3125,0 0.53125,0.125 0.703125,0.375 0.171875,0.265625 0.171875,0.5625 0.171875,0.96875 0,0.390625 0,0.6875 -0.1875,0.96875 -0.15625,0.234375 -0.390625,0.375 -0.71875,0.375 z m 0,0"
           id="id-02467a72-c715-4d3d-8620-7d6f0fa30e79" />
      </symbol>
    </g>
  </defs>
  <sodipodi:namedview
     inkscape:window-maximized="1"
     inkscape:window-y="-8"
     inkscape:window-x="-8"
     inkscape:window-height="837"
     inkscape:window-width="1600"
     inkscape:pagecheckerboard="true"
     showgrid="false"
     inkscape:document-rotation="0"
     inkscape:current-layer="layer1"
     inkscape:document-units="mm"
     inkscape:cy="179.39916"
     inkscape:cx="102.89573"
     inkscape:zoom="1.4"
     inkscape:pageshadow="2"
     inkscape:pageopacity="0.0"
     borderopacity="1.0"
     bordercolor="#666666"
     pagecolor="#ffffff"
     id="base" />
  <metadata
     id="metadata2556">
    <rdf:RDF>
      <cc:Work
         rdf:about="">
        <dc:format>image/svg+xml</dc:format>
        <dc:type
           rdf:resource="http://purl.org/dc/dcmitype/StillImage" />
        <dc:title></dc:title>
      </cc:Work>
    </rdf:RDF>
  </metadata>
  <g
     id="layer1"
     inkscape:groupmode="layer"
     inkscape:label="Layer 1">
    <ellipse
       cx="35.418312"
       cy="42.065102"
       rx="3.3177974"
       ry="1.6800541"
       id="path2573"
       style="fill:none;stroke:#050503;stroke-width:0.37349;stroke-miterlimit:4;stroke-dasharray:none;stroke-opacity:1" />
    <path
       sodipodi:nodetypes="cccc"
       id="path3136"
       d="m 32.100517,41.912489 -0.03056,13.32388 c 2.130491,1.78534 4.501537,1.83392 6.63161,-0.08161 l 0.0061,-13.304987"
       style="fill:none;fill-rule:evenodd;stroke:#000000;stroke-width:0.372902px;stroke-linecap:butt;stroke-linejoin:miter;stroke-opacity:1" />
    <ellipse
       transform="rotate(-105)"
       style="fill:none;stroke:#050503;stroke-width:0.37349;stroke-miterlimit:4;stroke-dasharray:none;stroke-opacity:1"
       id="path2573-7"
       ry="1.6800542"
       rx="3.3177977"
       cy="20.765434"
       cx="-35.487309" />
    <path
       style="fill:none;fill-rule:evenodd;stroke:#000000;stroke-width:0.372901px;stroke-linecap:butt;stroke-linejoin:miter;stroke-opacity:1"
       d="m 29.953953,32.147866 12.877788,-3.418957 c 1.173093,-2.519977 0.606347,-4.822804 -1.795224,-6.384519 l -12.853201,3.437716"
       id="path3136-4"
       sodipodi:nodetypes="cccc" />
    <ellipse
       cx="-40.012897"
       cy="53.443214"
       rx="3.3177981"
       ry="1.6800543"
       id="path2573-7-8"
       style="fill:none;stroke:#050503;stroke-width:0.37349;stroke-miterlimit:4;stroke-dasharray:none;stroke-opacity:1"
       transform="rotate(-105)" />
    <path
       sodipodi:nodetypes="cccc"
       id="path3136-4-8"
       d="M 62.689571,28.061618 75.56736,24.642662 c 1.173093,-2.519976 0.606347,-4.822804 -1.795225,-6.38452 l -12.853202,3.437716"
       style="fill:none;fill-rule:evenodd;stroke:#000000;stroke-width:0.372901px;stroke-linecap:butt;stroke-linejoin:miter;stroke-opacity:1" />
    <path
       id="path3174"
       d="M 35.220704,56.537769 V 66.741081"
       style="fill:none;fill-rule:evenodd;stroke:#000000;stroke-width:1.21416;stroke-linecap:butt;stroke-linejoin:miter;stroke-miterlimit:4;stroke-dasharray:none;stroke-opacity:1" />
    <path
       id="path3176"
       d="M 35.475786,42.170761 V 30.673546"
       style="fill:none;fill-rule:evenodd;stroke:#000000;stroke-width:1.32233;stroke-linecap:butt;stroke-linejoin:miter;stroke-miterlimit:4;stroke-dasharray:none;stroke-opacity:1" />
    <path
       id="path3180"
       d="M 88.783576,66.596466 H 34.326569"
       style="fill:none;fill-rule:evenodd;stroke:#000000;stroke-width:0.286316px;stroke-linecap:butt;stroke-linejoin:miter;stroke-opacity:1;marker-start:url(#marker3739)" />
    <path
       id="path3182"
       d="M 6.1336141,86.706466 34.70842,66.510918"
       style="fill:none;fill-rule:evenodd;stroke:#000000;stroke-width:0.286316px;stroke-linecap:butt;stroke-linejoin:miter;stroke-opacity:1;marker-start:url(#marker3699)" />
    <path
       id="path3184"
       d="M 35.565714,2.8216147 V 24.295359"
       style="fill:none;fill-rule:evenodd;stroke:#000000;stroke-width:0.286;stroke-linecap:butt;stroke-linejoin:miter;stroke-miterlimit:4;stroke-dasharray:none;stroke-opacity:1;marker-start:url(#marker3791)" />
    <g
       style="fill:#000000;fill-opacity:1"
       id="id-8d5228b2-1f92-4d23-992f-90c4b46f0e2a"
       transform="matrix(0.65582654,0,0,0.65582654,-73.86271,-77.6125)">
      <g
         id="g1523"
         transform="matrix(0.73461901,0,0,0.73461901,252.50913,137.33776)">
        <path
           style="stroke:none"
           d="M 3.015625,-3.15625 H 4.71875 c 1.40625,0 2.796875,-1.03125 2.796875,-2.140625 0,-0.78125 -0.65625,-1.515625 -1.96875,-1.515625 h -3.21875 c -0.1875,0 -0.296875,0 -0.296875,0.1875 0,0.125 0.078125,0.125 0.28125,0.125 0.125,0 0.3125,0.015625 0.421875,0.015625 0.171875,0.03125 0.21875,0.046875 0.21875,0.171875 0,0.03125 0,0.0625 -0.03125,0.1875 l -1.34375,5.34375 c -0.09375,0.390625 -0.109375,0.46875 -0.90625,0.46875 -0.15625,0 -0.265625,0 -0.265625,0.1875 C 0.40625,0 0.515625,0 0.546875,0 0.828125,0 1.53125,-0.03125 1.8125,-0.03125 c 0.21875,0 0.4375,0.015625 0.640625,0.015625 0.21875,0 0.4375,0.015625 0.640625,0.015625 0.078125,0 0.203125,0 0.203125,-0.203125 0,-0.109375 -0.09375,-0.109375 -0.28125,-0.109375 -0.359375,0 -0.640625,0 -0.640625,-0.171875 0,-0.0625 0.015625,-0.109375 0.03125,-0.171875 z M 3.734375,-6.125 C 3.828125,-6.46875 3.84375,-6.5 4.28125,-6.5 h 0.953125 c 0.828125,0 1.359375,0.265625 1.359375,0.953125 0,0.390625 -0.203125,1.25 -0.59375,1.609375 -0.5,0.453125 -1.09375,0.53125 -1.53125,0.53125 H 3.0625 Z m 0,0"
           id="id-1af865e7-c2ab-4a90-88c0-80ee8685d2a3" />
      </g>
    </g>
    <path
       style="fill:none;fill-rule:evenodd;stroke:#000000;stroke-width:0.52188;stroke-linecap:butt;stroke-linejoin:miter;stroke-miterlimit:4;stroke-dasharray:none;stroke-opacity:1"
       d="m 90.149253,9.9942457 -2.584025,1.4485913 2.920952,5.28421 2.461916,-1.45386"
       id="path1412"
       sodipodi:nodetypes="cccc" />
    <path
       sodipodi:nodetypes="cc"
       id="path3315"
       d="m 40.349029,58.240655 c -2.997039,1.295969 -5.911563,3.004514 -9.822153,-0.267269"
       style="fill:none;fill-rule:evenodd;stroke:#000000;stroke-width:0.264583;stroke-linecap:butt;stroke-linejoin:miter;stroke-miterlimit:4;stroke-dasharray:0.264583, 0.264583;stroke-dashoffset:0;stroke-opacity:1;marker-start:url(#Arrow1Mstart)" />
    <ellipse
       ry="1.7103029"
       rx="1.7103028"
       cy="66.334824"
       cx="35.246281"
       id="path1269-9"
       style="fill:#999999;stroke:url(#radialGradient1364-6);stroke-width:1.06868;stroke-miterlimit:4;stroke-dasharray:none;stroke-opacity:1" />
    <path
       id="path3376"
       d="m 28.669431,25.86336 c -0.223904,0.02199 -0.472908,0.07366 -0.616953,0.263615 -0.341352,0.398441 -0.425294,0.94615 -0.454991,1.453245 -0.03742,1.121182 0.256956,2.25425 0.83511,3.215627 0.282266,0.446481 0.632394,0.896474 1.135311,1.101664 0.322432,0.141118 0.716034,0.0091 0.913845,-0.275035 0.341381,-0.4671 0.408069,-1.071282 0.412324,-1.633664 -0.01651,-1.080103 -0.324824,-2.16081 -0.901219,-3.075982 -0.289242,-0.436743 -0.660162,-0.873387 -1.177462,-1.033778 -0.04771,-0.01159 -0.09689,-0.01688 -0.145965,-0.01569 z"
       style="fill:#999999;stroke:#050503;stroke-width:0.0167043;stroke-miterlimit:4;stroke-dasharray:0.0167043, 0.0167043;stroke-dashoffset:0;stroke-opacity:1" />
    <path
       id="path3378"
       d="m 34.722619,40.605258 c -0.727811,0.09409 -1.486713,0.281858 -2.060874,0.763151 -0.294471,0.239471 -0.495938,0.672221 -0.29059,1.030528 0.315537,0.546237 0.9432,0.800753 1.521987,0.968227 0.635233,0.183486 1.300824,0.212849 1.95743,0.172228 0.742323,-0.03504 1.496607,-0.221372 2.127088,-0.624713 0.27862,-0.194443 0.591521,-0.477563 0.547145,-0.852054 0.03419,-0.275331 -0.136466,-0.507241 -0.335391,-0.675714 -0.560636,-0.489649 -1.314577,-0.685422 -2.035773,-0.774962 -0.05079,0.44346 -0.01363,0.897102 -0.02543,1.344372 0.05012,0.199736 -0.05284,0.24639 -0.236236,0.212611 -0.354137,0 -0.708274,0 -1.06241,0 -0.0042,-0.523608 -0.0083,-1.047216 -0.01246,-1.570826 -0.0315,0.0024 -0.063,0.0048 -0.09449,0.0071 z"
       style="fill:#999999;stroke:#050503;stroke-width:0.0236235;stroke-miterlimit:4;stroke-dasharray:0.0236235, 0.0236235;stroke-dashoffset:0;stroke-opacity:1" />
    <path
       id="path3380"
       d="m 61.539508,21.794999 c -0.155363,-0.0582 -0.31313,0.01489 -0.464648,0.04966 -0.207101,0.05112 -0.339754,0.241202 -0.443805,0.413805 -0.261526,0.485421 -0.311467,1.052837 -0.300339,1.595175 0.03613,0.994786 0.318872,1.983583 0.82774,2.840086 0.264091,0.427249 0.590507,0.846902 1.049428,1.075397 0.259373,0.131532 0.596886,0.137449 0.830205,-0.0524 0.315551,-0.246762 0.438303,-0.649675 0.521878,-1.024747 0.130654,-0.68601 0.06573,-1.396644 -0.09097,-2.072748 -0.19522,-0.801134 -0.522565,-1.588613 -1.061339,-2.221341 -0.234037,-0.264614 -0.517664,-0.514231 -0.868153,-0.60289 z"
       style="fill:#b3b3b3;stroke:#050503;stroke-width:0.0118117;stroke-miterlimit:4;stroke-dasharray:0.0118117, 0.0118117;stroke-dashoffset:0;stroke-opacity:1" />
    <path
       id="path3392"
       d="m 32.274868,46.37995 c -0.0085,2.922749 -0.01704,5.845498 -0.02558,8.768247 0.800793,0.651015 1.762318,1.156263 2.805417,1.238829 0.646967,0.05146 1.303816,-0.0618 1.900584,-0.316187 0.574754,-0.239171 1.099338,-0.588542 1.564653,-1.000226 0.0038,-4.04405 0.0076,-8.088101 0.01146,-12.132151 -0.6252,0.587939 -1.484252,0.829164 -2.31484,0.940713 -0.504616,0.05693 -1.016267,0.05062 -1.521907,0.0097 -0.755147,-0.09622 -1.528474,-0.291629 -2.149901,-0.750488 -0.09229,-0.06947 -0.174834,-0.150481 -0.259765,-0.228478 -0.0034,1.156669 -0.0067,2.313334 -0.01011,3.470003 z"
       style="fill:#e6e6e6;stroke:#050503;stroke-width:0.0167043;stroke-miterlimit:4;stroke-dasharray:0.0167043, 0.0167043;stroke-dashoffset:0;stroke-opacity:1" />
    <path
       id="path3398"
       d="M 29.056918,28.867931 16.772693,32.269716"
       style="fill:none;fill-rule:evenodd;stroke:#000000;stroke-width:0.264583;stroke-linecap:butt;stroke-linejoin:miter;stroke-miterlimit:4;stroke-dasharray:0.264583, 0.793749;stroke-dashoffset:0;stroke-opacity:1" />
    <path
       id="path3400"
       d="m 39.353663,22.982741 c -3.34608,0.898067 -6.695048,1.78712 -10.0398,2.689039 0.09037,0.105558 0.232908,0.168871 0.330793,0.273013 0.660233,0.582113 1.060897,1.400305 1.322872,2.227485 0.270192,0.903346 0.393234,1.878097 0.18652,2.80757 -0.05101,0.255564 -0.168261,0.489577 -0.266713,0.727747 3.937712,-1.036407 7.874722,-2.089033 11.81232,-3.131084 0.2822,-0.620961 0.473964,-1.289635 0.525309,-1.971088 0.03989,-0.584382 -0.03307,-1.177324 -0.242969,-1.725731 -0.360596,-0.983306 -1.119286,-1.771007 -1.982952,-2.337856 -0.54846,0.146968 -1.09692,0.293936 -1.64538,0.440905 z"
       style="fill:#e6e6e6;stroke:#050503;stroke-width:0.0167043;stroke-miterlimit:4;stroke-dasharray:0.0167043, 0.0501129;stroke-dashoffset:0;stroke-opacity:1" />
    <path
       sodipodi:nodetypes="cc"
       style="fill:none;fill-rule:evenodd;stroke:#000000;stroke-width:0.264583;stroke-linecap:butt;stroke-linejoin:miter;stroke-miterlimit:4;stroke-dasharray:0.264583, 0.79375;stroke-dashoffset:0;stroke-opacity:1"
       d="M 51.384603,22.733238 43.14283,25.099354"
       id="path3398-5" />
    <path
       style="fill:none;fill-rule:evenodd;stroke:#000000;stroke-width:1.214;stroke-linecap:butt;stroke-linejoin:miter;stroke-miterlimit:4;stroke-dasharray:none;stroke-opacity:1"
       d="M 37.147549,26.894223 60.46087,25.367701"
       id="path3178" />
    <path
       sodipodi:nodetypes="cc"
       id="path3432"
       d="M 23.172375,34.220599 C 20.782782,33.091213 18.285917,30.544128 21.756438,27.087857"
       style="fill:none;fill-rule:evenodd;stroke:#000000;stroke-width:0.264583;stroke-linecap:butt;stroke-linejoin:miter;stroke-miterlimit:4;stroke-dasharray:0.264583, 0.264583;stroke-dashoffset:0;stroke-opacity:1;marker-start:url(#marker3436)" />
    <path
       id="path3494"
       d="m 68.697574,19.803023 c -2.194719,0.591836 -4.394468,1.165466 -6.58608,1.768533 -0.151797,0.01177 0.01953,0.0887 0.06397,0.125921 0.776528,0.583684 1.237752,1.484603 1.524505,2.393325 0.291404,0.97545 0.424789,2.045092 0.126545,3.035324 -0.04224,0.171609 -0.153556,0.331139 -0.197662,0.493004 2.396387,-0.621647 4.791347,-1.268762 7.186975,-1.900997 1.541425,-0.409245 3.082851,-0.818489 4.624273,-1.227736 0.454618,-1.03052 0.705192,-2.209903 0.399709,-3.318594 -0.217696,-0.853589 -0.741902,-1.601277 -1.402231,-2.173965 -0.21895,-0.19907 -0.453175,-0.381088 -0.701138,-0.542647 -1.679622,0.449278 -3.359245,0.898554 -5.038866,1.347832 z"
       style="fill:#e6e6e6;stroke:#050503;stroke-width:0.0236235;stroke-miterlimit:4;stroke-dasharray:0.0236235, 0.0236235;stroke-dashoffset:0;stroke-opacity:1" />
    <path
       style="fill:none;fill-rule:evenodd;stroke:#000000;stroke-width:1.44967;stroke-linecap:butt;stroke-linejoin:miter;stroke-miterlimit:4;stroke-dasharray:none;stroke-opacity:1"
       d="M 69.5559,22.905061 89.140713,13.982009"
       id="path2565" />
    <path
       sodipodi:nodetypes="cc"
       style="fill:none;fill-rule:evenodd;stroke:#000000;stroke-width:0.264583;stroke-linecap:butt;stroke-linejoin:miter;stroke-miterlimit:4;stroke-dasharray:0.264583, 0.79375;stroke-dashoffset:0;stroke-opacity:1"
       d="M 62.020022,24.658996 45.081965,29.903415"
       id="path3398-52" />
    <path
       id="path3398-52-4"
       d="M 87.879464,17.481399 75.595239,20.883185"
       style="fill:none;fill-rule:evenodd;stroke:#000000;stroke-width:0.264583;stroke-linecap:butt;stroke-linejoin:miter;stroke-miterlimit:4;stroke-dasharray:0.264583, 0.79375;stroke-dashoffset:0;stroke-opacity:1" />
    <path
       style="fill:none;fill-rule:evenodd;stroke:#000000;stroke-width:0.264583;stroke-linecap:butt;stroke-linejoin:miter;stroke-miterlimit:4;stroke-dasharray:0.264583, 0.264583;stroke-dashoffset:0;stroke-opacity:1;marker-start:url(#marker3436-8)"
       d="M 51.751723,31.731762 C 49.36213,30.602376 46.865265,28.055291 50.335786,24.59902"
       id="path3432-7"
       sodipodi:nodetypes="cc" />
    <g
       style="fill:#000000;fill-opacity:1"
       id="id-79cc0bd1-fbea-4cd0-bdad-33aaeb25d624"
       transform="matrix(0.65582654,0,0,0.65582654,-148.29721,-4.3031112)">
      <g
         id="g1515"
         transform="translate(231.732,134.765)">
        <path
           style="stroke:none"
           d="M 3.328125,-3.015625 C 3.390625,-3.265625 3.625,-4.1875 4.3125,-4.1875 c 0.046875,0 0.296875,0 0.5,0.125 C 4.53125,-4 4.34375,-3.765625 4.34375,-3.515625 c 0,0.15625 0.109375,0.34375 0.375,0.34375 0.21875,0 0.53125,-0.171875 0.53125,-0.578125 0,-0.515625 -0.578125,-0.65625 -0.921875,-0.65625 -0.578125,0 -0.921875,0.53125 -1.046875,0.75 -0.25,-0.65625 -0.78125,-0.75 -1.078125,-0.75 -1.03125,0 -1.609375,1.28125 -1.609375,1.53125 0,0.109375 0.109375,0.109375 0.125,0.109375 0.078125,0 0.109375,-0.03125 0.125,-0.109375 0.34375,-1.0625 1,-1.3125 1.34375,-1.3125 0.1875,0 0.53125,0.09375 0.53125,0.671875 0,0.3125 -0.171875,0.96875 -0.53125,2.375 -0.15625,0.609375 -0.515625,1.03125 -0.953125,1.03125 -0.0625,0 -0.28125,0 -0.5,-0.125 0.25,-0.0625 0.46875,-0.265625 0.46875,-0.546875 0,-0.265625 -0.21875,-0.34375 -0.359375,-0.34375 -0.3125,0 -0.546875,0.25 -0.546875,0.578125 0,0.453125 0.484375,0.65625 0.921875,0.65625 0.671875,0 1.03125,-0.703125 1.046875,-0.75 0.125,0.359375 0.484375,0.75 1.078125,0.75 1.03125,0 1.59375,-1.28125 1.59375,-1.53125 0,-0.109375 -0.078125,-0.109375 -0.109375,-0.109375 -0.09375,0 -0.109375,0.046875 -0.140625,0.109375 -0.328125,1.078125 -1,1.3125 -1.3125,1.3125 -0.390625,0 -0.546875,-0.3125 -0.546875,-0.65625 0,-0.21875 0.046875,-0.4375 0.15625,-0.875 z m 0,0"
           id="id-300dd6ac-95a8-446c-ba19-03976323e36f" />
      </g>
    </g>
    <g
       style="fill:#000000;fill-opacity:1"
       id="id-41aed6a6-d401-4a9c-a2e5-868e859474e9"
       transform="matrix(0.65582654,0,0,0.65582654,-72.340195,-25.098518)">
      <g
         id="g1519"
         transform="translate(240.743,134.765)">
        <path
           style="stroke:none"
           d="m 4.84375,-3.796875 c 0.046875,-0.140625 0.046875,-0.15625 0.046875,-0.234375 0,-0.171875 -0.140625,-0.265625 -0.296875,-0.265625 -0.09375,0 -0.25,0.0625 -0.34375,0.203125 -0.015625,0.0625 -0.109375,0.359375 -0.140625,0.546875 -0.078125,0.25 -0.140625,0.53125 -0.203125,0.796875 l -0.453125,1.796875 c -0.03125,0.140625 -0.46875,0.84375 -1.125,0.84375 -0.5,0 -0.609375,-0.4375 -0.609375,-0.8125 C 1.71875,-1.375 1.890625,-2 2.21875,-2.875 2.375,-3.28125 2.421875,-3.390625 2.421875,-3.59375 c 0,-0.4375 -0.3125,-0.8125 -0.8125,-0.8125 -0.953125,0 -1.3125,1.453125 -1.3125,1.53125 0,0.109375 0.09375,0.109375 0.109375,0.109375 0.109375,0 0.109375,-0.03125 0.15625,-0.1875 0.28125,-0.9375 0.671875,-1.234375 1.015625,-1.234375 0.078125,0 0.25,0 0.25,0.3125 0,0.25 -0.109375,0.515625 -0.171875,0.703125 -0.40625,1.0625 -0.578125,1.625 -0.578125,2.09375 0,0.890625 0.625,1.1875 1.21875,1.1875 0.390625,0 0.71875,-0.171875 1,-0.453125 -0.125,0.515625 -0.25,1.015625 -0.640625,1.546875 -0.265625,0.328125 -0.640625,0.625 -1.09375,0.625 -0.140625,0 -0.59375,-0.03125 -0.765625,-0.421875 0.15625,0 0.296875,0 0.421875,-0.125 C 1.328125,1.203125 1.421875,1.0625 1.421875,0.875 1.421875,0.5625 1.15625,0.53125 1.0625,0.53125 0.828125,0.53125 0.5,0.6875 0.5,1.171875 c 0,0.5 0.4375,0.875 1.0625,0.875 1.015625,0 2.046875,-0.90625 2.328125,-2.03125 z m 0,0"
           id="id-1435873c-6d19-457b-b107-3226457a8ff1" />
      </g>
    </g>
    <g
       transform="matrix(1.403132,0,0,1.403132,-10.113061,-52.7998)"
       id="g4085">
      <g
         style="fill:#000000;fill-opacity:1"
         id="id-85a0f09e-e154-4382-a5e8-4486be25bbf0"
         transform="matrix(0.352778,0,0,0.352778,-7.3610288,6.2279537)">
        <g
           id="g3949"
           transform="translate(148.712,134.765)">
          <path
             style="stroke:none"
             d="M 3.71875,-3.765625 C 3.53125,-4.140625 3.25,-4.40625 2.796875,-4.40625 c -1.15625,0 -2.390625,1.46875 -2.390625,2.921875 0,0.9375 0.546875,1.59375 1.3125,1.59375 0.203125,0 0.703125,-0.046875 1.296875,-0.75 0.078125,0.421875 0.4375,0.75 0.90625,0.75 0.359375,0 0.578125,-0.234375 0.75,-0.546875 0.15625,-0.359375 0.296875,-0.96875 0.296875,-0.984375 0,-0.109375 -0.09375,-0.109375 -0.125,-0.109375 -0.09375,0 -0.109375,0.046875 -0.140625,0.1875 -0.171875,0.640625 -0.34375,1.234375 -0.75,1.234375 -0.28125,0 -0.296875,-0.265625 -0.296875,-0.453125 0,-0.21875 0.015625,-0.3125 0.125,-0.75 C 3.890625,-1.71875 3.90625,-1.828125 4,-2.203125 L 4.359375,-3.59375 c 0.0625,-0.28125 0.0625,-0.296875 0.0625,-0.34375 0,-0.171875 -0.109375,-0.265625 -0.28125,-0.265625 -0.25,0 -0.390625,0.21875 -0.421875,0.4375 z M 3.078125,-1.1875 C 3.015625,-1 3.015625,-0.984375 2.875,-0.8125 2.4375,-0.265625 2.03125,-0.109375 1.75,-0.109375 c -0.5,0 -0.640625,-0.546875 -0.640625,-0.9375 0,-0.5 0.3125,-1.71875 0.546875,-2.1875 0.3125,-0.578125 0.75,-0.953125 1.15625,-0.953125 0.640625,0 0.78125,0.8125 0.78125,0.875 0,0.0625 -0.015625,0.125 -0.03125,0.171875 z m 0,0"
             id="id-80818806-4ada-48fe-9a20-c6e5e762ab71" />
        </g>
      </g>
      <g
         style="fill:#000000;fill-opacity:1"
         id="id-1245792f-696c-4b6f-9779-8071d47111b7"
         transform="matrix(0.352778,0,0,0.352778,-7.3610288,6.2279537)">
        <g
           id="g3953"
           transform="translate(153.978,136.259)">
          <path
             style="stroke:none"
             d="M 3.515625,-1.265625 H 3.28125 c -0.015625,0.15625 -0.09375,0.5625 -0.1875,0.625 C 3.046875,-0.59375 2.515625,-0.59375 2.40625,-0.59375 H 1.125 c 0.734375,-0.640625 0.984375,-0.84375 1.390625,-1.171875 0.515625,-0.40625 1,-0.84375 1,-1.5 0,-0.84375 -0.734375,-1.359375 -1.625,-1.359375 -0.859375,0 -1.453125,0.609375 -1.453125,1.25 0,0.34375 0.296875,0.390625 0.375,0.390625 0.15625,0 0.359375,-0.125 0.359375,-0.375 0,-0.125 -0.046875,-0.375 -0.40625,-0.375 C 0.984375,-4.21875 1.453125,-4.375 1.78125,-4.375 c 0.703125,0 1.0625,0.546875 1.0625,1.109375 0,0.609375 -0.4375,1.078125 -0.65625,1.328125 L 0.515625,-0.265625 C 0.4375,-0.203125 0.4375,-0.1875 0.4375,0 h 2.875 z m 0,0"
             id="id-f463cdab-d8b0-428e-8d38-f1a3194c7cab" />
        </g>
      </g>
    </g>
    <g
       transform="matrix(1.403132,0,0,1.403132,1.9821772,-61.20977)"
       id="g4101">
      <g
         style="fill:#000000;fill-opacity:1"
         id="id-06b185c3-26ff-446f-a8b8-0a2078ae7c79"
         transform="matrix(0.352778,0,0,0.352778,-7.3610288,6.2279537)">
        <g
           id="g3965"
           transform="translate(174.825,134.765)">
          <path
             style="stroke:none"
             d="M 3.71875,-3.765625 C 3.53125,-4.140625 3.25,-4.40625 2.796875,-4.40625 c -1.15625,0 -2.390625,1.46875 -2.390625,2.921875 0,0.9375 0.546875,1.59375 1.3125,1.59375 0.203125,0 0.703125,-0.046875 1.296875,-0.75 0.078125,0.421875 0.4375,0.75 0.90625,0.75 0.359375,0 0.578125,-0.234375 0.75,-0.546875 0.15625,-0.359375 0.296875,-0.96875 0.296875,-0.984375 0,-0.109375 -0.09375,-0.109375 -0.125,-0.109375 -0.09375,0 -0.109375,0.046875 -0.140625,0.1875 -0.171875,0.640625 -0.34375,1.234375 -0.75,1.234375 -0.28125,0 -0.296875,-0.265625 -0.296875,-0.453125 0,-0.21875 0.015625,-0.3125 0.125,-0.75 C 3.890625,-1.71875 3.90625,-1.828125 4,-2.203125 L 4.359375,-3.59375 c 0.0625,-0.28125 0.0625,-0.296875 0.0625,-0.34375 0,-0.171875 -0.109375,-0.265625 -0.28125,-0.265625 -0.25,0 -0.390625,0.21875 -0.421875,0.4375 z M 3.078125,-1.1875 C 3.015625,-1 3.015625,-0.984375 2.875,-0.8125 2.4375,-0.265625 2.03125,-0.109375 1.75,-0.109375 c -0.5,0 -0.640625,-0.546875 -0.640625,-0.9375 0,-0.5 0.3125,-1.71875 0.546875,-2.1875 0.3125,-0.578125 0.75,-0.953125 1.15625,-0.953125 0.640625,0 0.78125,0.8125 0.78125,0.875 0,0.0625 -0.015625,0.125 -0.03125,0.171875 z m 0,0"
             id="id-209db16e-f627-4ca2-ad20-b61673169f70" />
        </g>
      </g>
      <g
         style="fill:#000000;fill-opacity:1"
         id="id-820c30d6-12a4-4366-aa13-c60d41dbd4b1"
         transform="matrix(0.352778,0,0,0.352778,-7.3610288,6.2279537)">
        <g
           id="g3969"
           transform="translate(180.091,136.259)">
          <path
             style="stroke:none"
             d="m 1.90625,-2.328125 c 0.546875,0 0.9375,0.375 0.9375,1.125 0,0.859375 -0.515625,1.125 -0.90625,1.125 -0.28125,0 -0.90625,-0.078125 -1.1875,-0.5 0.328125,0 0.40625,-0.234375 0.40625,-0.390625 0,-0.21875 -0.171875,-0.375 -0.390625,-0.375 -0.1875,0 -0.390625,0.125 -0.390625,0.40625 0,0.65625 0.71875,1.078125 1.5625,1.078125 0.96875,0 1.640625,-0.65625 1.640625,-1.34375 0,-0.546875 -0.4375,-1.09375 -1.203125,-1.25 0.71875,-0.265625 0.984375,-0.78125 0.984375,-1.21875 0,-0.546875 -0.625,-0.953125 -1.40625,-0.953125 -0.765625,0 -1.359375,0.375 -1.359375,0.9375 0,0.234375 0.15625,0.359375 0.359375,0.359375 0.21875,0 0.359375,-0.15625 0.359375,-0.34375 0,-0.203125 -0.140625,-0.359375 -0.359375,-0.375 0.25,-0.296875 0.71875,-0.375 0.984375,-0.375 0.3125,0 0.75,0.15625 0.75,0.75 0,0.296875 -0.09375,0.625 -0.28125,0.828125 -0.21875,0.265625 -0.421875,0.28125 -0.765625,0.3125 -0.171875,0.015625 -0.1875,0.015625 -0.21875,0.015625 -0.015625,0 -0.078125,0.015625 -0.078125,0.09375 0,0.09375 0.0625,0.09375 0.1875,0.09375 z m 0,0"
             id="id-389e06e6-a7fe-4b9c-bc45-cc96923bf8ed" />
        </g>
      </g>
    </g>
    <g
       style="fill:#000000;fill-opacity:1"
       id="id-3e5a33a5-67b7-484c-a51e-519ce9c0c14e"
       transform="matrix(0.73223252,0,0,0.73223252,-106.70204,-93.057169)">
      <g
         id="g3973"
         transform="translate(187.881,134.765)">
        <path
           style="stroke:none"
           d="m 1.328125,-0.828125 c 0.53125,-0.578125 0.828125,-0.828125 1.1875,-1.140625 0,0 0.609375,-0.53125 0.96875,-0.890625 C 4.4375,-3.78125 4.65625,-4.265625 4.65625,-4.3125 c 0,-0.09375 -0.09375,-0.09375 -0.109375,-0.09375 -0.078125,0 -0.09375,0.015625 -0.15625,0.109375 -0.296875,0.484375 -0.5,0.640625 -0.734375,0.640625 -0.25,0 -0.359375,-0.15625 -0.515625,-0.328125 -0.1875,-0.21875 -0.359375,-0.421875 -0.6875,-0.421875 -0.75,0 -1.203125,0.921875 -1.203125,1.140625 0,0.046875 0.03125,0.109375 0.109375,0.109375 0.09375,0 0.109375,-0.046875 0.140625,-0.109375 0.1875,-0.46875 0.765625,-0.46875 0.84375,-0.46875 0.203125,0 0.390625,0.0625 0.625,0.140625 0.40625,0.15625 0.515625,0.15625 0.765625,0.15625 -0.359375,0.421875 -1.1875,1.140625 -1.375,1.296875 l -0.90625,0.84375 C 0.78125,-0.625 0.421875,-0.0625 0.421875,0.015625 c 0,0.09375 0.109375,0.09375 0.125,0.09375 0.078125,0 0.09375,-0.015625 0.15625,-0.125 0.234375,-0.359375 0.53125,-0.625 0.859375,-0.625 0.21875,0 0.328125,0.09375 0.578125,0.375 0.15625,0.21875 0.34375,0.375 0.625,0.375 1,0 1.578125,-1.265625 1.578125,-1.53125 0,-0.046875 -0.046875,-0.109375 -0.125,-0.109375 -0.09375,0 -0.109375,0.0625 -0.140625,0.140625 C 3.84375,-0.75 3.203125,-0.5625 2.875,-0.5625 c -0.1875,0 -0.375,-0.0625 -0.578125,-0.125 -0.34375,-0.125 -0.5,-0.171875 -0.703125,-0.171875 -0.015625,0 -0.171875,0 -0.265625,0.03125 z m 0,0"
           id="id-aa997fbe-2e9e-4211-9f70-1bf7b31a4fc8" />
      </g>
    </g>
    <g
       id="g1747"
       transform="matrix(1.3829915,0,0,1.3829915,-11.969051,-9.7686047)">
      <g
         transform="matrix(0.352778,0,0,0.352778,-29.581558,2.2450549)"
         id="id-4816854a-d374-4686-ad41-69754eb0ca92"
         style="fill:#000000;fill-opacity:1">
        <g
           transform="translate(193.377,134.765)"
           id="g1491">
          <path
             id="id-85e46436-cdf4-43e7-a14e-d707e2a60904"
             d="m 4.53125,-4.984375 c 0,-0.65625 -0.171875,-2.046875 -1.1875,-2.046875 -1.390625,0 -2.921875,2.8125 -2.921875,5.09375 0,0.9375 0.28125,2.046875 1.1875,2.046875 1.40625,0 2.921875,-2.859375 2.921875,-5.09375 z M 1.46875,-3.625 C 1.640625,-4.25 1.84375,-5.046875 2.25,-5.765625 2.515625,-6.25 2.875,-6.8125 3.328125,-6.8125 c 0.484375,0 0.546875,0.640625 0.546875,1.203125 0,0.5 -0.078125,1 -0.3125,1.984375 z m 2,0.328125 C 3.359375,-2.84375 3.15625,-2 2.765625,-1.28125 c -0.34375,0.6875 -0.71875,1.171875 -1.15625,1.171875 -0.328125,0 -0.53125,-0.296875 -0.53125,-1.21875 0,-0.421875 0.0625,-1 0.3125,-1.96875 z m 0,0"
             style="stroke:none" />
        </g>
      </g>
      <g
         transform="matrix(0.352778,0,0,0.352778,-29.581558,2.2450549)"
         id="id-1c82f547-cd81-4895-8962-60a53d43d8a7"
         style="fill:#000000;fill-opacity:1">
        <g
           transform="translate(198.054,136.259)"
           id="g1495">
          <path
             id="id-dcef35b8-8d76-45e9-9b9d-5cdac44b66aa"
             d="m 2.328125,-4.4375 c 0,-0.1875 0,-0.1875 -0.203125,-0.1875 -0.453125,0.4375 -1.078125,0.4375 -1.359375,0.4375 v 0.25 c 0.15625,0 0.625,0 1,-0.1875 v 3.546875 c 0,0.234375 0,0.328125 -0.6875,0.328125 H 0.8125 V 0 c 0.125,0 0.984375,-0.03125 1.234375,-0.03125 0.21875,0 1.09375,0.03125 1.25,0.03125 V -0.25 H 3.03125 c -0.703125,0 -0.703125,-0.09375 -0.703125,-0.328125 z m 0,0"
             style="stroke:none" />
        </g>
      </g>
    </g>
    <g
       id="g1755"
       transform="matrix(1.2948353,0,0,1.2948353,-29.66374,-68.616136)">
      <g
         id="g1771"
         transform="translate(-1.6135364,30.818546)">
        <g
           style="fill:#000000;fill-opacity:1"
           id="id-37bcf680-9d7b-4347-88ec-05bf93e5fa9b"
           transform="matrix(0.352778,0,0,0.352778,-29.581558,2.2450549)">
          <g
             id="g1499"
             transform="translate(205.844,134.765)">
            <path
               style="stroke:none"
               d="m 4.53125,-4.984375 c 0,-0.65625 -0.171875,-2.046875 -1.1875,-2.046875 -1.390625,0 -2.921875,2.8125 -2.921875,5.09375 0,0.9375 0.28125,2.046875 1.1875,2.046875 1.40625,0 2.921875,-2.859375 2.921875,-5.09375 z M 1.46875,-3.625 C 1.640625,-4.25 1.84375,-5.046875 2.25,-5.765625 2.515625,-6.25 2.875,-6.8125 3.328125,-6.8125 c 0.484375,0 0.546875,0.640625 0.546875,1.203125 0,0.5 -0.078125,1 -0.3125,1.984375 z m 2,0.328125 C 3.359375,-2.84375 3.15625,-2 2.765625,-1.28125 c -0.34375,0.6875 -0.71875,1.171875 -1.15625,1.171875 -0.328125,0 -0.53125,-0.296875 -0.53125,-1.21875 0,-0.421875 0.0625,-1 0.3125,-1.96875 z m 0,0"
               id="id-02a7aabe-9f57-4f37-a32b-f8152955d671" />
          </g>
        </g>
        <g
           style="fill:#000000;fill-opacity:1"
           id="id-25675b14-f3c1-4e80-99ac-a252913c816b"
           transform="matrix(0.352778,0,0,0.352778,-29.581558,2.2450549)">
          <g
             id="g1503"
             transform="translate(210.521,136.259)">
            <path
               style="stroke:none"
               d="M 3.515625,-1.265625 H 3.28125 c -0.015625,0.15625 -0.09375,0.5625 -0.1875,0.625 C 3.046875,-0.59375 2.515625,-0.59375 2.40625,-0.59375 H 1.125 c 0.734375,-0.640625 0.984375,-0.84375 1.390625,-1.171875 0.515625,-0.40625 1,-0.84375 1,-1.5 0,-0.84375 -0.734375,-1.359375 -1.625,-1.359375 -0.859375,0 -1.453125,0.609375 -1.453125,1.25 0,0.34375 0.296875,0.390625 0.375,0.390625 0.15625,0 0.359375,-0.125 0.359375,-0.375 0,-0.125 -0.046875,-0.375 -0.40625,-0.375 C 0.984375,-4.21875 1.453125,-4.375 1.78125,-4.375 c 0.703125,0 1.0625,0.546875 1.0625,1.109375 0,0.609375 -0.4375,1.078125 -0.65625,1.328125 L 0.515625,-0.265625 C 0.4375,-0.203125 0.4375,-0.1875 0.4375,0 h 2.875 z m 0,0"
               id="id-352325a6-3685-4a00-99d4-0948fefc813d" />
          </g>
        </g>
      </g>
    </g>
    <g
       transform="matrix(0.48957486,0,0,0.48957486,53.252944,31.186053)"
       ns15:version="1.0.1"
       ns15:texconverter="pdflatex"
       ns15:pdfconverter="inkscape"
       ns15:text="$\\theta_3$"
       ns15:preamble="C:\\Users\\pc\\AppData\\Roaming\\inkscape\\extensions\\textext\\default_packages.tex"
       ns15:scale="1.0"
       ns15:alignment="middle center"
       ns15:jacobian_sqrt="0.352778"
       id="g4411">
      <defs
         id="id-a2d83924-8f00-46fd-8fa6-28d4c4bd367f">
        <g
           id="id-e035ae9d-7b5d-4cd6-9808-8de9f5515bd8">
          <symbol
             id="id-bce920d9-8c6c-45a3-a59c-9e5a40c4ec45"
             overflow="visible">
            <path
               id="id-397dda10-a90a-43ef-955f-8e96c7b3ae3b"
               d=""
               style="stroke:none" />
          </symbol>
          <symbol
             id="id-36a27e91-2ab8-4fea-b89f-d48ab205271e"
             overflow="visible">
            <path
               id="id-a150997a-a95a-459d-8f5a-a5bbaacb2514"
               d="m 4.53125,-4.984375 c 0,-0.65625 -0.171875,-2.046875 -1.1875,-2.046875 -1.390625,0 -2.921875,2.8125 -2.921875,5.09375 0,0.9375 0.28125,2.046875 1.1875,2.046875 1.40625,0 2.921875,-2.859375 2.921875,-5.09375 z M 1.46875,-3.625 C 1.640625,-4.25 1.84375,-5.046875 2.25,-5.765625 2.515625,-6.25 2.875,-6.8125 3.328125,-6.8125 c 0.484375,0 0.546875,0.640625 0.546875,1.203125 0,0.5 -0.078125,1 -0.3125,1.984375 z m 2,0.328125 C 3.359375,-2.84375 3.15625,-2 2.765625,-1.28125 c -0.34375,0.6875 -0.71875,1.171875 -1.15625,1.171875 -0.328125,0 -0.53125,-0.296875 -0.53125,-1.21875 0,-0.421875 0.0625,-1 0.3125,-1.96875 z m 0,0"
               style="stroke:none" />
          </symbol>
          <symbol
             id="id-e52d75dc-3621-4c37-bbf4-8c5c9899042e"
             overflow="visible">
            <path
               id="id-d45c1bce-e382-4bbe-8c51-2cb5ea4f2d39"
               d=""
               style="stroke:none" />
          </symbol>
          <symbol
             id="id-098517a3-ffcf-4faa-be64-8376a5fb726b"
             overflow="visible">
            <path
               id="id-a472d4ba-6076-4ca4-98fd-916fdd116be9"
               d="m 1.90625,-2.328125 c 0.546875,0 0.9375,0.375 0.9375,1.125 0,0.859375 -0.515625,1.125 -0.90625,1.125 -0.28125,0 -0.90625,-0.078125 -1.1875,-0.5 0.328125,0 0.40625,-0.234375 0.40625,-0.390625 0,-0.21875 -0.171875,-0.375 -0.390625,-0.375 -0.1875,0 -0.390625,0.125 -0.390625,0.40625 0,0.65625 0.71875,1.078125 1.5625,1.078125 0.96875,0 1.640625,-0.65625 1.640625,-1.34375 0,-0.546875 -0.4375,-1.09375 -1.203125,-1.25 0.71875,-0.265625 0.984375,-0.78125 0.984375,-1.21875 0,-0.546875 -0.625,-0.953125 -1.40625,-0.953125 -0.765625,0 -1.359375,0.375 -1.359375,0.9375 0,0.234375 0.15625,0.359375 0.359375,0.359375 0.21875,0 0.359375,-0.15625 0.359375,-0.34375 0,-0.203125 -0.140625,-0.359375 -0.359375,-0.375 0.25,-0.296875 0.71875,-0.375 0.984375,-0.375 0.3125,0 0.75,0.15625 0.75,0.75 0,0.296875 -0.09375,0.625 -0.28125,0.828125 -0.21875,0.265625 -0.421875,0.28125 -0.765625,0.3125 -0.171875,0.015625 -0.1875,0.015625 -0.21875,0.015625 -0.015625,0 -0.078125,0.015625 -0.078125,0.09375 0,0.09375 0.0625,0.09375 0.1875,0.09375 z m 0,0"
               style="stroke:none" />
          </symbol>
        </g>
      </defs>
      <g
         transform="translate(-149.134,-127.734)"
         id="id-8f65dc80-5077-4023-91df-e26d8dab713b">
        <g
           id="id-fe8ab541-eded-472e-a6cc-0ab1c7f29943"
           style="fill:#000000;fill-opacity:1">
          <g
             transform="translate(148.712,134.765)"
             id="g4403">
            <path
               id="id-24a4d869-97f3-432e-b169-cdde9ba5f269"
               d="m 4.53125,-4.984375 c 0,-0.65625 -0.171875,-2.046875 -1.1875,-2.046875 -1.390625,0 -2.921875,2.8125 -2.921875,5.09375 0,0.9375 0.28125,2.046875 1.1875,2.046875 1.40625,0 2.921875,-2.859375 2.921875,-5.09375 z M 1.46875,-3.625 C 1.640625,-4.25 1.84375,-5.046875 2.25,-5.765625 2.515625,-6.25 2.875,-6.8125 3.328125,-6.8125 c 0.484375,0 0.546875,0.640625 0.546875,1.203125 0,0.5 -0.078125,1 -0.3125,1.984375 z m 2,0.328125 C 3.359375,-2.84375 3.15625,-2 2.765625,-1.28125 c -0.34375,0.6875 -0.71875,1.171875 -1.15625,1.171875 -0.328125,0 -0.53125,-0.296875 -0.53125,-1.21875 0,-0.421875 0.0625,-1 0.3125,-1.96875 z m 0,0"
               style="stroke:none" />
          </g>
        </g>
        <g
           id="id-edb55e2f-56fb-4009-b288-ec85ffa92b25"
           style="fill:#000000;fill-opacity:1">
          <g
             transform="translate(153.389,136.259)"
             id="g4407">
            <path
               id="id-ad701987-593e-495f-9dc8-357ba6451bd3"
               d="m 1.90625,-2.328125 c 0.546875,0 0.9375,0.375 0.9375,1.125 0,0.859375 -0.515625,1.125 -0.90625,1.125 -0.28125,0 -0.90625,-0.078125 -1.1875,-0.5 0.328125,0 0.40625,-0.234375 0.40625,-0.390625 0,-0.21875 -0.171875,-0.375 -0.390625,-0.375 -0.1875,0 -0.390625,0.125 -0.390625,0.40625 0,0.65625 0.71875,1.078125 1.5625,1.078125 0.96875,0 1.640625,-0.65625 1.640625,-1.34375 0,-0.546875 -0.4375,-1.09375 -1.203125,-1.25 0.71875,-0.265625 0.984375,-0.78125 0.984375,-1.21875 0,-0.546875 -0.625,-0.953125 -1.40625,-0.953125 -0.765625,0 -1.359375,0.375 -1.359375,0.9375 0,0.234375 0.15625,0.359375 0.359375,0.359375 0.21875,0 0.359375,-0.15625 0.359375,-0.34375 0,-0.203125 -0.140625,-0.359375 -0.359375,-0.375 0.25,-0.296875 0.71875,-0.375 0.984375,-0.375 0.3125,0 0.75,0.15625 0.75,0.75 0,0.296875 -0.09375,0.625 -0.28125,0.828125 -0.21875,0.265625 -0.421875,0.28125 -0.765625,0.3125 -0.171875,0.015625 -0.1875,0.015625 -0.21875,0.015625 -0.015625,0 -0.078125,0.015625 -0.078125,0.09375 0,0.09375 0.0625,0.09375 0.1875,0.09375 z m 0,0"
               style="stroke:none" />
          </g>
        </g>
      </g>
    </g>
    <ellipse
       style="fill:#090a00;fill-opacity:1;stroke:#050503;stroke-width:0.329073;stroke-miterlimit:4;stroke-dasharray:none"
       id="path7264"
       cx="35.496422"
       cy="42.093925"
       rx="0.61616093"
       ry="0.57993144" />
    <ellipse
       ry="0.57993144"
       rx="0.61616099"
       cy="26.918993"
       cx="37.224747"
       id="path7264-5"
       style="fill:#090a00;fill-opacity:1;stroke:#050503;stroke-width:0.329073;stroke-miterlimit:4;stroke-dasharray:none" />
    <ellipse
       ry="0.62956589"
       rx="0.6688962"
       cy="22.938364"
       cx="69.445206"
       id="path7264-0"
       style="fill:#090a00;fill-opacity:1;stroke:#050503;stroke-width:0.357237;stroke-miterlimit:4;stroke-dasharray:none" />
  </g>
</svg>
