<?xml version="1.0" encoding="UTF-8" standalone="no"?>
<svg
   xmlns:dc="http://purl.org/dc/elements/1.1/"
   xmlns:cc="http://creativecommons.org/ns#"
   xmlns:rdf="http://www.w3.org/1999/02/22-rdf-syntax-ns#"
   xmlns:svg="http://www.w3.org/2000/svg"
   xmlns="http://www.w3.org/2000/svg"
   xmlns:xlink="http://www.w3.org/1999/xlink"
   xmlns:sodipodi="http://sodipodi.sourceforge.net/DTD/sodipodi-0.dtd"
   xmlns:inkscape="http://www.inkscape.org/namespaces/inkscape"
   sodipodi:docname="roboSphericalWrist.svg"
   inkscape:version="1.0 (4035a4fb49, 2020-05-01)"
   width="100mm"
   height="89mm"
   viewBox="0 0 100 89"
   version="1.1"
   id="svg4487">
  <defs
     id="defs4481">
    <marker
       inkscape:stockid="Arrow1Mstart"
       orient="auto"
       refY="0"
       refX="0"
       id="marker3436-8"
       style="overflow:visible"
       inkscape:isstock="true">
      <path
         id="path3434-4"
         d="M 0,0 5,-5 -12.5,0 5,5 Z"
         style="fill:#000000;fill-opacity:1;fill-rule:evenodd;stroke:#000000;stroke-width:1pt;stroke-opacity:1"
         transform="matrix(0.4,0,0,0.4,4,0)" />
    </marker>
    <marker
       inkscape:isstock="true"
       style="overflow:visible"
       id="marker3436"
       refX="0"
       refY="0"
       orient="auto"
       inkscape:stockid="Arrow1Mstart"
       inkscape:collect="always">
      <path
         transform="matrix(0.4,0,0,0.4,4,0)"
         style="fill:#000000;fill-opacity:1;fill-rule:evenodd;stroke:#000000;stroke-width:1pt;stroke-opacity:1"
         d="M 0,0 5,-5 -12.5,0 5,5 Z"
         id="path3434" />
    </marker>
    <radialGradient
       gradientTransform="matrix(1.1223203,0,0,1.1223203,22.410104,-35.813269)"
       inkscape:collect="always"
       xlink:href="#linearGradient1362"
       id="radialGradient1364-6"
       cx="10.889302"
       cy="90.798058"
       fx="10.889302"
       fy="90.798058"
       r="1.9999996"
       gradientUnits="userSpaceOnUse" />
    <linearGradient
       id="linearGradient1362"
       inkscape:collect="always">
      <stop
         id="stop1358"
         offset="0"
         style="stop-color:#060023;stop-opacity:1;" />
      <stop
         id="stop1360"
         offset="1"
         style="stop-color:#060023;stop-opacity:0;" />
    </linearGradient>
    <marker
       inkscape:stockid="Arrow1Mstart"
       orient="auto"
       refY="0"
       refX="0"
       id="Arrow1Mstart"
       style="overflow:visible"
       inkscape:isstock="true"
       inkscape:collect="always">
      <path
         id="path849"
         d="M 0,0 5,-5 -12.5,0 5,5 Z"
         style="fill:#000000;fill-opacity:1;fill-rule:evenodd;stroke:#000000;stroke-width:1pt;stroke-opacity:1"
         transform="matrix(0.4,0,0,0.4,4,0)" />
    </marker>
    <marker
       inkscape:stockid="Arrow1Mstart"
       orient="auto"
       refY="0"
       refX="0"
       id="marker3791"
       style="overflow:visible"
       inkscape:isstock="true">
      <path
         id="path3789"
         d="M 0,0 5,-5 -12.5,0 5,5 Z"
         style="fill:#000000;fill-opacity:1;fill-rule:evenodd;stroke:#000000;stroke-width:1pt;stroke-opacity:1"
         transform="matrix(0.4,0,0,0.4,4,0)" />
    </marker>
    <marker
       inkscape:stockid="Arrow1Mstart"
       orient="auto"
       refY="0"
       refX="0"
       id="marker3699"
       style="overflow:visible"
       inkscape:isstock="true"
       inkscape:collect="always">
      <path
         id="path3697"
         d="M 0,0 5,-5 -12.5,0 5,5 Z"
         style="fill:#000000;fill-opacity:1;fill-rule:evenodd;stroke:#000000;stroke-width:1pt;stroke-opacity:1"
         transform="matrix(0.4,0,0,0.4,4,0)" />
    </marker>
    <marker
       inkscape:isstock="true"
       style="overflow:visible"
       id="marker3739"
       refX="0"
       refY="0"
       orient="auto"
       inkscape:stockid="Arrow1Mstart"
       inkscape:collect="always">
      <path
         transform="matrix(0.4,0,0,0.4,4,0)"
         style="fill:#000000;fill-opacity:1;fill-rule:evenodd;stroke:#000000;stroke-width:1pt;stroke-opacity:1"
         d="M 0,0 5,-5 -12.5,0 5,5 Z"
         id="path3737" />
    </marker>
    <g
       id="id-e035ae9d-7b5d-4cd6-9808-8de9f5515bd8">
      <symbol
         overflow="visible"
         id="id-bce920d9-8c6c-45a3-a59c-9e5a40c4ec45">
        <path
           style="stroke:none"
           d=""
           id="id-397dda10-a90a-43ef-955f-8e96c7b3ae3b" />
      </symbol>
      <symbol
         overflow="visible"
         id="id-36a27e91-2ab8-4fea-b89f-d48ab205271e">
        <path
           style="stroke:none"
           d="m 4.53125,-4.984375 c 0,-0.65625 -0.171875,-2.046875 -1.1875,-2.046875 -1.390625,0 -2.921875,2.8125 -2.921875,5.09375 0,0.9375 0.28125,2.046875 1.1875,2.046875 1.40625,0 2.921875,-2.859375 2.921875,-5.09375 z M 1.46875,-3.625 C 1.640625,-4.25 1.84375,-5.046875 2.25,-5.765625 2.515625,-6.25 2.875,-6.8125 3.328125,-6.8125 c 0.484375,0 0.546875,0.640625 0.546875,1.203125 0,0.5 -0.078125,1 -0.3125,1.984375 z m 2,0.328125 C 3.359375,-2.84375 3.15625,-2 2.765625,-1.28125 c -0.34375,0.6875 -0.71875,1.171875 -1.15625,1.171875 -0.328125,0 -0.53125,-0.296875 -0.53125,-1.21875 0,-0.421875 0.0625,-1 0.3125,-1.96875 z m 0,0"
           id="id-a150997a-a95a-459d-8f5a-a5bbaacb2514" />
      </symbol>
      <symbol
         overflow="visible"
         id="id-e52d75dc-3621-4c37-bbf4-8c5c9899042e">
        <path
           style="stroke:none"
           d=""
           id="id-d45c1bce-e382-4bbe-8c51-2cb5ea4f2d39" />
      </symbol>
      <symbol
         overflow="visible"
         id="id-098517a3-ffcf-4faa-be64-8376a5fb726b">
        <path
           style="stroke:none"
           d="m 1.90625,-2.328125 c 0.546875,0 0.9375,0.375 0.9375,1.125 0,0.859375 -0.515625,1.125 -0.90625,1.125 -0.28125,0 -0.90625,-0.078125 -1.1875,-0.5 0.328125,0 0.40625,-0.234375 0.40625,-0.390625 0,-0.21875 -0.171875,-0.375 -0.390625,-0.375 -0.1875,0 -0.390625,0.125 -0.390625,0.40625 0,0.65625 0.71875,1.078125 1.5625,1.078125 0.96875,0 1.640625,-0.65625 1.640625,-1.34375 0,-0.546875 -0.4375,-1.09375 -1.203125,-1.25 0.71875,-0.265625 0.984375,-0.78125 0.984375,-1.21875 0,-0.546875 -0.625,-0.953125 -1.40625,-0.953125 -0.765625,0 -1.359375,0.375 -1.359375,0.9375 0,0.234375 0.15625,0.359375 0.359375,0.359375 0.21875,0 0.359375,-0.15625 0.359375,-0.34375 0,-0.203125 -0.140625,-0.359375 -0.359375,-0.375 0.25,-0.296875 0.71875,-0.375 0.984375,-0.375 0.3125,0 0.75,0.15625 0.75,0.75 0,0.296875 -0.09375,0.625 -0.28125,0.828125 -0.21875,0.265625 -0.421875,0.28125 -0.765625,0.3125 -0.171875,0.015625 -0.1875,0.015625 -0.21875,0.015625 -0.015625,0 -0.078125,0.015625 -0.078125,0.09375 0,0.09375 0.0625,0.09375 0.1875,0.09375 z m 0,0"
           id="id-a472d4ba-6076-4ca4-98fd-916fdd116be9" />
      </symbol>
    </g>
    <defs
       id="id-7e72aee6-84df-4043-8b73-b0f5b1d50da5">
      <g
         id="id-d8f93f9e-6baf-4a46-8746-833b248af7af">
        <symbol
           overflow="visible"
           id="id-6b6cd6dd-1e0c-4b01-bb9e-4ba33d87b0a7">
          <path
             style="stroke:none"
             d=""
             id="id-b0370aa5-5f48-4289-87f4-eab461978690" />
        </symbol>
        <symbol
           overflow="visible"
           id="id-949b4ef7-28ab-4bb0-9626-734423d58549">
          <path
             style="stroke:none"
             d="m 4.53125,-4.984375 c 0,-0.65625 -0.171875,-2.046875 -1.1875,-2.046875 -1.390625,0 -2.921875,2.8125 -2.921875,5.09375 0,0.9375 0.28125,2.046875 1.1875,2.046875 1.40625,0 2.921875,-2.859375 2.921875,-5.09375 z M 1.46875,-3.625 C 1.640625,-4.25 1.84375,-5.046875 2.25,-5.765625 2.515625,-6.25 2.875,-6.8125 3.328125,-6.8125 c 0.484375,0 0.546875,0.640625 0.546875,1.203125 0,0.5 -0.078125,1 -0.3125,1.984375 z m 2,0.328125 C 3.359375,-2.84375 3.15625,-2 2.765625,-1.28125 c -0.34375,0.6875 -0.71875,1.171875 -1.15625,1.171875 -0.328125,0 -0.53125,-0.296875 -0.53125,-1.21875 0,-0.421875 0.0625,-1 0.3125,-1.96875 z m 0,0"
             id="id-8cac428f-7df8-45c7-a1ff-1c66919fe18b" />
        </symbol>
        <symbol
           overflow="visible"
           id="id-c2958c39-6a5f-4f20-bac5-47399137eb97">
          <path
             style="stroke:none"
             d="m 5.140625,-6.8125 c 0,0 0,-0.109375 -0.125,-0.109375 -0.15625,0 -1.09375,0.09375 -1.265625,0.109375 -0.078125,0.015625 -0.140625,0.0625 -0.140625,0.1875 0,0.125 0.09375,0.125 0.234375,0.125 0.484375,0 0.5,0.0625 0.5,0.171875 L 4.3125,-6.125 3.71875,-3.765625 C 3.53125,-4.140625 3.25,-4.40625 2.796875,-4.40625 c -1.15625,0 -2.390625,1.46875 -2.390625,2.921875 0,0.9375 0.546875,1.59375 1.3125,1.59375 0.203125,0 0.703125,-0.046875 1.296875,-0.75 0.078125,0.421875 0.4375,0.75 0.90625,0.75 0.359375,0 0.578125,-0.234375 0.75,-0.546875 0.15625,-0.359375 0.296875,-0.96875 0.296875,-0.984375 0,-0.109375 -0.09375,-0.109375 -0.125,-0.109375 -0.09375,0 -0.109375,0.046875 -0.140625,0.1875 -0.171875,0.640625 -0.34375,1.234375 -0.75,1.234375 -0.28125,0 -0.296875,-0.265625 -0.296875,-0.453125 0,-0.25 0.015625,-0.3125 0.046875,-0.484375 z m -2.0625,5.625 C 3.015625,-1 3.015625,-0.984375 2.875,-0.8125 2.4375,-0.265625 2.03125,-0.109375 1.75,-0.109375 c -0.5,0 -0.640625,-0.546875 -0.640625,-0.9375 0,-0.5 0.3125,-1.71875 0.546875,-2.1875 0.3125,-0.578125 0.75,-0.953125 1.15625,-0.953125 0.640625,0 0.78125,0.8125 0.78125,0.875 0,0.0625 -0.015625,0.125 -0.03125,0.171875 z m 0,0"
             id="id-827a2b19-7563-4826-9492-25e88a443cbc" />
        </symbol>
        <symbol
           overflow="visible"
           id="id-397d1338-049f-4184-ab0e-0b194db1780e">
          <path
             style="stroke:none"
             d=""
             id="id-4ac33aee-ec63-462e-be69-125a6473c490" />
        </symbol>
        <symbol
           overflow="visible"
           id="id-5b8848ed-1306-4d9d-8a92-af127660c6b0">
          <path
             style="stroke:none"
             d="m 3.6875,-1.140625 v -0.25 H 2.90625 V -4.5 c 0,-0.140625 0,-0.203125 -0.140625,-0.203125 -0.09375,0 -0.125,0 -0.1875,0.109375 l -2.3125,3.203125 v 0.25 h 2.0625 v 0.5625 c 0,0.25 0,0.328125 -0.578125,0.328125 H 1.5625 V 0 C 1.921875,-0.015625 2.359375,-0.03125 2.609375,-0.03125 2.875,-0.03125 3.3125,-0.015625 3.671875,0 v -0.25 h -0.1875 C 2.90625,-0.25 2.90625,-0.328125 2.90625,-0.578125 v -0.5625 z M 2.375,-3.9375 v 2.546875 H 0.53125 Z m 0,0"
             id="id-1f75f5f4-ad9b-4cc4-b557-74403061751c" />
        </symbol>
        <symbol
           overflow="visible"
           id="id-0352bd1e-271f-43ab-8d98-e624fa0a44e0">
          <path
             style="stroke:none"
             d="m 1.078125,-3.890625 c 0.359375,0.09375 0.5625,0.09375 0.671875,0.09375 0.921875,0 1.46875,-0.625 1.46875,-0.734375 0,-0.078125 -0.046875,-0.09375 -0.078125,-0.09375 -0.015625,0 -0.03125,0 -0.0625,0.015625 -0.171875,0.0625 -0.53125,0.203125 -1.046875,0.203125 -0.203125,0 -0.5625,-0.015625 -1.015625,-0.1875 C 0.9375,-4.625 0.921875,-4.625 0.921875,-4.625 c -0.09375,0 -0.09375,0.078125 -0.09375,0.1875 v 2.046875 c 0,0.125 0,0.203125 0.109375,0.203125 0.0625,0 0.078125,0 0.140625,-0.09375 0.296875,-0.375 0.734375,-0.4375 0.96875,-0.4375 0.421875,0 0.609375,0.328125 0.640625,0.390625 0.125,0.234375 0.171875,0.5 0.171875,0.90625 0,0.203125 0,0.609375 -0.21875,0.921875 -0.171875,0.25 -0.46875,0.421875 -0.8125,0.421875 -0.453125,0 -0.921875,-0.25 -1.09375,-0.71875 0.265625,0.015625 0.40625,-0.15625 0.40625,-0.34375 0,-0.296875 -0.265625,-0.34375 -0.359375,-0.34375 0,0 -0.34375,0 -0.34375,0.375 0,0.625 0.578125,1.25 1.40625,1.25 0.890625,0 1.671875,-0.65625 1.671875,-1.546875 0,-0.78125 -0.59375,-1.5 -1.453125,-1.5 -0.3125,0 -0.671875,0.0625 -0.984375,0.328125 z m 0,0"
             id="id-0cd12685-14e2-48da-b33c-646d2148e464" />
        </symbol>
        <symbol
           overflow="visible"
           id="id-0fd645e7-6e3a-49f6-9a18-221ff2b36d0d">
          <path
             style="stroke:none"
             d="m 1.046875,-2.28125 c 0,-0.5625 0.046875,-1.078125 0.3125,-1.515625 0.234375,-0.375 0.609375,-0.625 1.0625,-0.625 0.203125,0 0.484375,0.046875 0.625,0.234375 C 2.875,-4.171875 2.71875,-4.046875 2.71875,-3.84375 c 0,0.171875 0.125,0.328125 0.328125,0.328125 0.21875,0 0.34375,-0.140625 0.34375,-0.34375 0,-0.40625 -0.296875,-0.765625 -0.984375,-0.765625 -1,0 -2.03125,0.921875 -2.03125,2.421875 0,1.796875 0.84375,2.34375 1.625,2.34375 0.84375,0 1.578125,-0.65625 1.578125,-1.5625 0,-0.890625 -0.703125,-1.546875 -1.515625,-1.546875 -0.5625,0 -0.859375,0.375 -1.015625,0.6875 z M 2,-0.078125 c -0.359375,0 -0.625,-0.203125 -0.78125,-0.515625 C 1.125,-0.796875 1.0625,-1.15625 1.0625,-1.5625 c 0,-0.6875 0.40625,-1.203125 0.96875,-1.203125 0.3125,0 0.53125,0.125 0.703125,0.375 0.171875,0.265625 0.171875,0.5625 0.171875,0.96875 0,0.390625 0,0.6875 -0.1875,0.96875 -0.15625,0.234375 -0.390625,0.375 -0.71875,0.375 z m 0,0"
             id="id-02467a72-c715-4d3d-8620-7d6f0fa30e79" />
        </symbol>
      </g>
    </defs>
  </defs>
  <sodipodi:namedview
     inkscape:window-maximized="1"
     inkscape:window-y="-8"
     inkscape:window-x="-8"
     inkscape:window-height="837"
     inkscape:window-width="1600"
     inkscape:pagecheckerboard="true"
     showgrid="false"
     inkscape:document-rotation="0"
     inkscape:current-layer="layer1"
     inkscape:document-units="mm"
     inkscape:cy="177.88272"
     inkscape:cx="130.72644"
     inkscape:zoom="1.4"
     inkscape:pageshadow="2"
     inkscape:pageopacity="0.0"
     borderopacity="1.0"
     bordercolor="#666666"
     pagecolor="#ffffff"
     id="base" />
  <metadata
     id="metadata4484">
    <rdf:RDF>
      <cc:Work
         rdf:about="">
        <dc:format>image/svg+xml</dc:format>
        <dc:type
           rdf:resource="http://purl.org/dc/dcmitype/StillImage" />
        <dc:title></dc:title>
      </cc:Work>
    </rdf:RDF>
  </metadata>
  <g
     id="layer1"
     inkscape:groupmode="layer"
     inkscape:label="Layer 1">
    <g
       transform="translate(-6.543903,-1.2198968)"
       id="g5931">
      <g
         style="fill:#000000;fill-opacity:1"
         id="id-8e4b3539-c8e6-429c-8fdb-8ae97b1f58c3"
         transform="matrix(0.46379156,0,0,0.46379156,-21.328262,-3.2967151)">
        <g
           id="g5564"
           transform="translate(148.712,134.765)">
          <path
             style="stroke:none"
             d="m 4.53125,-4.984375 c 0,-0.65625 -0.171875,-2.046875 -1.1875,-2.046875 -1.390625,0 -2.921875,2.8125 -2.921875,5.09375 0,0.9375 0.28125,2.046875 1.1875,2.046875 1.40625,0 2.921875,-2.859375 2.921875,-5.09375 z M 1.46875,-3.625 C 1.640625,-4.25 1.84375,-5.046875 2.25,-5.765625 2.515625,-6.25 2.875,-6.8125 3.328125,-6.8125 c 0.484375,0 0.546875,0.640625 0.546875,1.203125 0,0.5 -0.078125,1 -0.3125,1.984375 z m 2,0.328125 C 3.359375,-2.84375 3.15625,-2 2.765625,-1.28125 c -0.34375,0.6875 -0.71875,1.171875 -1.15625,1.171875 -0.328125,0 -0.53125,-0.296875 -0.53125,-1.21875 0,-0.421875 0.0625,-1 0.3125,-1.96875 z m 0,0"
             id="id-d6a8e8f3-4fdb-4aab-85ed-323a46a6ae96" />
        </g>
      </g>
      <g
         style="fill:#000000;fill-opacity:1"
         id="id-ceedc9e9-876f-40a9-b7c4-f91b8b83e479"
         transform="matrix(0.46379156,0,0,0.46379156,-21.328262,-3.2967151)">
        <g
           id="g5568"
           transform="translate(153.389,136.259)">
          <path
             style="stroke:none"
             d="m 3.6875,-1.140625 v -0.25 H 2.90625 V -4.5 c 0,-0.140625 0,-0.203125 -0.140625,-0.203125 -0.09375,0 -0.125,0 -0.1875,0.109375 l -2.3125,3.203125 v 0.25 h 2.0625 v 0.5625 c 0,0.25 0,0.328125 -0.578125,0.328125 H 1.5625 V 0 C 1.921875,-0.015625 2.359375,-0.03125 2.609375,-0.03125 2.875,-0.03125 3.3125,-0.015625 3.671875,0 v -0.25 h -0.1875 C 2.90625,-0.25 2.90625,-0.328125 2.90625,-0.578125 v -0.5625 z M 2.375,-3.9375 v 2.546875 H 0.53125 Z m 0,0"
             id="id-7e85a443-dc7d-4858-92d0-57816ad8d92d" />
        </g>
      </g>
    </g>
    <g
       transform="translate(-30.237003,-22.707898)"
       id="g5939">
      <g
         style="fill:#000000;fill-opacity:1"
         id="id-1b991298-40ae-4ebe-a205-b531be340d35"
         transform="matrix(0.46379156,0,0,0.46379156,-21.328262,-3.2967151)">
        <g
           id="g5572"
           transform="translate(161.179,134.765)">
          <path
             style="stroke:none"
             d="m 4.53125,-4.984375 c 0,-0.65625 -0.171875,-2.046875 -1.1875,-2.046875 -1.390625,0 -2.921875,2.8125 -2.921875,5.09375 0,0.9375 0.28125,2.046875 1.1875,2.046875 1.40625,0 2.921875,-2.859375 2.921875,-5.09375 z M 1.46875,-3.625 C 1.640625,-4.25 1.84375,-5.046875 2.25,-5.765625 2.515625,-6.25 2.875,-6.8125 3.328125,-6.8125 c 0.484375,0 0.546875,0.640625 0.546875,1.203125 0,0.5 -0.078125,1 -0.3125,1.984375 z m 2,0.328125 C 3.359375,-2.84375 3.15625,-2 2.765625,-1.28125 c -0.34375,0.6875 -0.71875,1.171875 -1.15625,1.171875 -0.328125,0 -0.53125,-0.296875 -0.53125,-1.21875 0,-0.421875 0.0625,-1 0.3125,-1.96875 z m 0,0"
             id="id-09b8e9f2-ab87-48f5-853f-9b296eabedea" />
        </g>
      </g>
      <g
         style="fill:#000000;fill-opacity:1"
         id="id-c8a8b38d-e34f-4cd1-b5c4-ab697bca728c"
         transform="matrix(0.46379156,0,0,0.46379156,-21.328262,-3.2967151)">
        <g
           id="g5576"
           transform="translate(165.856,136.259)">
          <path
             style="stroke:none"
             d="m 1.078125,-3.890625 c 0.359375,0.09375 0.5625,0.09375 0.671875,0.09375 0.921875,0 1.46875,-0.625 1.46875,-0.734375 0,-0.078125 -0.046875,-0.09375 -0.078125,-0.09375 -0.015625,0 -0.03125,0 -0.0625,0.015625 -0.171875,0.0625 -0.53125,0.203125 -1.046875,0.203125 -0.203125,0 -0.5625,-0.015625 -1.015625,-0.1875 C 0.9375,-4.625 0.921875,-4.625 0.921875,-4.625 c -0.09375,0 -0.09375,0.078125 -0.09375,0.1875 v 2.046875 c 0,0.125 0,0.203125 0.109375,0.203125 0.0625,0 0.078125,0 0.140625,-0.09375 0.296875,-0.375 0.734375,-0.4375 0.96875,-0.4375 0.421875,0 0.609375,0.328125 0.640625,0.390625 0.125,0.234375 0.171875,0.5 0.171875,0.90625 0,0.203125 0,0.609375 -0.21875,0.921875 -0.171875,0.25 -0.46875,0.421875 -0.8125,0.421875 -0.453125,0 -0.921875,-0.25 -1.09375,-0.71875 0.265625,0.015625 0.40625,-0.15625 0.40625,-0.34375 0,-0.296875 -0.265625,-0.34375 -0.359375,-0.34375 0,0 -0.34375,0 -0.34375,0.375 0,0.625 0.578125,1.25 1.40625,1.25 0.890625,0 1.671875,-0.65625 1.671875,-1.546875 0,-0.78125 -0.59375,-1.5 -1.453125,-1.5 -0.3125,0 -0.671875,0.0625 -0.984375,0.328125 z m 0,0"
             id="id-727a4a30-dfd8-4c27-9a48-9bb62865b7c7" />
        </g>
      </g>
    </g>
    <g
       transform="translate(-6.1893602,-18.190105)"
       id="g5947">
      <g
         style="fill:#000000;fill-opacity:1"
         id="id-20ad8dc1-c552-4f9b-a553-f0e20f504801"
         transform="matrix(0.46379156,0,0,0.46379156,-21.328262,-3.2967151)">
        <g
           id="g5580"
           transform="translate(173.647,134.765)">
          <path
             style="stroke:none"
             d="m 4.53125,-4.984375 c 0,-0.65625 -0.171875,-2.046875 -1.1875,-2.046875 -1.390625,0 -2.921875,2.8125 -2.921875,5.09375 0,0.9375 0.28125,2.046875 1.1875,2.046875 1.40625,0 2.921875,-2.859375 2.921875,-5.09375 z M 1.46875,-3.625 C 1.640625,-4.25 1.84375,-5.046875 2.25,-5.765625 2.515625,-6.25 2.875,-6.8125 3.328125,-6.8125 c 0.484375,0 0.546875,0.640625 0.546875,1.203125 0,0.5 -0.078125,1 -0.3125,1.984375 z m 2,0.328125 C 3.359375,-2.84375 3.15625,-2 2.765625,-1.28125 c -0.34375,0.6875 -0.71875,1.171875 -1.15625,1.171875 -0.328125,0 -0.53125,-0.296875 -0.53125,-1.21875 0,-0.421875 0.0625,-1 0.3125,-1.96875 z m 0,0"
             id="id-d96ed4f3-b2ee-4edf-98bf-697eacdbbd7b" />
        </g>
      </g>
      <g
         style="fill:#000000;fill-opacity:1"
         id="id-fc0bb606-5dc9-4c50-ab36-e6ad291339bf"
         transform="matrix(0.46379156,0,0,0.46379156,-21.328262,-3.2967151)">
        <g
           id="g5584"
           transform="translate(178.323,136.259)">
          <path
             style="stroke:none"
             d="m 1.046875,-2.28125 c 0,-0.5625 0.046875,-1.078125 0.3125,-1.515625 0.234375,-0.375 0.609375,-0.625 1.0625,-0.625 0.203125,0 0.484375,0.046875 0.625,0.234375 C 2.875,-4.171875 2.71875,-4.046875 2.71875,-3.84375 c 0,0.171875 0.125,0.328125 0.328125,0.328125 0.21875,0 0.34375,-0.140625 0.34375,-0.34375 0,-0.40625 -0.296875,-0.765625 -0.984375,-0.765625 -1,0 -2.03125,0.921875 -2.03125,2.421875 0,1.796875 0.84375,2.34375 1.625,2.34375 0.84375,0 1.578125,-0.65625 1.578125,-1.5625 0,-0.890625 -0.703125,-1.546875 -1.515625,-1.546875 -0.5625,0 -0.859375,0.375 -1.015625,0.6875 z M 2,-0.078125 c -0.359375,0 -0.625,-0.203125 -0.78125,-0.515625 C 1.125,-0.796875 1.0625,-1.15625 1.0625,-1.5625 c 0,-0.6875 0.40625,-1.203125 0.96875,-1.203125 0.3125,0 0.53125,0.125 0.703125,0.375 0.171875,0.265625 0.171875,0.5625 0.171875,0.96875 0,0.390625 0,0.6875 -0.1875,0.96875 -0.15625,0.234375 -0.390625,0.375 -0.71875,0.375 z m 0,0"
             id="id-355d3858-f7ca-45c5-8064-4e5af0d12976" />
        </g>
      </g>
    </g>
    <g
       transform="translate(0.20438594,-30.917931)"
       id="g5955">
      <g
         style="fill:#000000;fill-opacity:1"
         id="id-907591d7-91b2-428e-8dcd-22a2f73830a5"
         transform="matrix(0.46379156,0,0,0.46379156,-21.328262,-3.2967151)">
        <g
           id="g5588"
           transform="translate(186.114,134.765)">
          <path
             style="stroke:none"
             d="m 5.140625,-6.8125 c 0,0 0,-0.109375 -0.125,-0.109375 -0.15625,0 -1.09375,0.09375 -1.265625,0.109375 -0.078125,0.015625 -0.140625,0.0625 -0.140625,0.1875 0,0.125 0.09375,0.125 0.234375,0.125 0.484375,0 0.5,0.0625 0.5,0.171875 L 4.3125,-6.125 3.71875,-3.765625 C 3.53125,-4.140625 3.25,-4.40625 2.796875,-4.40625 c -1.15625,0 -2.390625,1.46875 -2.390625,2.921875 0,0.9375 0.546875,1.59375 1.3125,1.59375 0.203125,0 0.703125,-0.046875 1.296875,-0.75 0.078125,0.421875 0.4375,0.75 0.90625,0.75 0.359375,0 0.578125,-0.234375 0.75,-0.546875 0.15625,-0.359375 0.296875,-0.96875 0.296875,-0.984375 0,-0.109375 -0.09375,-0.109375 -0.125,-0.109375 -0.09375,0 -0.109375,0.046875 -0.140625,0.1875 -0.171875,0.640625 -0.34375,1.234375 -0.75,1.234375 -0.28125,0 -0.296875,-0.265625 -0.296875,-0.453125 0,-0.25 0.015625,-0.3125 0.046875,-0.484375 z m -2.0625,5.625 C 3.015625,-1 3.015625,-0.984375 2.875,-0.8125 2.4375,-0.265625 2.03125,-0.109375 1.75,-0.109375 c -0.5,0 -0.640625,-0.546875 -0.640625,-0.9375 0,-0.5 0.3125,-1.71875 0.546875,-2.1875 0.3125,-0.578125 0.75,-0.953125 1.15625,-0.953125 0.640625,0 0.78125,0.8125 0.78125,0.875 0,0.0625 -0.015625,0.125 -0.03125,0.171875 z m 0,0"
             id="id-6835aa72-7d3e-41b7-ba5d-b8a2b36e21cf" />
        </g>
      </g>
      <g
         style="fill:#000000;fill-opacity:1"
         id="id-48a6bd56-0995-484e-bf18-62ff9390d845"
         transform="matrix(0.46379156,0,0,0.46379156,-21.328262,-3.2967151)">
        <g
           id="g5592"
           transform="translate(191.299,136.259)">
          <path
             style="stroke:none"
             d="m 1.046875,-2.28125 c 0,-0.5625 0.046875,-1.078125 0.3125,-1.515625 0.234375,-0.375 0.609375,-0.625 1.0625,-0.625 0.203125,0 0.484375,0.046875 0.625,0.234375 C 2.875,-4.171875 2.71875,-4.046875 2.71875,-3.84375 c 0,0.171875 0.125,0.328125 0.328125,0.328125 0.21875,0 0.34375,-0.140625 0.34375,-0.34375 0,-0.40625 -0.296875,-0.765625 -0.984375,-0.765625 -1,0 -2.03125,0.921875 -2.03125,2.421875 0,1.796875 0.84375,2.34375 1.625,2.34375 0.84375,0 1.578125,-0.65625 1.578125,-1.5625 0,-0.890625 -0.703125,-1.546875 -1.515625,-1.546875 -0.5625,0 -0.859375,0.375 -1.015625,0.6875 z M 2,-0.078125 c -0.359375,0 -0.625,-0.203125 -0.78125,-0.515625 C 1.125,-0.796875 1.0625,-1.15625 1.0625,-1.5625 c 0,-0.6875 0.40625,-1.203125 0.96875,-1.203125 0.3125,0 0.53125,0.125 0.703125,0.375 0.171875,0.265625 0.171875,0.5625 0.171875,0.96875 0,0.390625 0,0.6875 -0.1875,0.96875 -0.15625,0.234375 -0.390625,0.375 -0.71875,0.375 z m 0,0"
             id="id-47cd98e7-2077-4aed-91f0-a6301c366f5a" />
        </g>
      </g>
    </g>
    <ellipse
       style="fill:none;stroke:#050503;stroke-width:0.373491;stroke-miterlimit:4;stroke-dasharray:none;stroke-opacity:1"
       id="path2573"
       ry="1.6800541"
       rx="3.3177974"
       cy="41.82151"
       cx="34.803421" />
    <path
       style="fill:none;fill-rule:evenodd;stroke:#000000;stroke-width:0.372901px;stroke-linecap:butt;stroke-linejoin:miter;stroke-opacity:1"
       d="m 31.485628,41.668899 -0.03056,13.323879 c 2.130489,1.78534 4.501537,1.83392 6.63161,-0.08161 l 0.0061,-13.304988"
       id="path3136"
       sodipodi:nodetypes="cccc" />
    <ellipse
       cx="-35.092873"
       cy="20.234543"
       rx="3.3177977"
       ry="1.6800542"
       id="path2573-7"
       style="fill:none;stroke:#050503;stroke-width:0.373491;stroke-miterlimit:4;stroke-dasharray:none;stroke-opacity:1"
       transform="rotate(-105)" />
    <path
       sodipodi:nodetypes="cccc"
       id="path3136-4"
       d="m 29.339063,31.904273 12.877785,-3.418956 c 1.1731,-2.519977 0.60635,-4.822804 -1.79522,-6.384519 l -12.853202,3.437716"
       style="fill:none;fill-rule:evenodd;stroke:#000000;stroke-width:0.372901px;stroke-linecap:butt;stroke-linejoin:miter;stroke-opacity:1" />
    <ellipse
       transform="rotate(105)"
       style="fill:none;stroke:#050503;stroke-width:0.373491;stroke-miterlimit:4;stroke-dasharray:none;stroke-opacity:1"
       id="path2573-7-8"
       ry="1.6800543"
       rx="3.3177981"
       cy="-77.397484"
       cx="16.294855" />
    <path
       style="fill:none;fill-rule:evenodd;stroke:#000000;stroke-width:0.372901px;stroke-linecap:butt;stroke-linejoin:miter;stroke-opacity:1"
       d="M 71.548922,32.606309 58.68695,29.128316 c -2.275922,1.595814 -2.936516,3.873496 -1.637557,6.426766 l 12.850048,3.449475"
       id="path3136-4-8"
       sodipodi:nodetypes="cccc" />
    <path
       style="fill:none;fill-rule:evenodd;stroke:#000000;stroke-width:1.21416;stroke-linecap:butt;stroke-linejoin:miter;stroke-miterlimit:4;stroke-dasharray:none;stroke-opacity:1"
       d="M 34.605814,56.294176 V 66.497489"
       id="path3174" />
    <path
       style="fill:none;fill-rule:evenodd;stroke:#000000;stroke-width:1.32233;stroke-linecap:butt;stroke-linejoin:miter;stroke-miterlimit:4;stroke-dasharray:none;stroke-opacity:1"
       d="M 34.860896,41.927169 V 30.429954"
       id="path3176" />
    <path
       style="fill:none;fill-rule:evenodd;stroke:#000000;stroke-width:0.286316px;stroke-linecap:butt;stroke-linejoin:miter;stroke-opacity:1;marker-start:url(#marker3739)"
       d="M 88.168688,66.352875 H 33.711679"
       id="path3180" />
    <path
       style="fill:none;fill-rule:evenodd;stroke:#000000;stroke-width:0.286316px;stroke-linecap:butt;stroke-linejoin:miter;stroke-opacity:1;marker-start:url(#marker3699)"
       d="M 5.5187237,86.462875 34.093531,66.267327"
       id="path3182" />
    <path
       style="fill:none;fill-rule:evenodd;stroke:#000000;stroke-width:0.285999;stroke-linecap:butt;stroke-linejoin:miter;stroke-miterlimit:4;stroke-dasharray:none;stroke-opacity:1;marker-start:url(#marker3791)"
       d="M 34.950826,2.5780238 V 24.051767"
       id="path3184" />
    <g
       transform="matrix(0.65582653,0,0,0.65582653,-80.360974,-47.583794)"
       id="id-8d5228b2-1f92-4d23-992f-90c4b46f0e2a"
       style="fill:#000000;fill-opacity:1">
      <g
         transform="matrix(0.73461901,0,0,0.73461901,252.50913,137.33776)"
         id="g1523">
        <path
           id="id-1af865e7-c2ab-4a90-88c0-80ee8685d2a3"
           d="M 3.015625,-3.15625 H 4.71875 c 1.40625,0 2.796875,-1.03125 2.796875,-2.140625 0,-0.78125 -0.65625,-1.515625 -1.96875,-1.515625 h -3.21875 c -0.1875,0 -0.296875,0 -0.296875,0.1875 0,0.125 0.078125,0.125 0.28125,0.125 0.125,0 0.3125,0.015625 0.421875,0.015625 0.171875,0.03125 0.21875,0.046875 0.21875,0.171875 0,0.03125 0,0.0625 -0.03125,0.1875 l -1.34375,5.34375 c -0.09375,0.390625 -0.109375,0.46875 -0.90625,0.46875 -0.15625,0 -0.265625,0 -0.265625,0.1875 C 0.40625,0 0.515625,0 0.546875,0 0.828125,0 1.53125,-0.03125 1.8125,-0.03125 c 0.21875,0 0.4375,0.015625 0.640625,0.015625 0.21875,0 0.4375,0.015625 0.640625,0.015625 0.078125,0 0.203125,0 0.203125,-0.203125 0,-0.109375 -0.09375,-0.109375 -0.28125,-0.109375 -0.359375,0 -0.640625,0 -0.640625,-0.171875 0,-0.0625 0.015625,-0.109375 0.03125,-0.171875 z M 3.734375,-6.125 C 3.828125,-6.46875 3.84375,-6.5 4.28125,-6.5 h 0.953125 c 0.828125,0 1.359375,0.265625 1.359375,0.953125 0,0.390625 -0.203125,1.25 -0.59375,1.609375 -0.5,0.453125 -1.09375,0.53125 -1.53125,0.53125 H 3.0625 Z m 0,0"
           style="stroke:none" />
      </g>
    </g>
    <path
       sodipodi:nodetypes="cccc"
       id="path1412"
       d="m 84.206417,37.075006 -2.809587,-0.939071 -1.948146,5.714854 2.731394,0.845131"
       style="fill:none;fill-rule:evenodd;stroke:#000000;stroke-width:0.52188;stroke-linecap:butt;stroke-linejoin:miter;stroke-miterlimit:4;stroke-dasharray:none;stroke-opacity:1" />
    <path
       style="fill:none;fill-rule:evenodd;stroke:#000000;stroke-width:0.264583;stroke-linecap:butt;stroke-linejoin:miter;stroke-miterlimit:4;stroke-dasharray:0.264583, 0.264583;stroke-dashoffset:0;stroke-opacity:1;marker-start:url(#Arrow1Mstart)"
       d="m 39.73414,57.997064 c -2.997041,1.295969 -5.911564,3.004513 -9.822153,-0.267269"
       id="path3315"
       sodipodi:nodetypes="cc" />
    <ellipse
       style="fill:#999999;stroke:url(#radialGradient1364-6);stroke-width:1.06868;stroke-miterlimit:4;stroke-dasharray:none;stroke-opacity:1"
       id="path1269-9"
       cx="34.631393"
       cy="66.091225"
       rx="1.7103028"
       ry="1.7103029" />
    <path
       style="fill:#999999;stroke:#050503;stroke-width:0.0167043;stroke-miterlimit:4;stroke-dasharray:0.0167043, 0.0167043;stroke-dashoffset:0;stroke-opacity:1"
       d="m 28.054541,25.619768 c -0.223904,0.02199 -0.472908,0.07366 -0.616953,0.263615 -0.341352,0.398442 -0.425294,0.94615 -0.45499,1.453245 -0.03742,1.121183 0.256955,2.25425 0.835109,3.215627 0.282266,0.446482 0.632394,0.896475 1.135311,1.101664 0.322432,0.141119 0.716034,0.0091 0.913844,-0.275034 0.341381,-0.467101 0.40807,-1.071282 0.412324,-1.633665 -0.01651,-1.080103 -0.324824,-2.160809 -0.901218,-3.075982 -0.289242,-0.436742 -0.660161,-0.873387 -1.177462,-1.033777 -0.04771,-0.01159 -0.09689,-0.01688 -0.145965,-0.01569 z"
       id="path3376" />
    <path
       style="fill:#999999;stroke:#050503;stroke-width:0.0236235;stroke-miterlimit:4;stroke-dasharray:0.0236235, 0.0236235;stroke-dashoffset:0;stroke-opacity:1"
       d="m 34.107728,40.361666 c -0.72781,0.09409 -1.486712,0.281858 -2.060874,0.763151 -0.294471,0.239472 -0.495938,0.672222 -0.290589,1.030529 0.315537,0.546237 0.9432,0.800753 1.521986,0.968226 0.635233,0.183486 1.300824,0.21285 1.95743,0.172228 0.742323,-0.03504 1.496608,-0.221371 2.127089,-0.624713 0.278619,-0.194442 0.591521,-0.477562 0.547145,-0.852053 0.03419,-0.275331 -0.136467,-0.507241 -0.335391,-0.675714 -0.560636,-0.489649 -1.314577,-0.685422 -2.035773,-0.774962 -0.0508,0.44346 -0.01363,0.897101 -0.02543,1.344371 0.05012,0.199737 -0.05284,0.246391 -0.236235,0.212612 -0.354137,0 -0.708274,0 -1.062411,0 -0.0042,-0.523608 -0.0083,-1.047216 -0.01246,-1.570826 -0.0315,0.0024 -0.063,0.0048 -0.09449,0.0071 z"
       id="path3378" />
    <path
       style="fill:#b3b3b3;stroke:#050503;stroke-width:0.0118117;stroke-miterlimit:4;stroke-dasharray:0.0118117, 0.0118117;stroke-dashoffset:0;stroke-opacity:1"
       d="m 69.411593,38.60839 c 0.105445,0.128085 0.278625,0.143668 0.42723,0.189316 0.20492,0.05926 0.414833,-0.03901 0.591244,-0.136466 0.469203,-0.289622 0.796159,-0.756049 1.05769,-1.231292 0.46613,-0.87956 0.715642,-1.877269 0.703196,-2.873458 -0.01508,-0.502053 -0.08795,-1.028693 -0.371134,-1.456036 -0.158856,-0.243595 -0.448189,-0.417474 -0.745174,-0.36972 -0.396656,0.05593 -0.704417,0.343485 -0.964336,0.626516 -0.45615,0.528778 -0.755219,1.17668 -0.957565,1.840554 -0.231501,0.791411 -0.341748,1.637063 -0.191524,2.454407 0.07038,0.346183 0.191192,0.704168 0.450396,0.956193 z"
       id="path3380" />
    <path
       style="fill:#e6e6e6;stroke:#050503;stroke-width:0.0167043;stroke-miterlimit:4;stroke-dasharray:0.0167043, 0.0167043;stroke-dashoffset:0;stroke-opacity:1"
       d="m 31.659978,46.136359 c -0.0085,2.922749 -0.01704,5.845498 -0.02559,8.768247 0.800794,0.651015 1.762319,1.156263 2.805417,1.238829 0.646967,0.05146 1.303817,-0.0618 1.900584,-0.316187 0.574755,-0.239171 1.099339,-0.588542 1.564654,-1.000226 0.0038,-4.04405 0.0076,-8.088101 0.01146,-12.132151 -0.6252,0.587938 -1.484252,0.829164 -2.31484,0.940713 -0.504616,0.05693 -1.016267,0.05061 -1.521907,0.0097 -0.755147,-0.09622 -1.528474,-0.291629 -2.149901,-0.750488 -0.09229,-0.06947 -0.174834,-0.150482 -0.259765,-0.228478 -0.0034,1.156668 -0.0067,2.313334 -0.01011,3.470002 z"
       id="path3392" />
    <path
       style="fill:none;fill-rule:evenodd;stroke:#000000;stroke-width:0.264583;stroke-linecap:butt;stroke-linejoin:miter;stroke-miterlimit:4;stroke-dasharray:0.264583, 0.79375;stroke-dashoffset:0;stroke-opacity:1"
       d="M 28.442028,28.62434 16.157803,32.026125"
       id="path3398" />
    <path
       style="fill:#e6e6e6;stroke:#050503;stroke-width:0.0167043;stroke-miterlimit:4;stroke-dasharray:0.0167043, 0.0501129;stroke-dashoffset:0;stroke-opacity:1"
       d="m 38.738772,22.739149 c -3.346079,0.898067 -6.695048,1.78712 -10.039798,2.68904 0.09037,0.105558 0.232907,0.16887 0.330792,0.273013 0.660233,0.582112 1.060897,1.400304 1.322871,2.227485 0.270193,0.903345 0.393234,1.878097 0.186521,2.80757 -0.05101,0.255564 -0.168262,0.489577 -0.266714,0.727747 3.937712,-1.036407 7.874723,-2.089034 11.812324,-3.131084 0.2822,-0.620962 0.47396,-1.289635 0.52531,-1.971088 0.0399,-0.584383 -0.0331,-1.177324 -0.24297,-1.725732 -0.3606,-0.983305 -1.11929,-1.771007 -1.982955,-2.337855 -0.54846,0.146968 -1.09692,0.293936 -1.645381,0.440904 z"
       id="path3400" />
    <path
       id="path3398-5"
       d="m 50.769708,22.489646 -8.24177,2.366116"
       style="fill:none;fill-rule:evenodd;stroke:#000000;stroke-width:0.264583;stroke-linecap:butt;stroke-linejoin:miter;stroke-miterlimit:4;stroke-dasharray:0.264583, 0.79375;stroke-dashoffset:0;stroke-opacity:1"
       sodipodi:nodetypes="cc" />
    <path
       style="fill:none;fill-rule:evenodd;stroke:#000000;stroke-width:0.264583;stroke-linecap:butt;stroke-linejoin:miter;stroke-miterlimit:4;stroke-dasharray:0.264583, 0.264583;stroke-dashoffset:0;stroke-opacity:1;marker-start:url(#marker3436)"
       d="m 22.557485,33.977006 c -2.389593,-1.129385 -4.886458,-3.67647 -1.415937,-7.132741"
       id="path3432"
       sodipodi:nodetypes="cc" />
    <path
       style="fill:#e6e6e6;stroke:#050503;stroke-width:0.0236235;stroke-miterlimit:4;stroke-dasharray:0.0236235, 0.0236235;stroke-dashoffset:0;stroke-opacity:1"
       d="m 62.216544,36.754461 c 2.196582,0.584845 4.388446,1.18791 6.587978,1.761413 0.137347,0.06571 0.02744,-0.08657 0.0075,-0.141051 -0.380645,-0.893746 -0.329621,-1.90458 -0.123593,-2.834931 0.235361,-0.990465 0.654666,-1.983496 1.408066,-2.691942 0.122353,-0.127517 0.298556,-0.209996 0.417689,-0.328119 -2.386157,-0.659836 -4.783813,-1.296892 -7.174607,-1.947173 -1.539518,-0.416343 -3.079071,-0.832592 -4.618603,-1.248887 -0.908973,0.665147 -1.715663,1.561236 -2.005456,2.674132 -0.238258,0.848079 -0.158134,1.757696 0.127385,2.583823 0.09008,0.281876 0.201922,0.556622 0.335881,0.820517 1.679233,0.450724 3.358463,0.901451 5.037718,1.352131 z"
       id="path3494" />
    <path
       id="path2565"
       d="m 70.79055,35.83446 9.773785,3.212168"
       style="fill:none;fill-rule:evenodd;stroke:#000000;stroke-width:1.45;stroke-linecap:butt;stroke-linejoin:miter;stroke-miterlimit:4;stroke-dasharray:none;stroke-opacity:1" />
    <path
       sodipodi:nodetypes="cc"
       id="path3432-7"
       d="m 53.854119,35.996659 c -1.768772,-2.501429 -2.83816,-6.495075 2.634235,-8.006862"
       style="fill:none;fill-rule:evenodd;stroke:#000000;stroke-width:0.306684;stroke-linecap:butt;stroke-linejoin:miter;stroke-miterlimit:4;stroke-dasharray:0.306684, 0.306684;stroke-dashoffset:0;stroke-opacity:1;marker-start:url(#marker3436-8)" />
    <g
       transform="matrix(0.65582654,0,0,0.65582654,-148.9121,-4.5467022)"
       id="id-79cc0bd1-fbea-4cd0-bdad-33aaeb25d624"
       style="fill:#000000;fill-opacity:1">
      <g
         transform="translate(231.732,134.765)"
         id="g1515">
        <path
           id="id-300dd6ac-95a8-446c-ba19-03976323e36f"
           d="M 3.328125,-3.015625 C 3.390625,-3.265625 3.625,-4.1875 4.3125,-4.1875 c 0.046875,0 0.296875,0 0.5,0.125 C 4.53125,-4 4.34375,-3.765625 4.34375,-3.515625 c 0,0.15625 0.109375,0.34375 0.375,0.34375 0.21875,0 0.53125,-0.171875 0.53125,-0.578125 0,-0.515625 -0.578125,-0.65625 -0.921875,-0.65625 -0.578125,0 -0.921875,0.53125 -1.046875,0.75 -0.25,-0.65625 -0.78125,-0.75 -1.078125,-0.75 -1.03125,0 -1.609375,1.28125 -1.609375,1.53125 0,0.109375 0.109375,0.109375 0.125,0.109375 0.078125,0 0.109375,-0.03125 0.125,-0.109375 0.34375,-1.0625 1,-1.3125 1.34375,-1.3125 0.1875,0 0.53125,0.09375 0.53125,0.671875 0,0.3125 -0.171875,0.96875 -0.53125,2.375 -0.15625,0.609375 -0.515625,1.03125 -0.953125,1.03125 -0.0625,0 -0.28125,0 -0.5,-0.125 0.25,-0.0625 0.46875,-0.265625 0.46875,-0.546875 0,-0.265625 -0.21875,-0.34375 -0.359375,-0.34375 -0.3125,0 -0.546875,0.25 -0.546875,0.578125 0,0.453125 0.484375,0.65625 0.921875,0.65625 0.671875,0 1.03125,-0.703125 1.046875,-0.75 0.125,0.359375 0.484375,0.75 1.078125,0.75 1.03125,0 1.59375,-1.28125 1.59375,-1.53125 0,-0.109375 -0.078125,-0.109375 -0.109375,-0.109375 -0.09375,0 -0.109375,0.046875 -0.140625,0.109375 -0.328125,1.078125 -1,1.3125 -1.3125,1.3125 -0.390625,0 -0.546875,-0.3125 -0.546875,-0.65625 0,-0.21875 0.046875,-0.4375 0.15625,-0.875 z m 0,0"
           style="stroke:none" />
      </g>
    </g>
    <g
       transform="matrix(0.65582654,0,0,0.65582654,-72.955087,-25.342109)"
       id="id-41aed6a6-d401-4a9c-a2e5-868e859474e9"
       style="fill:#000000;fill-opacity:1">
      <g
         transform="translate(240.743,134.765)"
         id="g1519">
        <path
           id="id-1435873c-6d19-457b-b107-3226457a8ff1"
           d="m 4.84375,-3.796875 c 0.046875,-0.140625 0.046875,-0.15625 0.046875,-0.234375 0,-0.171875 -0.140625,-0.265625 -0.296875,-0.265625 -0.09375,0 -0.25,0.0625 -0.34375,0.203125 -0.015625,0.0625 -0.109375,0.359375 -0.140625,0.546875 -0.078125,0.25 -0.140625,0.53125 -0.203125,0.796875 l -0.453125,1.796875 c -0.03125,0.140625 -0.46875,0.84375 -1.125,0.84375 -0.5,0 -0.609375,-0.4375 -0.609375,-0.8125 C 1.71875,-1.375 1.890625,-2 2.21875,-2.875 2.375,-3.28125 2.421875,-3.390625 2.421875,-3.59375 c 0,-0.4375 -0.3125,-0.8125 -0.8125,-0.8125 -0.953125,0 -1.3125,1.453125 -1.3125,1.53125 0,0.109375 0.09375,0.109375 0.109375,0.109375 0.109375,0 0.109375,-0.03125 0.15625,-0.1875 0.28125,-0.9375 0.671875,-1.234375 1.015625,-1.234375 0.078125,0 0.25,0 0.25,0.3125 0,0.25 -0.109375,0.515625 -0.171875,0.703125 -0.40625,1.0625 -0.578125,1.625 -0.578125,2.09375 0,0.890625 0.625,1.1875 1.21875,1.1875 0.390625,0 0.71875,-0.171875 1,-0.453125 -0.125,0.515625 -0.25,1.015625 -0.640625,1.546875 -0.265625,0.328125 -0.640625,0.625 -1.09375,0.625 -0.140625,0 -0.59375,-0.03125 -0.765625,-0.421875 0.15625,0 0.296875,0 0.421875,-0.125 C 1.328125,1.203125 1.421875,1.0625 1.421875,0.875 1.421875,0.5625 1.15625,0.53125 1.0625,0.53125 0.828125,0.53125 0.5,0.6875 0.5,1.171875 c 0,0.5 0.4375,0.875 1.0625,0.875 1.015625,0 2.046875,-0.90625 2.328125,-2.03125 z m 0,0"
           style="stroke:none" />
      </g>
    </g>
    <g
       transform="matrix(0.73223252,0,0,0.73223252,-107.31692,-93.300767)"
       id="id-3e5a33a5-67b7-484c-a51e-519ce9c0c14e"
       style="fill:#000000;fill-opacity:1">
      <g
         transform="translate(187.881,134.765)"
         id="g3973">
        <path
           id="id-aa997fbe-2e9e-4211-9f70-1bf7b31a4fc8"
           d="m 1.328125,-0.828125 c 0.53125,-0.578125 0.828125,-0.828125 1.1875,-1.140625 0,0 0.609375,-0.53125 0.96875,-0.890625 C 4.4375,-3.78125 4.65625,-4.265625 4.65625,-4.3125 c 0,-0.09375 -0.09375,-0.09375 -0.109375,-0.09375 -0.078125,0 -0.09375,0.015625 -0.15625,0.109375 -0.296875,0.484375 -0.5,0.640625 -0.734375,0.640625 -0.25,0 -0.359375,-0.15625 -0.515625,-0.328125 -0.1875,-0.21875 -0.359375,-0.421875 -0.6875,-0.421875 -0.75,0 -1.203125,0.921875 -1.203125,1.140625 0,0.046875 0.03125,0.109375 0.109375,0.109375 0.09375,0 0.109375,-0.046875 0.140625,-0.109375 0.1875,-0.46875 0.765625,-0.46875 0.84375,-0.46875 0.203125,0 0.390625,0.0625 0.625,0.140625 0.40625,0.15625 0.515625,0.15625 0.765625,0.15625 -0.359375,0.421875 -1.1875,1.140625 -1.375,1.296875 l -0.90625,0.84375 C 0.78125,-0.625 0.421875,-0.0625 0.421875,0.015625 c 0,0.09375 0.109375,0.09375 0.125,0.09375 0.078125,0 0.09375,-0.015625 0.15625,-0.125 0.234375,-0.359375 0.53125,-0.625 0.859375,-0.625 0.21875,0 0.328125,0.09375 0.578125,0.375 0.15625,0.21875 0.34375,0.375 0.625,0.375 1,0 1.578125,-1.265625 1.578125,-1.53125 0,-0.046875 -0.046875,-0.109375 -0.125,-0.109375 -0.09375,0 -0.109375,0.0625 -0.140625,0.140625 C 3.84375,-0.75 3.203125,-0.5625 2.875,-0.5625 c -0.1875,0 -0.375,-0.0625 -0.578125,-0.125 -0.34375,-0.125 -0.5,-0.171875 -0.703125,-0.171875 -0.015625,0 -0.171875,0 -0.265625,0.03125 z m 0,0"
           style="stroke:none" />
      </g>
    </g>
    <path
       id="path4864"
       d="M 56.562793,32.01727 36.719044,26.064145"
       style="fill:none;fill-rule:evenodd;stroke:#000000;stroke-width:1.45;stroke-linecap:butt;stroke-linejoin:miter;stroke-miterlimit:4;stroke-dasharray:none;stroke-opacity:1" />
    <ellipse
       ry="0.57993144"
       rx="0.61616099"
       cy="41.778889"
       cx="34.853455"
       id="path7264"
       style="fill:#090a00;fill-opacity:1;stroke:#050503;stroke-width:0.329073;stroke-miterlimit:4;stroke-dasharray:none" />
    <ellipse
       ry="0.68083495"
       rx="0.72336811"
       cy="26.080755"
       cx="36.58691"
       id="path7264-5"
       style="fill:#090a00;fill-opacity:1;stroke:#050503;stroke-width:0.386329;stroke-miterlimit:4;stroke-dasharray:none" />
    <ellipse
       ry="0.67717737"
       rx="0.71340692"
       cy="35.854584"
       cx="70.858719"
       id="path7264-4"
       style="fill:#090a00;fill-opacity:1;stroke:#050503;stroke-width:0.382628;stroke-miterlimit:4;stroke-dasharray:none" />
  </g>
</svg>
