<?xml version="1.0" encoding="UTF-8" standalone="no"?>
<svg
   xmlns:dc="http://purl.org/dc/elements/1.1/"
   xmlns:cc="http://creativecommons.org/ns#"
   xmlns:rdf="http://www.w3.org/1999/02/22-rdf-syntax-ns#"
   xmlns:svg="http://www.w3.org/2000/svg"
   xmlns="http://www.w3.org/2000/svg"
   xmlns:sodipodi="http://sodipodi.sourceforge.net/DTD/sodipodi-0.dtd"
   xmlns:inkscape="http://www.inkscape.org/namespaces/inkscape"
   sodipodi:docname="roboExConvexHull_2.svg"
   inkscape:version="1.0 (4035a4fb49, 2020-05-01)"
   id="svg1861"
   version="1.1"
   viewBox="0 0 74 100"
   height="100mm"
   width="74mm">
  <defs
     id="defs1855">
    <clipPath
       clipPathUnits="userSpaceOnUse"
       id="clipPath1">
      <path
         d="M0 0 L815 0 L815 698 L0 698 L0 0 Z"
         id="path2425" />
    </clipPath>
    <defs
       id="defs2757">
      <clipPath
         id="clipPath2755"
         clipPathUnits="userSpaceOnUse">
        <path
           id="path2753"
           d="M 0,0 H 815 V 698 H 0 Z" />
      </clipPath>
    </defs>
  </defs>
  <sodipodi:namedview
     inkscape:window-maximized="1"
     inkscape:window-y="-8"
     inkscape:window-x="-8"
     inkscape:window-height="837"
     inkscape:window-width="1600"
     inkscape:pagecheckerboard="true"
     showgrid="false"
     inkscape:document-rotation="0"
     inkscape:current-layer="layer1"
     inkscape:document-units="mm"
     inkscape:cy="183.84765"
     inkscape:cx="66.28111"
     inkscape:zoom="1.4"
     inkscape:pageshadow="2"
     inkscape:pageopacity="0.0"
     borderopacity="1.0"
     bordercolor="#666666"
     pagecolor="#ffffff"
     id="base" />
  <metadata
     id="metadata1858">
    <rdf:RDF>
      <cc:Work
         rdf:about="">
        <dc:format>image/svg+xml</dc:format>
        <dc:type
           rdf:resource="http://purl.org/dc/dcmitype/StillImage" />
        <dc:title></dc:title>
      </cc:Work>
    </rdf:RDF>
  </metadata>
  <g
     id="layer1"
     inkscape:groupmode="layer"
     inkscape:label="Layer 1">
    <g
       transform="matrix(0.16253608,0,0,0.16253608,-28.800404,-7.0416027)"
       id="g2811"
       style="font-style:normal;font-weight:normal;font-size:12px;font-family:Dialog;color-interpolation:linearRGB;fill:#262626;fill-opacity:0.149;stroke:#262626;stroke-width:0.6667;stroke-linecap:butt;stroke-linejoin:round;stroke-miterlimit:10;stroke-dasharray:none;stroke-dashoffset:0;stroke-opacity:0.149;color-rendering:optimizeQuality;image-rendering:optimizeQuality;shape-rendering:auto;text-rendering:geometricPrecision">
      <line
         id="line2769"
         y1="621"
         x2="218.78571"
         x1="218.78571"
         style="fill:none"
         y2="52" />
      <line
         id="line2771"
         y1="621"
         x2="300.07141"
         x1="300.07141"
         style="fill:none"
         y2="52" />
      <line
         id="line2773"
         y1="621"
         x2="381.35709"
         x1="381.35709"
         style="fill:none"
         y2="52" />
      <line
         id="line2775"
         y1="621"
         x2="462.64291"
         x1="462.64291"
         style="fill:none"
         y2="52" />
      <line
         id="line2777"
         y1="621"
         x2="543.92859"
         x1="543.92859"
         style="fill:none"
         y2="52" />
      <line
         id="line2779"
         y1="621"
         x2="625.21429"
         x1="625.21429"
         style="fill:none"
         y2="52" />
      <line
         id="line2781"
         y1="621"
         x2="218.78571"
         x1="625.21429"
         style="fill:none"
         y2="621" />
      <line
         id="line2783"
         y1="539.71429"
         x2="218.78571"
         x1="625.21429"
         style="fill:none"
         y2="539.71429" />
      <line
         id="line2785"
         y1="458.42859"
         x2="218.78571"
         x1="625.21429"
         style="fill:none"
         y2="458.42859" />
      <line
         id="line2787"
         y1="377.14291"
         x2="218.78571"
         x1="625.21429"
         style="fill:none"
         y2="377.14291" />
      <line
         id="line2789"
         y1="295.85709"
         x2="218.78571"
         x1="625.21429"
         style="fill:none"
         y2="295.85709" />
      <line
         id="line2791"
         y1="214.5714"
         x2="218.78571"
         x1="625.21429"
         style="fill:none"
         y2="214.5714" />
      <line
         id="line2793"
         y1="133.28571"
         x2="218.78571"
         x1="625.21429"
         style="fill:none"
         y2="133.28571" />
      <line
         id="line2795"
         y1="52"
         x2="218.78571"
         x1="625.21429"
         style="fill:none"
         y2="52" />
      <line
         id="line2797"
         y2="621"
         style="fill:none;fill-opacity:1;stroke-linecap:square;stroke-opacity:1"
         y1="621"
         x2="625.21429"
         x1="218.78571" />
      <line
         id="line2799"
         y2="615.31"
         style="fill:none;fill-opacity:1;stroke-linecap:square;stroke-opacity:1"
         y1="621"
         x2="218.78571"
         x1="218.78571" />
      <line
         id="line2801"
         y2="615.31"
         style="fill:none;fill-opacity:1;stroke-linecap:square;stroke-opacity:1"
         y1="621"
         x2="300.07141"
         x1="300.07141" />
      <line
         id="line2803"
         y2="615.31"
         style="fill:none;fill-opacity:1;stroke-linecap:square;stroke-opacity:1"
         y1="621"
         x2="381.35709"
         x1="381.35709" />
      <line
         id="line2805"
         y2="615.31"
         style="fill:none;fill-opacity:1;stroke-linecap:square;stroke-opacity:1"
         y1="621"
         x2="462.64291"
         x1="462.64291" />
      <line
         id="line2807"
         y2="615.31"
         style="fill:none;fill-opacity:1;stroke-linecap:square;stroke-opacity:1"
         y1="621"
         x2="543.92859"
         x1="543.92859" />
      <line
         id="line2809"
         y2="615.31"
         style="fill:none;fill-opacity:1;stroke-linecap:square;stroke-opacity:1"
         y1="621"
         x2="625.21429"
         x1="625.21429" />
    </g>
    <g
       id="g2815"
       style="font-style:normal;font-weight:normal;font-size:13px;font-family:SansSerif;color-interpolation:linearRGB;fill:#262626;fill-opacity:1;stroke:#262626;stroke-width:1;stroke-linecap:square;stroke-linejoin:miter;stroke-miterlimit:10;stroke-dasharray:none;stroke-dashoffset:0;stroke-opacity:1;color-rendering:optimizeQuality;image-rendering:optimizeQuality;shape-rendering:auto;text-rendering:geometricPrecision"
       transform="matrix(0.16253608,0,0,0.16253608,6.7601665,94.760163)">
      <path
         id="path2813"
         d="m -5.5938,11.2031 v -1.1406 h 3.5157 v 1.1406 z M 4.876,12.9062 V 14 h -6.1563 q -0.0156,-0.4062 0.1407,-0.7969 0.2343,-0.625 0.75,-1.2343 0.5156,-0.6094 1.5,-1.4063 Q 2.626,9.3125 3.1572,8.5859 3.6885,7.8594 3.6885,7.2188 3.6885,6.5312 3.2041,6.0703 2.7197,5.6094 1.9385,5.6094 1.1104,5.6094 0.6182,6.1016 0.126,6.5938 0.1104,7.4688 l -1.1719,-0.125 q 0.125,-1.3126 0.9062,-2 0.7813,-0.6876 2.1094,-0.6876 1.3438,0 2.125,0.7422 0.7813,0.7422 0.7813,1.836 0,0.5625 -0.2266,1.1015 Q 4.4072,8.875 3.876,9.4766 3.3447,10.0781 2.1104,11.1094 1.0791,11.9688 0.79,12.2812 0.501,12.5938 0.3135,12.9062 Z"
         style="stroke:none" />
    </g>
    <g
       id="g2819"
       style="font-style:normal;font-weight:normal;font-size:13px;font-family:SansSerif;color-interpolation:linearRGB;fill:#262626;fill-opacity:1;stroke:#262626;stroke-width:1;stroke-linecap:square;stroke-linejoin:miter;stroke-miterlimit:10;stroke-dasharray:none;stroke-dashoffset:0;stroke-opacity:1;color-rendering:optimizeQuality;image-rendering:optimizeQuality;shape-rendering:auto;text-rendering:geometricPrecision"
       transform="matrix(0.16253608,0,0,0.16253608,19.972025,94.760163)">
      <path
         id="path2817"
         d="m -5.5938,11.2031 v -1.1406 h 3.5157 v 1.1406 z M 3.1729,14 H 2.0322 V 6.7188 Q 1.6104,7.1094 0.9463,7.5078 0.2822,7.9062 -0.249,8.0938 V 6.9844 Q 0.7041,6.5469 1.4229,5.9062 2.1416,5.2656 2.4385,4.6562 h 0.7344 z"
         style="stroke:none" />
    </g>
    <g
       id="g2823"
       style="font-style:normal;font-weight:normal;font-size:13px;font-family:SansSerif;color-interpolation:linearRGB;fill:#262626;fill-opacity:1;stroke:#262626;stroke-width:1;stroke-linecap:square;stroke-linejoin:miter;stroke-miterlimit:10;stroke-dasharray:none;stroke-dashoffset:0;stroke-opacity:1;color-rendering:optimizeQuality;image-rendering:optimizeQuality;shape-rendering:auto;text-rendering:geometricPrecision"
       transform="matrix(0.16253608,0,0,0.16253608,33.183883,94.760163)">
      <path
         id="path2821"
         d="m -3.4531,9.4062 q 0,-1.6406 0.3359,-2.6484 0.336,-1.0078 1.0078,-1.5547 0.6719,-0.5469 1.6875,-0.5469 0.75,0 1.3125,0.3047 0.5625,0.3047 0.9297,0.8672 0.3672,0.5625 0.5781,1.3828 0.211,0.8203 0.211,2.1953 0,1.6407 -0.336,2.6485 -0.3359,1.0078 -1.0078,1.5547 -0.6718,0.5468 -1.6875,0.5468 -1.3437,0 -2.125,-0.9687 -0.9062,-1.1563 -0.9062,-3.7813 z m 1.1719,0 q 0,2.2969 0.5312,3.0547 0.5312,0.7579 1.3281,0.7579 0.7813,0 1.3203,-0.7579 0.5391,-0.7578 0.5391,-3.0547 0,-2.2968 -0.5391,-3.0468 -0.539,-0.75 -1.3359,-0.75 -0.7813,0 -1.2656,0.6562 -0.5781,0.8594 -0.5781,3.1406 z"
         style="stroke:none" />
    </g>
    <g
       id="g2827"
       style="font-style:normal;font-weight:normal;font-size:13px;font-family:SansSerif;color-interpolation:linearRGB;fill:#262626;fill-opacity:1;stroke:#262626;stroke-width:1;stroke-linecap:square;stroke-linejoin:miter;stroke-miterlimit:10;stroke-dasharray:none;stroke-dashoffset:0;stroke-opacity:1;color-rendering:optimizeQuality;image-rendering:optimizeQuality;shape-rendering:auto;text-rendering:geometricPrecision"
       transform="matrix(0.16253608,0,0,0.16253608,46.39576,94.760163)">
      <path
         id="path2825"
         d="M 0.8438,14 H -0.2969 V 6.7188 q -0.4219,0.3906 -1.0859,0.789 -0.6641,0.3984 -1.1953,0.586 V 6.9844 q 0.9531,-0.4375 1.6719,-1.0782 0.7187,-0.6406 1.0156,-1.25 h 0.7344 z"
         style="stroke:none" />
    </g>
    <g
       id="g2831"
       style="font-style:normal;font-weight:normal;font-size:13px;font-family:SansSerif;color-interpolation:linearRGB;fill:#262626;fill-opacity:1;stroke:#262626;stroke-width:1;stroke-linecap:square;stroke-linejoin:miter;stroke-miterlimit:10;stroke-dasharray:none;stroke-dashoffset:0;stroke-opacity:1;color-rendering:optimizeQuality;image-rendering:optimizeQuality;shape-rendering:auto;text-rendering:geometricPrecision"
       transform="matrix(0.16253608,0,0,0.16253608,59.607618,94.760163)">
      <path
         id="path2829"
         d="M 2.5469,12.9062 V 14 h -6.1563 q -0.0156,-0.4062 0.1406,-0.7969 0.2344,-0.625 0.75,-1.2343 0.5157,-0.6094 1.5,-1.4063 1.5157,-1.25 2.0469,-1.9766 0.5313,-0.7265 0.5313,-1.3671 0,-0.6876 -0.4844,-1.1485 -0.4844,-0.4609 -1.2656,-0.4609 -0.8282,0 -1.3203,0.4922 -0.4922,0.4922 -0.5079,1.3672 l -1.1718,-0.125 q 0.125,-1.3126 0.9062,-2 0.7813,-0.6876 2.1094,-0.6876 1.3438,0 2.125,0.7422 0.7812,0.7422 0.7812,1.836 0,0.5625 -0.2265,1.1015 -0.2266,0.5391 -0.7578,1.1407 -0.5313,0.6015 -1.7657,1.6328 -1.0312,0.8594 -1.3203,1.1718 -0.289,0.3126 -0.4765,0.625 z"
         style="stroke:none" />
    </g>
    <g
       id="g2835"
       style="font-style:normal;font-weight:normal;font-size:13px;font-family:SansSerif;color-interpolation:linearRGB;fill:#262626;fill-opacity:1;stroke:#262626;stroke-width:1;stroke-linecap:square;stroke-linejoin:miter;stroke-miterlimit:10;stroke-dasharray:none;stroke-dashoffset:0;stroke-opacity:1;color-rendering:optimizeQuality;image-rendering:optimizeQuality;shape-rendering:auto;text-rendering:geometricPrecision"
       transform="matrix(0.16253608,0,0,0.16253608,72.819477,94.760163)">
      <path
         id="path2833"
         d="m -3.4531,11.5469 1.1406,-0.1563 q 0.2031,0.9688 0.6719,1.3985 0.4687,0.4297 1.1562,0.4297 0.7969,0 1.3516,-0.5547 0.5547,-0.5547 0.5547,-1.3829 0,-0.7968 -0.5078,-1.3046 -0.5079,-0.5078 -1.3047,-0.5078 -0.3282,0 -0.8125,0.125 l 0.125,-1 q 0.125,0.0156 0.1875,0.0156 0.7344,0 1.3203,-0.3828 0.5859,-0.3828 0.5859,-1.1797 0,-0.625 -0.4297,-1.0391 -0.4297,-0.414 -1.1015,-0.414 -0.6719,0 -1.1094,0.4218 -0.4375,0.4219 -0.5781,1.25 L -3.3438,7.0625 q 0.2188,-1.1406 0.961,-1.7734 0.7422,-0.6329 1.8359,-0.6329 0.7657,0 1.4063,0.3282 0.6406,0.3281 0.9844,0.8906 0.3437,0.5625 0.3437,1.2031 0,0.5938 -0.3281,1.0938 -0.3282,0.5 -0.9532,0.7812 0.8126,0.2031 1.2735,0.7969 0.4609,0.5938 0.4609,1.5 0,1.2188 -0.8906,2.0703 -0.8906,0.8516 -2.25,0.8516 -1.2188,0 -2.0312,-0.7344 -0.8126,-0.7344 -0.9219,-1.8906 z"
         style="stroke:none" />
    </g>
    <g
       id="g2839"
       style="font-style:normal;font-weight:normal;font-size:33px;font-family:mwa_cmmi10;color-interpolation:linearRGB;fill:#262626;fill-opacity:1;stroke:#262626;stroke-width:1;stroke-linecap:square;stroke-linejoin:miter;stroke-miterlimit:10;stroke-dasharray:none;stroke-dashoffset:0;stroke-opacity:1;color-rendering:optimizeQuality;image-rendering:optimizeQuality;shape-rendering:auto;text-rendering:geometricPrecision"
       transform="matrix(0.16253608,0,0,0.16253608,40.132223,94.74413)">
      <path
         id="path2837"
         d="m -6.9473,27.0468 q 0.5781,0.4531 1.6406,0.4531 1.0312,0 1.8203,-0.9922 0.7891,-0.9922 1.0859,-2.1641 l 1.5,-5.8437 q 0.3438,-1.6094 0.3438,-2.1875 0,-0.8125 -0.4531,-1.4297 -0.4532,-0.6172 -1.2813,-0.6172 -1.0469,0 -1.9687,0.6563 -0.9219,0.6562 -1.5469,1.664 -0.625,1.0078 -0.875,2.0391 -0.0781,0.2031 -0.2656,0.2031 h -0.4063 q -0.25,0 -0.25,-0.2969 v -0.1093 q 0.3125,-1.2188 1.086,-2.3829 0.7734,-1.164 1.8984,-1.8906 1.125,-0.7265 2.3906,-0.7265 1.2188,0 2.1875,0.6406 0.9688,0.6406 1.375,1.75 0.5625,-1.0156 1.4453,-1.7031 0.8828,-0.6875 1.9297,-0.6875 0.7031,0 1.4453,0.25 0.7422,0.25 1.211,0.7656 0.4687,0.5156 0.4687,1.2812 0,0.8438 -0.539,1.4453 -0.5391,0.6016 -1.3829,0.6016 -0.5312,0 -0.8828,-0.3359 -0.3515,-0.336 -0.3515,-0.8516 0,-0.7031 0.4687,-1.2266 0.4688,-0.5234 1.1406,-0.6171 -0.5937,-0.4688 -1.6562,-0.4688 -1.0625,0 -1.8438,0.9844 -0.7812,0.9844 -1.0937,2.2031 l -1.4531,5.8281 q -0.3594,1.3125 -0.3594,2.1719 0,0.8438 0.4766,1.4453 0.4765,0.6016 1.2734,0.6016 1.5469,0 2.7578,-1.3594 1.2109,-1.3594 1.6016,-2.9844 0.0625,-0.2031 0.2656,-0.2031 h 0.3906 q 0.1406,0 0.2188,0.0938 0.0781,0.0937 0.0781,0.2031 0,0.0312 -0.0313,0.0937 -0.4687,1.9688 -1.9687,3.5 -1.5,1.5313 -3.375,1.5313 -1.2188,0 -2.1953,-0.6563 -0.9766,-0.6562 -1.3672,-1.7656 -0.5156,0.9688 -1.4297,1.6953 -0.9141,0.7266 -1.9453,0.7266 -0.7031,0 -1.4531,-0.25 -0.75,-0.25 -1.2188,-0.7656 -0.4687,-0.5157 -0.4687,-1.3125 0,-0.7657 0.539,-1.4063 0.5391,-0.6406 1.3516,-0.6406 0.5469,0 0.9141,0.3359 0.3671,0.336 0.3671,0.8672 0,0.6875 -0.4609,1.2031 -0.4609,0.5157 -1.1484,0.6407 z"
         style="stroke:none" />
    </g>
    <g
       transform="matrix(0.16253608,0,0,0.16253608,-28.800404,-7.0416027)"
       id="g2859"
       style="font-style:normal;font-weight:normal;font-size:12px;font-family:Dialog;color-interpolation:linearRGB;fill:#262626;fill-opacity:1;stroke:#262626;stroke-width:0.6667;stroke-linecap:square;stroke-linejoin:round;stroke-miterlimit:10;stroke-dasharray:none;stroke-dashoffset:0;stroke-opacity:1;color-rendering:optimizeQuality;image-rendering:optimizeQuality;shape-rendering:auto;text-rendering:geometricPrecision">
      <line
         id="line2841"
         y1="621"
         x2="218.78571"
         x1="218.78571"
         style="fill:none"
         y2="52" />
      <line
         id="line2843"
         y1="621"
         x2="224.47569"
         x1="218.78571"
         style="fill:none"
         y2="621" />
      <line
         id="line2845"
         y1="539.71429"
         x2="224.47569"
         x1="218.78571"
         style="fill:none"
         y2="539.71429" />
      <line
         id="line2847"
         y1="458.42859"
         x2="224.47569"
         x1="218.78571"
         style="fill:none"
         y2="458.42859" />
      <line
         id="line2849"
         y1="377.14291"
         x2="224.47569"
         x1="218.78571"
         style="fill:none"
         y2="377.14291" />
      <line
         id="line2851"
         y1="295.85709"
         x2="224.47569"
         x1="218.78571"
         style="fill:none"
         y2="295.85709" />
      <line
         id="line2853"
         y1="214.5714"
         x2="224.47569"
         x1="218.78571"
         style="fill:none"
         y2="214.5714" />
      <line
         id="line2855"
         y1="133.28571"
         x2="224.47569"
         x1="218.78571"
         style="fill:none"
         y2="133.28571" />
      <line
         id="line2857"
         y1="52"
         x2="224.47569"
         x1="218.78571"
         style="fill:none"
         y2="52" />
    </g>
    <g
       id="g2863"
       style="font-style:normal;font-weight:normal;font-size:13px;font-family:SansSerif;color-interpolation:linearRGB;fill:#262626;fill-opacity:1;stroke:#262626;stroke-width:1;stroke-linecap:square;stroke-linejoin:miter;stroke-miterlimit:10;stroke-dasharray:none;stroke-dashoffset:0;stroke-opacity:1;color-rendering:optimizeQuality;image-rendering:optimizeQuality;shape-rendering:auto;text-rendering:geometricPrecision"
       transform="matrix(0.16253608,0,0,0.16253608,5.8933125,93.893296)">
      <path
         id="path2861"
         d="M -11.5938,2.7031 V 1.5625 h 3.5157 v 1.1406 z m 4.4698,0.3438 1.1406,-0.1563 q 0.2031,0.9688 0.6719,1.3985 0.4687,0.4297 1.1562,0.4297 0.7969,0 1.3516,-0.5547 0.5547,-0.5547 0.5547,-1.3829 0,-0.7968 -0.5078,-1.3046 -0.5078,-0.5078 -1.3047,-0.5078 -0.3281,0 -0.8125,0.125 l 0.125,-1 q 0.125,0.0156 0.1875,0.0156 0.7344,0 1.3203,-0.3828 0.5859,-0.3828 0.5859,-1.1797 0,-0.625 -0.4297,-1.0391 -0.4296,-0.414 -1.1015,-0.414 -0.6719,0 -1.1094,0.4218 -0.4375,0.4219 -0.5781,1.25 l -1.1406,-0.2031 q 0.2187,-1.1406 0.9609,-1.7734 0.7422,-0.6329 1.8359,-0.6329 0.7657,0 1.4063,0.3282 0.6406,0.3281 0.9844,0.8906 0.3437,0.5625 0.3437,1.2031 0,0.5938 -0.3281,1.0938 -0.3281,0.5 -0.9531,0.7812 0.8125,0.2031 1.2734,0.7969 0.4609,0.5938 0.4609,1.5 0,1.2188 -0.8906,2.0703 -0.8906,0.8516 -2.25,0.8516 -1.2187,0 -2.0312,-0.7344 Q -7.0146,4.2031 -7.124,3.0469 Z"
         style="stroke:none" />
    </g>
    <g
       id="g2867"
       style="font-style:normal;font-weight:normal;font-size:13px;font-family:SansSerif;color-interpolation:linearRGB;fill:#262626;fill-opacity:1;stroke:#262626;stroke-width:1;stroke-linecap:square;stroke-linejoin:miter;stroke-miterlimit:10;stroke-dasharray:none;stroke-dashoffset:0;stroke-opacity:1;color-rendering:optimizeQuality;image-rendering:optimizeQuality;shape-rendering:auto;text-rendering:geometricPrecision"
       transform="matrix(0.16253608,0,0,0.16253608,5.8933125,80.681443)">
      <path
         id="path2865"
         d="M -11.5938,2.7031 V 1.5625 h 3.5157 V 2.7031 Z M -1.124,4.4062 V 5.5 h -6.1563 q -0.0156,-0.4062 0.1407,-0.7969 0.2343,-0.625 0.75,-1.2343 0.5156,-0.6094 1.5,-1.4063 1.5156,-1.25 2.0468,-1.9766 0.5313,-0.7265 0.5313,-1.3671 0,-0.6876 -0.4844,-1.1485 -0.4844,-0.4609 -1.2656,-0.4609 -0.8281,0 -1.3203,0.4922 -0.4922,0.4922 -0.5078,1.3672 l -1.1719,-0.125 q 0.125,-1.3126 0.9062,-2 0.7813,-0.6876 2.1094,-0.6876 1.3438,0 2.125,0.7422 0.7813,0.7422 0.7813,1.836 0,0.5625 -0.2266,1.1015 Q -1.5928,0.375 -2.124,0.9766 -2.6553,1.5781 -3.8896,2.6094 -4.9209,3.4688 -5.21,3.7812 -5.499,4.0938 -5.6865,4.4062 Z"
         style="stroke:none" />
    </g>
    <g
       id="g2871"
       style="font-style:normal;font-weight:normal;font-size:13px;font-family:SansSerif;color-interpolation:linearRGB;fill:#262626;fill-opacity:1;stroke:#262626;stroke-width:1;stroke-linecap:square;stroke-linejoin:miter;stroke-miterlimit:10;stroke-dasharray:none;stroke-dashoffset:0;stroke-opacity:1;color-rendering:optimizeQuality;image-rendering:optimizeQuality;shape-rendering:auto;text-rendering:geometricPrecision"
       transform="matrix(0.16253608,0,0,0.16253608,5.8933125,67.469591)">
      <path
         id="path2869"
         d="M -11.5938,2.7031 V 1.5625 h 3.5157 V 2.7031 Z M -2.8271,5.5 h -1.1407 v -7.2812 q -0.4218,0.3906 -1.0859,0.789 -0.6641,0.3984 -1.1953,0.586 v -1.1094 q 0.9531,-0.4375 1.6719,-1.0782 0.7187,-0.6406 1.0156,-1.25 h 0.7344 z"
         style="stroke:none" />
    </g>
    <g
       id="g2875"
       style="font-style:normal;font-weight:normal;font-size:13px;font-family:SansSerif;color-interpolation:linearRGB;fill:#262626;fill-opacity:1;stroke:#262626;stroke-width:1;stroke-linecap:square;stroke-linejoin:miter;stroke-miterlimit:10;stroke-dasharray:none;stroke-dashoffset:0;stroke-opacity:1;color-rendering:optimizeQuality;image-rendering:optimizeQuality;shape-rendering:auto;text-rendering:geometricPrecision"
       transform="matrix(0.16253608,0,0,0.16253608,5.8933125,54.257727)">
      <path
         id="path2873"
         d="m -7.4531,0.9062 q 0,-1.6406 0.3359,-2.6484 0.336,-1.0078 1.0078,-1.5547 0.6719,-0.5469 1.6875,-0.5469 0.75,0 1.3125,0.3047 0.5625,0.3047 0.9297,0.8672 0.3672,0.5625 0.5781,1.3828 0.211,0.8203 0.211,2.1953 0,1.6407 -0.336,2.6485 -0.3359,1.0078 -1.0078,1.5547 -0.6718,0.5468 -1.6875,0.5468 -1.3437,0 -2.125,-0.9687 -0.9062,-1.1563 -0.9062,-3.7813 z m 1.1719,0 q 0,2.2969 0.5312,3.0547 0.5312,0.7579 1.3281,0.7579 0.7813,0 1.3203,-0.7579 0.5391,-0.7578 0.5391,-3.0547 0,-2.2968 -0.5391,-3.0468 -0.539,-0.75 -1.3359,-0.75 -0.7813,0 -1.2656,0.6562 -0.5781,0.8594 -0.5781,3.1406 z"
         style="stroke:none" />
    </g>
    <g
       id="g2879"
       style="font-style:normal;font-weight:normal;font-size:13px;font-family:SansSerif;color-interpolation:linearRGB;fill:#262626;fill-opacity:1;stroke:#262626;stroke-width:1;stroke-linecap:square;stroke-linejoin:miter;stroke-miterlimit:10;stroke-dasharray:none;stroke-dashoffset:0;stroke-opacity:1;color-rendering:optimizeQuality;image-rendering:optimizeQuality;shape-rendering:auto;text-rendering:geometricPrecision"
       transform="matrix(0.16253608,0,0,0.16253608,5.8933125,41.045852)">
      <path
         id="path2877"
         d="m -3.1562,5.5 h -1.1407 v -7.2812 q -0.4219,0.3906 -1.0859,0.789 -0.6641,0.3984 -1.1953,0.586 v -1.1094 q 0.9531,-0.4375 1.6719,-1.0782 0.7187,-0.6406 1.0156,-1.25 h 0.7344 z"
         style="stroke:none" />
    </g>
    <g
       id="g2883"
       style="font-style:normal;font-weight:normal;font-size:13px;font-family:SansSerif;color-interpolation:linearRGB;fill:#262626;fill-opacity:1;stroke:#262626;stroke-width:1;stroke-linecap:square;stroke-linejoin:miter;stroke-miterlimit:10;stroke-dasharray:none;stroke-dashoffset:0;stroke-opacity:1;color-rendering:optimizeQuality;image-rendering:optimizeQuality;shape-rendering:auto;text-rendering:geometricPrecision"
       transform="matrix(0.16253608,0,0,0.16253608,5.8933125,27.833992)">
      <path
         id="path2881"
         d="M -1.4531,4.4062 V 5.5 h -6.1563 q -0.0156,-0.4062 0.1406,-0.7969 0.2344,-0.625 0.75,-1.2343 0.5157,-0.6094 1.5,-1.4063 1.5157,-1.25 2.0469,-1.9766 0.5313,-0.7265 0.5313,-1.3671 0,-0.6876 -0.4844,-1.1485 -0.4844,-0.4609 -1.2656,-0.4609 -0.8282,0 -1.3203,0.4922 -0.4922,0.4922 -0.5079,1.3672 l -1.1718,-0.125 q 0.125,-1.3126 0.9062,-2 0.7813,-0.6876 2.1094,-0.6876 1.3438,0 2.125,0.7422 0.7812,0.7422 0.7812,1.836 0,0.5625 -0.2265,1.1015 -0.2266,0.5391 -0.7578,1.1407 -0.5313,0.6015 -1.7657,1.6328 -1.0312,0.8594 -1.3203,1.1718 -0.289,0.3126 -0.4765,0.625 z"
         style="stroke:none" />
    </g>
    <g
       id="g2887"
       style="font-style:normal;font-weight:normal;font-size:13px;font-family:SansSerif;color-interpolation:linearRGB;fill:#262626;fill-opacity:1;stroke:#262626;stroke-width:1;stroke-linecap:square;stroke-linejoin:miter;stroke-miterlimit:10;stroke-dasharray:none;stroke-dashoffset:0;stroke-opacity:1;color-rendering:optimizeQuality;image-rendering:optimizeQuality;shape-rendering:auto;text-rendering:geometricPrecision"
       transform="matrix(0.16253608,0,0,0.16253608,5.8933125,14.622133)">
      <path
         id="path2885"
         d="m -7.4531,3.0469 1.1406,-0.1563 q 0.2031,0.9688 0.6719,1.3985 0.4687,0.4297 1.1562,0.4297 0.7969,0 1.3516,-0.5547 0.5547,-0.5547 0.5547,-1.3829 0,-0.7968 -0.5078,-1.3046 -0.5079,-0.5078 -1.3047,-0.5078 -0.3282,0 -0.8125,0.125 l 0.125,-1 q 0.125,0.0156 0.1875,0.0156 0.7344,0 1.3203,-0.3828 0.5859,-0.3828 0.5859,-1.1797 0,-0.625 -0.4297,-1.0391 -0.4297,-0.414 -1.1015,-0.414 -0.6719,0 -1.1094,0.4218 -0.4375,0.4219 -0.5781,1.25 l -1.1407,-0.2031 q 0.2188,-1.1406 0.961,-1.7734 0.7422,-0.6329 1.8359,-0.6329 0.7657,0 1.4063,0.3282 0.6406,0.3281 0.9844,0.8906 0.3437,0.5625 0.3437,1.2031 0,0.5938 -0.3281,1.0938 -0.3282,0.5 -0.9532,0.7812 0.8126,0.2031 1.2735,0.7969 0.4609,0.5938 0.4609,1.5 0,1.2188 -0.8906,2.0703 -0.8906,0.8516 -2.25,0.8516 -1.2188,0 -2.0312,-0.7344 -0.8126,-0.7344 -0.9219,-1.8906 z"
         style="stroke:none" />
    </g>
    <g
       id="g2891"
       style="font-style:normal;font-weight:normal;font-size:13px;font-family:SansSerif;color-interpolation:linearRGB;fill:#262626;fill-opacity:1;stroke:#262626;stroke-width:1;stroke-linecap:square;stroke-linejoin:miter;stroke-miterlimit:10;stroke-dasharray:none;stroke-dashoffset:0;stroke-opacity:1;color-rendering:optimizeQuality;image-rendering:optimizeQuality;shape-rendering:auto;text-rendering:geometricPrecision"
       transform="matrix(0.16253608,0,0,0.16253608,5.8933125,1.4102736)">
      <path
         id="path2889"
         d="M -3.7969,5.5 V 3.2656 H -7.8281 V 2.2188 l 4.2343,-6.0313 h 0.9376 v 6.0313 h 1.2656 V 3.2656 H -2.6562 V 5.5 Z m 0,-3.2812 v -4.1876 l -2.9219,4.1876 z"
         style="stroke:none" />
    </g>
    <g
       id="g2895"
       style="font-style:normal;font-weight:normal;font-size:33px;font-family:mwa_cmmi10;color-interpolation:linearRGB;fill:#262626;fill-opacity:1;stroke:#262626;stroke-width:1;stroke-linecap:square;stroke-linejoin:miter;stroke-miterlimit:10;stroke-dasharray:none;stroke-dashoffset:0;stroke-opacity:1;color-rendering:optimizeQuality;image-rendering:optimizeQuality;shape-rendering:auto;text-rendering:geometricPrecision"
       transform="matrix(0,-0.16253608,0.16253608,0,5.0228599,47.65174)">
      <path
         id="path2893"
         d="m -6.0037,-7.2814 q 0.7031,1.1875 2.4219,1.1875 1.5625,0 2.7109,-1.0937 1.1484,-1.0938 1.8438,-2.6485 0.6953,-1.5546 1.0859,-3.1796 -1.4688,1.3906 -3.1719,1.3906 -1.3125,0 -2.2265,-0.4531 -0.9141,-0.4532 -1.4219,-1.3516 -0.5078,-0.8984 -0.5078,-2.1641 0,-1.0781 0.289,-2.2109 0.2891,-1.1328 0.8125,-2.5313 0.5235,-1.3984 0.9141,-2.4296 0.4375,-1.2032 0.4375,-1.9844 0,-0.9844 -0.7344,-0.9844 -1.2969,0 -2.1484,1.3516 -0.8516,1.3515 -1.2422,3.0078 -0.0781,0.2031 -0.2813,0.2031 h -0.3906 q -0.2656,0 -0.2656,-0.2969 v -0.1093 q 0.5312,-1.9532 1.625,-3.4766 1.0937,-1.5234 2.7656,-1.5234 1.1875,0 2,0.7734 0.8125,0.7734 0.8125,1.9609 0,0.6094 -0.2812,1.2969 -0.1407,0.3906 -0.6563,1.75 -0.5156,1.3594 -0.789,2.2422 -0.2735,0.8828 -0.4532,1.7344 -0.1797,0.8515 -0.1797,1.7109 0,1.0938 0.4688,1.8516 0.4687,0.7578 1.4844,0.7578 2.0468,0 3.6718,-2.5 l 2.5,-10.1719 q 0.1094,-0.4219 0.5157,-0.7422 0.4062,-0.3203 0.875,-0.3203 0.3906,0 0.6953,0.2578 0.3047,0.2578 0.3047,0.6797 0,0.2031 -0.0469,0.2656 l -3.2656,13.125 q -0.4375,1.6875 -1.5938,3.2344 -1.1562,1.5469 -2.7969,2.4922 -1.6406,0.9453 -3.4062,0.9453 -0.8594,0 -1.6953,-0.3281 -0.836,-0.3281 -1.3516,-0.9922 -0.5156,-0.6641 -0.5156,-1.5391 0,-0.9062 0.5312,-1.5703 0.5313,-0.664 1.4219,-0.664 0.5313,0 0.8906,0.3359 0.3594,0.3359 0.3594,0.8672 0,0.75 -0.5625,1.3125 -0.5625,0.5625 -1.3125,0.5625 -0.0312,-0.0156 -0.0703,-0.0235 -0.0391,-0.0078 -0.0703,-0.0078 z"
         style="stroke:none" />
    </g>
    <g
       transform="matrix(0.16253608,0,0,0.16253608,-28.800404,-7.0416027)"
       id="g2901"
       style="font-style:normal;font-weight:normal;font-size:12px;font-family:Dialog;color-interpolation:sRGB;fill:#77ac30;fill-opacity:1;stroke:#77ac30;stroke-width:1;stroke-linecap:square;stroke-linejoin:miter;stroke-miterlimit:10;stroke-dasharray:none;stroke-dashoffset:0;stroke-opacity:1;color-rendering:optimizeSpeed;image-rendering:optimizeSpeed;shape-rendering:crispEdges;text-rendering:optimizeSpeed">
      <path
         id="path2897"
         d="M 462.6429,295.8571 533.0383,336.5 543.9286,155.0661 Z"
         style="stroke:none" />
      <path
         id="path2899"
         d="M 533.0383,336.5 614.3241,195.709 543.9286,155.0661 Z"
         style="stroke:none" />
    </g>
    <g
       transform="matrix(0.16253608,0,0,0.16253608,-28.800404,-7.0416027)"
       id="g2905"
       style="font-style:normal;font-weight:normal;font-size:12px;font-family:Dialog;color-interpolation:linearRGB;fill:#000000;fill-opacity:1;stroke:#000000;stroke-width:0.6667;stroke-linecap:square;stroke-linejoin:miter;stroke-miterlimit:10;stroke-dasharray:none;stroke-dashoffset:0;stroke-opacity:1;color-rendering:optimizeQuality;image-rendering:optimizeQuality;shape-rendering:auto;text-rendering:geometricPrecision">
      <path
         id="path2903"
         style="fill:none;fill-rule:evenodd"
         d="m 462.6429,295.8571 70.3954,40.6429 81.2858,-140.791 -70.3955,-40.6429 -81.2857,140.791 v 0" />
    </g>
    <g
       id="g2909"
       style="font-style:normal;font-weight:normal;font-size:20px;font-family:mwa_cmsy10;color-interpolation:linearRGB;fill:#000000;fill-opacity:1;stroke:#000000;stroke-width:1;stroke-linecap:square;stroke-linejoin:miter;stroke-miterlimit:10;stroke-dasharray:none;stroke-dashoffset:0;stroke-opacity:1;color-rendering:optimizeQuality;image-rendering:optimizeQuality;shape-rendering:auto;text-rendering:geometricPrecision"
       transform="matrix(0.16253608,0,0,0.16253608,58.722594,32.90702)" />
    <g
       transform="matrix(0.16253608,0,0,0.16253608,-28.800404,-7.0416027)"
       id="g2923"
       style="font-style:normal;font-weight:normal;font-size:12px;font-family:Dialog;color-interpolation:sRGB;fill:#77ac30;fill-opacity:1;stroke:#77ac30;stroke-width:1;stroke-linecap:square;stroke-linejoin:miter;stroke-miterlimit:10;stroke-dasharray:none;stroke-dashoffset:0;stroke-opacity:1;color-rendering:optimizeSpeed;image-rendering:optimizeSpeed;shape-rendering:crispEdges;text-rendering:optimizeSpeed">
      <path
         id="path2919"
         d="m 279.0331,461.1983 21.0383,78.516 235.5479,-63.1149 z"
         style="stroke:none" />
      <path
         id="path2921"
         d="m 279.0331,461.1983 256.5862,15.4011 -21.0382,-78.516 z"
         style="stroke:none" />
    </g>
    <g
       transform="matrix(0.16253608,0,0,0.16253608,-28.800404,-7.0416027)"
       id="g2927"
       style="font-style:normal;font-weight:normal;font-size:12px;font-family:Dialog;color-interpolation:linearRGB;fill:#000000;fill-opacity:1;stroke:#000000;stroke-width:0.6667;stroke-linecap:square;stroke-linejoin:miter;stroke-miterlimit:10;stroke-dasharray:none;stroke-dashoffset:0;stroke-opacity:1;color-rendering:optimizeQuality;image-rendering:optimizeQuality;shape-rendering:auto;text-rendering:geometricPrecision">
      <path
         id="path2925"
         style="fill:none;fill-rule:evenodd"
         d="m 300.0714,539.7143 235.5479,-63.1149 -21.0382,-78.516 -235.548,63.1149 21.0383,78.516 v 0" />
    </g>
    <g
       id="g2931"
       style="font-style:normal;font-weight:normal;font-size:20px;font-family:mwa_cmsy10;color-interpolation:linearRGB;fill:#000000;fill-opacity:1;stroke:#000000;stroke-width:1;stroke-linecap:square;stroke-linejoin:miter;stroke-miterlimit:10;stroke-dasharray:none;stroke-dashoffset:0;stroke-opacity:1;color-rendering:optimizeQuality;image-rendering:optimizeQuality;shape-rendering:auto;text-rendering:geometricPrecision"
       transform="matrix(0.16253608,0,0,0.16253608,37.4048,69.171384)" />
    <g
       transform="matrix(0.16253608,0,0,0.16253608,-28.800404,-7.0416027)"
       id="g2945"
       style="font-style:normal;font-weight:normal;font-size:12px;font-family:Dialog;color-interpolation:sRGB;fill:#77ac30;fill-opacity:1;stroke:#77ac30;stroke-width:1;stroke-linecap:square;stroke-linejoin:miter;stroke-miterlimit:10;stroke-dasharray:none;stroke-dashoffset:0;stroke-opacity:1;color-rendering:optimizeSpeed;image-rendering:optimizeSpeed;shape-rendering:crispEdges;text-rendering:optimizeSpeed">
      <path
         id="path2941"
         d="m 381.3571,133.2857 81.2858,81.2857 V 52 Z"
         style="stroke:none" />
      <path
         id="path2943"
         d="M 381.3571,133.2857 462.6429,52 Z"
         style="stroke:none" />
    </g>
    <g
       transform="matrix(0.16253608,0,0,0.16253608,-28.800404,-7.0416027)"
       id="g2949"
       style="font-style:normal;font-weight:normal;font-size:12px;font-family:Dialog;color-interpolation:linearRGB;fill:#000000;fill-opacity:1;stroke:#000000;stroke-width:0.6667;stroke-linecap:square;stroke-linejoin:miter;stroke-miterlimit:10;stroke-dasharray:none;stroke-dashoffset:0;stroke-opacity:1;color-rendering:optimizeQuality;image-rendering:optimizeQuality;shape-rendering:auto;text-rendering:geometricPrecision">
      <path
         id="path2947"
         style="fill:none;fill-rule:evenodd"
         d="m 381.3571,133.2857 81.2858,81.2857 V 52 l -81.2858,81.2857 v 0" />
    </g>
    <g
       id="g1787"
       transform="matrix(1.0309895,0,0,1.0309895,24.789398,-47.061801)">
      <g
         id="g1817"
         transform="translate(-1.3937872,-0.28348214)">
        <g
           style="font-style:normal;font-weight:normal;font-size:33px;font-family:mwa_cmmi10;color-interpolation:linearRGB;fill:#000000;fill-opacity:1;stroke:#262626;stroke-width:1;stroke-linecap:square;stroke-linejoin:miter;stroke-miterlimit:10;stroke-dasharray:none;stroke-dashoffset:0;stroke-opacity:1;color-rendering:optimizeQuality;image-rendering:optimizeQuality;shape-rendering:auto;text-rendering:geometricPrecision"
           id="id-6497cd79-ac6d-4eaa-a892-838259e0c22d"
           transform="matrix(0.42165058,0,0,0.42165058,-30.497562,21.578948)">
          <g
             id="g1431"
             transform="translate(148.712,134.765)">
            <path
               style="stroke:none"
               d="M 4.78125,-5.5 C 4.6875,-6.234375 4.59375,-6.8125 3.890625,-6.8125 c -0.9375,0 -1.59375,0.6875 -1.59375,0.953125 0,0.078125 0.0625,0.078125 0.109375,0.078125 0.109375,0 0.546875,-0.125 0.734375,-0.46875 L 3.15625,-6.265625 c 0.546875,0 0.6875,0.3125 0.78125,1.34375 l 0.140625,1.46875 c -0.359375,0.1875 -1.703125,1 -2.421875,1.5 C 0.515625,-1.140625 0.5,-0.84375 0.5,-0.5625 0.5,-0.21875 0.671875,0 0.984375,0 c 0.296875,0 0.75,-0.328125 0.75,-0.484375 0,-0.046875 -0.03125,-0.046875 -0.0625,-0.0625 C 1.578125,-0.5625 1.34375,-0.59375 1.34375,-0.984375 c 0,-0.265625 0,-0.390625 1.0625,-1.09375 0.609375,-0.40625 1.1875,-0.71875 1.703125,-1.046875 0,0.015625 0.140625,1.515625 0.171875,1.671875 C 4.359375,-0.65625 4.421875,0 5.15625,0 c 0.953125,0 1.609375,-0.671875 1.609375,-0.953125 0,-0.078125 -0.0625,-0.078125 -0.109375,-0.078125 -0.109375,0 -0.546875,0.140625 -0.734375,0.46875 -0.03125,0.015625 -0.078125,0.015625 -0.09375,0.015625 -0.578125,0 -0.640625,-0.625 -0.71875,-1.46875 C 5.078125,-2.328125 5.046875,-2.59375 4.953125,-3.625 8.0625,-5.484375 8.0625,-5.828125 8.0625,-6.25 c 0,-0.34375 -0.1875,-0.5625 -0.46875,-0.5625 -0.3125,0 -0.78125,0.34375 -0.78125,0.484375 0,0.0625 0.0625,0.0625 0.078125,0.0625 0.078125,0.015625 0.3125,0.0625 0.3125,0.4375 0,0.25 -0.03125,0.40625 -0.875,0.984375 -0.296875,0.203125 -0.71875,0.453125 -1.40625,0.875 z m 0,0"
               id="id-ae35d776-ee63-4f95-aa99-e61a8ac58a0f" />
          </g>
        </g>
        <g
           style="font-style:normal;font-weight:normal;font-size:33px;font-family:mwa_cmmi10;color-interpolation:linearRGB;fill:#000000;fill-opacity:1;stroke:#262626;stroke-width:1;stroke-linecap:square;stroke-linejoin:miter;stroke-miterlimit:10;stroke-dasharray:none;stroke-dashoffset:0;stroke-opacity:1;color-rendering:optimizeQuality;image-rendering:optimizeQuality;shape-rendering:auto;text-rendering:geometricPrecision"
           id="id-675613e1-5f4c-45cc-a0f3-b790887778e9"
           transform="matrix(0.42165058,0,0,0.42165058,-30.497562,21.578948)">
          <g
             id="g1435"
             transform="translate(155.819,136.259)">
            <path
               style="stroke:none"
               d="m 2.328125,-4.4375 c 0,-0.1875 0,-0.1875 -0.203125,-0.1875 -0.453125,0.4375 -1.078125,0.4375 -1.359375,0.4375 v 0.25 c 0.15625,0 0.625,0 1,-0.1875 v 3.546875 c 0,0.234375 0,0.328125 -0.6875,0.328125 H 0.8125 V 0 c 0.125,0 0.984375,-0.03125 1.234375,-0.03125 0.21875,0 1.09375,0.03125 1.25,0.03125 V -0.25 H 3.03125 c -0.703125,0 -0.703125,-0.09375 -0.703125,-0.328125 z m 0,0"
               id="id-99067d6e-8987-44f0-9714-f8a926e43f13" />
          </g>
        </g>
      </g>
    </g>
    <g
       id="g1795"
       transform="matrix(1.0309895,0,0,1.0309895,-4.1858722,-9.8998573)">
      <g
         transform="matrix(0.42165058,0,0,0.42165058,-30.497562,21.578948)"
         id="id-9749bce5-d068-438b-a495-93fa06a78cc1"
         style="font-style:normal;font-weight:normal;font-size:33px;font-family:mwa_cmmi10;color-interpolation:linearRGB;fill:#000000;fill-opacity:1;stroke:#262626;stroke-width:1;stroke-linecap:square;stroke-linejoin:miter;stroke-miterlimit:10;stroke-dasharray:none;stroke-dashoffset:0;stroke-opacity:1;color-rendering:optimizeQuality;image-rendering:optimizeQuality;shape-rendering:auto;text-rendering:geometricPrecision">
        <g
           transform="translate(163.609,134.765)"
           id="g1439">
          <path
             id="id-6f5ac43e-0a1a-4478-bb97-589e69e9d353"
             d="M 4.78125,-5.5 C 4.6875,-6.234375 4.59375,-6.8125 3.890625,-6.8125 c -0.9375,0 -1.59375,0.6875 -1.59375,0.953125 0,0.078125 0.0625,0.078125 0.109375,0.078125 0.109375,0 0.546875,-0.125 0.734375,-0.46875 L 3.15625,-6.265625 c 0.546875,0 0.6875,0.3125 0.78125,1.34375 l 0.140625,1.46875 c -0.359375,0.1875 -1.703125,1 -2.421875,1.5 C 0.515625,-1.140625 0.5,-0.84375 0.5,-0.5625 0.5,-0.21875 0.671875,0 0.984375,0 c 0.296875,0 0.75,-0.328125 0.75,-0.484375 0,-0.046875 -0.03125,-0.046875 -0.0625,-0.0625 C 1.578125,-0.5625 1.34375,-0.59375 1.34375,-0.984375 c 0,-0.265625 0,-0.390625 1.0625,-1.09375 0.609375,-0.40625 1.1875,-0.71875 1.703125,-1.046875 0,0.015625 0.140625,1.515625 0.171875,1.671875 C 4.359375,-0.65625 4.421875,0 5.15625,0 c 0.953125,0 1.609375,-0.671875 1.609375,-0.953125 0,-0.078125 -0.0625,-0.078125 -0.109375,-0.078125 -0.109375,0 -0.546875,0.140625 -0.734375,0.46875 -0.03125,0.015625 -0.078125,0.015625 -0.09375,0.015625 -0.578125,0 -0.640625,-0.625 -0.71875,-1.46875 C 5.078125,-2.328125 5.046875,-2.59375 4.953125,-3.625 8.0625,-5.484375 8.0625,-5.828125 8.0625,-6.25 c 0,-0.34375 -0.1875,-0.5625 -0.46875,-0.5625 -0.3125,0 -0.78125,0.34375 -0.78125,0.484375 0,0.0625 0.0625,0.0625 0.078125,0.0625 0.078125,0.015625 0.3125,0.0625 0.3125,0.4375 0,0.25 -0.03125,0.40625 -0.875,0.984375 -0.296875,0.203125 -0.71875,0.453125 -1.40625,0.875 z m 0,0"
             style="stroke:none" />
        </g>
      </g>
      <g
         transform="matrix(0.42165058,0,0,0.42165058,-30.497562,21.578948)"
         id="id-24a75ff4-053b-451b-b7ed-d3de33510714"
         style="font-style:normal;font-weight:normal;font-size:33px;font-family:mwa_cmmi10;color-interpolation:linearRGB;fill:#000000;fill-opacity:1;stroke:#262626;stroke-width:1;stroke-linecap:square;stroke-linejoin:miter;stroke-miterlimit:10;stroke-dasharray:none;stroke-dashoffset:0;stroke-opacity:1;color-rendering:optimizeQuality;image-rendering:optimizeQuality;shape-rendering:auto;text-rendering:geometricPrecision">
        <g
           transform="translate(170.715,136.259)"
           id="g1443">
          <path
             id="id-2913e47f-caf3-404e-8679-62109bab4d71"
             d="M 3.515625,-1.265625 H 3.28125 c -0.015625,0.15625 -0.09375,0.5625 -0.1875,0.625 C 3.046875,-0.59375 2.515625,-0.59375 2.40625,-0.59375 H 1.125 c 0.734375,-0.640625 0.984375,-0.84375 1.390625,-1.171875 0.515625,-0.40625 1,-0.84375 1,-1.5 0,-0.84375 -0.734375,-1.359375 -1.625,-1.359375 -0.859375,0 -1.453125,0.609375 -1.453125,1.25 0,0.34375 0.296875,0.390625 0.375,0.390625 0.15625,0 0.359375,-0.125 0.359375,-0.375 0,-0.125 -0.046875,-0.375 -0.40625,-0.375 C 0.984375,-4.21875 1.453125,-4.375 1.78125,-4.375 c 0.703125,0 1.0625,0.546875 1.0625,1.109375 0,0.609375 -0.4375,1.078125 -0.65625,1.328125 L 0.515625,-0.265625 C 0.4375,-0.203125 0.4375,-0.1875 0.4375,0 h 2.875 z m 0,0"
             style="stroke:none" />
        </g>
      </g>
    </g>
    <g
       id="g1809"
       transform="matrix(1.0309895,0,0,1.0309895,-6.9084597,-64.769537)">
      <g
         id="g1800">
        <g
           transform="matrix(0.42165058,0,0,0.42165058,-30.497562,21.578948)"
           id="id-ba52fa08-fa29-4558-b26f-86947bab714f"
           style="font-style:normal;font-weight:normal;font-size:33px;font-family:mwa_cmmi10;color-interpolation:linearRGB;fill:#000000;fill-opacity:1;stroke:#262626;stroke-width:1;stroke-linecap:square;stroke-linejoin:miter;stroke-miterlimit:10;stroke-dasharray:none;stroke-dashoffset:0;stroke-opacity:1;color-rendering:optimizeQuality;image-rendering:optimizeQuality;shape-rendering:auto;text-rendering:geometricPrecision">
          <g
             transform="translate(178.505,134.765)"
             id="g1447">
            <path
               id="id-056c283e-8998-4ebc-a62b-14ac2264c72a"
               d="M 4.78125,-5.5 C 4.6875,-6.234375 4.59375,-6.8125 3.890625,-6.8125 c -0.9375,0 -1.59375,0.6875 -1.59375,0.953125 0,0.078125 0.0625,0.078125 0.109375,0.078125 0.109375,0 0.546875,-0.125 0.734375,-0.46875 L 3.15625,-6.265625 c 0.546875,0 0.6875,0.3125 0.78125,1.34375 l 0.140625,1.46875 c -0.359375,0.1875 -1.703125,1 -2.421875,1.5 C 0.515625,-1.140625 0.5,-0.84375 0.5,-0.5625 0.5,-0.21875 0.671875,0 0.984375,0 c 0.296875,0 0.75,-0.328125 0.75,-0.484375 0,-0.046875 -0.03125,-0.046875 -0.0625,-0.0625 C 1.578125,-0.5625 1.34375,-0.59375 1.34375,-0.984375 c 0,-0.265625 0,-0.390625 1.0625,-1.09375 0.609375,-0.40625 1.1875,-0.71875 1.703125,-1.046875 0,0.015625 0.140625,1.515625 0.171875,1.671875 C 4.359375,-0.65625 4.421875,0 5.15625,0 c 0.953125,0 1.609375,-0.671875 1.609375,-0.953125 0,-0.078125 -0.0625,-0.078125 -0.109375,-0.078125 -0.109375,0 -0.546875,0.140625 -0.734375,0.46875 -0.03125,0.015625 -0.078125,0.015625 -0.09375,0.015625 -0.578125,0 -0.640625,-0.625 -0.71875,-1.46875 C 5.078125,-2.328125 5.046875,-2.59375 4.953125,-3.625 8.0625,-5.484375 8.0625,-5.828125 8.0625,-6.25 c 0,-0.34375 -0.1875,-0.5625 -0.46875,-0.5625 -0.3125,0 -0.78125,0.34375 -0.78125,0.484375 0,0.0625 0.0625,0.0625 0.078125,0.0625 0.078125,0.015625 0.3125,0.0625 0.3125,0.4375 0,0.25 -0.03125,0.40625 -0.875,0.984375 -0.296875,0.203125 -0.71875,0.453125 -1.40625,0.875 z m 0,0"
               style="stroke:none" />
          </g>
        </g>
      </g>
      <g
         style="font-style:normal;font-weight:normal;font-size:33px;font-family:mwa_cmmi10;color-interpolation:linearRGB;fill:#000000;fill-opacity:1;stroke:#262626;stroke-width:1;stroke-linecap:square;stroke-linejoin:miter;stroke-miterlimit:10;stroke-dasharray:none;stroke-dashoffset:0;stroke-opacity:1;color-rendering:optimizeQuality;image-rendering:optimizeQuality;shape-rendering:auto;text-rendering:geometricPrecision"
         id="id-d270714b-fcae-450b-991a-22123729dcfa"
         transform="matrix(0.42165058,0,0,0.42165058,-30.497562,21.578948)">
        <g
           id="g1451"
           transform="translate(185.612,136.259)">
          <path
             style="stroke:none"
             d="m 1.90625,-2.328125 c 0.546875,0 0.9375,0.375 0.9375,1.125 0,0.859375 -0.515625,1.125 -0.90625,1.125 -0.28125,0 -0.90625,-0.078125 -1.1875,-0.5 0.328125,0 0.40625,-0.234375 0.40625,-0.390625 0,-0.21875 -0.171875,-0.375 -0.390625,-0.375 -0.1875,0 -0.390625,0.125 -0.390625,0.40625 0,0.65625 0.71875,1.078125 1.5625,1.078125 0.96875,0 1.640625,-0.65625 1.640625,-1.34375 0,-0.546875 -0.4375,-1.09375 -1.203125,-1.25 0.71875,-0.265625 0.984375,-0.78125 0.984375,-1.21875 0,-0.546875 -0.625,-0.953125 -1.40625,-0.953125 -0.765625,0 -1.359375,0.375 -1.359375,0.9375 0,0.234375 0.15625,0.359375 0.359375,0.359375 0.21875,0 0.359375,-0.15625 0.359375,-0.34375 0,-0.203125 -0.140625,-0.359375 -0.359375,-0.375 0.25,-0.296875 0.71875,-0.375 0.984375,-0.375 0.3125,0 0.75,0.15625 0.75,0.75 0,0.296875 -0.09375,0.625 -0.28125,0.828125 -0.21875,0.265625 -0.421875,0.28125 -0.765625,0.3125 -0.171875,0.015625 -0.1875,0.015625 -0.21875,0.015625 -0.015625,0 -0.078125,0.015625 -0.078125,0.09375 0,0.09375 0.0625,0.09375 0.1875,0.09375 z m 0,0"
             id="id-38cfb03a-d171-40e5-bde0-9c840ec10bbb" />
        </g>
      </g>
    </g>
  </g>
</svg>
