<?xml version="1.0" encoding="UTF-8" standalone="no"?>
<svg
   xmlns:dc="http://purl.org/dc/elements/1.1/"
   xmlns:cc="http://creativecommons.org/ns#"
   xmlns:rdf="http://www.w3.org/1999/02/22-rdf-syntax-ns#"
   xmlns:svg="http://www.w3.org/2000/svg"
   xmlns="http://www.w3.org/2000/svg"
   xmlns:sodipodi="http://sodipodi.sourceforge.net/DTD/sodipodi-0.dtd"
   xmlns:inkscape="http://www.inkscape.org/namespaces/inkscape"
   sodipodi:docname="roboExConvexHull_1.svg"
   inkscape:version="1.0 (4035a4fb49, 2020-05-01)"
   width="74mm"
   height="100mm"
   viewBox="0 0 74 100"
   version="1.1"
   id="svg8">
  <defs
     id="defs2">
    <clipPath
       clipPathUnits="userSpaceOnUse"
       id="clipPath1">
      <path
         d="M 0,0 H 814 V 708 H 0 Z"
         id="path834" />
    </clipPath>
    <defs
       id="defs1">
      <clipPath
         clipPathUnits="userSpaceOnUse"
         id="clipPath1054">
        <path
           d="M 0,0 H 814 V 708 H 0 Z"
           id="path1052" />
      </clipPath>
    </defs>
    <g
       id="id-ae790596-5d6d-466a-b834-d6711f7bbbbc">
      <symbol
         id="id-c63c2fb9-e189-489f-a1fb-118a3c1e1268"
         overflow="visible">
        <path
           id="id-b8e81124-5a2d-41c1-b207-ec6b3b69f1fc"
           d=""
           style="stroke:none" />
      </symbol>
      <symbol
         id="id-8ee1cbb4-e306-4cc4-a723-8d8527535a8d"
         overflow="visible">
        <path
           id="id-97e588a3-7021-48df-a0a0-f09a896985a3"
           d="M 4.78125,-5.5 C 4.6875,-6.234375 4.59375,-6.8125 3.890625,-6.8125 c -0.9375,0 -1.59375,0.6875 -1.59375,0.953125 0,0.078125 0.0625,0.078125 0.109375,0.078125 0.109375,0 0.546875,-0.125 0.734375,-0.46875 L 3.15625,-6.265625 c 0.546875,0 0.6875,0.3125 0.78125,1.34375 l 0.140625,1.46875 c -0.359375,0.1875 -1.703125,1 -2.421875,1.5 C 0.515625,-1.140625 0.5,-0.84375 0.5,-0.5625 0.5,-0.21875 0.671875,0 0.984375,0 c 0.296875,0 0.75,-0.328125 0.75,-0.484375 0,-0.046875 -0.03125,-0.046875 -0.0625,-0.0625 C 1.578125,-0.5625 1.34375,-0.59375 1.34375,-0.984375 c 0,-0.265625 0,-0.390625 1.0625,-1.09375 0.609375,-0.40625 1.1875,-0.71875 1.703125,-1.046875 0,0.015625 0.140625,1.515625 0.171875,1.671875 C 4.359375,-0.65625 4.421875,0 5.15625,0 c 0.953125,0 1.609375,-0.671875 1.609375,-0.953125 0,-0.078125 -0.0625,-0.078125 -0.109375,-0.078125 -0.109375,0 -0.546875,0.140625 -0.734375,0.46875 -0.03125,0.015625 -0.078125,0.015625 -0.09375,0.015625 -0.578125,0 -0.640625,-0.625 -0.71875,-1.46875 C 5.078125,-2.328125 5.046875,-2.59375 4.953125,-3.625 8.0625,-5.484375 8.0625,-5.828125 8.0625,-6.25 c 0,-0.34375 -0.1875,-0.5625 -0.46875,-0.5625 -0.3125,0 -0.78125,0.34375 -0.78125,0.484375 0,0.0625 0.0625,0.0625 0.078125,0.0625 0.078125,0.015625 0.3125,0.0625 0.3125,0.4375 0,0.25 -0.03125,0.40625 -0.875,0.984375 -0.296875,0.203125 -0.71875,0.453125 -1.40625,0.875 z m 0,0"
           style="stroke:none" />
      </symbol>
      <symbol
         id="id-f25b3351-ecd1-4ac1-bce6-1401cd1bd2f8"
         overflow="visible">
        <path
           id="id-8a69e224-5f2c-4149-888f-4683e9fa89f6"
           d=""
           style="stroke:none" />
      </symbol>
      <symbol
         id="id-1368829f-a140-4a7b-8472-1f8b2bc7f3c0"
         overflow="visible">
        <path
           id="id-ebe9fca6-8581-46e1-be07-cdf8bf1b8787"
           d="m 2.328125,-4.4375 c 0,-0.1875 0,-0.1875 -0.203125,-0.1875 -0.453125,0.4375 -1.078125,0.4375 -1.359375,0.4375 v 0.25 c 0.15625,0 0.625,0 1,-0.1875 v 3.546875 c 0,0.234375 0,0.328125 -0.6875,0.328125 H 0.8125 V 0 c 0.125,0 0.984375,-0.03125 1.234375,-0.03125 0.21875,0 1.09375,0.03125 1.25,0.03125 V -0.25 H 3.03125 c -0.703125,0 -0.703125,-0.09375 -0.703125,-0.328125 z m 0,0"
           style="stroke:none" />
      </symbol>
      <symbol
         id="id-73ed1de5-7ac9-4fde-b7fa-e81630128c7a"
         overflow="visible">
        <path
           id="id-42ae4e6a-b734-46a6-bda5-e670eabb6623"
           d="M 3.515625,-1.265625 H 3.28125 c -0.015625,0.15625 -0.09375,0.5625 -0.1875,0.625 C 3.046875,-0.59375 2.515625,-0.59375 2.40625,-0.59375 H 1.125 c 0.734375,-0.640625 0.984375,-0.84375 1.390625,-1.171875 0.515625,-0.40625 1,-0.84375 1,-1.5 0,-0.84375 -0.734375,-1.359375 -1.625,-1.359375 -0.859375,0 -1.453125,0.609375 -1.453125,1.25 0,0.34375 0.296875,0.390625 0.375,0.390625 0.15625,0 0.359375,-0.125 0.359375,-0.375 0,-0.125 -0.046875,-0.375 -0.40625,-0.375 C 0.984375,-4.21875 1.453125,-4.375 1.78125,-4.375 c 0.703125,0 1.0625,0.546875 1.0625,1.109375 0,0.609375 -0.4375,1.078125 -0.65625,1.328125 L 0.515625,-0.265625 C 0.4375,-0.203125 0.4375,-0.1875 0.4375,0 h 2.875 z m 0,0"
           style="stroke:none" />
      </symbol>
      <symbol
         id="id-538112e9-0fdd-4bb5-99e0-2feab538606d"
         overflow="visible">
        <path
           id="id-d9eba47f-69ab-4c40-9807-143eb25739a9"
           d="m 1.90625,-2.328125 c 0.546875,0 0.9375,0.375 0.9375,1.125 0,0.859375 -0.515625,1.125 -0.90625,1.125 -0.28125,0 -0.90625,-0.078125 -1.1875,-0.5 0.328125,0 0.40625,-0.234375 0.40625,-0.390625 0,-0.21875 -0.171875,-0.375 -0.390625,-0.375 -0.1875,0 -0.390625,0.125 -0.390625,0.40625 0,0.65625 0.71875,1.078125 1.5625,1.078125 0.96875,0 1.640625,-0.65625 1.640625,-1.34375 0,-0.546875 -0.4375,-1.09375 -1.203125,-1.25 0.71875,-0.265625 0.984375,-0.78125 0.984375,-1.21875 0,-0.546875 -0.625,-0.953125 -1.40625,-0.953125 -0.765625,0 -1.359375,0.375 -1.359375,0.9375 0,0.234375 0.15625,0.359375 0.359375,0.359375 0.21875,0 0.359375,-0.15625 0.359375,-0.34375 0,-0.203125 -0.140625,-0.359375 -0.359375,-0.375 0.25,-0.296875 0.71875,-0.375 0.984375,-0.375 0.3125,0 0.75,0.15625 0.75,0.75 0,0.296875 -0.09375,0.625 -0.28125,0.828125 -0.21875,0.265625 -0.421875,0.28125 -0.765625,0.3125 -0.171875,0.015625 -0.1875,0.015625 -0.21875,0.015625 -0.015625,0 -0.078125,0.015625 -0.078125,0.09375 0,0.09375 0.0625,0.09375 0.1875,0.09375 z m 0,0"
           style="stroke:none" />
      </symbol>
    </g>
    <defs
       id="id-3a4d14f6-1484-4031-a797-c44bb40cca08">
      <g
         id="g1707">
        <symbol
           overflow="visible"
           id="symbol1685">
          <path
             style="stroke:none"
             d=""
             id="path1683" />
        </symbol>
        <symbol
           overflow="visible"
           id="symbol1689">
          <path
             style="stroke:none"
             d="M 4.78125,-5.5 C 4.6875,-6.234375 4.59375,-6.8125 3.890625,-6.8125 c -0.9375,0 -1.59375,0.6875 -1.59375,0.953125 0,0.078125 0.0625,0.078125 0.109375,0.078125 0.109375,0 0.546875,-0.125 0.734375,-0.46875 L 3.15625,-6.265625 c 0.546875,0 0.6875,0.3125 0.78125,1.34375 l 0.140625,1.46875 c -0.359375,0.1875 -1.703125,1 -2.421875,1.5 C 0.515625,-1.140625 0.5,-0.84375 0.5,-0.5625 0.5,-0.21875 0.671875,0 0.984375,0 c 0.296875,0 0.75,-0.328125 0.75,-0.484375 0,-0.046875 -0.03125,-0.046875 -0.0625,-0.0625 C 1.578125,-0.5625 1.34375,-0.59375 1.34375,-0.984375 c 0,-0.265625 0,-0.390625 1.0625,-1.09375 0.609375,-0.40625 1.1875,-0.71875 1.703125,-1.046875 0,0.015625 0.140625,1.515625 0.171875,1.671875 C 4.359375,-0.65625 4.421875,0 5.15625,0 c 0.953125,0 1.609375,-0.671875 1.609375,-0.953125 0,-0.078125 -0.0625,-0.078125 -0.109375,-0.078125 -0.109375,0 -0.546875,0.140625 -0.734375,0.46875 -0.03125,0.015625 -0.078125,0.015625 -0.09375,0.015625 -0.578125,0 -0.640625,-0.625 -0.71875,-1.46875 C 5.078125,-2.328125 5.046875,-2.59375 4.953125,-3.625 8.0625,-5.484375 8.0625,-5.828125 8.0625,-6.25 c 0,-0.34375 -0.1875,-0.5625 -0.46875,-0.5625 -0.3125,0 -0.78125,0.34375 -0.78125,0.484375 0,0.0625 0.0625,0.0625 0.078125,0.0625 0.078125,0.015625 0.3125,0.0625 0.3125,0.4375 0,0.25 -0.03125,0.40625 -0.875,0.984375 -0.296875,0.203125 -0.71875,0.453125 -1.40625,0.875 z m 0,0"
             id="path1687" />
        </symbol>
        <symbol
           overflow="visible"
           id="symbol1693">
          <path
             style="stroke:none"
             d=""
             id="path1691" />
        </symbol>
        <symbol
           overflow="visible"
           id="symbol1697">
          <path
             style="stroke:none"
             d="m 2.328125,-4.4375 c 0,-0.1875 0,-0.1875 -0.203125,-0.1875 -0.453125,0.4375 -1.078125,0.4375 -1.359375,0.4375 v 0.25 c 0.15625,0 0.625,0 1,-0.1875 v 3.546875 c 0,0.234375 0,0.328125 -0.6875,0.328125 H 0.8125 V 0 c 0.125,0 0.984375,-0.03125 1.234375,-0.03125 0.21875,0 1.09375,0.03125 1.25,0.03125 V -0.25 H 3.03125 c -0.703125,0 -0.703125,-0.09375 -0.703125,-0.328125 z m 0,0"
             id="path1695" />
        </symbol>
        <symbol
           overflow="visible"
           id="symbol1701">
          <path
             style="stroke:none"
             d="M 3.515625,-1.265625 H 3.28125 c -0.015625,0.15625 -0.09375,0.5625 -0.1875,0.625 C 3.046875,-0.59375 2.515625,-0.59375 2.40625,-0.59375 H 1.125 c 0.734375,-0.640625 0.984375,-0.84375 1.390625,-1.171875 0.515625,-0.40625 1,-0.84375 1,-1.5 0,-0.84375 -0.734375,-1.359375 -1.625,-1.359375 -0.859375,0 -1.453125,0.609375 -1.453125,1.25 0,0.34375 0.296875,0.390625 0.375,0.390625 0.15625,0 0.359375,-0.125 0.359375,-0.375 0,-0.125 -0.046875,-0.375 -0.40625,-0.375 C 0.984375,-4.21875 1.453125,-4.375 1.78125,-4.375 c 0.703125,0 1.0625,0.546875 1.0625,1.109375 0,0.609375 -0.4375,1.078125 -0.65625,1.328125 L 0.515625,-0.265625 C 0.4375,-0.203125 0.4375,-0.1875 0.4375,0 h 2.875 z m 0,0"
             id="path1699" />
        </symbol>
        <symbol
           overflow="visible"
           id="symbol1705">
          <path
             style="stroke:none"
             d="m 1.90625,-2.328125 c 0.546875,0 0.9375,0.375 0.9375,1.125 0,0.859375 -0.515625,1.125 -0.90625,1.125 -0.28125,0 -0.90625,-0.078125 -1.1875,-0.5 0.328125,0 0.40625,-0.234375 0.40625,-0.390625 0,-0.21875 -0.171875,-0.375 -0.390625,-0.375 -0.1875,0 -0.390625,0.125 -0.390625,0.40625 0,0.65625 0.71875,1.078125 1.5625,1.078125 0.96875,0 1.640625,-0.65625 1.640625,-1.34375 0,-0.546875 -0.4375,-1.09375 -1.203125,-1.25 0.71875,-0.265625 0.984375,-0.78125 0.984375,-1.21875 0,-0.546875 -0.625,-0.953125 -1.40625,-0.953125 -0.765625,0 -1.359375,0.375 -1.359375,0.9375 0,0.234375 0.15625,0.359375 0.359375,0.359375 0.21875,0 0.359375,-0.15625 0.359375,-0.34375 0,-0.203125 -0.140625,-0.359375 -0.359375,-0.375 0.25,-0.296875 0.71875,-0.375 0.984375,-0.375 0.3125,0 0.75,0.15625 0.75,0.75 0,0.296875 -0.09375,0.625 -0.28125,0.828125 -0.21875,0.265625 -0.421875,0.28125 -0.765625,0.3125 -0.171875,0.015625 -0.1875,0.015625 -0.21875,0.015625 -0.015625,0 -0.078125,0.015625 -0.078125,0.09375 0,0.09375 0.0625,0.09375 0.1875,0.09375 z m 0,0"
             id="path1703" />
        </symbol>
      </g>
    </defs>
  </defs>
  <sodipodi:namedview
     inkscape:window-maximized="1"
     inkscape:window-y="-8"
     inkscape:window-x="-8"
     inkscape:window-height="837"
     inkscape:window-width="1600"
     inkscape:pagecheckerboard="true"
     showgrid="false"
     inkscape:document-rotation="0"
     inkscape:current-layer="layer1"
     inkscape:document-units="mm"
     inkscape:cy="178.40275"
     inkscape:cx="217.43963"
     inkscape:zoom="1.4"
     inkscape:pageshadow="2"
     inkscape:pageopacity="0.0"
     borderopacity="1.0"
     bordercolor="#666666"
     pagecolor="#ffffff"
     id="base" />
  <metadata
     id="metadata5">
    <rdf:RDF>
      <cc:Work
         rdf:about="">
        <dc:format>image/svg+xml</dc:format>
        <dc:type
           rdf:resource="http://purl.org/dc/dcmitype/StillImage" />
        <dc:title></dc:title>
      </cc:Work>
    </rdf:RDF>
  </metadata>
  <g
     id="layer1"
     inkscape:groupmode="layer"
     inkscape:label="Layer 1">
    <g
       transform="matrix(0.15922807,0,0,0.15922807,-27.670547,-6.6484924)"
       style="font-style:normal;font-weight:normal;font-size:12px;font-family:Dialog;color-interpolation:linearRGB;fill:#262626;fill-opacity:0.149;stroke:#262626;stroke-width:0.6667;stroke-linecap:butt;stroke-linejoin:round;stroke-miterlimit:10;stroke-dasharray:none;stroke-dashoffset:0;stroke-opacity:0.149;color-rendering:optimizeQuality;image-rendering:optimizeQuality;shape-rendering:auto;text-rendering:geometricPrecision"
       id="g890">
      <line
         y2="53"
         style="fill:none"
         x1="215.4286"
         x2="215.4286"
         y1="630"
         id="line848" />
      <line
         y2="53"
         style="fill:none"
         x1="297.85709"
         x2="297.85709"
         y1="630"
         id="line850" />
      <line
         y2="53"
         style="fill:none"
         x1="380.28571"
         x2="380.28571"
         y1="630"
         id="line852" />
      <line
         y2="53"
         style="fill:none"
         x1="462.71429"
         x2="462.71429"
         y1="630"
         id="line854" />
      <line
         y2="53"
         style="fill:none"
         x1="545.14288"
         x2="545.14288"
         y1="630"
         id="line856" />
      <line
         y2="53"
         style="fill:none"
         x1="627.57141"
         x2="627.57141"
         y1="630"
         id="line858" />
      <line
         y2="630"
         style="fill:none"
         x1="627.57141"
         x2="215.4286"
         y1="630"
         id="line860" />
      <line
         y2="547.57141"
         style="fill:none"
         x1="627.57141"
         x2="215.4286"
         y1="547.57141"
         id="line862" />
      <line
         y2="465.14291"
         style="fill:none"
         x1="627.57141"
         x2="215.4286"
         y1="465.14291"
         id="line864" />
      <line
         y2="382.71429"
         style="fill:none"
         x1="627.57141"
         x2="215.4286"
         y1="382.71429"
         id="line866" />
      <line
         y2="300.28571"
         style="fill:none"
         x1="627.57141"
         x2="215.4286"
         y1="300.28571"
         id="line868" />
      <line
         y2="217.8571"
         style="fill:none"
         x1="627.57141"
         x2="215.4286"
         y1="217.8571"
         id="line870" />
      <line
         y2="135.4286"
         style="fill:none"
         x1="627.57141"
         x2="215.4286"
         y1="135.4286"
         id="line872" />
      <line
         y2="53"
         style="fill:none"
         x1="627.57141"
         x2="215.4286"
         y1="53"
         id="line874" />
      <line
         x1="215.4286"
         x2="627.57141"
         y1="630"
         style="fill:none;fill-opacity:1;stroke-linecap:square;stroke-opacity:1"
         y2="630"
         id="line876" />
      <line
         x1="215.4286"
         x2="215.4286"
         y1="630"
         style="fill:none;fill-opacity:1;stroke-linecap:square;stroke-opacity:1"
         y2="624.22998"
         id="line878" />
      <line
         x1="297.85709"
         x2="297.85709"
         y1="630"
         style="fill:none;fill-opacity:1;stroke-linecap:square;stroke-opacity:1"
         y2="624.22998"
         id="line880" />
      <line
         x1="380.28571"
         x2="380.28571"
         y1="630"
         style="fill:none;fill-opacity:1;stroke-linecap:square;stroke-opacity:1"
         y2="624.22998"
         id="line882" />
      <line
         x1="462.71429"
         x2="462.71429"
         y1="630"
         style="fill:none;fill-opacity:1;stroke-linecap:square;stroke-opacity:1"
         y2="624.22998"
         id="line884" />
      <line
         x1="545.14288"
         x2="545.14288"
         y1="630"
         style="fill:none;fill-opacity:1;stroke-linecap:square;stroke-opacity:1"
         y2="624.22998"
         id="line886" />
      <line
         x1="627.57141"
         x2="627.57141"
         y1="630"
         style="fill:none;fill-opacity:1;stroke-linecap:square;stroke-opacity:1"
         y2="624.22998"
         id="line888" />
    </g>
    <g
       transform="matrix(0.15922807,0,0,0.15922807,6.6317328,94.514406)"
       style="font-style:normal;font-weight:normal;font-size:13px;font-family:SansSerif;color-interpolation:linearRGB;fill:#262626;fill-opacity:1;stroke:#262626;stroke-width:1;stroke-linecap:square;stroke-linejoin:miter;stroke-miterlimit:10;stroke-dasharray:none;stroke-dashoffset:0;stroke-opacity:1;color-rendering:optimizeQuality;image-rendering:optimizeQuality;shape-rendering:auto;text-rendering:geometricPrecision"
       id="g894">
      <path
         style="stroke:none"
         d="m -5.5938,11.2031 v -1.1406 h 3.5157 v 1.1406 z M 4.876,12.9062 V 14 h -6.1563 q -0.0156,-0.4062 0.1407,-0.7969 0.2343,-0.625 0.75,-1.2343 0.5156,-0.6094 1.5,-1.4063 Q 2.626,9.3125 3.1572,8.5859 3.6885,7.8594 3.6885,7.2188 3.6885,6.5312 3.2041,6.0703 2.7197,5.6094 1.9385,5.6094 1.1104,5.6094 0.6182,6.1016 0.126,6.5938 0.1104,7.4688 l -1.1719,-0.125 q 0.125,-1.3126 0.9062,-2 0.7813,-0.6876 2.1094,-0.6876 1.3438,0 2.125,0.7422 0.7813,0.7422 0.7813,1.836 0,0.5625 -0.2266,1.1015 Q 4.4072,8.875 3.876,9.4766 3.3447,10.0781 2.1104,11.1094 1.0791,11.9688 0.79,12.2812 0.501,12.5938 0.3135,12.9062 Z"
         id="path892" />
    </g>
    <g
       transform="matrix(0.15922807,0,0,0.15922807,19.756664,94.514406)"
       style="font-style:normal;font-weight:normal;font-size:13px;font-family:SansSerif;color-interpolation:linearRGB;fill:#262626;fill-opacity:1;stroke:#262626;stroke-width:1;stroke-linecap:square;stroke-linejoin:miter;stroke-miterlimit:10;stroke-dasharray:none;stroke-dashoffset:0;stroke-opacity:1;color-rendering:optimizeQuality;image-rendering:optimizeQuality;shape-rendering:auto;text-rendering:geometricPrecision"
       id="g898">
      <path
         style="stroke:none"
         d="m -5.5938,11.2031 v -1.1406 h 3.5157 v 1.1406 z M 3.1729,14 H 2.0322 V 6.7188 Q 1.6104,7.1094 0.9463,7.5078 0.2822,7.9062 -0.249,8.0938 V 6.9844 Q 0.7041,6.5469 1.4229,5.9062 2.1416,5.2656 2.4385,4.6562 h 0.7344 z"
         id="path896" />
    </g>
    <g
       transform="matrix(0.15922807,0,0,0.15922807,32.881612,94.514406)"
       style="font-style:normal;font-weight:normal;font-size:13px;font-family:SansSerif;color-interpolation:linearRGB;fill:#262626;fill-opacity:1;stroke:#262626;stroke-width:1;stroke-linecap:square;stroke-linejoin:miter;stroke-miterlimit:10;stroke-dasharray:none;stroke-dashoffset:0;stroke-opacity:1;color-rendering:optimizeQuality;image-rendering:optimizeQuality;shape-rendering:auto;text-rendering:geometricPrecision"
       id="g902">
      <path
         style="stroke:none"
         d="m -3.4531,9.4062 q 0,-1.6406 0.3359,-2.6484 0.336,-1.0078 1.0078,-1.5547 0.6719,-0.5469 1.6875,-0.5469 0.75,0 1.3125,0.3047 0.5625,0.3047 0.9297,0.8672 0.3672,0.5625 0.5781,1.3828 0.211,0.8203 0.211,2.1953 0,1.6407 -0.336,2.6485 -0.3359,1.0078 -1.0078,1.5547 -0.6718,0.5468 -1.6875,0.5468 -1.3437,0 -2.125,-0.9687 -0.9062,-1.1563 -0.9062,-3.7813 z m 1.1719,0 q 0,2.2969 0.5312,3.0547 0.5312,0.7579 1.3281,0.7579 0.7813,0 1.3203,-0.7579 0.5391,-0.7578 0.5391,-3.0547 0,-2.2968 -0.5391,-3.0468 -0.539,-0.75 -1.3359,-0.75 -0.7813,0 -1.2656,0.6562 -0.5781,0.8594 -0.5781,3.1406 z"
         id="path900" />
    </g>
    <g
       transform="matrix(0.15922807,0,0,0.15922807,46.006559,94.514406)"
       style="font-style:normal;font-weight:normal;font-size:13px;font-family:SansSerif;color-interpolation:linearRGB;fill:#262626;fill-opacity:1;stroke:#262626;stroke-width:1;stroke-linecap:square;stroke-linejoin:miter;stroke-miterlimit:10;stroke-dasharray:none;stroke-dashoffset:0;stroke-opacity:1;color-rendering:optimizeQuality;image-rendering:optimizeQuality;shape-rendering:auto;text-rendering:geometricPrecision"
       id="g906">
      <path
         style="stroke:none"
         d="M 0.8438,14 H -0.2969 V 6.7188 q -0.4219,0.3906 -1.0859,0.789 -0.6641,0.3984 -1.1953,0.586 V 6.9844 q 0.9531,-0.4375 1.6719,-1.0782 0.7187,-0.6406 1.0156,-1.25 h 0.7344 z"
         id="path904" />
    </g>
    <g
       transform="matrix(0.15922807,0,0,0.15922807,59.131505,94.514406)"
       style="font-style:normal;font-weight:normal;font-size:13px;font-family:SansSerif;color-interpolation:linearRGB;fill:#262626;fill-opacity:1;stroke:#262626;stroke-width:1;stroke-linecap:square;stroke-linejoin:miter;stroke-miterlimit:10;stroke-dasharray:none;stroke-dashoffset:0;stroke-opacity:1;color-rendering:optimizeQuality;image-rendering:optimizeQuality;shape-rendering:auto;text-rendering:geometricPrecision"
       id="g910">
      <path
         style="stroke:none"
         d="M 2.5469,12.9062 V 14 h -6.1563 q -0.0156,-0.4062 0.1406,-0.7969 0.2344,-0.625 0.75,-1.2343 0.5157,-0.6094 1.5,-1.4063 1.5157,-1.25 2.0469,-1.9766 0.5313,-0.7265 0.5313,-1.3671 0,-0.6876 -0.4844,-1.1485 -0.4844,-0.4609 -1.2656,-0.4609 -0.8282,0 -1.3203,0.4922 -0.4922,0.4922 -0.5079,1.3672 l -1.1718,-0.125 q 0.125,-1.3126 0.9062,-2 0.7813,-0.6876 2.1094,-0.6876 1.3438,0 2.125,0.7422 0.7812,0.7422 0.7812,1.836 0,0.5625 -0.2265,1.1015 -0.2266,0.5391 -0.7578,1.1407 -0.5313,0.6015 -1.7657,1.6328 -1.0312,0.8594 -1.3203,1.1718 -0.289,0.3126 -0.4765,0.625 z"
         id="path908" />
    </g>
    <g
       transform="matrix(0.15922807,0,0,0.15922807,72.256438,94.514406)"
       style="font-style:normal;font-weight:normal;font-size:13px;font-family:SansSerif;color-interpolation:linearRGB;fill:#262626;fill-opacity:1;stroke:#262626;stroke-width:1;stroke-linecap:square;stroke-linejoin:miter;stroke-miterlimit:10;stroke-dasharray:none;stroke-dashoffset:0;stroke-opacity:1;color-rendering:optimizeQuality;image-rendering:optimizeQuality;shape-rendering:auto;text-rendering:geometricPrecision"
       id="g914">
      <path
         style="stroke:none"
         d="m -3.4531,11.5469 1.1406,-0.1563 q 0.2031,0.9688 0.6719,1.3985 0.4687,0.4297 1.1562,0.4297 0.7969,0 1.3516,-0.5547 0.5547,-0.5547 0.5547,-1.3829 0,-0.7968 -0.5078,-1.3046 -0.5079,-0.5078 -1.3047,-0.5078 -0.3282,0 -0.8125,0.125 l 0.125,-1 q 0.125,0.0156 0.1875,0.0156 0.7344,0 1.3203,-0.3828 0.5859,-0.3828 0.5859,-1.1797 0,-0.625 -0.4297,-1.0391 -0.4297,-0.414 -1.1015,-0.414 -0.6719,0 -1.1094,0.4218 -0.4375,0.4219 -0.5781,1.25 L -3.3438,7.0625 q 0.2188,-1.1406 0.961,-1.7734 0.7422,-0.6329 1.8359,-0.6329 0.7657,0 1.4063,0.3282 0.6406,0.3281 0.9844,0.8906 0.3437,0.5625 0.3437,1.2031 0,0.5938 -0.3281,1.0938 -0.3282,0.5 -0.9532,0.7812 0.8126,0.2031 1.2735,0.7969 0.4609,0.5938 0.4609,1.5 0,1.2188 -0.8906,2.0703 -0.8906,0.8516 -2.25,0.8516 -1.2188,0 -2.0312,-0.7344 -0.8126,-0.7344 -0.9219,-1.8906 z"
         id="path912" />
    </g>
    <path
       id="path916"
       d="m 39.3301,98.905387 q 0.09205,0.0721 0.261229,0.0721 0.164196,0 0.289843,-0.15799 0.125647,-0.15798 0.172906,-0.34458 l 0.238842,-0.93048 q 0.05474,-0.25627 0.05474,-0.34832 0,-0.12937 -0.07215,-0.22764 -0.07216,-0.0983 -0.204019,-0.0983 -0.166696,0 -0.313472,0.1045 -0.146792,0.10449 -0.24631,0.26496 -0.09952,0.16047 -0.139324,0.32468 -0.01244,0.0323 -0.04229,0.0323 h -0.0647 q -0.03981,0 -0.03981,-0.0473 v -0.0174 q 0.04976,-0.19407 0.172922,-0.37943 0.123147,-0.18534 0.302278,-0.30103 0.179132,-0.11568 0.380651,-0.11568 0.194067,0 0.348311,0.102 0.154261,0.102 0.218939,0.27865 0.08957,-0.16171 0.230132,-0.27118 0.140567,-0.10947 0.307263,-0.10947 0.111953,0 0.230132,0.0398 0.118179,0.0398 0.192825,0.1219 0.07463,0.0821 0.07463,0.204 0,0.13436 -0.08582,0.23014 -0.08584,0.0958 -0.220197,0.0958 -0.08458,0 -0.140566,-0.0535 -0.05597,-0.0535 -0.05597,-0.1356 0,-0.11195 0.07463,-0.1953 0.07465,-0.0833 0.181616,-0.0983 -0.09453,-0.0747 -0.263714,-0.0747 -0.16918,0 -0.293585,0.15674 -0.124389,0.15675 -0.174147,0.3508 l -0.231375,0.928 q -0.05723,0.20898 -0.05723,0.34582 0,0.13436 0.07589,0.23014 0.07587,0.0958 0.202761,0.0958 0.24631,0 0.439119,-0.21646 0.192809,-0.21645 0.25502,-0.4752 0.01,-0.0323 0.04229,-0.0323 h 0.06219 q 0.02239,0 0.03484,0.0149 0.01244,0.0149 0.01244,0.0323 0,0.005 -0.005,0.0149 -0.07463,0.31349 -0.313472,0.5573 -0.238842,0.24382 -0.537395,0.24382 -0.194067,0 -0.349553,-0.1045 -0.155502,-0.10448 -0.217697,-0.28113 -0.0821,0.15426 -0.227648,0.26994 -0.145551,0.11569 -0.309747,0.11569 -0.111953,0 -0.231374,-0.0398 -0.119421,-0.0398 -0.194067,-0.12191 -0.07463,-0.0821 -0.07463,-0.20899 0,-0.12192 0.08582,-0.22392 0.08584,-0.102 0.215212,-0.102 0.08708,0 0.145551,0.0535 0.05845,0.0535 0.05845,0.13809 0,0.10947 -0.07339,0.19156 -0.07339,0.0821 -0.182857,0.10202 z"
       style="font-style:normal;font-weight:normal;font-size:33px;font-family:mwa_cmmi10;color-interpolation:linearRGB;fill:#262626;fill-opacity:1;stroke:none;stroke-width:0.159228;stroke-linecap:square;stroke-linejoin:miter;stroke-miterlimit:10;stroke-dasharray:none;stroke-dashoffset:0;stroke-opacity:1;color-rendering:optimizeQuality;image-rendering:optimizeQuality;shape-rendering:auto;text-rendering:geometricPrecision" />
    <g
       transform="matrix(0.15922807,0,0,0.15922807,-27.670547,-6.6484924)"
       style="font-style:normal;font-weight:normal;font-size:12px;font-family:Dialog;color-interpolation:linearRGB;fill:#262626;fill-opacity:1;stroke:#262626;stroke-width:0.6667;stroke-linecap:square;stroke-linejoin:round;stroke-miterlimit:10;stroke-dasharray:none;stroke-dashoffset:0;stroke-opacity:1;color-rendering:optimizeQuality;image-rendering:optimizeQuality;shape-rendering:auto;text-rendering:geometricPrecision"
       id="g938">
      <line
         y2="53"
         style="fill:none"
         x1="215.4286"
         x2="215.4286"
         y1="630"
         id="line920" />
      <line
         y2="630"
         style="fill:none"
         x1="215.4286"
         x2="221.19859"
         y1="630"
         id="line922" />
      <line
         y2="547.57141"
         style="fill:none"
         x1="215.4286"
         x2="221.19859"
         y1="547.57141"
         id="line924" />
      <line
         y2="465.14291"
         style="fill:none"
         x1="215.4286"
         x2="221.19859"
         y1="465.14291"
         id="line926" />
      <line
         y2="382.71429"
         style="fill:none"
         x1="215.4286"
         x2="221.19859"
         y1="382.71429"
         id="line928" />
      <line
         y2="300.28571"
         style="fill:none"
         x1="215.4286"
         x2="221.19859"
         y1="300.28571"
         id="line930" />
      <line
         y2="217.8571"
         style="fill:none"
         x1="215.4286"
         x2="221.19859"
         y1="217.8571"
         id="line932" />
      <line
         y2="135.4286"
         style="fill:none"
         x1="215.4286"
         x2="221.19859"
         y1="135.4286"
         id="line934" />
      <line
         y2="53"
         style="fill:none"
         x1="215.4286"
         x2="221.19859"
         y1="53"
         id="line936" />
    </g>
    <g
       transform="matrix(0.15922807,0,0,0.15922807,5.7825067,93.6652)"
       style="font-style:normal;font-weight:normal;font-size:13px;font-family:SansSerif;color-interpolation:linearRGB;fill:#262626;fill-opacity:1;stroke:#262626;stroke-width:1;stroke-linecap:square;stroke-linejoin:miter;stroke-miterlimit:10;stroke-dasharray:none;stroke-dashoffset:0;stroke-opacity:1;color-rendering:optimizeQuality;image-rendering:optimizeQuality;shape-rendering:auto;text-rendering:geometricPrecision"
       id="g942">
      <path
         style="stroke:none"
         d="M -11.5938,2.7031 V 1.5625 h 3.5157 v 1.1406 z m 4.4698,0.3438 1.1406,-0.1563 q 0.2031,0.9688 0.6719,1.3985 0.4687,0.4297 1.1562,0.4297 0.7969,0 1.3516,-0.5547 0.5547,-0.5547 0.5547,-1.3829 0,-0.7968 -0.5078,-1.3046 -0.5078,-0.5078 -1.3047,-0.5078 -0.3281,0 -0.8125,0.125 l 0.125,-1 q 0.125,0.0156 0.1875,0.0156 0.7344,0 1.3203,-0.3828 0.5859,-0.3828 0.5859,-1.1797 0,-0.625 -0.4297,-1.0391 -0.4296,-0.414 -1.1015,-0.414 -0.6719,0 -1.1094,0.4218 -0.4375,0.4219 -0.5781,1.25 l -1.1406,-0.2031 q 0.2187,-1.1406 0.9609,-1.7734 0.7422,-0.6329 1.8359,-0.6329 0.7657,0 1.4063,0.3282 0.6406,0.3281 0.9844,0.8906 0.3437,0.5625 0.3437,1.2031 0,0.5938 -0.3281,1.0938 -0.3281,0.5 -0.9531,0.7812 0.8125,0.2031 1.2734,0.7969 0.4609,0.5938 0.4609,1.5 0,1.2188 -0.8906,2.0703 -0.8906,0.8516 -2.25,0.8516 -1.2187,0 -2.0312,-0.7344 Q -7.0146,4.2031 -7.124,3.0469 Z"
         id="path940" />
    </g>
    <g
       transform="matrix(0.15922807,0,0,0.15922807,5.7825067,80.540246)"
       style="font-style:normal;font-weight:normal;font-size:13px;font-family:SansSerif;color-interpolation:linearRGB;fill:#262626;fill-opacity:1;stroke:#262626;stroke-width:1;stroke-linecap:square;stroke-linejoin:miter;stroke-miterlimit:10;stroke-dasharray:none;stroke-dashoffset:0;stroke-opacity:1;color-rendering:optimizeQuality;image-rendering:optimizeQuality;shape-rendering:auto;text-rendering:geometricPrecision"
       id="g946">
      <path
         style="stroke:none"
         d="M -11.5938,2.7031 V 1.5625 h 3.5157 V 2.7031 Z M -1.124,4.4062 V 5.5 h -6.1563 q -0.0156,-0.4062 0.1407,-0.7969 0.2343,-0.625 0.75,-1.2343 0.5156,-0.6094 1.5,-1.4063 1.5156,-1.25 2.0468,-1.9766 0.5313,-0.7265 0.5313,-1.3671 0,-0.6876 -0.4844,-1.1485 -0.4844,-0.4609 -1.2656,-0.4609 -0.8281,0 -1.3203,0.4922 -0.4922,0.4922 -0.5078,1.3672 l -1.1719,-0.125 q 0.125,-1.3126 0.9062,-2 0.7813,-0.6876 2.1094,-0.6876 1.3438,0 2.125,0.7422 0.7813,0.7422 0.7813,1.836 0,0.5625 -0.2266,1.1015 Q -1.5928,0.375 -2.124,0.9766 -2.6553,1.5781 -3.8896,2.6094 -4.9209,3.4688 -5.21,3.7812 -5.499,4.0938 -5.6865,4.4062 Z"
         id="path944" />
    </g>
    <g
       transform="matrix(0.15922807,0,0,0.15922807,5.7825067,67.415318)"
       style="font-style:normal;font-weight:normal;font-size:13px;font-family:SansSerif;color-interpolation:linearRGB;fill:#262626;fill-opacity:1;stroke:#262626;stroke-width:1;stroke-linecap:square;stroke-linejoin:miter;stroke-miterlimit:10;stroke-dasharray:none;stroke-dashoffset:0;stroke-opacity:1;color-rendering:optimizeQuality;image-rendering:optimizeQuality;shape-rendering:auto;text-rendering:geometricPrecision"
       id="g950">
      <path
         style="stroke:none"
         d="M -11.5938,2.7031 V 1.5625 h 3.5157 V 2.7031 Z M -2.8271,5.5 h -1.1407 v -7.2812 q -0.4218,0.3906 -1.0859,0.789 -0.6641,0.3984 -1.1953,0.586 v -1.1094 q 0.9531,-0.4375 1.6719,-1.0782 0.7187,-0.6406 1.0156,-1.25 h 0.7344 z"
         id="path948" />
    </g>
    <g
       transform="matrix(0.15922807,0,0,0.15922807,5.7825067,54.290369)"
       style="font-style:normal;font-weight:normal;font-size:13px;font-family:SansSerif;color-interpolation:linearRGB;fill:#262626;fill-opacity:1;stroke:#262626;stroke-width:1;stroke-linecap:square;stroke-linejoin:miter;stroke-miterlimit:10;stroke-dasharray:none;stroke-dashoffset:0;stroke-opacity:1;color-rendering:optimizeQuality;image-rendering:optimizeQuality;shape-rendering:auto;text-rendering:geometricPrecision"
       id="g954">
      <path
         style="stroke:none"
         d="m -7.4531,0.9062 q 0,-1.6406 0.3359,-2.6484 0.336,-1.0078 1.0078,-1.5547 0.6719,-0.5469 1.6875,-0.5469 0.75,0 1.3125,0.3047 0.5625,0.3047 0.9297,0.8672 0.3672,0.5625 0.5781,1.3828 0.211,0.8203 0.211,2.1953 0,1.6407 -0.336,2.6485 -0.3359,1.0078 -1.0078,1.5547 -0.6718,0.5468 -1.6875,0.5468 -1.3437,0 -2.125,-0.9687 -0.9062,-1.1563 -0.9062,-3.7813 z m 1.1719,0 q 0,2.2969 0.5312,3.0547 0.5312,0.7579 1.3281,0.7579 0.7813,0 1.3203,-0.7579 0.5391,-0.7578 0.5391,-3.0547 0,-2.2968 -0.5391,-3.0468 -0.539,-0.75 -1.3359,-0.75 -0.7813,0 -1.2656,0.6562 -0.5781,0.8594 -0.5781,3.1406 z"
         id="path952" />
    </g>
    <g
       transform="matrix(0.15922807,0,0,0.15922807,5.7825067,41.165422)"
       style="font-style:normal;font-weight:normal;font-size:13px;font-family:SansSerif;color-interpolation:linearRGB;fill:#262626;fill-opacity:1;stroke:#262626;stroke-width:1;stroke-linecap:square;stroke-linejoin:miter;stroke-miterlimit:10;stroke-dasharray:none;stroke-dashoffset:0;stroke-opacity:1;color-rendering:optimizeQuality;image-rendering:optimizeQuality;shape-rendering:auto;text-rendering:geometricPrecision"
       id="g958">
      <path
         style="stroke:none"
         d="m -3.1562,5.5 h -1.1407 v -7.2812 q -0.4219,0.3906 -1.0859,0.789 -0.6641,0.3984 -1.1953,0.586 v -1.1094 q 0.9531,-0.4375 1.6719,-1.0782 0.7187,-0.6406 1.0156,-1.25 h 0.7344 z"
         id="path956" />
    </g>
    <g
       transform="matrix(0.15922807,0,0,0.15922807,5.7825067,28.040474)"
       style="font-style:normal;font-weight:normal;font-size:13px;font-family:SansSerif;color-interpolation:linearRGB;fill:#262626;fill-opacity:1;stroke:#262626;stroke-width:1;stroke-linecap:square;stroke-linejoin:miter;stroke-miterlimit:10;stroke-dasharray:none;stroke-dashoffset:0;stroke-opacity:1;color-rendering:optimizeQuality;image-rendering:optimizeQuality;shape-rendering:auto;text-rendering:geometricPrecision"
       id="g962">
      <path
         style="stroke:none"
         d="M -1.4531,4.4062 V 5.5 h -6.1563 q -0.0156,-0.4062 0.1406,-0.7969 0.2344,-0.625 0.75,-1.2343 0.5157,-0.6094 1.5,-1.4063 1.5157,-1.25 2.0469,-1.9766 0.5313,-0.7265 0.5313,-1.3671 0,-0.6876 -0.4844,-1.1485 -0.4844,-0.4609 -1.2656,-0.4609 -0.8282,0 -1.3203,0.4922 -0.4922,0.4922 -0.5079,1.3672 l -1.1718,-0.125 q 0.125,-1.3126 0.9062,-2 0.7813,-0.6876 2.1094,-0.6876 1.3438,0 2.125,0.7422 0.7812,0.7422 0.7812,1.836 0,0.5625 -0.2265,1.1015 -0.2266,0.5391 -0.7578,1.1407 -0.5313,0.6015 -1.7657,1.6328 -1.0312,0.8594 -1.3203,1.1718 -0.289,0.3126 -0.4765,0.625 z"
         id="path960" />
    </g>
    <g
       transform="matrix(0.15922807,0,0,0.15922807,5.7825067,14.915543)"
       style="font-style:normal;font-weight:normal;font-size:13px;font-family:SansSerif;color-interpolation:linearRGB;fill:#262626;fill-opacity:1;stroke:#262626;stroke-width:1;stroke-linecap:square;stroke-linejoin:miter;stroke-miterlimit:10;stroke-dasharray:none;stroke-dashoffset:0;stroke-opacity:1;color-rendering:optimizeQuality;image-rendering:optimizeQuality;shape-rendering:auto;text-rendering:geometricPrecision"
       id="g966">
      <path
         style="stroke:none"
         d="m -7.4531,3.0469 1.1406,-0.1563 q 0.2031,0.9688 0.6719,1.3985 0.4687,0.4297 1.1562,0.4297 0.7969,0 1.3516,-0.5547 0.5547,-0.5547 0.5547,-1.3829 0,-0.7968 -0.5078,-1.3046 -0.5079,-0.5078 -1.3047,-0.5078 -0.3282,0 -0.8125,0.125 l 0.125,-1 q 0.125,0.0156 0.1875,0.0156 0.7344,0 1.3203,-0.3828 0.5859,-0.3828 0.5859,-1.1797 0,-0.625 -0.4297,-1.0391 -0.4297,-0.414 -1.1015,-0.414 -0.6719,0 -1.1094,0.4218 -0.4375,0.4219 -0.5781,1.25 l -1.1407,-0.2031 q 0.2188,-1.1406 0.961,-1.7734 0.7422,-0.6329 1.8359,-0.6329 0.7657,0 1.4063,0.3282 0.6406,0.3281 0.9844,0.8906 0.3437,0.5625 0.3437,1.2031 0,0.5938 -0.3281,1.0938 -0.3282,0.5 -0.9532,0.7812 0.8126,0.2031 1.2735,0.7969 0.4609,0.5938 0.4609,1.5 0,1.2188 -0.8906,2.0703 -0.8906,0.8516 -2.25,0.8516 -1.2188,0 -2.0312,-0.7344 -0.8126,-0.7344 -0.9219,-1.8906 z"
         id="path964" />
    </g>
    <g
       transform="matrix(0.15922807,0,0,0.15922807,5.7825067,1.7905957)"
       style="font-style:normal;font-weight:normal;font-size:13px;font-family:SansSerif;color-interpolation:linearRGB;fill:#262626;fill-opacity:1;stroke:#262626;stroke-width:1;stroke-linecap:square;stroke-linejoin:miter;stroke-miterlimit:10;stroke-dasharray:none;stroke-dashoffset:0;stroke-opacity:1;color-rendering:optimizeQuality;image-rendering:optimizeQuality;shape-rendering:auto;text-rendering:geometricPrecision"
       id="g970">
      <path
         style="stroke:none"
         d="M -3.7969,5.5 V 3.2656 H -7.8281 V 2.2188 l 4.2343,-6.0313 h 0.9376 v 6.0313 h 1.2656 V 3.2656 H -2.6562 V 5.5 Z m 0,-3.2812 v -4.1876 l -2.9219,4.1876 z"
         id="path968" />
    </g>
    <g
       transform="matrix(0,-0.15922807,0.15922807,0,5.272787,49.632142)"
       style="font-style:normal;font-weight:normal;font-size:33px;font-family:mwa_cmmi10;color-interpolation:linearRGB;fill:#262626;fill-opacity:1;stroke:#262626;stroke-width:1;stroke-linecap:square;stroke-linejoin:miter;stroke-miterlimit:10;stroke-dasharray:none;stroke-dashoffset:0;stroke-opacity:1;color-rendering:optimizeQuality;image-rendering:optimizeQuality;shape-rendering:auto;text-rendering:geometricPrecision"
       id="g974">
      <path
         style="stroke:none"
         d="m -6.0037,-7.2814 q 0.7031,1.1875 2.4219,1.1875 1.5625,0 2.7109,-1.0937 1.1484,-1.0938 1.8438,-2.6485 0.6953,-1.5546 1.0859,-3.1796 -1.4688,1.3906 -3.1719,1.3906 -1.3125,0 -2.2265,-0.4531 -0.9141,-0.4532 -1.4219,-1.3516 -0.5078,-0.8984 -0.5078,-2.1641 0,-1.0781 0.289,-2.2109 0.2891,-1.1328 0.8125,-2.5313 0.5235,-1.3984 0.9141,-2.4296 0.4375,-1.2032 0.4375,-1.9844 0,-0.9844 -0.7344,-0.9844 -1.2969,0 -2.1484,1.3516 -0.8516,1.3515 -1.2422,3.0078 -0.0781,0.2031 -0.2813,0.2031 h -0.3906 q -0.2656,0 -0.2656,-0.2969 v -0.1093 q 0.5312,-1.9532 1.625,-3.4766 1.0937,-1.5234 2.7656,-1.5234 1.1875,0 2,0.7734 0.8125,0.7734 0.8125,1.9609 0,0.6094 -0.2812,1.2969 -0.1407,0.3906 -0.6563,1.75 -0.5156,1.3594 -0.789,2.2422 -0.2735,0.8828 -0.4532,1.7344 -0.1797,0.8515 -0.1797,1.7109 0,1.0938 0.4688,1.8516 0.4687,0.7578 1.4844,0.7578 2.0468,0 3.6718,-2.5 l 2.5,-10.1719 q 0.1094,-0.4219 0.5157,-0.7422 0.4062,-0.3203 0.875,-0.3203 0.3906,0 0.6953,0.2578 0.3047,0.2578 0.3047,0.6797 0,0.2031 -0.0469,0.2656 l -3.2656,13.125 q -0.4375,1.6875 -1.5938,3.2344 -1.1562,1.5469 -2.7969,2.4922 -1.6406,0.9453 -3.4062,0.9453 -0.8594,0 -1.6953,-0.3281 -0.836,-0.3281 -1.3516,-0.9922 -0.5156,-0.6641 -0.5156,-1.5391 0,-0.9062 0.5312,-1.5703 0.5313,-0.664 1.4219,-0.664 0.5313,0 0.8906,0.3359 0.3594,0.3359 0.3594,0.8672 0,0.75 -0.5625,1.3125 -0.5625,0.5625 -1.3125,0.5625 -0.0312,-0.0156 -0.0703,-0.0235 -0.0391,-0.0078 -0.0703,-0.0078 z"
         id="path972" />
    </g>
    <g
       transform="matrix(0.15922807,0,0,0.15922807,-27.670547,-6.6484924)"
       style="font-style:normal;font-weight:normal;font-size:12px;font-family:Dialog;color-interpolation:sRGB;fill:#77ac30;fill-opacity:1;stroke:#77ac30;stroke-width:1;stroke-linecap:square;stroke-linejoin:miter;stroke-miterlimit:10;stroke-dasharray:none;stroke-dashoffset:0;stroke-opacity:1;color-rendering:optimizeSpeed;image-rendering:optimizeSpeed;shape-rendering:crispEdges;text-rendering:optimizeSpeed"
       id="g980">
      <path
         style="stroke:none"
         d="m 545.1429,135.4286 h -82.4286 l 82.4286,164.8571 z"
         id="path976" />
      <path
         style="stroke:none"
         d="m 462.7143,135.4286 v 164.8571 h 82.4286 z"
         id="path978" />
    </g>
    <g
       transform="matrix(0.15922807,0,0,0.15922807,-27.670547,-6.6484924)"
       style="font-style:normal;font-weight:normal;font-size:12px;font-family:Dialog;color-interpolation:linearRGB;fill:#000000;fill-opacity:1;stroke:#000000;stroke-width:0.6667;stroke-linecap:square;stroke-linejoin:miter;stroke-miterlimit:10;stroke-dasharray:none;stroke-dashoffset:0;stroke-opacity:1;color-rendering:optimizeQuality;image-rendering:optimizeQuality;shape-rendering:auto;text-rendering:geometricPrecision"
       id="g984">
      <path
         d="m 462.7143,300.2857 h 82.4286 V 135.4286 h -82.4286 v 164.8571 0"
         style="fill:none;fill-rule:evenodd"
         id="path982" />
    </g>
    <g
       transform="matrix(0.15922807,0,0,0.15922807,-27.670547,-6.6484924)"
       style="font-style:normal;font-weight:normal;font-size:12px;font-family:Dialog;color-interpolation:sRGB;fill:#77ac30;fill-opacity:1;stroke:#77ac30;stroke-width:1;stroke-linecap:square;stroke-linejoin:miter;stroke-miterlimit:10;stroke-dasharray:none;stroke-dashoffset:0;stroke-opacity:1;color-rendering:optimizeSpeed;image-rendering:optimizeSpeed;shape-rendering:crispEdges;text-rendering:optimizeSpeed"
       id="g1002">
      <path
         style="stroke:none"
         d="M 545.1429,465.1429 H 297.8571 l 247.2858,82.4285 z"
         id="path998" />
      <path
         style="stroke:none"
         d="m 297.8571,465.1429 v 82.4285 h 247.2858 z"
         id="path1000" />
    </g>
    <g
       transform="matrix(0.15922807,0,0,0.15922807,-27.670547,-6.6484924)"
       style="font-style:normal;font-weight:normal;font-size:12px;font-family:Dialog;color-interpolation:linearRGB;fill:#000000;fill-opacity:1;stroke:#000000;stroke-width:0.6667;stroke-linecap:square;stroke-linejoin:miter;stroke-miterlimit:10;stroke-dasharray:none;stroke-dashoffset:0;stroke-opacity:1;color-rendering:optimizeQuality;image-rendering:optimizeQuality;shape-rendering:auto;text-rendering:geometricPrecision"
       id="g1006">
      <path
         d="M 297.8571,547.5714 H 545.1429 V 465.1429 H 297.8571 v 82.4285 0"
         style="fill:none;fill-rule:evenodd"
         id="path1004" />
    </g>
    <g
       transform="matrix(0.15922807,0,0,0.15922807,-27.670547,-6.6484924)"
       style="font-style:normal;font-weight:normal;font-size:12px;font-family:Dialog;color-interpolation:sRGB;fill:#77ac30;fill-opacity:1;stroke:#77ac30;stroke-width:1;stroke-linecap:square;stroke-linejoin:miter;stroke-miterlimit:10;stroke-dasharray:none;stroke-dashoffset:0;stroke-opacity:1;color-rendering:optimizeSpeed;image-rendering:optimizeSpeed;shape-rendering:crispEdges;text-rendering:optimizeSpeed"
       id="g1024">
      <path
         style="stroke:none"
         d="m 380.2857,135.4286 -82.4286,82.4285 h 164.8572 z"
         id="path1020" />
      <path
         style="stroke:none"
         d="m 380.2857,135.4286 82.4286,82.4285 z"
         id="path1022" />
    </g>
    <g
       transform="matrix(0.15922807,0,0,0.15922807,-27.670547,-6.6484924)"
       style="font-style:normal;font-weight:normal;font-size:12px;font-family:Dialog;color-interpolation:linearRGB;fill:#000000;fill-opacity:1;stroke:#000000;stroke-width:0.6667;stroke-linecap:square;stroke-linejoin:miter;stroke-miterlimit:10;stroke-dasharray:none;stroke-dashoffset:0;stroke-opacity:1;color-rendering:optimizeQuality;image-rendering:optimizeQuality;shape-rendering:auto;text-rendering:geometricPrecision"
       id="g1028">
      <path
         d="m 380.2857,135.4286 -82.4286,82.4285 h 164.8572 l -82.4286,-82.4285 v 0"
         style="fill:none;fill-rule:evenodd"
         id="path1026" />
    </g>
    <g
       transform="translate(20.608742,-46.35658)"
       id="g1787">
      <g
         transform="translate(-1.3937872,-0.28348214)"
         id="g1817">
        <g
           transform="matrix(0.42165058,0,0,0.42165058,-30.497562,21.578948)"
           id="id-6497cd79-ac6d-4eaa-a892-838259e0c22d"
           style="font-style:normal;font-weight:normal;font-size:33px;font-family:mwa_cmmi10;color-interpolation:linearRGB;fill:#000000;fill-opacity:1;stroke:#262626;stroke-width:1;stroke-linecap:square;stroke-linejoin:miter;stroke-miterlimit:10;stroke-dasharray:none;stroke-dashoffset:0;stroke-opacity:1;color-rendering:optimizeQuality;image-rendering:optimizeQuality;shape-rendering:auto;text-rendering:geometricPrecision">
          <g
             transform="translate(148.712,134.765)"
             id="g1431">
            <path
               id="id-ae35d776-ee63-4f95-aa99-e61a8ac58a0f"
               d="M 4.78125,-5.5 C 4.6875,-6.234375 4.59375,-6.8125 3.890625,-6.8125 c -0.9375,0 -1.59375,0.6875 -1.59375,0.953125 0,0.078125 0.0625,0.078125 0.109375,0.078125 0.109375,0 0.546875,-0.125 0.734375,-0.46875 L 3.15625,-6.265625 c 0.546875,0 0.6875,0.3125 0.78125,1.34375 l 0.140625,1.46875 c -0.359375,0.1875 -1.703125,1 -2.421875,1.5 C 0.515625,-1.140625 0.5,-0.84375 0.5,-0.5625 0.5,-0.21875 0.671875,0 0.984375,0 c 0.296875,0 0.75,-0.328125 0.75,-0.484375 0,-0.046875 -0.03125,-0.046875 -0.0625,-0.0625 C 1.578125,-0.5625 1.34375,-0.59375 1.34375,-0.984375 c 0,-0.265625 0,-0.390625 1.0625,-1.09375 0.609375,-0.40625 1.1875,-0.71875 1.703125,-1.046875 0,0.015625 0.140625,1.515625 0.171875,1.671875 C 4.359375,-0.65625 4.421875,0 5.15625,0 c 0.953125,0 1.609375,-0.671875 1.609375,-0.953125 0,-0.078125 -0.0625,-0.078125 -0.109375,-0.078125 -0.109375,0 -0.546875,0.140625 -0.734375,0.46875 -0.03125,0.015625 -0.078125,0.015625 -0.09375,0.015625 -0.578125,0 -0.640625,-0.625 -0.71875,-1.46875 C 5.078125,-2.328125 5.046875,-2.59375 4.953125,-3.625 8.0625,-5.484375 8.0625,-5.828125 8.0625,-6.25 c 0,-0.34375 -0.1875,-0.5625 -0.46875,-0.5625 -0.3125,0 -0.78125,0.34375 -0.78125,0.484375 0,0.0625 0.0625,0.0625 0.078125,0.0625 0.078125,0.015625 0.3125,0.0625 0.3125,0.4375 0,0.25 -0.03125,0.40625 -0.875,0.984375 -0.296875,0.203125 -0.71875,0.453125 -1.40625,0.875 z m 0,0"
               style="stroke:none" />
          </g>
        </g>
        <g
           transform="matrix(0.42165058,0,0,0.42165058,-30.497562,21.578948)"
           id="id-675613e1-5f4c-45cc-a0f3-b790887778e9"
           style="font-style:normal;font-weight:normal;font-size:33px;font-family:mwa_cmmi10;color-interpolation:linearRGB;fill:#000000;fill-opacity:1;stroke:#262626;stroke-width:1;stroke-linecap:square;stroke-linejoin:miter;stroke-miterlimit:10;stroke-dasharray:none;stroke-dashoffset:0;stroke-opacity:1;color-rendering:optimizeQuality;image-rendering:optimizeQuality;shape-rendering:auto;text-rendering:geometricPrecision">
          <g
             transform="translate(155.819,136.259)"
             id="g1435">
            <path
               id="id-99067d6e-8987-44f0-9714-f8a926e43f13"
               d="m 2.328125,-4.4375 c 0,-0.1875 0,-0.1875 -0.203125,-0.1875 -0.453125,0.4375 -1.078125,0.4375 -1.359375,0.4375 v 0.25 c 0.15625,0 0.625,0 1,-0.1875 v 3.546875 c 0,0.234375 0,0.328125 -0.6875,0.328125 H 0.8125 V 0 c 0.125,0 0.984375,-0.03125 1.234375,-0.03125 0.21875,0 1.09375,0.03125 1.25,0.03125 V -0.25 H 3.03125 c -0.703125,0 -0.703125,-0.09375 -0.703125,-0.328125 z m 0,0"
               style="stroke:none" />
          </g>
        </g>
      </g>
    </g>
    <g
       transform="translate(0.61421131,-2.5513393)"
       id="g1795">
      <g
         style="font-style:normal;font-weight:normal;font-size:33px;font-family:mwa_cmmi10;color-interpolation:linearRGB;fill:#000000;fill-opacity:1;stroke:#262626;stroke-width:1;stroke-linecap:square;stroke-linejoin:miter;stroke-miterlimit:10;stroke-dasharray:none;stroke-dashoffset:0;stroke-opacity:1;color-rendering:optimizeQuality;image-rendering:optimizeQuality;shape-rendering:auto;text-rendering:geometricPrecision"
         id="id-9749bce5-d068-438b-a495-93fa06a78cc1"
         transform="matrix(0.42165058,0,0,0.42165058,-30.497562,21.578948)">
        <g
           id="g1439"
           transform="translate(163.609,134.765)">
          <path
             style="stroke:none"
             d="M 4.78125,-5.5 C 4.6875,-6.234375 4.59375,-6.8125 3.890625,-6.8125 c -0.9375,0 -1.59375,0.6875 -1.59375,0.953125 0,0.078125 0.0625,0.078125 0.109375,0.078125 0.109375,0 0.546875,-0.125 0.734375,-0.46875 L 3.15625,-6.265625 c 0.546875,0 0.6875,0.3125 0.78125,1.34375 l 0.140625,1.46875 c -0.359375,0.1875 -1.703125,1 -2.421875,1.5 C 0.515625,-1.140625 0.5,-0.84375 0.5,-0.5625 0.5,-0.21875 0.671875,0 0.984375,0 c 0.296875,0 0.75,-0.328125 0.75,-0.484375 0,-0.046875 -0.03125,-0.046875 -0.0625,-0.0625 C 1.578125,-0.5625 1.34375,-0.59375 1.34375,-0.984375 c 0,-0.265625 0,-0.390625 1.0625,-1.09375 0.609375,-0.40625 1.1875,-0.71875 1.703125,-1.046875 0,0.015625 0.140625,1.515625 0.171875,1.671875 C 4.359375,-0.65625 4.421875,0 5.15625,0 c 0.953125,0 1.609375,-0.671875 1.609375,-0.953125 0,-0.078125 -0.0625,-0.078125 -0.109375,-0.078125 -0.109375,0 -0.546875,0.140625 -0.734375,0.46875 -0.03125,0.015625 -0.078125,0.015625 -0.09375,0.015625 -0.578125,0 -0.640625,-0.625 -0.71875,-1.46875 C 5.078125,-2.328125 5.046875,-2.59375 4.953125,-3.625 8.0625,-5.484375 8.0625,-5.828125 8.0625,-6.25 c 0,-0.34375 -0.1875,-0.5625 -0.46875,-0.5625 -0.3125,0 -0.78125,0.34375 -0.78125,0.484375 0,0.0625 0.0625,0.0625 0.078125,0.0625 0.078125,0.015625 0.3125,0.0625 0.3125,0.4375 0,0.25 -0.03125,0.40625 -0.875,0.984375 -0.296875,0.203125 -0.71875,0.453125 -1.40625,0.875 z m 0,0"
             id="id-6f5ac43e-0a1a-4478-bb97-589e69e9d353" />
        </g>
      </g>
      <g
         style="font-style:normal;font-weight:normal;font-size:33px;font-family:mwa_cmmi10;color-interpolation:linearRGB;fill:#000000;fill-opacity:1;stroke:#262626;stroke-width:1;stroke-linecap:square;stroke-linejoin:miter;stroke-miterlimit:10;stroke-dasharray:none;stroke-dashoffset:0;stroke-opacity:1;color-rendering:optimizeQuality;image-rendering:optimizeQuality;shape-rendering:auto;text-rendering:geometricPrecision"
         id="id-24a75ff4-053b-451b-b7ed-d3de33510714"
         transform="matrix(0.42165058,0,0,0.42165058,-30.497562,21.578948)">
        <g
           id="g1443"
           transform="translate(170.715,136.259)">
          <path
             style="stroke:none"
             d="M 3.515625,-1.265625 H 3.28125 c -0.015625,0.15625 -0.09375,0.5625 -0.1875,0.625 C 3.046875,-0.59375 2.515625,-0.59375 2.40625,-0.59375 H 1.125 c 0.734375,-0.640625 0.984375,-0.84375 1.390625,-1.171875 0.515625,-0.40625 1,-0.84375 1,-1.5 0,-0.84375 -0.734375,-1.359375 -1.625,-1.359375 -0.859375,0 -1.453125,0.609375 -1.453125,1.25 0,0.34375 0.296875,0.390625 0.375,0.390625 0.15625,0 0.359375,-0.125 0.359375,-0.375 0,-0.125 -0.046875,-0.375 -0.40625,-0.375 C 0.984375,-4.21875 1.453125,-4.375 1.78125,-4.375 c 0.703125,0 1.0625,0.546875 1.0625,1.109375 0,0.609375 -0.4375,1.078125 -0.65625,1.328125 L 0.515625,-0.265625 C 0.4375,-0.203125 0.4375,-0.1875 0.4375,0 h 2.875 z m 0,0"
             id="id-2913e47f-caf3-404e-8679-62109bab4d71" />
        </g>
      </g>
    </g>
    <g
       transform="translate(-13.652766,-54.30176)"
       id="g1809">
      <g
         id="g1800">
        <g
           style="font-style:normal;font-weight:normal;font-size:33px;font-family:mwa_cmmi10;color-interpolation:linearRGB;fill:#000000;fill-opacity:1;stroke:#262626;stroke-width:1;stroke-linecap:square;stroke-linejoin:miter;stroke-miterlimit:10;stroke-dasharray:none;stroke-dashoffset:0;stroke-opacity:1;color-rendering:optimizeQuality;image-rendering:optimizeQuality;shape-rendering:auto;text-rendering:geometricPrecision"
           id="id-ba52fa08-fa29-4558-b26f-86947bab714f"
           transform="matrix(0.42165058,0,0,0.42165058,-30.497562,21.578948)">
          <g
             id="g1447"
             transform="translate(178.505,134.765)">
            <path
               style="stroke:none"
               d="M 4.78125,-5.5 C 4.6875,-6.234375 4.59375,-6.8125 3.890625,-6.8125 c -0.9375,0 -1.59375,0.6875 -1.59375,0.953125 0,0.078125 0.0625,0.078125 0.109375,0.078125 0.109375,0 0.546875,-0.125 0.734375,-0.46875 L 3.15625,-6.265625 c 0.546875,0 0.6875,0.3125 0.78125,1.34375 l 0.140625,1.46875 c -0.359375,0.1875 -1.703125,1 -2.421875,1.5 C 0.515625,-1.140625 0.5,-0.84375 0.5,-0.5625 0.5,-0.21875 0.671875,0 0.984375,0 c 0.296875,0 0.75,-0.328125 0.75,-0.484375 0,-0.046875 -0.03125,-0.046875 -0.0625,-0.0625 C 1.578125,-0.5625 1.34375,-0.59375 1.34375,-0.984375 c 0,-0.265625 0,-0.390625 1.0625,-1.09375 0.609375,-0.40625 1.1875,-0.71875 1.703125,-1.046875 0,0.015625 0.140625,1.515625 0.171875,1.671875 C 4.359375,-0.65625 4.421875,0 5.15625,0 c 0.953125,0 1.609375,-0.671875 1.609375,-0.953125 0,-0.078125 -0.0625,-0.078125 -0.109375,-0.078125 -0.109375,0 -0.546875,0.140625 -0.734375,0.46875 -0.03125,0.015625 -0.078125,0.015625 -0.09375,0.015625 -0.578125,0 -0.640625,-0.625 -0.71875,-1.46875 C 5.078125,-2.328125 5.046875,-2.59375 4.953125,-3.625 8.0625,-5.484375 8.0625,-5.828125 8.0625,-6.25 c 0,-0.34375 -0.1875,-0.5625 -0.46875,-0.5625 -0.3125,0 -0.78125,0.34375 -0.78125,0.484375 0,0.0625 0.0625,0.0625 0.078125,0.0625 0.078125,0.015625 0.3125,0.0625 0.3125,0.4375 0,0.25 -0.03125,0.40625 -0.875,0.984375 -0.296875,0.203125 -0.71875,0.453125 -1.40625,0.875 z m 0,0"
               id="id-056c283e-8998-4ebc-a62b-14ac2264c72a" />
          </g>
        </g>
      </g>
      <g
         transform="matrix(0.42165058,0,0,0.42165058,-30.497562,21.578948)"
         id="id-d270714b-fcae-450b-991a-22123729dcfa"
         style="font-style:normal;font-weight:normal;font-size:33px;font-family:mwa_cmmi10;color-interpolation:linearRGB;fill:#000000;fill-opacity:1;stroke:#262626;stroke-width:1;stroke-linecap:square;stroke-linejoin:miter;stroke-miterlimit:10;stroke-dasharray:none;stroke-dashoffset:0;stroke-opacity:1;color-rendering:optimizeQuality;image-rendering:optimizeQuality;shape-rendering:auto;text-rendering:geometricPrecision">
        <g
           transform="translate(185.612,136.259)"
           id="g1451">
          <path
             id="id-38cfb03a-d171-40e5-bde0-9c840ec10bbb"
             d="m 1.90625,-2.328125 c 0.546875,0 0.9375,0.375 0.9375,1.125 0,0.859375 -0.515625,1.125 -0.90625,1.125 -0.28125,0 -0.90625,-0.078125 -1.1875,-0.5 0.328125,0 0.40625,-0.234375 0.40625,-0.390625 0,-0.21875 -0.171875,-0.375 -0.390625,-0.375 -0.1875,0 -0.390625,0.125 -0.390625,0.40625 0,0.65625 0.71875,1.078125 1.5625,1.078125 0.96875,0 1.640625,-0.65625 1.640625,-1.34375 0,-0.546875 -0.4375,-1.09375 -1.203125,-1.25 0.71875,-0.265625 0.984375,-0.78125 0.984375,-1.21875 0,-0.546875 -0.625,-0.953125 -1.40625,-0.953125 -0.765625,0 -1.359375,0.375 -1.359375,0.9375 0,0.234375 0.15625,0.359375 0.359375,0.359375 0.21875,0 0.359375,-0.15625 0.359375,-0.34375 0,-0.203125 -0.140625,-0.359375 -0.359375,-0.375 0.25,-0.296875 0.71875,-0.375 0.984375,-0.375 0.3125,0 0.75,0.15625 0.75,0.75 0,0.296875 -0.09375,0.625 -0.28125,0.828125 -0.21875,0.265625 -0.421875,0.28125 -0.765625,0.3125 -0.171875,0.015625 -0.1875,0.015625 -0.21875,0.015625 -0.015625,0 -0.078125,0.015625 -0.078125,0.09375 0,0.09375 0.0625,0.09375 0.1875,0.09375 z m 0,0"
             style="stroke:none" />
        </g>
      </g>
    </g>
  </g>
</svg>
