<?xml version="1.0" encoding="UTF-8" standalone="no"?>
<svg
   xmlns:dc="http://purl.org/dc/elements/1.1/"
   xmlns:cc="http://creativecommons.org/ns#"
   xmlns:rdf="http://www.w3.org/1999/02/22-rdf-syntax-ns#"
   xmlns:svg="http://www.w3.org/2000/svg"
   xmlns="http://www.w3.org/2000/svg"
   xmlns:sodipodi="http://sodipodi.sourceforge.net/DTD/sodipodi-0.dtd"
   xmlns:inkscape="http://www.inkscape.org/namespaces/inkscape"
   sodipodi:docname="tableVrijeme.svg"
   inkscape:version="1.0 (4035a4fb49, 2020-05-01)"
   width="125mm"
   height="40mm"
   viewBox="0 0 125 40"
   version="1.1"
   id="svg8">
  <defs
     id="defs2">
    <clipPath
       clipPathUnits="userSpaceOnUse"
       id="clipPath26">
      <path
         d="M 0,0.028 H 611.971 V 791.999 H 0 Z"
         clip-rule="evenodd"
         id="path24" />
    </clipPath>
    <clipPath
       clipPathUnits="userSpaceOnUse"
       id="clipPath2739">
      <path
         d="M 0,0.028 H 611.971 V 791.999 H 0 Z"
         clip-rule="evenodd"
         id="path2737" />
    </clipPath>
    <clipPath
       clipPathUnits="userSpaceOnUse"
       id="clipPath3588">
      <path
         d="M 0,0.028 H 611.971 V 791.999 H 0 Z"
         clip-rule="evenodd"
         id="path3586" />
    </clipPath>
    <defs
       id="id-109debea-f057-4209-a3b6-a2a6813918f6">
      <g
         id="id-e6073923-fa27-411f-9d37-b34e0019044b">
        <symbol
           overflow="visible"
           id="id-9b23fed8-1f56-4060-b501-335e31cf2442">
          <path
             style="stroke:none"
             d=""
             id="id-a30a5af0-dabf-4964-9d44-5ff438ca8114" />
        </symbol>
        <symbol
           overflow="visible"
           id="id-67d6b248-3211-4639-8f01-486a8945c5fe">
          <path
             style="stroke:none"
             d="M 1.09375,-4 C 1.0625,-4.296875 0.875,-4.296875 0.6875,-4.296875 H 0.375 c -0.15625,0 -0.421875,0 -0.421875,0.296875 0,0.3125 0.21875,0.3125 0.578125,0.3125 v 3.078125 c -0.359375,0 -0.578125,0 -0.578125,0.3125 C -0.046875,0 0.234375,0 0.375,0 H 1.25 c 0.140625,0 0.40625,0 0.40625,-0.296875 0,-0.3125 -0.203125,-0.3125 -0.5625,-0.3125 v -1.78125 C 1.09375,-3.28125 1.5,-3.75 1.90625,-3.75 c 0.234375,0 0.359375,0.171875 0.359375,0.8125 v 2.328125 c -0.1875,0 -0.4375,0 -0.4375,0.3125 C 1.828125,0 2.109375,0 2.25,0 h 0.734375 c 0.15625,0 0.421875,0 0.421875,-0.296875 0,-0.3125 -0.21875,-0.3125 -0.578125,-0.3125 v -1.78125 c 0,-0.890625 0.40625,-1.359375 0.828125,-1.359375 0.21875,0 0.359375,0.171875 0.359375,0.8125 v 2.328125 c -0.1875,0 -0.4375,0 -0.4375,0.3125 C 3.578125,0 3.84375,0 3.984375,0 h 0.75 c 0.15625,0 0.40625,0 0.40625,-0.296875 0,-0.3125 -0.203125,-0.3125 -0.5625,-0.3125 v -2.40625 c 0,-0.203125 0,-1.34375 -0.890625,-1.34375 -0.296875,0 -0.703125,0.125 -0.984375,0.515625 C 2.546875,-4.171875 2.265625,-4.359375 1.9375,-4.359375 1.625,-4.359375 1.328125,-4.21875 1.09375,-4 Z m 0,0"
             id="id-11040782-a874-4f19-889d-37ab951350ee" />
        </symbol>
        <symbol
           overflow="visible"
           id="id-6c417e3e-e190-4f77-a5a7-4865b23d0f8c">
          <path
             style="stroke:none"
             d="M 3.65625,-0.3125 C 3.875,-0.015625 4.34375,0 4.71875,0 c 0.28125,0 0.5,0 0.5,-0.3125 0,-0.296875 -0.25,-0.296875 -0.390625,-0.296875 -0.421875,0 -0.515625,-0.046875 -0.59375,-0.078125 v -2.15625 c 0,-0.703125 -0.546875,-1.546875 -1.984375,-1.546875 -0.421875,0 -1.4375,0 -1.4375,0.734375 0,0.296875 0.203125,0.453125 0.4375,0.453125 0.15625,0 0.4375,-0.09375 0.4375,-0.453125 0,-0.078125 0.015625,-0.09375 0.21875,-0.109375 0.140625,-0.015625 0.265625,-0.015625 0.359375,-0.015625 0.75,0 1.265625,0.3125 1.265625,1.015625 -1.75,0.03125 -2.984375,0.53125 -2.984375,1.484375 0,0.6875 0.625,1.34375 1.640625,1.34375 0.375,0 1,-0.078125 1.46875,-0.375 z m -0.125,-1.859375 v 0.84375 c 0,0.21875 0,0.4375 -0.375,0.609375 -0.359375,0.171875 -0.8125,0.171875 -0.890625,0.171875 -0.625,0 -1.03125,-0.34375 -1.03125,-0.734375 0,-0.484375 0.859375,-0.859375 2.296875,-0.890625 z m 0,0"
             id="id-a0f2dd9a-253f-463d-bcb4-1550916add4c" />
        </symbol>
        <symbol
           overflow="visible"
           id="id-3ddaf334-6469-4f21-8a58-782db9727a55">
          <path
             style="stroke:none"
             d="M 2.859375,-2.21875 4,-3.6875 h 0.390625 c 0.140625,0 0.421875,0 0.421875,-0.296875 0,-0.3125 -0.265625,-0.3125 -0.421875,-0.3125 h -1.15625 c -0.15625,0 -0.40625,0 -0.40625,0.296875 0,0.3125 0.21875,0.3125 0.484375,0.3125 l -0.734375,1 -0.75,-1 c 0.25,0 0.46875,0 0.46875,-0.3125 0,-0.296875 -0.25,-0.296875 -0.390625,-0.296875 H 0.734375 c -0.140625,0 -0.40625,0 -0.40625,0.3125 0,0.296875 0.265625,0.296875 0.40625,0.296875 h 0.40625 L 2.3125,-2.21875 1.078125,-0.609375 h -0.40625 c -0.140625,0 -0.40625,0 -0.40625,0.3125 C 0.265625,0 0.53125,0 0.671875,0 H 1.84375 C 2,0 2.25,0 2.25,-0.296875 c 0,-0.3125 -0.21875,-0.3125 -0.53125,-0.3125 l 0.859375,-1.21875 0.890625,1.21875 c -0.28125,0 -0.5,0 -0.5,0.3125 C 2.96875,0 3.21875,0 3.375,0 h 1.15625 c 0.140625,0 0.40625,0 0.40625,-0.296875 0,-0.3125 -0.25,-0.3125 -0.40625,-0.3125 H 4.140625 Z m 0,0"
             id="id-434e2565-a436-471a-9915-86587bfba907" />
        </symbol>
        <symbol
           overflow="visible"
           id="id-be19cc9e-36cb-4715-b0f7-449503fa58e9">
          <path
             style="stroke:none"
             d="M 1.703125,-2.734375 H 3.0625 c 0,0.40625 0,0.5625 0.34375,0.5625 0.34375,0 0.34375,-0.21875 0.34375,-0.40625 v -0.9375 c 0,-0.1875 0,-0.40625 -0.34375,-0.40625 -0.34375,0 -0.34375,0.15625 -0.34375,0.578125 H 1.703125 v -2.140625 h 2.5 v 0.53125 c 0,0.1875 0,0.40625 0.328125,0.40625 0.359375,0 0.359375,-0.203125 0.359375,-0.40625 V -5.6875 c 0,-0.296875 -0.0625,-0.40625 -0.40625,-0.40625 H 0.6875 c -0.15625,0 -0.40625,0 -0.40625,0.3125 0,0.296875 0.25,0.296875 0.40625,0.296875 h 0.328125 v 4.875 H 0.6875 c -0.15625,0 -0.40625,0 -0.40625,0.3125 C 0.28125,0 0.53125,0 0.6875,0 H 2.21875 C 2.375,0 2.625,0 2.625,-0.296875 c 0,-0.3125 -0.25,-0.3125 -0.40625,-0.3125 H 1.703125 Z m 0,0"
             id="id-9bd18b77-7857-44d8-87dd-29c9b08e0410" />
        </symbol>
        <symbol
           overflow="visible"
           id="id-01acf8f3-8ccc-4d45-be9b-b8db1d892294">
          <path
             style="stroke:none"
             d="m 3.078125,-3.890625 c 0,-0.3125 -0.0625,-0.40625 -0.390625,-0.40625 H 1.265625 c -0.15625,0 -0.40625,0 -0.40625,0.296875 0,0.3125 0.25,0.3125 0.40625,0.3125 h 1.125 v 3.078125 H 1.1875 c -0.15625,0 -0.40625,0 -0.40625,0.3125 C 0.78125,0 1.03125,0 1.1875,0 H 4.125 c 0.15625,0 0.40625,0 0.40625,-0.296875 0,-0.3125 -0.25,-0.3125 -0.40625,-0.3125 H 3.078125 Z m 0,-1.71875 c 0,-0.265625 -0.21875,-0.484375 -0.5,-0.484375 -0.28125,0 -0.5,0.21875 -0.5,0.484375 0,0.28125 0.21875,0.5 0.5,0.5 0.28125,0 0.5,-0.21875 0.5,-0.5 z m 0,0"
             id="id-13589cb0-f408-4649-af34-13e866eeb8af" />
        </symbol>
        <symbol
           overflow="visible"
           id="id-f3948eab-e7a9-4d67-882d-72b1c770d1b7">
          <path
             style="stroke:none"
             d="m 2.953125,-5.6875 c 0,-0.296875 -0.046875,-0.40625 -0.390625,-0.40625 H 0.984375 c -0.15625,0 -0.40625,0 -0.40625,0.3125 0,0.296875 0.265625,0.296875 0.40625,0.296875 h 1.28125 v 4.875 h -1.28125 c -0.15625,0 -0.40625,0 -0.40625,0.3125 C 0.578125,0 0.84375,0 0.984375,0 H 4.25 c 0.15625,0 0.40625,0 0.40625,-0.296875 0,-0.3125 -0.234375,-0.3125 -0.40625,-0.3125 H 2.953125 Z m 0,0"
             id="id-3c5f9d03-7f87-4300-9154-bcfd53d8a35a" />
        </symbol>
        <symbol
           overflow="visible"
           id="id-3f3fa2e7-bd5f-4f60-8e6d-417c4d3ce9cf">
          <path
             style="stroke:none"
             d="M 2.96875,-2.546875 C 2.734375,-2.578125 2.546875,-2.609375 2.296875,-2.65625 2,-2.703125 1.328125,-2.828125 1.328125,-3.203125 c 0,-0.265625 0.3125,-0.578125 1.265625,-0.578125 0.828125,0 0.96875,0.296875 1,0.5625 0,0.171875 0.03125,0.34375 0.328125,0.34375 0.359375,0 0.359375,-0.21875 0.359375,-0.421875 v -0.6875 c 0,-0.15625 0,-0.40625 -0.296875,-0.40625 -0.25,0 -0.28125,0.140625 -0.3125,0.21875 -0.4375,-0.21875 -0.875,-0.21875 -1.0625,-0.21875 -1.65625,0 -1.890625,0.828125 -1.890625,1.1875 0,0.90625 1.046875,1.078125 1.96875,1.21875 0.484375,0.078125 1.28125,0.203125 1.28125,0.734375 0,0.375 -0.375,0.703125 -1.28125,0.703125 -0.46875,0 -1.015625,-0.109375 -1.265625,-0.890625 -0.0625,-0.171875 -0.09375,-0.28125 -0.359375,-0.28125 -0.34375,0 -0.34375,0.203125 -0.34375,0.40625 v 0.96875 c 0,0.15625 0,0.40625 0.296875,0.40625 0.09375,0 0.25,-0.015625 0.375,-0.375 0.484375,0.359375 1.015625,0.375 1.296875,0.375 1.5625,0 1.890625,-0.828125 1.890625,-1.3125 0,-1.03125 -1.28125,-1.25 -1.609375,-1.296875 z m 0,0"
             id="id-0237a648-da28-4d30-9ae5-e86af1ef6b84" />
        </symbol>
        <symbol
           overflow="visible"
           id="id-b4665714-ece4-40c0-8bee-628931bb1af8">
          <path
             style="stroke:none"
             d="m 1.65625,-2.625 c 0,-0.59375 0.578125,-1.125 1.203125,-1.125 0.734375,0 1.3125,0.734375 1.3125,1.59375 0,0.953125 -0.6875,1.609375 -1.390625,1.609375 -0.78125,0 -1.125,-0.875 -1.125,-1.359375 z m 0,2.171875 C 2.0625,-0.03125 2.5,0.0625 2.8125,0.0625 c 1.078125,0 2.046875,-0.953125 2.046875,-2.21875 0,-1.21875 -0.875,-2.203125 -1.9375,-2.203125 C 2.4375,-4.359375 2,-4.171875 1.65625,-3.875 1.65625,-4.15625 1.640625,-4.296875 1.25,-4.296875 H 0.53125 c -0.15625,0 -0.40625,0 -0.40625,0.3125 0,0.296875 0.25,0.296875 0.390625,0.296875 H 0.96875 v 5.296875 h -0.4375 c -0.15625,0 -0.40625,0 -0.40625,0.296875 0,0.3125 0.25,0.3125 0.390625,0.3125 h 1.59375 C 2.25,2.21875 2.5,2.21875 2.5,1.90625 2.5,1.609375 2.25,1.609375 2.09375,1.609375 h -0.4375 z m 0,0"
             id="id-0285c001-fc32-49b3-a4a8-8804ba175a03" />
        </symbol>
        <symbol
           overflow="visible"
           id="id-601615a0-7734-4fd3-9b05-c7e7963ff5a3">
          <path
             style="stroke:none"
             d="m 4.25,-2.921875 c 0,-1 -0.5,-1.4375 -1.296875,-1.4375 -0.65625,0 -1.109375,0.34375 -1.296875,0.53125 V -5.6875 c 0,-0.296875 -0.0625,-0.40625 -0.40625,-0.40625 H 0.53125 c -0.15625,0 -0.40625,0 -0.40625,0.3125 0,0.296875 0.25,0.296875 0.390625,0.296875 H 0.96875 v 4.875 h -0.4375 c -0.15625,0 -0.40625,0 -0.40625,0.3125 C 0.125,0 0.375,0 0.515625,0 h 1.59375 C 2.25,0 2.5,0 2.5,-0.296875 c 0,-0.3125 -0.25,-0.3125 -0.40625,-0.3125 H 1.65625 V -2.375 c 0,-1 0.734375,-1.375 1.25,-1.375 0.515625,0 0.65625,0.28125 0.65625,0.875 v 2.265625 h -0.375 c -0.171875,0 -0.421875,0 -0.421875,0.3125 C 2.765625,0 3.046875,0 3.1875,0 h 1.515625 c 0.140625,0 0.40625,0 0.40625,-0.296875 0,-0.3125 -0.25,-0.3125 -0.421875,-0.3125 H 4.25 Z m 0,0"
             id="id-038ea860-5770-4c9a-be52-19d7b29952f6" />
        </symbol>
      </g>
    </defs>
  </defs>
  <sodipodi:namedview
     inkscape:window-maximized="1"
     inkscape:window-y="-8"
     inkscape:window-x="-8"
     inkscape:window-height="837"
     inkscape:window-width="1600"
     inkscape:pagecheckerboard="true"
     showgrid="false"
     inkscape:document-rotation="0"
     inkscape:current-layer="layer1"
     inkscape:document-units="mm"
     inkscape:cy="29.158685"
     inkscape:cx="242.47312"
     inkscape:zoom="1.4"
     inkscape:pageshadow="2"
     inkscape:pageopacity="0.0"
     borderopacity="1.0"
     bordercolor="#666666"
     pagecolor="#ffffff"
     id="base" />
  <metadata
     id="metadata5">
    <rdf:RDF>
      <cc:Work
         rdf:about="">
        <dc:format>image/svg+xml</dc:format>
        <dc:type
           rdf:resource="http://purl.org/dc/dcmitype/StillImage" />
        <dc:title></dc:title>
      </cc:Work>
    </rdf:RDF>
  </metadata>
  <g
     id="layer1"
     inkscape:groupmode="layer"
     inkscape:label="Layer 1">
    <g
       transform="matrix(0.46777851,0,0,0.46777851,-10.483545,-59.084429)"
       id="id-9fbfad0f-0040-4fff-a581-8e640571bf61"
       style="fill:#000000;fill-opacity:1">
      <g
         transform="translate(148.712,134.765)"
         id="g4658">
        <path
           id="id-086ac2e8-27cc-4c0d-ba57-c247acbbbf44"
           d="M 1.09375,-4 C 1.0625,-4.296875 0.875,-4.296875 0.6875,-4.296875 H 0.375 c -0.15625,0 -0.421875,0 -0.421875,0.296875 0,0.3125 0.21875,0.3125 0.578125,0.3125 v 3.078125 c -0.359375,0 -0.578125,0 -0.578125,0.3125 C -0.046875,0 0.234375,0 0.375,0 H 1.25 c 0.140625,0 0.40625,0 0.40625,-0.296875 0,-0.3125 -0.203125,-0.3125 -0.5625,-0.3125 v -1.78125 C 1.09375,-3.28125 1.5,-3.75 1.90625,-3.75 c 0.234375,0 0.359375,0.171875 0.359375,0.8125 v 2.328125 c -0.1875,0 -0.4375,0 -0.4375,0.3125 C 1.828125,0 2.109375,0 2.25,0 h 0.734375 c 0.15625,0 0.421875,0 0.421875,-0.296875 0,-0.3125 -0.21875,-0.3125 -0.578125,-0.3125 v -1.78125 c 0,-0.890625 0.40625,-1.359375 0.828125,-1.359375 0.21875,0 0.359375,0.171875 0.359375,0.8125 v 2.328125 c -0.1875,0 -0.4375,0 -0.4375,0.3125 C 3.578125,0 3.84375,0 3.984375,0 h 0.75 c 0.15625,0 0.40625,0 0.40625,-0.296875 0,-0.3125 -0.203125,-0.3125 -0.5625,-0.3125 v -2.40625 c 0,-0.203125 0,-1.34375 -0.890625,-1.34375 -0.296875,0 -0.703125,0.125 -0.984375,0.515625 C 2.546875,-4.171875 2.265625,-4.359375 1.9375,-4.359375 1.625,-4.359375 1.328125,-4.21875 1.09375,-4 Z m 0,0"
           style="stroke:none" />
      </g>
      <g
         transform="translate(153.942,134.765)"
         id="g4661">
        <path
           id="id-aa737217-51a0-4c31-9bd5-ff1ee4d00219"
           d="M 3.65625,-0.3125 C 3.875,-0.015625 4.34375,0 4.71875,0 c 0.28125,0 0.5,0 0.5,-0.3125 0,-0.296875 -0.25,-0.296875 -0.390625,-0.296875 -0.421875,0 -0.515625,-0.046875 -0.59375,-0.078125 v -2.15625 c 0,-0.703125 -0.546875,-1.546875 -1.984375,-1.546875 -0.421875,0 -1.4375,0 -1.4375,0.734375 0,0.296875 0.203125,0.453125 0.4375,0.453125 0.15625,0 0.4375,-0.09375 0.4375,-0.453125 0,-0.078125 0.015625,-0.09375 0.21875,-0.109375 0.140625,-0.015625 0.265625,-0.015625 0.359375,-0.015625 0.75,0 1.265625,0.3125 1.265625,1.015625 -1.75,0.03125 -2.984375,0.53125 -2.984375,1.484375 0,0.6875 0.625,1.34375 1.640625,1.34375 0.375,0 1,-0.078125 1.46875,-0.375 z m -0.125,-1.859375 v 0.84375 c 0,0.21875 0,0.4375 -0.375,0.609375 -0.359375,0.171875 -0.8125,0.171875 -0.890625,0.171875 -0.625,0 -1.03125,-0.34375 -1.03125,-0.734375 0,-0.484375 0.859375,-0.859375 2.296875,-0.890625 z m 0,0"
           style="stroke:none" />
      </g>
      <g
         transform="translate(159.173,134.765)"
         id="g4664">
        <path
           id="id-77d9c7f7-21e4-4b9b-a8af-bfd486106e06"
           d="M 2.859375,-2.21875 4,-3.6875 h 0.390625 c 0.140625,0 0.421875,0 0.421875,-0.296875 0,-0.3125 -0.265625,-0.3125 -0.421875,-0.3125 h -1.15625 c -0.15625,0 -0.40625,0 -0.40625,0.296875 0,0.3125 0.21875,0.3125 0.484375,0.3125 l -0.734375,1 -0.75,-1 c 0.25,0 0.46875,0 0.46875,-0.3125 0,-0.296875 -0.25,-0.296875 -0.390625,-0.296875 H 0.734375 c -0.140625,0 -0.40625,0 -0.40625,0.3125 0,0.296875 0.265625,0.296875 0.40625,0.296875 h 0.40625 L 2.3125,-2.21875 1.078125,-0.609375 h -0.40625 c -0.140625,0 -0.40625,0 -0.40625,0.3125 C 0.265625,0 0.53125,0 0.671875,0 H 1.84375 C 2,0 2.25,0 2.25,-0.296875 c 0,-0.3125 -0.21875,-0.3125 -0.53125,-0.3125 l 0.859375,-1.21875 0.890625,1.21875 c -0.28125,0 -0.5,0 -0.5,0.3125 C 2.96875,0 3.21875,0 3.375,0 h 1.15625 c 0.140625,0 0.40625,0 0.40625,-0.296875 0,-0.3125 -0.25,-0.3125 -0.40625,-0.3125 H 4.140625 Z m 0,0"
           style="stroke:none" />
      </g>
      <g
         transform="translate(164.403,134.765)"
         id="g4667">
        <path
           id="id-4806934f-6bab-409c-b665-30385d559a20"
           d="M 1.703125,-2.734375 H 3.0625 c 0,0.40625 0,0.5625 0.34375,0.5625 0.34375,0 0.34375,-0.21875 0.34375,-0.40625 v -0.9375 c 0,-0.1875 0,-0.40625 -0.34375,-0.40625 -0.34375,0 -0.34375,0.15625 -0.34375,0.578125 H 1.703125 v -2.140625 h 2.5 v 0.53125 c 0,0.1875 0,0.40625 0.328125,0.40625 0.359375,0 0.359375,-0.203125 0.359375,-0.40625 V -5.6875 c 0,-0.296875 -0.0625,-0.40625 -0.40625,-0.40625 H 0.6875 c -0.15625,0 -0.40625,0 -0.40625,0.3125 0,0.296875 0.25,0.296875 0.40625,0.296875 h 0.328125 v 4.875 H 0.6875 c -0.15625,0 -0.40625,0 -0.40625,0.3125 C 0.28125,0 0.53125,0 0.6875,0 H 2.21875 C 2.375,0 2.625,0 2.625,-0.296875 c 0,-0.3125 -0.25,-0.3125 -0.40625,-0.3125 H 1.703125 Z m 0,0"
           style="stroke:none" />
      </g>
      <g
         transform="translate(169.633,134.765)"
         id="g4670">
        <path
           id="id-2f2e9088-0e03-4b07-9eed-0528beebe506"
           d="M 3.65625,-0.3125 C 3.875,-0.015625 4.34375,0 4.71875,0 c 0.28125,0 0.5,0 0.5,-0.3125 0,-0.296875 -0.25,-0.296875 -0.390625,-0.296875 -0.421875,0 -0.515625,-0.046875 -0.59375,-0.078125 v -2.15625 c 0,-0.703125 -0.546875,-1.546875 -1.984375,-1.546875 -0.421875,0 -1.4375,0 -1.4375,0.734375 0,0.296875 0.203125,0.453125 0.4375,0.453125 0.15625,0 0.4375,-0.09375 0.4375,-0.453125 0,-0.078125 0.015625,-0.09375 0.21875,-0.109375 0.140625,-0.015625 0.265625,-0.015625 0.359375,-0.015625 0.75,0 1.265625,0.3125 1.265625,1.015625 -1.75,0.03125 -2.984375,0.53125 -2.984375,1.484375 0,0.6875 0.625,1.34375 1.640625,1.34375 0.375,0 1,-0.078125 1.46875,-0.375 z m -0.125,-1.859375 v 0.84375 c 0,0.21875 0,0.4375 -0.375,0.609375 -0.359375,0.171875 -0.8125,0.171875 -0.890625,0.171875 -0.625,0 -1.03125,-0.34375 -1.03125,-0.734375 0,-0.484375 0.859375,-0.859375 2.296875,-0.890625 z m 0,0"
           style="stroke:none" />
      </g>
      <g
         transform="translate(174.864,134.765)"
         id="g4673">
        <path
           id="id-109ccf1a-821c-4858-a863-4029cef0cebb"
           d="m 3.078125,-3.890625 c 0,-0.3125 -0.0625,-0.40625 -0.390625,-0.40625 H 1.265625 c -0.15625,0 -0.40625,0 -0.40625,0.296875 0,0.3125 0.25,0.3125 0.40625,0.3125 h 1.125 v 3.078125 H 1.1875 c -0.15625,0 -0.40625,0 -0.40625,0.3125 C 0.78125,0 1.03125,0 1.1875,0 H 4.125 c 0.15625,0 0.40625,0 0.40625,-0.296875 0,-0.3125 -0.25,-0.3125 -0.40625,-0.3125 H 3.078125 Z m 0,-1.71875 c 0,-0.265625 -0.21875,-0.484375 -0.5,-0.484375 -0.28125,0 -0.5,0.21875 -0.5,0.484375 0,0.28125 0.21875,0.5 0.5,0.5 0.28125,0 0.5,-0.21875 0.5,-0.5 z m 0,0"
           style="stroke:none" />
      </g>
      <g
         transform="translate(180.094,134.765)"
         id="g4676">
        <path
           id="id-af8a7352-5dd8-4e72-b25f-20d50ac09da5"
           d="m 2.953125,-5.6875 c 0,-0.296875 -0.046875,-0.40625 -0.390625,-0.40625 H 0.984375 c -0.15625,0 -0.40625,0 -0.40625,0.3125 0,0.296875 0.265625,0.296875 0.40625,0.296875 h 1.28125 v 4.875 h -1.28125 c -0.15625,0 -0.40625,0 -0.40625,0.3125 C 0.578125,0 0.84375,0 0.984375,0 H 4.25 c 0.15625,0 0.40625,0 0.40625,-0.296875 0,-0.3125 -0.234375,-0.3125 -0.40625,-0.3125 H 2.953125 Z m 0,0"
           style="stroke:none" />
      </g>
      <g
         transform="translate(185.325,134.765)"
         id="g4679">
        <path
           id="id-580e77c3-9659-409e-a042-1c702f820672"
           d="M 2.96875,-2.546875 C 2.734375,-2.578125 2.546875,-2.609375 2.296875,-2.65625 2,-2.703125 1.328125,-2.828125 1.328125,-3.203125 c 0,-0.265625 0.3125,-0.578125 1.265625,-0.578125 0.828125,0 0.96875,0.296875 1,0.5625 0,0.171875 0.03125,0.34375 0.328125,0.34375 0.359375,0 0.359375,-0.21875 0.359375,-0.421875 v -0.6875 c 0,-0.15625 0,-0.40625 -0.296875,-0.40625 -0.25,0 -0.28125,0.140625 -0.3125,0.21875 -0.4375,-0.21875 -0.875,-0.21875 -1.0625,-0.21875 -1.65625,0 -1.890625,0.828125 -1.890625,1.1875 0,0.90625 1.046875,1.078125 1.96875,1.21875 0.484375,0.078125 1.28125,0.203125 1.28125,0.734375 0,0.375 -0.375,0.703125 -1.28125,0.703125 -0.46875,0 -1.015625,-0.109375 -1.265625,-0.890625 -0.0625,-0.171875 -0.09375,-0.28125 -0.359375,-0.28125 -0.34375,0 -0.34375,0.203125 -0.34375,0.40625 v 0.96875 c 0,0.15625 0,0.40625 0.296875,0.40625 0.09375,0 0.25,-0.015625 0.375,-0.375 0.484375,0.359375 1.015625,0.375 1.296875,0.375 1.5625,0 1.890625,-0.828125 1.890625,-1.3125 0,-1.03125 -1.28125,-1.25 -1.609375,-1.296875 z m 0,0"
           style="stroke:none" />
      </g>
    </g>
    <g
       transform="matrix(-0.00637054,-0.46282076,0.46282076,-0.00637054,-59.96283,100.80638)"
       id="id-4cd7c19f-cf3f-4a17-8187-49758931fa96"
       style="fill:#000000;fill-opacity:1">
      <g
         transform="translate(148.712,146.72)"
         id="g4683">
        <path
           id="id-f33eb96c-26e8-425d-aa58-31d86fa06c80"
           d="M 3.65625,-0.3125 C 3.875,-0.015625 4.34375,0 4.71875,0 c 0.28125,0 0.5,0 0.5,-0.3125 0,-0.296875 -0.25,-0.296875 -0.390625,-0.296875 -0.421875,0 -0.515625,-0.046875 -0.59375,-0.078125 v -2.15625 c 0,-0.703125 -0.546875,-1.546875 -1.984375,-1.546875 -0.421875,0 -1.4375,0 -1.4375,0.734375 0,0.296875 0.203125,0.453125 0.4375,0.453125 0.15625,0 0.4375,-0.09375 0.4375,-0.453125 0,-0.078125 0.015625,-0.09375 0.21875,-0.109375 0.140625,-0.015625 0.265625,-0.015625 0.359375,-0.015625 0.75,0 1.265625,0.3125 1.265625,1.015625 -1.75,0.03125 -2.984375,0.53125 -2.984375,1.484375 0,0.6875 0.625,1.34375 1.640625,1.34375 0.375,0 1,-0.078125 1.46875,-0.375 z m -0.125,-1.859375 v 0.84375 c 0,0.21875 0,0.4375 -0.375,0.609375 -0.359375,0.171875 -0.8125,0.171875 -0.890625,0.171875 -0.625,0 -1.03125,-0.34375 -1.03125,-0.734375 0,-0.484375 0.859375,-0.859375 2.296875,-0.890625 z m 0,0"
           style="stroke:none" />
      </g>
      <g
         transform="translate(153.942,146.72)"
         id="g4686">
        <path
           id="id-3134fbd3-1f6f-4028-b9fe-87785fa65edc"
           d="m 2.953125,-5.6875 c 0,-0.296875 -0.046875,-0.40625 -0.390625,-0.40625 H 0.984375 c -0.15625,0 -0.40625,0 -0.40625,0.3125 0,0.296875 0.265625,0.296875 0.40625,0.296875 h 1.28125 v 4.875 h -1.28125 c -0.15625,0 -0.40625,0 -0.40625,0.3125 C 0.578125,0 0.84375,0 0.984375,0 H 4.25 c 0.15625,0 0.40625,0 0.40625,-0.296875 0,-0.3125 -0.234375,-0.3125 -0.40625,-0.3125 H 2.953125 Z m 0,0"
           style="stroke:none" />
      </g>
      <g
         transform="translate(159.173,146.72)"
         id="g4689">
        <path
           id="id-18d393d1-4dd8-4d7a-9f7d-29ab91231f40"
           d="m 1.65625,-2.625 c 0,-0.59375 0.578125,-1.125 1.203125,-1.125 0.734375,0 1.3125,0.734375 1.3125,1.59375 0,0.953125 -0.6875,1.609375 -1.390625,1.609375 -0.78125,0 -1.125,-0.875 -1.125,-1.359375 z m 0,2.171875 C 2.0625,-0.03125 2.5,0.0625 2.8125,0.0625 c 1.078125,0 2.046875,-0.953125 2.046875,-2.21875 0,-1.21875 -0.875,-2.203125 -1.9375,-2.203125 C 2.4375,-4.359375 2,-4.171875 1.65625,-3.875 1.65625,-4.15625 1.640625,-4.296875 1.25,-4.296875 H 0.53125 c -0.15625,0 -0.40625,0 -0.40625,0.3125 0,0.296875 0.25,0.296875 0.390625,0.296875 H 0.96875 v 5.296875 h -0.4375 c -0.15625,0 -0.40625,0 -0.40625,0.296875 0,0.3125 0.25,0.3125 0.390625,0.3125 h 1.59375 C 2.25,2.21875 2.5,2.21875 2.5,1.90625 2.5,1.609375 2.25,1.609375 2.09375,1.609375 h -0.4375 z m 0,0"
           style="stroke:none" />
      </g>
      <g
         transform="translate(164.403,146.72)"
         id="g4692">
        <path
           id="id-7bc3fac3-67a6-4c4c-bbc6-219e15ec913f"
           d="m 4.25,-2.921875 c 0,-1 -0.5,-1.4375 -1.296875,-1.4375 -0.65625,0 -1.109375,0.34375 -1.296875,0.53125 V -5.6875 c 0,-0.296875 -0.0625,-0.40625 -0.40625,-0.40625 H 0.53125 c -0.15625,0 -0.40625,0 -0.40625,0.3125 0,0.296875 0.25,0.296875 0.390625,0.296875 H 0.96875 v 4.875 h -0.4375 c -0.15625,0 -0.40625,0 -0.40625,0.3125 C 0.125,0 0.375,0 0.515625,0 h 1.59375 C 2.25,0 2.5,0 2.5,-0.296875 c 0,-0.3125 -0.25,-0.3125 -0.40625,-0.3125 H 1.65625 V -2.375 c 0,-1 0.734375,-1.375 1.25,-1.375 0.515625,0 0.65625,0.28125 0.65625,0.875 v 2.265625 h -0.375 c -0.171875,0 -0.421875,0 -0.421875,0.3125 C 2.765625,0 3.046875,0 3.1875,0 h 1.515625 c 0.140625,0 0.40625,0 0.40625,-0.296875 0,-0.3125 -0.25,-0.3125 -0.421875,-0.3125 H 4.25 Z m 0,0"
           style="stroke:none" />
      </g>
      <g
         transform="translate(169.633,146.72)"
         id="g4695">
        <path
           id="id-cc775891-162e-40a9-9627-a9676ca01af5"
           d="M 3.65625,-0.3125 C 3.875,-0.015625 4.34375,0 4.71875,0 c 0.28125,0 0.5,0 0.5,-0.3125 0,-0.296875 -0.25,-0.296875 -0.390625,-0.296875 -0.421875,0 -0.515625,-0.046875 -0.59375,-0.078125 v -2.15625 c 0,-0.703125 -0.546875,-1.546875 -1.984375,-1.546875 -0.421875,0 -1.4375,0 -1.4375,0.734375 0,0.296875 0.203125,0.453125 0.4375,0.453125 0.15625,0 0.4375,-0.09375 0.4375,-0.453125 0,-0.078125 0.015625,-0.09375 0.21875,-0.109375 0.140625,-0.015625 0.265625,-0.015625 0.359375,-0.015625 0.75,0 1.265625,0.3125 1.265625,1.015625 -1.75,0.03125 -2.984375,0.53125 -2.984375,1.484375 0,0.6875 0.625,1.34375 1.640625,1.34375 0.375,0 1,-0.078125 1.46875,-0.375 z m -0.125,-1.859375 v 0.84375 c 0,0.21875 0,0.4375 -0.375,0.609375 -0.359375,0.171875 -0.8125,0.171875 -0.890625,0.171875 -0.625,0 -1.03125,-0.34375 -1.03125,-0.734375 0,-0.484375 0.859375,-0.859375 2.296875,-0.890625 z m 0,0"
           style="stroke:none" />
      </g>
    </g>
    <path
       d="M 20.489604,14.883964 H 37.519599 V 10.013867 H 20.489604 Z"
       style="fill:#b4cc89;fill-opacity:1;fill-rule:evenodd;stroke:none;stroke-width:0.352777"
       id="path12023" />
    <path
       d="M 37.509722,14.883964 H 54.539715 V 10.013867 H 37.509722 Z"
       style="fill:#e6ee53;fill-opacity:1;fill-rule:evenodd;stroke:none;stroke-width:0.352777"
       id="path12025" />
    <path
       d="M 54.529484,14.883964 H 71.559477 V 10.013867 H 54.529484 Z"
       style="fill:#fdda32;fill-opacity:1;fill-rule:evenodd;stroke:none;stroke-width:0.352777"
       id="path12027" />
    <path
       d="M 71.5496,14.883964 H 88.579594 V 10.013867 H 71.5496 Z"
       style="fill:#f65c1b;fill-opacity:1;fill-rule:evenodd;stroke:none;stroke-width:0.352777"
       id="path12029" />
    <path
       d="M 88.569717,14.883964 H 105.59971 V 10.013867 H 88.569717 Z"
       style="fill:#f6561a;fill-opacity:1;fill-rule:evenodd;stroke:none;stroke-width:0.352777"
       id="path12031" />
    <path
       d="m 105.58948,14.883964 h 17.03 v -4.870097 h -17.03 z"
       style="fill:#f54316;fill-opacity:1;fill-rule:evenodd;stroke:none;stroke-width:0.352777"
       id="path12033" />
    <path
       d="M 20.489604,19.743831 H 37.519599 V 14.873734 H 20.489604 Z"
       style="fill:#84abbc;fill-opacity:1;fill-rule:evenodd;stroke:none;stroke-width:0.352777"
       id="path12035" />
    <path
       d="M 37.509722,19.743831 H 54.539715 V 14.873734 H 37.509722 Z"
       style="fill:#b7ce85;fill-opacity:1;fill-rule:evenodd;stroke:none;stroke-width:0.352777"
       id="path12037" />
    <path
       d="M 54.529484,19.743831 H 71.559477 V 14.873734 H 54.529484 Z"
       style="fill:#feea35;fill-opacity:1;fill-rule:evenodd;stroke:none;stroke-width:0.352777"
       id="path12039" />
    <path
       d="M 71.5496,19.743831 H 88.579594 V 14.873734 H 71.5496 Z"
       style="fill:#f8fa40;fill-opacity:1;fill-rule:evenodd;stroke:none;stroke-width:0.352777"
       id="path12041" />
    <path
       d="M 88.569717,19.743831 H 105.59971 V 14.873734 H 88.569717 Z"
       style="fill:#f76e1e;fill-opacity:1;fill-rule:evenodd;stroke:none;stroke-width:0.352777"
       id="path12043" />
    <path
       d="m 105.58948,19.743831 h 17.03 v -4.870097 h -17.03 z"
       style="fill:#f43614;fill-opacity:1;fill-rule:evenodd;stroke:none;stroke-width:0.352777"
       id="path12045" />
    <path
       d="M 20.489604,24.60405 H 37.519599 V 19.733953 H 20.489604 Z"
       style="fill:#9cbca2;fill-opacity:1;fill-rule:evenodd;stroke:none;stroke-width:0.352777"
       id="path12047" />
    <path
       d="M 37.509722,24.60405 H 54.539715 V 19.733953 H 37.509722 Z"
       style="fill:#a3c09b;fill-opacity:1;fill-rule:evenodd;stroke:none;stroke-width:0.352777"
       id="path12049" />
    <path
       d="M 54.529484,24.60405 H 71.559477 V 19.733953 H 54.529484 Z"
       style="fill:#a6c297;fill-opacity:1;fill-rule:evenodd;stroke:none;stroke-width:0.352777"
       id="path12051" />
    <path
       d="M 71.5496,24.60405 H 88.579594 V 19.733953 H 71.5496 Z"
       style="fill:#fff436;fill-opacity:1;fill-rule:evenodd;stroke:none;stroke-width:0.352777"
       id="path12053" />
    <path
       d="M 88.569717,24.60405 H 105.59971 V 19.733953 H 88.569717 Z"
       style="fill:#f10d0c;fill-opacity:1;fill-rule:evenodd;stroke:none;stroke-width:0.352777"
       id="path12055" />
    <path
       d="m 105.58948,24.60405 h 17.03 v -4.870097 h -17.03 z"
       style="fill:#f54a17;fill-opacity:1;fill-rule:evenodd;stroke:none;stroke-width:0.352777"
       id="path12057" />
    <path
       d="M 20.489604,29.663942 H 37.519599 V 24.593819 H 20.489604 Z"
       style="fill:#8db1b2;fill-opacity:1;fill-rule:evenodd;stroke:none;stroke-width:0.352777"
       id="path12059" />
    <path
       d="M 37.509722,29.663942 H 54.539715 V 24.593819 H 37.509722 Z"
       style="fill:#97b8a7;fill-opacity:1;fill-rule:evenodd;stroke:none;stroke-width:0.352777"
       id="path12061" />
    <path
       d="M 54.529484,29.663942 H 71.559477 V 24.593819 H 54.529484 Z"
       style="fill:#a8c396;fill-opacity:1;fill-rule:evenodd;stroke:none;stroke-width:0.352777"
       id="path12063" />
    <path
       d="M 71.5496,29.663942 H 88.579594 V 24.593819 H 71.5496 Z"
       style="fill:#fffa38;fill-opacity:1;fill-rule:evenodd;stroke:none;stroke-width:0.352777"
       id="path12065" />
    <path
       d="M 88.569717,29.663942 H 105.59971 V 24.593819 H 88.569717 Z"
       style="fill:#fa9d27;fill-opacity:1;fill-rule:evenodd;stroke:none;stroke-width:0.352777"
       id="path12067" />
    <path
       d="m 105.58948,29.663942 h 17.03 v -5.070123 h -17.03 z"
       style="fill:#fbb92c;fill-opacity:1;fill-rule:evenodd;stroke:none;stroke-width:0.352777"
       id="path12069" />
    <path
       d="M 20.489604,34.913979 H 37.519599 V 29.654063 H 20.489604 Z"
       style="fill:#729fcf;fill-opacity:1;fill-rule:evenodd;stroke:none;stroke-width:0.352777"
       id="path12071" />
    <path
       d="M 37.509722,34.913979 H 54.539715 V 29.654063 H 37.509722 Z"
       style="fill:#e9f04f;fill-opacity:1;fill-rule:evenodd;stroke:none;stroke-width:0.352777"
       id="path12073" />
    <path
       d="M 54.529484,34.913979 H 71.559477 V 29.654063 H 54.529484 Z"
       style="fill:#b2cb8a;fill-opacity:1;fill-rule:evenodd;stroke:none;stroke-width:0.352777"
       id="path12075" />
    <path
       d="M 71.5496,34.913979 H 88.579594 V 29.654063 H 71.5496 Z"
       style="fill:#fff136;fill-opacity:1;fill-rule:evenodd;stroke:none;stroke-width:0.352777"
       id="path12077" />
    <path
       d="M 88.569717,34.913979 H 105.59971 V 29.654063 H 88.569717 Z"
       style="fill:#e3ec56;fill-opacity:1;fill-rule:evenodd;stroke:none;stroke-width:0.352777"
       id="path12079" />
    <path
       d="m 105.58948,34.913979 h 17.03 v -5.259916 h -17.03 z"
       style="fill:#fdd330;fill-opacity:1;fill-rule:evenodd;stroke:none;stroke-width:0.352777"
       id="path12081" />
    <path
       d="M 20.489604,39.773846 H 37.519599 V 34.90375 H 20.489604 Z"
       style="fill:#729fcf;fill-opacity:1;fill-rule:evenodd;stroke:none;stroke-width:0.352777"
       id="path12083" />
    <path
       d="M 37.509722,39.773846 H 54.539715 V 34.90375 H 37.509722 Z"
       style="fill:#7ca5c5;fill-opacity:1;fill-rule:evenodd;stroke:none;stroke-width:0.352777"
       id="path12085" />
    <path
       d="M 54.529484,39.773846 H 71.559477 V 34.90375 H 54.529484 Z"
       style="fill:#ebf14d;fill-opacity:1;fill-rule:evenodd;stroke:none;stroke-width:0.352777"
       id="path12087" />
    <path
       d="M 71.5496,39.773846 H 88.579594 V 34.90375 H 71.5496 Z"
       style="fill:#fff236;fill-opacity:1;fill-rule:evenodd;stroke:none;stroke-width:0.352777"
       id="path12089" />
    <path
       d="M 88.569717,39.773846 H 105.59971 V 34.90375 H 88.569717 Z"
       style="fill:#f10d0c;fill-opacity:1;fill-rule:evenodd;stroke:none;stroke-width:0.352777"
       id="path12091" />
    <path
       d="m 105.58948,39.773846 h 17.03 V 34.90375 h -17.03 z"
       style="fill:#f32e12;fill-opacity:1;fill-rule:evenodd;stroke:none;stroke-width:0.352777"
       id="path12093" />
    <g
       id="g12167"
       transform="matrix(0.35277777,0,0,-0.35277777,-16.110382,260.684)">
      <path
         d="M 50.315,738.028 H 393.364"
         style="fill:none;stroke:#000000;stroke-width:0.09999;stroke-linecap:butt;stroke-linejoin:round;stroke-miterlimit:10;stroke-dasharray:none;stroke-opacity:1"
         id="path12169" />
    </g>
    <g
       id="g12171"
       transform="matrix(0.35277777,0,0,-0.35277777,-16.110382,260.684)">
      <path
         d="M 50.372,738.085 V 626.088"
         style="fill:none;stroke:#000000;stroke-width:0.09999;stroke-linecap:butt;stroke-linejoin:round;stroke-miterlimit:10;stroke-dasharray:none;stroke-opacity:1"
         id="path12173" />
    </g>
    <g
       id="g12175"
       transform="matrix(0.35277777,0,0,-0.35277777,-16.110382,260.684)">
      <path
         d="M 77.102,738.085 V 626.088"
         style="fill:none;stroke:#000000;stroke-width:0.09999;stroke-linecap:butt;stroke-linejoin:round;stroke-miterlimit:10;stroke-dasharray:none;stroke-opacity:1"
         id="path12177" />
    </g>
    <g
       id="g12179"
       transform="matrix(0.35277777,0,0,-0.35277777,-16.110382,260.684)">
      <path
         d="M 103.833,738.085 V 626.088"
         style="fill:none;stroke:#000000;stroke-width:0.09999;stroke-linecap:butt;stroke-linejoin:round;stroke-miterlimit:10;stroke-dasharray:none;stroke-opacity:1"
         id="path12181" />
    </g>
    <g
       id="g12183"
       transform="matrix(0.35277777,0,0,-0.35277777,-16.110382,260.684)">
      <path
         d="M 393.307,738.085 V 626.088"
         style="fill:none;stroke:#000000;stroke-width:0.09999;stroke-linecap:butt;stroke-linejoin:round;stroke-miterlimit:10;stroke-dasharray:none;stroke-opacity:1"
         id="path12185" />
    </g>
    <g
       id="g12187"
       transform="matrix(0.35277777,0,0,-0.35277777,-16.110382,260.684)">
      <path
         d="M 393.307,738.085 V 626.088"
         style="fill:none;stroke:#000000;stroke-width:0.09999;stroke-linecap:butt;stroke-linejoin:round;stroke-miterlimit:10;stroke-dasharray:none;stroke-opacity:1"
         id="path12189" />
    </g>
    <g
       id="g12191"
       transform="matrix(0.35277777,0,0,-0.35277777,-16.110382,260.684)">
      <path
         d="M 50.315,724.252 H 393.364"
         style="fill:none;stroke:#000000;stroke-width:0.09999;stroke-linecap:butt;stroke-linejoin:round;stroke-miterlimit:10;stroke-dasharray:none;stroke-opacity:1"
         id="path12193" />
    </g>
    <g
       id="g12195"
       transform="matrix(0.35277777,0,0,-0.35277777,-16.110382,260.684)">
      <path
         d="m 152.079,724.309 v -13.89"
         style="fill:none;stroke:#000000;stroke-width:0.09999;stroke-linecap:butt;stroke-linejoin:round;stroke-miterlimit:10;stroke-dasharray:none;stroke-opacity:1"
         id="path12197" />
    </g>
    <g
       id="g12199"
       transform="matrix(0.35277777,0,0,-0.35277777,-16.110382,260.684)">
      <path
         d="m 200.324,724.309 v -13.89"
         style="fill:none;stroke:#000000;stroke-width:0.09999;stroke-linecap:butt;stroke-linejoin:round;stroke-miterlimit:10;stroke-dasharray:none;stroke-opacity:1"
         id="path12201" />
    </g>
    <g
       id="g12203"
       transform="matrix(0.35277777,0,0,-0.35277777,-16.110382,260.684)">
      <path
         d="m 248.57,724.309 v -13.89"
         style="fill:none;stroke:#000000;stroke-width:0.09999;stroke-linecap:butt;stroke-linejoin:round;stroke-miterlimit:10;stroke-dasharray:none;stroke-opacity:1"
         id="path12205" />
    </g>
    <g
       id="g12207"
       transform="matrix(0.35277777,0,0,-0.35277777,-16.110382,260.684)">
      <path
         d="m 296.816,724.309 v -13.89"
         style="fill:none;stroke:#000000;stroke-width:0.09999;stroke-linecap:butt;stroke-linejoin:round;stroke-miterlimit:10;stroke-dasharray:none;stroke-opacity:1"
         id="path12209" />
    </g>
    <g
       id="g12211"
       transform="matrix(0.35277777,0,0,-0.35277777,-16.110382,260.684)">
      <path
         d="m 345.061,724.309 v -13.89"
         style="fill:none;stroke:#000000;stroke-width:0.09999;stroke-linecap:butt;stroke-linejoin:round;stroke-miterlimit:10;stroke-dasharray:none;stroke-opacity:1"
         id="path12213" />
    </g>
    <g
       id="g12215"
       transform="matrix(0.35277777,0,0,-0.35277777,-16.110382,260.684)">
      <path
         d="M 50.315,710.476 H 393.364"
         style="fill:none;stroke:#000000;stroke-width:0.09999;stroke-linecap:butt;stroke-linejoin:round;stroke-miterlimit:10;stroke-dasharray:none;stroke-opacity:1"
         id="path12217" />
    </g>
    <g
       id="g12219"
       transform="matrix(0.35277777,0,0,-0.35277777,-16.110382,260.684)">
      <path
         d="M 77.046,696.699 H 103.89"
         style="fill:none;stroke:#000000;stroke-width:0.09999;stroke-linecap:butt;stroke-linejoin:round;stroke-miterlimit:10;stroke-dasharray:none;stroke-opacity:1"
         id="path12221" />
    </g>
    <g
       id="g12223"
       transform="matrix(0.35277777,0,0,-0.35277777,-16.110382,260.684)">
      <path
         d="M 77.046,682.923 H 103.89"
         style="fill:none;stroke:#000000;stroke-width:0.09999;stroke-linecap:butt;stroke-linejoin:round;stroke-miterlimit:10;stroke-dasharray:none;stroke-opacity:1"
         id="path12225" />
    </g>
    <g
       id="g12227"
       transform="matrix(0.35277777,0,0,-0.35277777,-16.110382,260.684)">
      <path
         d="M 77.046,669.146 H 103.89"
         style="fill:none;stroke:#000000;stroke-width:0.09999;stroke-linecap:butt;stroke-linejoin:round;stroke-miterlimit:10;stroke-dasharray:none;stroke-opacity:1"
         id="path12229" />
    </g>
    <g
       id="g12231"
       transform="matrix(0.35277777,0,0,-0.35277777,-16.110382,260.684)">
      <path
         d="M 77.046,654.803 H 103.89"
         style="fill:none;stroke:#000000;stroke-width:0.09999;stroke-linecap:butt;stroke-linejoin:round;stroke-miterlimit:10;stroke-dasharray:none;stroke-opacity:1"
         id="path12233" />
    </g>
    <g
       id="g12235"
       transform="matrix(0.35277777,0,0,-0.35277777,-16.110382,260.684)">
      <path
         d="M 77.046,639.921 H 103.89"
         style="fill:none;stroke:#000000;stroke-width:0.09999;stroke-linecap:butt;stroke-linejoin:round;stroke-miterlimit:10;stroke-dasharray:none;stroke-opacity:1"
         id="path12237" />
    </g>
    <g
       id="g12239"
       transform="matrix(0.35277777,0,0,-0.35277777,-16.110382,260.684)">
      <path
         d="M 50.315,626.145 H 393.364"
         style="fill:none;stroke:#000000;stroke-width:0.09999;stroke-linecap:butt;stroke-linejoin:round;stroke-miterlimit:10;stroke-dasharray:none;stroke-opacity:1"
         id="path12241" />
    </g>
    <g
       id="g12325"
       transform="matrix(0.35277777,0,0,-0.35277777,-16.110382,260.684)">
      <text
         transform="matrix(1,0,0,-1,125.093,714.586)"
         style="font-variant:normal;font-weight:normal;font-size:10.998px;font-family:Calibri;-inkscape-font-specification:Calibri;writing-mode:lr-tb;fill:#000000;fill-opacity:1;fill-rule:nonzero;stroke:none"
         id="text12329"><tspan
           x="0"
           y="0"
           id="tspan12327">2</tspan></text>
    </g>
    <g
       id="g12331"
       transform="matrix(0.35277777,0,0,-0.35277777,-16.110382,260.684)">
      <text
         transform="matrix(1,0,0,-1,173.395,714.586)"
         style="font-variant:normal;font-weight:normal;font-size:10.998px;font-family:Calibri;-inkscape-font-specification:Calibri;writing-mode:lr-tb;fill:#000000;fill-opacity:1;fill-rule:nonzero;stroke:none"
         id="text12335"><tspan
           x="0"
           y="0"
           id="tspan12333">5</tspan></text>
    </g>
    <g
       id="g12337"
       transform="matrix(0.35277777,0,0,-0.35277777,-16.110382,260.684)">
      <text
         transform="matrix(1,0,0,-1,218.891,714.586)"
         style="font-variant:normal;font-weight:normal;font-size:10.998px;font-family:Calibri;-inkscape-font-specification:Calibri;writing-mode:lr-tb;fill:#000000;fill-opacity:1;fill-rule:nonzero;stroke:none"
         id="text12341"><tspan
           x="0 5.5869842"
           y="0"
           sodipodi:role="line"
           id="tspan12339">10</tspan></text>
    </g>
    <g
       id="g12343"
       transform="matrix(0.35277777,0,0,-0.35277777,-16.110382,260.684)">
      <text
         transform="matrix(1,0,0,-1,267.109,714.586)"
         style="font-variant:normal;font-weight:normal;font-size:10.998px;font-family:Calibri;-inkscape-font-specification:Calibri;writing-mode:lr-tb;fill:#000000;fill-opacity:1;fill-rule:nonzero;stroke:none"
         id="text12347"><tspan
           x="0 5.5869842"
           y="0"
           sodipodi:role="line"
           id="tspan12345">20</tspan></text>
    </g>
    <g
       id="g12349"
       transform="matrix(0.35277777,0,0,-0.35277777,-16.110382,260.684)">
      <text
         transform="matrix(1,0,0,-1,315.411,714.586)"
         style="font-variant:normal;font-weight:normal;font-size:10.998px;font-family:Calibri;-inkscape-font-specification:Calibri;writing-mode:lr-tb;fill:#000000;fill-opacity:1;fill-rule:nonzero;stroke:none"
         id="text12353"><tspan
           x="0 5.5869842"
           y="0"
           sodipodi:role="line"
           id="tspan12351">35</tspan></text>
    </g>
    <g
       id="g12355"
       transform="matrix(0.35277777,0,0,-0.35277777,-16.110382,260.684)">
      <text
         transform="matrix(1,0,0,-1,363.6,714.586)"
         style="font-variant:normal;font-weight:normal;font-size:10.998px;font-family:Calibri;-inkscape-font-specification:Calibri;writing-mode:lr-tb;fill:#000000;fill-opacity:1;fill-rule:nonzero;stroke:none"
         id="text12359"><tspan
           x="0 5.5869842"
           y="0"
           sodipodi:role="line"
           id="tspan12357">70</tspan></text>
    </g>
    <g
       id="g12383"
       transform="matrix(0.35277777,0,0,-0.35277777,-16.110382,260.684)">
      <text
         transform="matrix(1,0,0,-1,87.704,700.809)"
         style="font-variant:normal;font-weight:normal;font-size:10.998px;font-family:Calibri;-inkscape-font-specification:Calibri;writing-mode:lr-tb;fill:#000000;fill-opacity:1;fill-rule:nonzero;stroke:none"
         id="text12387"><tspan
           x="0"
           y="0"
           id="tspan12385">2</tspan></text>
    </g>
    <g
       id="g12389"
       transform="matrix(0.35277777,0,0,-0.35277777,-16.110382,260.684)">
      <text
         transform="matrix(1,0,0,-1,125.887,700.498)"
         style="font-variant:normal;font-weight:normal;font-size:10.998px;font-family:Calibri;-inkscape-font-specification:Calibri;writing-mode:lr-tb;fill:#000000;fill-opacity:1;fill-rule:nonzero;stroke:none"
         id="text12393"><tspan
           x="0 5.5869842 8.380476 13.96746 19.554443"
           y="0"
           sodipodi:role="line"
           id="tspan12391">7.597</tspan></text>
    </g>
    <g
       id="g12395"
       transform="matrix(0.35277777,0,0,-0.35277777,-16.110382,260.684)">
      <text
         transform="matrix(1,0,0,-1,168.491,700.498)"
         style="font-variant:normal;font-weight:normal;font-size:10.998px;font-family:Calibri;-inkscape-font-specification:Calibri;writing-mode:lr-tb;fill:#000000;fill-opacity:1;fill-rule:nonzero;stroke:none"
         id="text12399"><tspan
           x="0 5.5869842 11.173968 13.96746 19.554443 25.141428"
           y="0"
           sodipodi:role="line"
           id="tspan12397">10.374</tspan></text>
    </g>
    <g
       id="g12401"
       transform="matrix(0.35277777,0,0,-0.35277777,-16.110382,260.684)">
      <text
         transform="matrix(1,0,0,-1,222.406,700.498)"
         style="font-variant:normal;font-weight:normal;font-size:10.998px;font-family:Calibri;-inkscape-font-specification:Calibri;writing-mode:lr-tb;fill:#000000;fill-opacity:1;fill-rule:nonzero;stroke:none"
         id="text12405"><tspan
           x="0 5.5869842 11.173968 13.96746 19.554443"
           y="0"
           sodipodi:role="line"
           id="tspan12403">14.54</tspan></text>
    </g>
    <g
       id="g12407"
       transform="matrix(0.35277777,0,0,-0.35277777,-16.110382,260.684)">
      <text
         transform="matrix(1,0,0,-1,265.011,700.498)"
         style="font-variant:normal;font-weight:normal;font-size:10.998px;font-family:Calibri;-inkscape-font-specification:Calibri;writing-mode:lr-tb;fill:#000000;fill-opacity:1;fill-rule:nonzero;stroke:none"
         id="text12411"><tspan
           x="0 5.5869842 11.173968 13.96746 19.554443 25.141428"
           y="0"
           sodipodi:role="line"
           id="tspan12409">24.046</tspan></text>
    </g>
    <g
       id="g12413"
       transform="matrix(0.35277777,0,0,-0.35277777,-16.110382,260.684)">
      <text
         transform="matrix(1,0,0,-1,313.313,700.498)"
         style="font-variant:normal;font-weight:normal;font-size:10.998px;font-family:Calibri;-inkscape-font-specification:Calibri;writing-mode:lr-tb;fill:#000000;fill-opacity:1;fill-rule:nonzero;stroke:none"
         id="text12417"><tspan
           x="0 5.5869842 11.173968 13.96746 19.554443 25.141428"
           y="0"
           sodipodi:role="line"
           id="tspan12415">24.491</tspan></text>
    </g>
    <g
       id="g12419"
       transform="matrix(0.35277777,0,0,-0.35277777,-16.110382,260.684)">
      <text
         transform="matrix(1,0,0,-1,361.502,700.498)"
         style="font-variant:normal;font-weight:normal;font-size:10.998px;font-family:Calibri;-inkscape-font-specification:Calibri;writing-mode:lr-tb;fill:#000000;fill-opacity:1;fill-rule:nonzero;stroke:none"
         id="text12423"><tspan
           x="0 5.5869842 11.173968 13.96746 19.554443 25.141428"
           y="0"
           sodipodi:role="line"
           id="tspan12421">25.911</tspan></text>
    </g>
    <g
       id="g12425"
       transform="matrix(0.35277777,0,0,-0.35277777,-16.110382,260.684)">
      <text
         transform="matrix(1,0,0,-1,87.704,687.005)"
         style="font-variant:normal;font-weight:normal;font-size:10.998px;font-family:Calibri;-inkscape-font-specification:Calibri;writing-mode:lr-tb;fill:#000000;fill-opacity:1;fill-rule:nonzero;stroke:none"
         id="text12429"><tspan
           x="0"
           y="0"
           id="tspan12427">5</tspan></text>
    </g>
    <g
       id="g12431"
       transform="matrix(0.35277777,0,0,-0.35277777,-16.110382,260.684)">
      <text
         transform="matrix(1,0,0,-1,125.887,686.693)"
         style="font-variant:normal;font-weight:normal;font-size:10.998px;font-family:Calibri;-inkscape-font-specification:Calibri;writing-mode:lr-tb;fill:#000000;fill-opacity:1;fill-rule:nonzero;stroke:none"
         id="text12435"><tspan
           x="0 5.5869842 8.380476 13.96746 19.554443"
           y="0"
           sodipodi:role="line"
           id="tspan12433">4.937</tspan></text>
    </g>
    <g
       id="g12437"
       transform="matrix(0.35277777,0,0,-0.35277777,-16.110382,260.684)">
      <text
         transform="matrix(1,0,0,-1,174.104,686.693)"
         style="font-variant:normal;font-weight:normal;font-size:10.998px;font-family:Calibri;-inkscape-font-specification:Calibri;writing-mode:lr-tb;fill:#000000;fill-opacity:1;fill-rule:nonzero;stroke:none"
         id="text12441"><tspan
           x="0 5.5869842 8.380476 13.96746 19.554443"
           y="0"
           sodipodi:role="line"
           id="tspan12439">7.797</tspan></text>
    </g>
    <g
       id="g12443"
       transform="matrix(0.35277777,0,0,-0.35277777,-16.110382,260.684)">
      <text
         transform="matrix(1,0,0,-1,216.794,686.693)"
         style="font-variant:normal;font-weight:normal;font-size:10.998px;font-family:Calibri;-inkscape-font-specification:Calibri;writing-mode:lr-tb;fill:#000000;fill-opacity:1;fill-rule:nonzero;stroke:none"
         id="text12447"><tspan
           x="0 5.5869842 11.173968 13.96746 19.554443 25.141428"
           y="0"
           sodipodi:role="line"
           id="tspan12445">13.329</tspan></text>
    </g>
    <g
       id="g12449"
       transform="matrix(0.35277777,0,0,-0.35277777,-16.110382,260.684)">
      <text
         transform="matrix(1,0,0,-1,265.011,686.693)"
         style="font-variant:normal;font-weight:normal;font-size:10.998px;font-family:Calibri;-inkscape-font-specification:Calibri;writing-mode:lr-tb;fill:#000000;fill-opacity:1;fill-rule:nonzero;stroke:none"
         id="text12453"><tspan
           x="0 5.5869842 11.173968 13.96746 19.554443 25.141428"
           y="0"
           sodipodi:role="line"
           id="tspan12451">11.365</tspan></text>
    </g>
    <g
       id="g12455"
       transform="matrix(0.35277777,0,0,-0.35277777,-16.110382,260.684)">
      <text
         transform="matrix(1,0,0,-1,313.313,686.693)"
         style="font-variant:normal;font-weight:normal;font-size:10.998px;font-family:Calibri;-inkscape-font-specification:Calibri;writing-mode:lr-tb;fill:#000000;fill-opacity:1;fill-rule:nonzero;stroke:none"
         id="text12459"><tspan
           x="0 5.5869842 11.173968 13.96746 19.554443 25.141428"
           y="0"
           sodipodi:role="line"
           id="tspan12457">22.652</tspan></text>
    </g>
    <g
       id="g12461"
       transform="matrix(0.35277777,0,0,-0.35277777,-16.110382,260.684)">
      <text
         transform="matrix(1,0,0,-1,361.502,686.693)"
         style="font-variant:normal;font-weight:normal;font-size:10.998px;font-family:Calibri;-inkscape-font-specification:Calibri;writing-mode:lr-tb;fill:#000000;fill-opacity:1;fill-rule:nonzero;stroke:none"
         id="text12465"><tspan
           x="0 5.5869842 11.173968 13.96746 19.554443 25.141428"
           y="0"
           sodipodi:role="line"
           id="tspan12463">26.861</tspan></text>
    </g>
    <g
       id="g12467"
       transform="matrix(0.35277777,0,0,-0.35277777,-16.110382,260.684)">
      <text
         transform="matrix(1,0,0,-1,84.898,673.313)"
         style="font-variant:normal;font-weight:normal;font-size:10.998px;font-family:Calibri;-inkscape-font-specification:Calibri;writing-mode:lr-tb;fill:#000000;fill-opacity:1;fill-rule:nonzero;stroke:none"
         id="text12471"><tspan
           x="0 5.5869842"
           y="0"
           sodipodi:role="line"
           id="tspan12469">10</tspan></text>
    </g>
    <g
       id="g12473"
       transform="matrix(0.35277777,0,0,-0.35277777,-16.110382,260.684)">
      <text
         transform="matrix(1,0,0,-1,125.887,672.888)"
         style="font-variant:normal;font-weight:normal;font-size:10.998px;font-family:Calibri;-inkscape-font-specification:Calibri;writing-mode:lr-tb;fill:#000000;fill-opacity:1;fill-rule:nonzero;stroke:none"
         id="text12477"><tspan
           x="0 5.5869842 8.380476 13.96746 19.554443"
           y="0"
           sodipodi:role="line"
           id="tspan12475">6.295</tspan></text>
    </g>
    <g
       id="g12479"
       transform="matrix(0.35277777,0,0,-0.35277777,-16.110382,260.684)">
      <text
         transform="matrix(1,0,0,-1,174.104,672.888)"
         style="font-variant:normal;font-weight:normal;font-size:10.998px;font-family:Calibri;-inkscape-font-specification:Calibri;writing-mode:lr-tb;fill:#000000;fill-opacity:1;fill-rule:nonzero;stroke:none"
         id="text12483"><tspan
           x="0 5.5869842 8.380476 13.96746 19.554443"
           y="0"
           sodipodi:role="line"
           id="tspan12481">6.656</tspan></text>
    </g>
    <g
       id="g12485"
       transform="matrix(0.35277777,0,0,-0.35277777,-16.110382,260.684)">
      <text
         transform="matrix(1,0,0,-1,222.406,672.888)"
         style="font-variant:normal;font-weight:normal;font-size:10.998px;font-family:Calibri;-inkscape-font-specification:Calibri;writing-mode:lr-tb;fill:#000000;fill-opacity:1;fill-rule:nonzero;stroke:none"
         id="text12489"><tspan
           x="0 5.5869842 8.380476 13.96746 19.554443"
           y="0"
           sodipodi:role="line"
           id="tspan12487">6.835</tspan></text>
    </g>
    <g
       id="g12491"
       transform="matrix(0.35277777,0,0,-0.35277777,-16.110382,260.684)">
      <text
         transform="matrix(1,0,0,-1,265.011,672.888)"
         style="font-variant:normal;font-weight:normal;font-size:10.998px;font-family:Calibri;-inkscape-font-specification:Calibri;writing-mode:lr-tb;fill:#000000;fill-opacity:1;fill-rule:nonzero;stroke:none"
         id="text12495"><tspan
           x="0 5.5869842 11.173968 13.96746 19.554443 25.141428"
           y="0"
           sodipodi:role="line"
           id="tspan12493">12.576</tspan></text>
    </g>
    <g
       id="g12497"
       transform="matrix(0.35277777,0,0,-0.35277777,-16.110382,260.684)">
      <text
         transform="matrix(1,0,0,-1,313.313,672.888)"
         style="font-variant:normal;font-weight:normal;font-size:10.998px;font-family:Calibri;-inkscape-font-specification:Calibri;writing-mode:lr-tb;fill:#000000;fill-opacity:1;fill-rule:nonzero;stroke:none"
         id="text12501"><tspan
           x="0 5.5869842 11.173968 13.96746 19.554443 25.141428"
           y="0"
           sodipodi:role="line"
           id="tspan12499">29.914</tspan></text>
    </g>
    <g
       id="g12503"
       transform="matrix(0.35277777,0,0,-0.35277777,-16.110382,260.684)">
      <text
         transform="matrix(1,0,0,-1,361.502,672.888)"
         style="font-variant:normal;font-weight:normal;font-size:10.998px;font-family:Calibri;-inkscape-font-specification:Calibri;writing-mode:lr-tb;fill:#000000;fill-opacity:1;fill-rule:nonzero;stroke:none"
         id="text12507"><tspan
           x="0 5.5869842 11.173968 13.96746 19.554443 25.141428"
           y="0"
           sodipodi:role="line"
           id="tspan12505">25.399</tspan></text>
    </g>
    <g
       id="g12509"
       transform="matrix(0.35277777,0,0,-0.35277777,-16.110382,260.684)">
      <text
         transform="matrix(1,0,0,-1,84.898,659.197)"
         style="font-variant:normal;font-weight:normal;font-size:10.998px;font-family:Calibri;-inkscape-font-specification:Calibri;writing-mode:lr-tb;fill:#000000;fill-opacity:1;fill-rule:nonzero;stroke:none"
         id="text12513"><tspan
           x="0 5.5869842"
           y="0"
           sodipodi:role="line"
           id="tspan12511">20</tspan></text>
    </g>
    <g
       id="g12515"
       transform="matrix(0.35277777,0,0,-0.35277777,-16.110382,260.684)">
      <text
         transform="matrix(1,0,0,-1,131.499,658.602)"
         style="font-variant:normal;font-weight:normal;font-size:10.998px;font-family:Calibri;-inkscape-font-specification:Calibri;writing-mode:lr-tb;fill:#000000;fill-opacity:1;fill-rule:nonzero;stroke:none"
         id="text12519"><tspan
           x="0 5.5869842 8.380476 13.96746"
           y="0"
           sodipodi:role="line"
           id="tspan12517">5.43</tspan></text>
    </g>
    <g
       id="g12521"
       transform="matrix(0.35277777,0,0,-0.35277777,-16.110382,260.684)">
      <text
         transform="matrix(1,0,0,-1,174.104,658.602)"
         style="font-variant:normal;font-weight:normal;font-size:10.998px;font-family:Calibri;-inkscape-font-specification:Calibri;writing-mode:lr-tb;fill:#000000;fill-opacity:1;fill-rule:nonzero;stroke:none"
         id="text12525"><tspan
           x="0 5.5869842 8.380476 13.96746 19.554443"
           y="0"
           sodipodi:role="line"
           id="tspan12523">6.016</tspan></text>
    </g>
    <g
       id="g12527"
       transform="matrix(0.35277777,0,0,-0.35277777,-16.110382,260.684)">
      <text
         transform="matrix(1,0,0,-1,222.406,658.602)"
         style="font-variant:normal;font-weight:normal;font-size:10.998px;font-family:Calibri;-inkscape-font-specification:Calibri;writing-mode:lr-tb;fill:#000000;fill-opacity:1;fill-rule:nonzero;stroke:none"
         id="text12531"><tspan
           x="0 5.5869842 8.380476 13.96746 19.554443"
           y="0"
           sodipodi:role="line"
           id="tspan12529">6.922</tspan></text>
    </g>
    <g
       id="g12533"
       transform="matrix(0.35277777,0,0,-0.35277777,-16.110382,260.684)">
      <text
         transform="matrix(1,0,0,-1,265.011,658.602)"
         style="font-variant:normal;font-weight:normal;font-size:10.998px;font-family:Calibri;-inkscape-font-specification:Calibri;writing-mode:lr-tb;fill:#000000;fill-opacity:1;fill-rule:nonzero;stroke:none"
         id="text12537"><tspan
           x="0 5.5869842 11.173968 13.96746 19.554443 25.141428"
           y="0"
           sodipodi:role="line"
           id="tspan12535">12.128</tspan></text>
    </g>
    <g
       id="g12539"
       transform="matrix(0.35277777,0,0,-0.35277777,-16.110382,260.684)">
      <text
         transform="matrix(1,0,0,-1,313.313,658.602)"
         style="font-variant:normal;font-weight:normal;font-size:10.998px;font-family:Calibri;-inkscape-font-specification:Calibri;writing-mode:lr-tb;fill:#000000;fill-opacity:1;fill-rule:nonzero;stroke:none"
         id="text12543"><tspan
           x="0 5.5869842 11.173968 13.96746 19.554443 25.141428"
           y="0"
           sodipodi:role="line"
           id="tspan12541">19.171</tspan></text>
    </g>
    <g
       id="g12545"
       transform="matrix(0.35277777,0,0,-0.35277777,-16.110382,260.684)">
      <text
         transform="matrix(1,0,0,-1,367.087,658.602)"
         style="font-variant:normal;font-weight:normal;font-size:10.998px;font-family:Calibri;-inkscape-font-specification:Calibri;writing-mode:lr-tb;fill:#000000;fill-opacity:1;fill-rule:nonzero;stroke:none"
         id="text12549"><tspan
           x="0 5.5869842 11.173968 13.96746 19.554443"
           y="0"
           sodipodi:role="line"
           id="tspan12547">17.02</tspan></text>
    </g>
    <g
       id="g12551"
       transform="matrix(0.35277777,0,0,-0.35277777,-16.110382,260.684)">
      <text
         transform="matrix(1,0,0,-1,84.898,644.598)"
         style="font-variant:normal;font-weight:normal;font-size:10.998px;font-family:Calibri;-inkscape-font-specification:Calibri;writing-mode:lr-tb;fill:#000000;fill-opacity:1;fill-rule:nonzero;stroke:none"
         id="text12555"><tspan
           x="0 5.5869842"
           y="0"
           sodipodi:role="line"
           id="tspan12553">50</tspan></text>
    </g>
    <g
       id="g12557"
       transform="matrix(0.35277777,0,0,-0.35277777,-16.110382,260.684)">
      <text
         transform="matrix(1,0,0,-1,125.887,643.691)"
         style="font-variant:normal;font-weight:normal;font-size:10.998px;font-family:Calibri;-inkscape-font-specification:Calibri;writing-mode:lr-tb;fill:#000000;fill-opacity:1;fill-rule:nonzero;stroke:none"
         id="text12561"><tspan
           x="0 5.5869842 8.380476 13.96746 19.554443"
           y="0"
           sodipodi:role="line"
           id="tspan12559">3.925</tspan></text>
    </g>
    <g
       id="g12563"
       transform="matrix(0.35277777,0,0,-0.35277777,-16.110382,260.684)">
      <text
         transform="matrix(1,0,0,-1,168.491,643.691)"
         style="font-variant:normal;font-weight:normal;font-size:10.998px;font-family:Calibri;-inkscape-font-specification:Calibri;writing-mode:lr-tb;fill:#000000;fill-opacity:1;fill-rule:nonzero;stroke:none"
         id="text12567"><tspan
           x="0 5.5869842 11.173968 13.96746 19.554443 25.141428"
           y="0"
           sodipodi:role="line"
           id="tspan12565">10.561</tspan></text>
    </g>
    <g
       id="g12569"
       transform="matrix(0.35277777,0,0,-0.35277777,-16.110382,260.684)">
      <text
         transform="matrix(1,0,0,-1,222.406,643.691)"
         style="font-variant:normal;font-weight:normal;font-size:10.998px;font-family:Calibri;-inkscape-font-specification:Calibri;writing-mode:lr-tb;fill:#000000;fill-opacity:1;fill-rule:nonzero;stroke:none"
         id="text12573"><tspan
           x="0 5.5869842 8.380476 13.96746 19.554443"
           y="0"
           sodipodi:role="line"
           id="tspan12571">7.524</tspan></text>
    </g>
    <g
       id="g12575"
       transform="matrix(0.35277777,0,0,-0.35277777,-16.110382,260.684)">
      <text
         transform="matrix(1,0,0,-1,265.011,643.691)"
         style="font-variant:normal;font-weight:normal;font-size:10.998px;font-family:Calibri;-inkscape-font-specification:Calibri;writing-mode:lr-tb;fill:#000000;fill-opacity:1;fill-rule:nonzero;stroke:none"
         id="text12579"><tspan
           x="0 5.5869842 11.173968 13.96746 19.554443 25.141428"
           y="0"
           sodipodi:role="line"
           id="tspan12577">12.806</tspan></text>
    </g>
    <g
       id="g12581"
       transform="matrix(0.35277777,0,0,-0.35277777,-16.110382,260.684)">
      <text
         transform="matrix(1,0,0,-1,313.313,643.691)"
         style="font-variant:normal;font-weight:normal;font-size:10.998px;font-family:Calibri;-inkscape-font-specification:Calibri;writing-mode:lr-tb;fill:#000000;fill-opacity:1;fill-rule:nonzero;stroke:none"
         id="text12585"><tspan
           x="0 5.5869842 11.173968 13.96746 19.554443 25.141428"
           y="0"
           sodipodi:role="line"
           id="tspan12583">10.223</tspan></text>
    </g>
    <g
       id="g12587"
       transform="matrix(0.35277777,0,0,-0.35277777,-16.110382,260.684)">
      <text
         transform="matrix(1,0,0,-1,361.502,643.691)"
         style="font-variant:normal;font-weight:normal;font-size:10.998px;font-family:Calibri;-inkscape-font-specification:Calibri;writing-mode:lr-tb;fill:#000000;fill-opacity:1;fill-rule:nonzero;stroke:none"
         id="text12591"><tspan
           x="0 5.5869842 11.173968 13.96746 19.554443 25.141428"
           y="0"
           sodipodi:role="line"
           id="tspan12589">15.109</tspan></text>
    </g>
    <g
       id="g12593"
       transform="matrix(0.35277777,0,0,-0.35277777,-16.110382,260.684)">
      <text
         transform="matrix(1,0,0,-1,82.091,630.312)"
         style="font-variant:normal;font-weight:normal;font-size:10.998px;font-family:Calibri;-inkscape-font-specification:Calibri;writing-mode:lr-tb;fill:#000000;fill-opacity:1;fill-rule:nonzero;stroke:none"
         id="text12597"><tspan
           x="0 5.5869842 11.173968"
           y="0"
           sodipodi:role="line"
           id="tspan12595">100</tspan></text>
    </g>
    <g
       id="g12599"
       transform="matrix(0.35277777,0,0,-0.35277777,-16.110382,260.684)">
      <text
         transform="matrix(1,0,0,-1,125.887,629.887)"
         style="font-variant:normal;font-weight:normal;font-size:10.998px;font-family:Calibri;-inkscape-font-specification:Calibri;writing-mode:lr-tb;fill:#000000;fill-opacity:1;fill-rule:nonzero;stroke:none"
         id="text12603"><tspan
           x="0 5.5869842 8.380476 13.96746 19.554443"
           y="0"
           sodipodi:role="line"
           id="tspan12601">5.235</tspan></text>
    </g>
    <g
       id="g12605"
       transform="matrix(0.35277777,0,0,-0.35277777,-16.110382,260.684)">
      <text
         transform="matrix(1,0,0,-1,174.104,629.887)"
         style="font-variant:normal;font-weight:normal;font-size:10.998px;font-family:Calibri;-inkscape-font-specification:Calibri;writing-mode:lr-tb;fill:#000000;fill-opacity:1;fill-rule:nonzero;stroke:none"
         id="text12609"><tspan
           x="0 5.5869842 8.380476 13.96746 19.554443"
           y="0"
           sodipodi:role="line"
           id="tspan12607">5.635</tspan></text>
    </g>
    <g
       id="g12611"
       transform="matrix(0.35277777,0,0,-0.35277777,-16.110382,260.684)">
      <text
         transform="matrix(1,0,0,-1,216.794,629.887)"
         style="font-variant:normal;font-weight:normal;font-size:10.998px;font-family:Calibri;-inkscape-font-specification:Calibri;writing-mode:lr-tb;fill:#000000;fill-opacity:1;fill-rule:nonzero;stroke:none"
         id="text12615"><tspan
           x="0 5.5869842 11.173968 13.96746 19.554443 25.141428"
           y="0"
           sodipodi:role="line"
           id="tspan12613">10.095</tspan></text>
    </g>
    <g
       id="g12617"
       transform="matrix(0.35277777,0,0,-0.35277777,-16.110382,260.684)">
      <text
         transform="matrix(1,0,0,-1,265.011,629.887)"
         style="font-variant:normal;font-weight:normal;font-size:10.998px;font-family:Calibri;-inkscape-font-specification:Calibri;writing-mode:lr-tb;fill:#000000;fill-opacity:1;fill-rule:nonzero;stroke:none"
         id="text12621"><tspan
           x="0 5.5869842 11.173968 13.96746 19.554443 25.141428"
           y="0"
           sodipodi:role="line"
           id="tspan12619">11.638</tspan></text>
    </g>
    <g
       id="g12623"
       transform="matrix(0.35277777,0,0,-0.35277777,-16.110382,260.684)">
      <text
         transform="matrix(1,0,0,-1,313.313,629.887)"
         style="font-variant:normal;font-weight:normal;font-size:10.998px;font-family:Calibri;-inkscape-font-specification:Calibri;writing-mode:lr-tb;fill:#000000;fill-opacity:1;fill-rule:nonzero;stroke:none"
         id="text12627"><tspan
           x="0 5.5869842 11.173968 13.96746 19.554443 25.141428"
           y="0"
           sodipodi:role="line"
           id="tspan12625">25.115</tspan></text>
    </g>
    <g
       id="g12629"
       transform="matrix(0.35277777,0,0,-0.35277777,-16.110382,260.684)">
      <text
         transform="matrix(1,0,0,-1,361.502,629.887)"
         style="font-variant:normal;font-weight:normal;font-size:10.998px;font-family:Calibri;-inkscape-font-specification:Calibri;writing-mode:lr-tb;fill:#000000;fill-opacity:1;fill-rule:nonzero;stroke:none"
         id="text12633"><tspan
           x="0 5.5869842 11.173968 13.96746 19.554443 25.141428"
           y="0"
           sodipodi:role="line"
           id="tspan12631">23.211</tspan></text>
    </g>
  </g>
</svg>
